<svg width="21" height="20" viewBox="0 0 21 20" fill="none" xmlns="http://www.w3.org/2000/svg">
<g id="vector">
<path id="Caminho 63515" d="M11.5351 18.9674C11.5341 18.6935 11.4245 18.4312 11.2305 18.238C11.0365 18.0448 10.7738 17.9365 10.5 17.9367C8.6471 17.9339 6.8541 17.2798 5.43432 16.0887C4.01454 14.8977 3.05826 13.2454 2.73259 11.4206C2.40692 9.59576 2.73257 7.71449 3.65263 6.10549C4.57269 4.4965 6.02866 3.2621 7.76611 2.618C9.50356 1.97389 11.412 1.96105 13.158 2.5817C14.9039 3.20236 16.3764 4.41705 17.318 6.01351C18.2596 7.60997 18.6105 9.48669 18.3094 11.3157C18.0083 13.1447 17.0744 14.8098 15.6707 16.0198V13.1035C15.6707 12.8291 15.5618 12.566 15.3678 12.372C15.1739 12.178 14.9109 12.069 14.6366 12.069C14.3623 12.069 14.0993 12.178 13.9053 12.372C13.7114 12.566 13.6024 12.8291 13.6024 13.1035V17.9367C13.603 18.0726 13.6302 18.207 13.6827 18.3323C13.7351 18.4577 13.8117 18.5714 13.9081 18.6671C14.0045 18.7628 14.1188 18.8386 14.2444 18.8901C14.3701 18.9416 14.5047 18.9679 14.6405 18.9674H19.4659C19.7401 18.9674 20.0032 18.8584 20.1971 18.6644C20.391 18.4703 20.5 18.2072 20.5 17.9328C20.5 17.6584 20.391 17.3953 20.1971 17.2013C20.0032 17.0072 19.7401 16.8982 19.4659 16.8982H17.7429C18.6913 15.901 19.4238 14.7188 19.8945 13.4254C20.3652 12.132 20.5641 10.7553 20.4786 9.38154C20.3931 8.00775 20.0251 6.66639 19.3976 5.4414C18.7702 4.21641 17.8968 3.13415 16.8321 2.26233C15.7674 1.39051 14.5343 0.747895 13.2099 0.374696C11.8856 0.00149614 10.4985 -0.094256 9.13545 0.0934282C7.77242 0.281112 6.46277 0.748195 5.28845 1.46545C4.11413 2.18271 3.10041 3.1347 2.31073 4.26186C1.13284 5.93484 0.500423 7.93105 0.5 9.97737C0.500238 10.5663 0.551817 11.1542 0.654146 11.7342C1.06259 14.05 2.27346 16.1479 4.07417 17.6595C5.87488 19.1711 8.15032 19.9998 10.501 20C10.7751 19.9997 11.0379 19.8906 11.2316 19.6966C11.4253 19.5026 11.5341 19.2396 11.5341 18.9654L11.5351 18.9674Z" fill="white"/>
</g>
</svg>
