<svg width="130" height="130" viewBox="0 0 130 130" fill="none" xmlns="http://www.w3.org/2000/svg">
<g id="ic-alert-error">
<g id="Group 2">
<g id="Elipse 257">
<path id="Vector (Stroke)" fill-rule="evenodd" clip-rule="evenodd" d="M64.9978 7.14258C33.0441 7.14258 7.14062 33.0461 7.14062 64.9997C7.14062 96.9533 33.0441 122.857 64.9978 122.857C96.9514 122.857 122.855 96.9533 122.855 64.9997C122.855 33.0461 96.9514 7.14258 64.9978 7.14258ZM2.14062 64.9997C2.14062 30.2847 30.2827 2.14258 64.9978 2.14258C99.7128 2.14258 127.855 30.2847 127.855 64.9997C127.855 99.7148 99.7128 127.857 64.9978 127.857C30.2827 127.857 2.14062 99.7148 2.14062 64.9997Z" fill="#0C2143"/>
</g>
<g id="Grupo 22685">
<path id="Linha 106 (Stroke)" fill-rule="evenodd" clip-rule="evenodd" d="M85.3442 44.6653C86.3205 45.6416 86.3205 47.2246 85.3442 48.2009L48.2014 85.3437C47.225 86.32 45.6421 86.32 44.6658 85.3437C43.6895 84.3674 43.6895 82.7845 44.6658 81.8082L81.8087 44.6653C82.785 43.689 84.3679 43.689 85.3442 44.6653Z" fill="#0C2143"/>
<path id="Linha 107 (Stroke)" fill-rule="evenodd" clip-rule="evenodd" d="M44.6658 44.6653C45.6421 43.689 47.225 43.689 48.2014 44.6653L85.3442 81.8082C86.3205 82.7845 86.3205 84.3674 85.3442 85.3437C84.3679 86.32 82.785 86.32 81.8087 85.3437L44.6658 48.2009C43.6895 47.2246 43.6895 45.6416 44.6658 44.6653Z" fill="#0C2143"/>
</g>
</g>
</g>
</svg>
