<svg width="24" height="24" viewBox="0 0 24 24" fill="none" xmlns="http://www.w3.org/2000/svg">
<g id="ic-check">
<path id="Vector (Stroke)" fill-rule="evenodd" clip-rule="evenodd" d="M4.88857 4.25C4.74302 4.25 4.58791 4.31057 4.46192 4.44397C4.33364 4.57979 4.25 4.77852 4.25 4.99967V19.0003C4.25 19.2215 4.33364 19.4202 4.46192 19.556C4.58791 19.6894 4.74302 19.75 4.88857 19.75H18.1114C18.257 19.75 18.4121 19.6894 18.5381 19.556C18.6664 19.4202 18.75 19.2215 18.75 19.0003V11.9974C18.75 11.307 19.3096 10.7474 20 10.7474C20.6904 10.7474 21.25 11.307 21.25 11.9974V19.0003C21.25 19.8399 20.9357 20.6584 20.3556 21.2726C19.7733 21.8892 18.9676 22.25 18.1114 22.25H4.88857C4.03237 22.25 3.22674 21.8892 2.64438 21.2726C2.06431 20.6584 1.75 19.8399 1.75 19.0003V4.99967C1.75 4.16012 2.06431 3.3416 2.64438 2.72741C3.22675 2.11079 4.03237 1.75 4.88857 1.75H15.2782C15.9686 1.75 16.5282 2.30964 16.5282 3C16.5282 3.69036 15.9686 4.25 15.2782 4.25H4.88857ZM21.8563 3.08933C22.3592 3.56224 22.3836 4.35332 21.9107 4.85626L13.4483 13.8563C13.212 14.1075 12.8825 14.25 12.5376 14.25C12.1927 14.25 11.8631 14.1075 11.6269 13.8562L9.08924 11.1567C8.61639 10.6537 8.64084 9.86262 9.14384 9.38978C9.64684 8.91693 10.4379 8.94138 10.9108 9.44438L12.5377 11.1751L20.0893 3.14374C20.5622 2.64079 21.3533 2.61643 21.8563 3.08933Z" fill="#0C244E"/>
</g>
</svg>
