<svg width="24" height="24" viewBox="0 0 24 24" fill="none" xmlns="http://www.w3.org/2000/svg">
<g id="ic-car">
<path id="Caminho 70646" d="M23 12.9969C22.999 12.5798 22.9052 12.168 22.7252 11.7906C22.7068 11.6955 22.6862 11.6004 22.6603 11.5042L20.7496 6.82738L20.7366 6.78571C20.068 4.81966 19.1137 3 16.7042 3H7.48077C5.00856 3 4.13544 4.86453 3.45166 6.77502L1.45333 11.4604C1.15852 11.9201 1.00136 12.4528 1 12.9969V14.4522C0.999856 14.6735 1.026 14.8941 1.0779 15.1093C1.02655 15.2406 1.00014 15.38 1 15.5207V19.8492C1 20.1541 1.12265 20.4466 1.34097 20.6622C1.5593 20.8778 1.85541 20.9989 2.16416 20.9989H4.57903C4.8876 20.9986 5.18343 20.8774 5.40152 20.6618C5.6196 20.4462 5.74211 20.154 5.74211 19.8492V17.6855H18.3953V19.8503C18.3953 20.1552 18.518 20.4476 18.7363 20.6633C18.9546 20.8789 19.2507 21 19.5595 21H21.8315C22.1403 21 22.4364 20.8789 22.6547 20.6633C22.873 20.4476 22.9957 20.1552 22.9957 19.8503V15.5207C22.9954 15.38 22.969 15.2406 22.9178 15.1093C22.9695 14.894 22.9957 14.6735 22.9957 14.4522V12.9969H23ZM4.87007 7.24089C5.62742 5.12098 6.24304 4.47346 7.48077 4.47346H16.7042C17.9322 4.47346 18.6171 5.19577 19.3117 7.23127L20.7063 10.0222C20.2313 9.84985 19.729 9.76229 19.223 9.76362H4.77702C4.32008 9.76363 3.86607 9.83577 3.43218 9.97732L4.87007 7.24089ZM6.06777 15.0046H3.51982C3.29945 15.0046 3.0881 14.9182 2.93227 14.7643C2.77644 14.6104 2.6889 14.4017 2.6889 14.184C2.6889 13.9664 2.77644 13.7577 2.93227 13.6038C3.0881 13.4499 3.29945 13.3634 3.51982 13.3634H6.06885C6.28923 13.3634 6.50057 13.4499 6.6564 13.6038C6.81223 13.7577 6.89977 13.9664 6.89977 14.184C6.89977 14.4017 6.81223 14.6104 6.6564 14.7643C6.50057 14.9182 6.28814 15.0046 6.06777 15.0046ZM15.0651 14.8401H9.14262C9.00302 14.8401 8.86914 14.7853 8.77043 14.6878C8.67172 14.5903 8.61626 14.4581 8.61626 14.3203C8.61626 14.1824 8.67172 14.0502 8.77043 13.9527C8.86914 13.8552 9.00302 13.8004 9.14262 13.8004H15.0651C15.2047 13.8004 15.3386 13.8552 15.4373 13.9527C15.536 14.0502 15.5915 14.1824 15.5915 14.3203C15.5915 14.4581 15.536 14.5903 15.4373 14.6878C15.3386 14.7853 15.2047 14.8401 15.0651 14.8401ZM20.4109 15.0046H17.8673C17.6469 15.0046 17.4356 14.9182 17.2798 14.7643C17.1239 14.6104 17.0364 14.4017 17.0364 14.184C17.0364 13.9664 17.1239 13.7577 17.2798 13.6038C17.4356 13.4499 17.6469 13.3634 17.8673 13.3634H20.4153C20.6356 13.3634 20.847 13.4499 21.0028 13.6038C21.1586 13.7577 21.2462 13.9664 21.2462 14.184C21.2462 14.4017 21.1586 14.6104 21.0028 14.7643C20.847 14.9182 20.6356 15.0046 20.4153 15.0046H20.4109Z" fill="#0C244E"/>
</g>
</svg>
