<svg id="ziyon-permissions" xmlns="http://www.w3.org/2000/svg" width="24" height="24" viewBox="0 0 24 24">
  <rect id="Retângulo_1200" data-name="Retângulo 1200" width="24" height="24" fill="none"/>
  <g id="Grupo_30492" data-name="Grupo 30492" transform="translate(-181.214 -1534.755)">
    <g id="Layer_2" data-name="Layer 2" transform="translate(182.727 1535.041)">
      <path id="Caminho_70546" data-name="Caminho 70546" d="M12.736,24.359a2.422,2.422,0,0,1-1.082-.254L7.452,22a9.359,9.359,0,0,1-5.2-8.417V7.465a2.947,2.947,0,0,1,2.367-2.9,14.234,14.234,0,0,0,2.957-.923A14.192,14.192,0,0,0,10.9,1.607a2.9,2.9,0,0,1,3.672,0A14.229,14.229,0,0,0,17.9,3.647a14.235,14.235,0,0,0,2.957.923,2.948,2.948,0,0,1,2.366,2.9v6.123A9.36,9.36,0,0,1,18.02,22l-4.2,2.1a2.421,2.421,0,0,1-1.082.254Zm0-21.8a1.28,1.28,0,0,0-.813.29,15.82,15.82,0,0,1-3.7,2.271A15.832,15.832,0,0,1,4.927,6.152,1.332,1.332,0,0,0,3.863,7.465v6.123a7.754,7.754,0,0,0,4.31,6.974l4.2,2.1a.815.815,0,0,0,.722,0l4.2-2.1a7.754,7.754,0,0,0,4.309-6.974V7.465a1.332,1.332,0,0,0-1.064-1.312,15.853,15.853,0,0,1-3.292-1.027,15.835,15.835,0,0,1-3.7-2.272,1.277,1.277,0,0,0-.812-.29Z" transform="translate(-2.25 -0.951)" fill="#0c2143" stroke="#0c2143" stroke-width="0.2"/>
    </g>
  </g>
  <g id="Elipse_286" data-name="Elipse 286" transform="translate(6.5 7)" fill="none" stroke="#0c2143" stroke-width="1.4">
    <circle cx="5.5" cy="5.5" r="5.5" stroke="none"/>
    <circle cx="5.5" cy="5.5" r="4.8" fill="none"/>
  </g>
  <path id="Caminho_70550" data-name="Caminho 70550" d="M6273.853,1501.2l1.616,1.616,2.408-2.407" transform="translate(-6434.665 -264.034) rotate(-11)" fill="none" stroke="#0c2143" stroke-linecap="round" stroke-linejoin="round" stroke-width="1.4"/>
</svg>
