<svg width="24" height="24" viewBox="0 0 24 24" fill="none" xmlns="http://www.w3.org/2000/svg">
<g id="ic-envelope">
<path id="ic-envelope_2" d="M3.41305 21H20.9131C22.8695 21 24 19.9136 24 17.7615V6.2281C24 4.08648 22.8587 3 20.5869 3H3.08695C1.13043 3 0 4.07603 0 6.2281V17.7615C0 19.924 1.14131 21 3.41305 21ZM3.34783 19.4017C2.26087 19.4017 1.66304 18.848 1.66304 17.7615V6.2281C1.66304 5.15207 2.26087 4.59838 3.34783 4.59838H20.6522C21.7174 4.59838 22.3369 5.15207 22.3369 6.23854V17.772C22.3369 18.848 21.7174 19.4017 20.6522 19.4017H3.34783ZM12.0217 14.7841C12.7826 14.7841 13.5217 14.4811 14.2826 13.7604L23.1087 5.42369L21.9782 4.32676L13.337 12.5276C12.8696 12.9768 12.4457 13.1753 12.0217 13.1753C11.587 13.1753 11.1631 12.9663 10.7066 12.5276L2.02174 4.28497L0.880435 5.3819L9.76084 13.7604C10.5218 14.4811 11.25 14.7841 12.0217 14.7841ZM21.8695 19.6315L23 18.5345L15.9674 11.859L14.837 12.9455L21.8695 19.6315ZM1.03261 18.545L2.16304 19.6419L9.20652 12.9455L8.06522 11.859L1.03261 18.545Z" fill="#0C244E"/>
</g>
</svg>
