<svg xmlns="http://www.w3.org/2000/svg" width="24.5" height="24" viewBox="0 0 24.5 24">
  <g id="ziyon-cloud" transform="translate(0.25)">
    <rect id="Retângulo_1200" data-name="Retângulo 1200" width="24" height="24" fill="none"/>
    <g id="icloud" transform="translate(0 3.65)">
      <g id="Grupo_30491" data-name="Grupo 30491" transform="translate(0 0)">
        <path id="Caminho_70545" data-name="Caminho 70545" d="M20.675,84.94q0-.094,0-.187a6.9,6.9,0,0,0-12.8-3.566A3.422,3.422,0,0,0,2.8,85.157a4.945,4.945,0,0,0,2.145,9.4H19.472a.722.722,0,0,0,.252-.045,4.946,4.946,0,0,0,.951-9.572ZM19.4,93.094a.731.731,0,0,0-.1.017H4.945a3.5,3.5,0,0,1-.959-6.863.723.723,0,0,0,.407-1.091A1.975,1.975,0,0,1,7.552,82.8a.723.723,0,0,0,1.216-.185,5.451,5.451,0,0,1,10.464,2.139,5.547,5.547,0,0,1-.038.642.723.723,0,0,0,.572.792,3.5,3.5,0,0,1-.364,6.907Z" transform="translate(0 -77.857)" fill="#0c2143" stroke="#0c2143" stroke-width="0.5"/>
      </g>
    </g>
  </g>
</svg>
