<svg width="24" height="24" viewBox="0 0 24 24" fill="none" xmlns="http://www.w3.org/2000/svg">
<g id="ic-less-fill">
<g id="line">
<g id="Grupo 4">
<path id="Caminho 3 (Stroke)" fill-rule="evenodd" clip-rule="evenodd" d="M3.00173 12.5C3.00077 12.2239 3.32827 12.0011 3.73321 12.0025L20.2667 12.0597C20.6716 12.0611 21.0007 12.2861 21.0016 12.5622C21.0026 12.8384 20.6751 13.0611 20.2701 13.0597L3.73666 13.0025C3.33173 13.0011 3.00268 12.7761 3.00173 12.5Z" fill="#0C244E"/>
<path id="Caminho 3 (Stroke) (Stroke)" fill-rule="evenodd" clip-rule="evenodd" d="M2.64855 11.3191C2.96716 11.1024 3.35232 11.0013 3.72929 11.0026L20.2628 11.0598C20.6397 11.0611 21.0256 11.1649 21.3457 11.3838C21.6608 11.5992 21.9992 11.9998 22.0012 12.5657C22.0031 13.1317 21.6675 13.53 21.3539 13.7432C21.0353 13.9599 20.6501 14.061 20.2731 14.0597L3.73967 14.0026C3.36269 14.0013 2.97683 13.8974 2.65671 13.6786C2.34166 13.4631 2.00324 13.0625 2.00128 12.4966C1.99932 11.9307 2.33498 11.5323 2.64855 11.3191ZM3.72502 12.0026C3.32365 12.004 3.00033 12.2257 3.00127 12.5C3.00222 12.7744 3.32709 12.9983 3.72847 13.0025C3.73105 13.0025 3.73363 13.0026 3.73621 13.0026L20.2697 13.0597C20.2723 13.0597 20.2748 13.0597 20.2774 13.0597C20.6788 13.0583 21.0021 12.8367 21.0012 12.5623C21.0002 12.2879 20.6754 12.064 20.274 12.0598C20.2714 12.0598 20.2688 12.0598 20.2662 12.0597L3.73275 12.0026C3.73017 12.0026 3.72759 12.0026 3.72502 12.0026ZM3.71991 12.0015C3.71992 12.0014 3.72106 12.0015 3.72326 12.0021C3.72099 12.0018 3.71989 12.0015 3.71991 12.0015ZM20.2791 12.0587C20.2791 12.0588 20.278 12.0591 20.2757 12.0593C20.2779 12.0588 20.2791 12.0586 20.2791 12.0587ZM20.2825 13.0609C20.2825 13.0609 20.2814 13.0608 20.2792 13.0602C20.2814 13.0605 20.2826 13.0608 20.2825 13.0609ZM3.72337 13.0036C3.72335 13.0035 3.72445 13.0032 3.72672 13.003C3.72452 13.0035 3.72339 13.0037 3.72337 13.0036Z" fill="#0C244E"/>
</g>
</g>
</g>
</svg>
