<svg width="26" height="26" viewBox="0 0 26 26" fill="none" xmlns="http://www.w3.org/2000/svg">
<g id="ic-warning">
<g id="Elipse 258">
<path id="Vector (Stroke)" fill-rule="evenodd" clip-rule="evenodd" d="M12.9983 2.85712C7.39658 2.85712 2.85547 7.39823 2.85547 13C2.85547 18.6017 7.39658 23.1428 12.9983 23.1428C18.6001 23.1428 23.1412 18.6017 23.1412 13C23.1412 7.39823 18.6001 2.85712 12.9983 2.85712ZM0.855469 13C0.855469 6.29366 6.29201 0.857117 12.9983 0.857117C19.7046 0.857117 25.1412 6.29366 25.1412 13C25.1412 19.7063 19.7046 25.1428 12.9983 25.1428C6.29201 25.1428 0.855469 19.7063 0.855469 13Z" fill="#FF5757"/>
</g>
<path id="Caminho 63515 (Stroke)" fill-rule="evenodd" clip-rule="evenodd" d="M13 17C13.5523 17 14 17.4477 14 18V18.0449C14 18.5972 13.5523 19.0449 13 19.0449C12.4477 19.0449 12 18.5972 12 18.0449V18C12 17.4477 12.4477 17 13 17Z" fill="#FF5757"/>
<path id="Caminho 63516 (Stroke)" fill-rule="evenodd" clip-rule="evenodd" d="M13 7C13.5523 7 14 7.44772 14 8V14C14 14.5523 13.5523 15 13 15C12.4477 15 12 14.5523 12 14V8C12 7.44772 12.4477 7 13 7Z" fill="#FF5757"/>
</g>
</svg>
