<svg width="24" height="24" viewBox="0 0 24 24" fill="none" xmlns="http://www.w3.org/2000/svg">
<g id="ic-question">
<path id="ic-question_2" d="M12 24C18.5648 24 24 18.553 24 12C24 5.4353 18.553 0 11.9883 0C5.4353 0 0 5.4353 0 12C0 18.553 5.44707 24 12 24ZM12 22.0001C6.44708 22.0001 2.01177 17.553 2.01177 12C2.01177 6.44708 6.43531 2.00001 11.9883 2.00001C17.5413 2.00001 22.0001 6.44708 22.0001 12C22.0001 17.553 17.553 22.0001 12 22.0001ZM11.7529 14.4353C12.3412 14.4353 12.7059 14.0588 12.7059 13.6001C12.7059 13.553 12.7059 13.4941 12.7059 13.4588C12.7059 12.8 13.0823 12.3765 13.9059 11.8354C15.0471 11.0824 15.8589 10.4 15.8589 8.98825C15.8589 7.03531 14.1177 5.97648 12.1177 5.97648C10.0942 5.97648 8.76473 6.94119 8.44707 8.02355C8.38825 8.21178 8.35296 8.40002 8.35296 8.60002C8.35296 9.12943 8.76473 9.41178 9.15296 9.41178C9.55296 9.41178 9.81179 9.22355 10.0236 8.9412L10.2353 8.65884C10.6471 7.97648 11.2588 7.57649 12.0471 7.57649C13.1177 7.57649 13.8118 8.18825 13.8118 9.08238C13.8118 9.88237 13.3177 10.2706 12.2942 10.9882C11.447 11.5764 10.8118 12.2 10.8118 13.353C10.8118 13.4001 10.8118 13.4588 10.8118 13.5059C10.8118 14.1177 11.153 14.4353 11.7529 14.4353ZM11.7294 17.9412C12.4118 17.9412 13 17.4 13 16.7176C13 16.0354 12.4236 15.4942 11.7294 15.4942C11.0353 15.4942 10.4589 16.0471 10.4589 16.7176C10.4589 17.3883 11.0471 17.9412 11.7294 17.9412Z" fill="#0C244E"/>
</g>
</svg>
