<svg width="24" height="24" viewBox="0 0 24 24" fill="none" xmlns="http://www.w3.org/2000/svg">
<g id="ic-ticket">
<path id="Caminho 70642" d="M17.2113 8C17.4205 8 17.6211 7.89478 17.769 7.70748C17.9169 7.52019 18 7.26616 18 7.00129C18 6.73642 17.9169 6.48239 17.769 6.2951C17.6211 6.1078 17.4205 6.00258 17.2113 6.00258V8ZM6.78872 6C6.57954 6 6.37893 6.10522 6.23101 6.29252C6.0831 6.47981 6 6.73384 6 6.99871C6 7.26358 6.0831 7.51761 6.23101 7.7049C6.37893 7.8922 6.57954 7.99742 6.78872 7.99742V6ZM17.2113 6H6.78872V8H17.2113V6Z" fill="#0C244E"/>
<path id="Caminho 70642 (Stroke)" fill-rule="evenodd" clip-rule="evenodd" d="M6.15097 6.23044C6.31483 6.02296 6.54281 5.8999 6.78716 5.8999H17.3097V5.9094C17.5157 5.93802 17.7046 6.05414 17.8459 6.23302C18.0093 6.43992 18.0984 6.71644 18.0984 7.00119C18.0984 7.28594 18.0093 7.56247 17.8459 7.76936C17.6821 7.97684 17.4541 8.0999 17.2097 8.0999H6.68716V8.09041C6.48117 8.06179 6.29224 7.94566 6.15097 7.76678C5.98758 7.55989 5.89844 7.28336 5.89844 6.99861C5.89844 6.71386 5.98758 6.43734 6.15097 6.23044ZM6.88716 7.8999H17.1097V6.0999H6.88716V7.8999ZM6.68716 6.10954C6.54805 6.13645 6.41453 6.21942 6.30793 6.3544C6.17549 6.52209 6.09844 6.75361 6.09844 6.99861C6.09844 7.24361 6.17549 7.47514 6.30793 7.64283C6.41453 7.77781 6.54805 7.86077 6.68716 7.88768V6.10954ZM17.3097 6.11212V7.89027C17.4488 7.86335 17.5824 7.78039 17.689 7.64541C17.8214 7.47772 17.8984 7.24619 17.8984 7.00119C17.8984 6.75619 17.8214 6.52467 17.689 6.35698C17.5824 6.222 17.4488 6.13903 17.3097 6.11212Z" fill="#0C244E"/>
<path id="Caminho 70643" d="M17.2113 12C17.4205 12 17.6211 11.8948 17.769 11.7075C17.9169 11.5202 18 11.2662 18 11.0013C18 10.7364 17.9169 10.4824 17.769 10.2951C17.6211 10.1078 17.4205 10.0026 17.2113 10.0026V12ZM6.78872 10C6.57954 10 6.37893 10.1052 6.23101 10.2925C6.0831 10.4798 6 10.7338 6 10.9987C6 11.2636 6.0831 11.5176 6.23101 11.7049C6.37893 11.8922 6.57954 11.9974 6.78872 11.9974V10ZM17.2113 10H6.78872V12H17.2113V10Z" fill="#0C244E"/>
<path id="Caminho 70643 (Stroke)" fill-rule="evenodd" clip-rule="evenodd" d="M6.15097 10.2304C6.31483 10.023 6.54281 9.8999 6.78716 9.8999H17.3097V9.9094C17.5157 9.93802 17.7046 10.0541 17.8459 10.233C18.0093 10.4399 18.0984 10.7164 18.0984 11.0012C18.0984 11.2859 18.0093 11.5625 17.8459 11.7694C17.6821 11.9768 17.4541 12.0999 17.2097 12.0999H6.68716V12.0904C6.48117 12.0618 6.29224 11.9457 6.15097 11.7668C5.98758 11.5599 5.89844 11.2834 5.89844 10.9986C5.89844 10.7139 5.98758 10.4373 6.15097 10.2304ZM6.88716 11.8999H17.1097V10.0999H6.88716V11.8999ZM6.68716 10.1095C6.54805 10.1365 6.41453 10.2194 6.30793 10.3544C6.17549 10.5221 6.09844 10.7536 6.09844 10.9986C6.09844 11.2436 6.17549 11.4751 6.30793 11.6428C6.41453 11.7778 6.54805 11.8608 6.68716 11.8877V10.1095ZM17.3097 10.1121V11.8903C17.4488 11.8634 17.5824 11.7804 17.689 11.6454C17.8214 11.4777 17.8984 11.2462 17.8984 11.0012C17.8984 10.7562 17.8214 10.5247 17.689 10.357C17.5824 10.222 17.4488 10.139 17.3097 10.1121Z" fill="#0C244E"/>
<path id="Caminho 70644" d="M13.0772 16C13.3219 16 13.5567 15.8948 13.7297 15.7075C13.9028 15.5202 14 15.2662 14 15.0013C14 14.7364 13.9028 14.4824 13.7297 14.2951C13.5567 14.1078 13.3219 14.0026 13.0772 14.0026V16ZM6.9228 14C6.67806 14 6.44334 14.1052 6.27028 14.2925C6.09722 14.4798 6 14.7338 6 14.9987C6 15.2636 6.09722 15.5176 6.27028 15.7049C6.44334 15.8922 6.67806 15.9974 6.9228 15.9974V14ZM13.076 14H6.9228V16H13.0772L13.076 14Z" fill="#0C244E"/>
<path id="Caminho 70644 (Stroke)" fill-rule="evenodd" clip-rule="evenodd" d="M6.19527 14.2246C6.38636 14.0177 6.64731 13.8999 6.92124 13.8999H13.1744L13.1744 13.9076C13.4117 13.9323 13.6336 14.0453 13.8016 14.2271C13.9924 14.4337 14.0984 14.7122 14.0984 15.0012C14.0984 15.2901 13.9924 15.5687 13.8016 15.7753C13.6105 15.9821 13.3496 16.0999 13.0756 16.0999H6.82124V16.0921C6.58441 16.0671 6.36295 15.9541 6.19527 15.7727C6.00443 15.5661 5.89844 15.2876 5.89844 14.9986C5.89844 14.7097 6.00443 14.4311 6.19527 14.2246ZM7.02124 15.8999H12.9756L12.9745 14.0999H7.02124V15.8999ZM6.82124 14.1066C6.64205 14.1306 6.47305 14.2186 6.34217 14.3603C6.18689 14.5283 6.09844 14.7578 6.09844 14.9986C6.09844 15.2394 6.18689 15.4689 6.34217 15.6369C6.47305 15.7786 6.64205 15.8667 6.82124 15.8907V14.1066ZM13.1756 15.8932C13.3548 15.8692 13.5238 15.7812 13.6547 15.6395C13.81 15.4715 13.8984 15.242 13.8984 15.0012C13.8984 14.7604 13.81 14.5309 13.6547 14.3629C13.5238 14.2212 13.3548 14.1331 13.1756 14.1092V15.8932Z" fill="#0C244E"/>
<g id="Caminho 70645">
<path d="M4.10221 2.55035H19.8978V1H4.10221V2.55035ZM21.3077 3.83964V19.4862H23V3.83964H21.3077ZM19.4198 20.7005L17.6615 20.1203L17.0879 21.5777L18.8461 22.1578L19.4198 20.7005ZM15.3341 20.2003L12.5791 21.3346L13.2736 22.7469L16.0286 21.6127L15.3341 20.2003ZM11.422 21.3346L8.66594 20.2023L7.97143 21.6147L10.7253 22.7489L11.422 21.3346ZM6.34177 20.1203L4.58353 20.7005L5.15386 22.1548L6.91209 21.5747L6.34177 20.1203ZM2.69232 19.4862V3.83964H1.00002V19.4862H2.69232ZM4.58023 20.7005C4.36674 20.7702 4.13791 20.7922 3.91314 20.7643C3.68837 20.7365 3.47428 20.6598 3.28902 20.5406C3.10377 20.4215 2.9528 20.2634 2.84893 20.0798C2.74506 19.8963 2.69134 19.6927 2.69232 19.4862H1.00002C0.998371 19.9402 1.11695 20.3879 1.34572 20.7914C1.57449 21.1949 1.90671 21.5422 2.31425 21.804C2.72178 22.0658 3.19263 22.2344 3.68693 22.2955C4.18122 22.3565 4.6844 22.3083 5.15386 22.1548L4.58023 20.7005ZM8.66594 20.2003C7.9326 19.8982 7.0986 19.8688 6.34177 20.1183L6.91539 21.5757C7.25923 21.4622 7.63819 21.4754 7.97143 21.6127L8.66594 20.2003ZM12.5791 21.3346C12.3973 21.4095 12.199 21.4482 11.9994 21.4482C11.7999 21.4482 11.6027 21.4095 11.4209 21.3346L10.7253 22.7499C11.1253 22.9147 11.5593 23 11.9983 23C12.4374 23 12.8714 22.9147 13.2714 22.7499L12.5791 21.3346ZM17.6571 20.1173C16.9003 19.8678 16.0663 19.8972 15.333 20.1993L16.0275 21.6117C16.3607 21.4744 16.7397 21.4612 17.0835 21.5747L17.6571 20.1173ZM21.3066 19.4832C21.3076 19.6897 21.2538 19.8933 21.15 20.0768C21.0461 20.2604 20.8951 20.4185 20.7099 20.5376C20.5246 20.6568 20.3105 20.7335 20.0858 20.7613C19.861 20.7892 19.6322 20.7672 19.4187 20.6975L18.8461 22.1548C19.3159 22.3081 19.8193 22.3562 20.3137 22.2949C20.8082 22.2335 21.2791 22.0647 21.6866 21.8026C22.0942 21.5404 22.4263 21.1928 22.6549 20.7891C22.8835 20.3853 23.0019 19.9374 23 19.4832H21.3066ZM19.8978 2.55035C20.2727 2.55141 20.6318 2.68792 20.8962 2.92986C21.1605 3.17181 21.3085 3.4984 21.3077 3.83964H23C23.0013 3.4677 22.9221 3.10017 22.7669 2.7561C22.6116 2.41203 22.3835 2.09917 22.0954 1.83538C21.8073 1.57159 21.465 1.36204 21.0879 1.2187C20.7108 1.07536 20.3064 1.00105 19.8978 1V2.55035ZM4.10221 1C3.69367 1.00105 3.28936 1.07533 2.91235 1.2186C2.53535 1.36188 2.19305 1.57134 1.90498 1.83502C1.61692 2.09871 1.38873 2.41146 1.23346 2.75541C1.07818 3.09936 0.998861 3.46779 1.00002 3.83964H2.69232C2.69174 3.49858 2.83988 3.17124 3.10422 2.92951C3.36857 2.68778 3.7275 2.55141 4.10221 2.55035V1Z" fill="#0C244E"/>
<path d="M19.133 21.4296L18.8461 22.1578M18.8461 22.1578L17.0879 21.5777L17.6615 20.1203L19.4198 20.7005L18.8461 22.1578ZM17.3747 20.8495L17.6615 20.1213M15.6846 20.9095L15.3374 20.2033M12.9231 22.0438L12.5758 21.3376M11.0714 22.0438L11.4187 21.3376M8.31868 20.9085L8.66594 20.2023M8.66594 20.2023L11.422 21.3346L10.7253 22.7489L7.97143 21.6147L8.66594 20.2023ZM6.62858 20.8485L6.34177 20.1203M6.34177 20.1203L4.58353 20.7005L5.15386 22.1548M6.34177 20.1203L6.91209 21.5747L5.15386 22.1548M4.87034 21.4286L5.15715 22.1568M4.10221 2.55035H19.8978M4.10221 2.55035V1M4.10221 2.55035C3.7275 2.55141 3.36857 2.68778 3.10422 2.92951C2.83988 3.17124 2.69174 3.49858 2.69232 3.83964M19.8978 2.55035V1M19.8978 2.55035C20.2727 2.55141 20.6318 2.68792 20.8962 2.92986C21.1605 3.17181 21.3085 3.4984 21.3077 3.83964M19.8978 1H4.10221M19.8978 1C20.3064 1.00105 20.7108 1.07536 21.0879 1.2187C21.465 1.36204 21.8073 1.57159 22.0954 1.83538C22.3835 2.09917 22.6116 2.41203 22.7669 2.7561C22.9221 3.10017 23.0013 3.4677 23 3.83964M4.10221 1C3.69367 1.00105 3.28936 1.07533 2.91235 1.2186C2.53535 1.36188 2.19305 1.57134 1.90498 1.83502C1.61692 2.09871 1.38873 2.41146 1.23346 2.75541C1.07818 3.09936 0.998861 3.46779 1.00002 3.83964M21.3077 3.83964V19.4862H23V3.83964M21.3077 3.83964H23M12.5791 21.3346L15.3341 20.2003L16.0286 21.6127L13.2736 22.7469L12.5791 21.3346ZM12.5791 21.3346C12.3973 21.4095 12.199 21.4482 11.9994 21.4482C11.7999 21.4482 11.6027 21.4095 11.4209 21.3346L10.7253 22.7499C11.1253 22.9147 11.5593 23 11.9983 23C12.4374 23 12.8714 22.9147 13.2714 22.7499L12.5791 21.3346ZM5.15386 22.1548C4.6844 22.3083 4.18122 22.3565 3.68693 22.2955C3.19263 22.2344 2.72178 22.0658 2.31425 21.804C1.90671 21.5422 1.57449 21.1949 1.34572 20.7914C1.11695 20.3879 0.998371 19.9402 1.00002 19.4862M5.15386 22.1548L4.58023 20.7005C4.36674 20.7702 4.13791 20.7922 3.91314 20.7643C3.68837 20.7365 3.47428 20.6598 3.28902 20.5406C3.10377 20.4215 2.9528 20.2634 2.84893 20.0798C2.74506 19.8963 2.69134 19.6927 2.69232 19.4862M2.69232 19.4862V3.83964M2.69232 19.4862H1.00002M2.69232 3.83964H1.00002M1.00002 3.83964V19.4862M8.66594 20.2003C7.9326 19.8982 7.0986 19.8688 6.34177 20.1183L6.91539 21.5757C7.25923 21.4622 7.63819 21.4754 7.97143 21.6127L8.66594 20.2003ZM17.6571 20.1173C16.9003 19.8678 16.0663 19.8972 15.333 20.1993L16.0275 21.6117C16.3607 21.4744 16.7397 21.4612 17.0835 21.5747L17.6571 20.1173ZM21.3066 19.4832C21.3076 19.6897 21.2538 19.8933 21.15 20.0768C21.0461 20.2604 20.8951 20.4185 20.7099 20.5376C20.5246 20.6568 20.3105 20.7335 20.0858 20.7613C19.861 20.7892 19.6322 20.7672 19.4187 20.6975L18.8461 22.1548C19.3159 22.3081 19.8193 22.3562 20.3137 22.2949C20.8082 22.2335 21.2791 22.0647 21.6866 21.8026C22.0942 21.5404 22.4263 21.1928 22.6549 20.7891C22.8835 20.3853 23.0019 19.9374 23 19.4832H21.3066Z" stroke="#0C244E" stroke-width="0.2"/>
</g>
</g>
</svg>
