<svg width="130" height="130" viewBox="0 0 130 130" fill="none" xmlns="http://www.w3.org/2000/svg">
<g id="ic-alert-sucess">
<g id="Group 1">
<g id="Elipse 258">
<path id="Vector (Stroke)" fill-rule="evenodd" clip-rule="evenodd" d="M64.9978 7.14258C33.0441 7.14258 7.14062 33.0461 7.14062 64.9997C7.14062 96.9533 33.0441 122.857 64.9978 122.857C96.9514 122.857 122.855 96.9533 122.855 64.9997C122.855 33.0461 96.9514 7.14258 64.9978 7.14258ZM2.14062 64.9997C2.14062 30.2847 30.2827 2.14258 64.9978 2.14258C99.7128 2.14258 127.855 30.2847 127.855 64.9997C127.855 99.7148 99.7128 127.857 64.9978 127.857C30.2827 127.857 2.14062 99.7148 2.14062 64.9997Z" fill="#0C2143"/>
</g>
<g id="Grupo 22686">
<path id="Linha 106 (Stroke)" fill-rule="evenodd" clip-rule="evenodd" d="M91.0431 40.3222C92.2141 41.0538 92.5702 42.5962 91.8386 43.7671L66.3222 84.6048C65.5906 85.7757 64.0483 86.1318 62.8773 85.4002C61.7064 84.6685 61.3502 83.1262 62.0818 81.9553L87.5982 41.1176C88.3298 39.9466 89.8721 39.5906 91.0431 40.3222Z" fill="#0C2143"/>
<path id="Linha 107 (Stroke)" fill-rule="evenodd" clip-rule="evenodd" d="M38.7415 67.3724C39.4732 66.2016 41.0156 65.8456 42.1865 66.5773L65.5231 81.1607C66.694 81.8924 67.0501 83.4348 66.3184 84.6056C65.5867 85.7765 64.0444 86.1325 62.8735 85.4008L39.5368 70.8173C38.3659 70.0856 38.0098 68.5433 38.7415 67.3724Z" fill="#0C2143"/>
</g>
</g>
</g>
</svg>
