<svg width="201" height="24" viewBox="0 0 201 24" fill="none" xmlns="http://www.w3.org/2000/svg">
<g id="ic-arrow-right">
<path id="Linha 5 (Stroke)" fill-rule="evenodd" clip-rule="evenodd" d="M0 12C0 11.4477 0.447715 11 1 11H200C200.552 11 201 11.4477 201 12C201 12.5523 200.552 13 200 13H1C0.447715 13 0 12.5523 0 12Z" fill="#0C244E"/>
<path id="Caminho 62956 (Stroke)" fill-rule="evenodd" clip-rule="evenodd" d="M192.341 3.24771C192.757 2.88386 193.388 2.92571 193.752 3.34119L200.752 11.3345C201.082 11.7113 201.083 12.2743 200.753 12.6515L193.753 20.6582C193.389 21.074 192.758 21.1164 192.342 20.7529C191.926 20.3894 191.884 19.7576 192.247 19.3418L198.671 11.9938L192.248 4.65883C191.884 4.24335 191.926 3.61157 192.341 3.24771Z" fill="#0C244E"/>
</g>
</svg>
