<svg width="26" height="26" viewBox="0 0 26 26" fill="none" xmlns="http://www.w3.org/2000/svg">
<g id="ic-drag">
<path id="Caminho 70551" d="M4.74231 2.74684L3.85563 1.87695L1 4.82403L3.85563 7.77111L4.74231 6.90078L2.7729 4.82359L4.74231 2.74684Z" fill="#0C244E"/>
<path id="Caminho 70551 (Stroke)" fill-rule="evenodd" clip-rule="evenodd" d="M5.02388 2.74179L3.04966 4.82362L5.02383 6.90583L3.85322 8.05486L0.722656 4.82404L3.85319 1.59326L5.02388 2.74179ZM2.77405 4.8236L4.74345 2.74685L3.85678 1.87696L1.00115 4.82404L3.85678 7.77112L4.74345 6.90079L2.77405 4.8236Z" fill="#0C244E"/>
<path id="Caminho 70552" d="M6.54889 4.82376L9.11929 2.15615L8.18923 1.24365L4.71562 4.79862L4.69141 4.82376L8.18968 8.40387L9.11979 7.49088L6.54889 4.82376Z" fill="#0C244E"/>
<path id="Caminho 70552 (Stroke)" fill-rule="evenodd" clip-rule="evenodd" d="M9.1206 2.15606L6.5502 4.82368L9.1211 7.49079L8.19104 8.40373L4.69272 4.82368L4.71693 4.79854L8.19054 1.24357L9.1206 2.15606ZM6.82796 4.82365L9.40214 2.15211L8.18756 0.960449L4.57388 4.65876L4.41406 4.82467L8.18804 8.68693L9.40264 7.49469L6.82796 4.82365Z" fill="#0C244E"/>
<path id="Caminho 70553" d="M11.976 2.8968C12.4834 2.39904 13.1674 2.11335 13.8846 2.09964C14.6019 2.08593 15.2966 2.34527 15.8234 2.82325C16.3502 3.30124 16.668 3.96081 16.7104 4.66375C16.7527 5.36668 16.5162 6.05841 16.0505 6.594L16.0538 8.02425C16.7616 7.5747 17.3016 6.9116 17.5922 6.13474C17.8829 5.35788 17.9085 4.50933 17.6653 3.71691C17.4221 2.9245 16.9232 2.23112 16.2437 1.74115C15.5643 1.25118 14.741 0.991125 13.8979 1.00023C13.0548 1.00934 12.2376 1.28712 11.5693 1.79164C10.901 2.29617 10.4177 3.00016 10.1924 3.79764C9.96698 4.59511 10.0116 5.44288 10.3196 6.21327C10.6276 6.98367 11.1823 7.63495 11.9001 8.0691L11.896 6.66761C11.412 6.14974 11.1502 5.4685 11.1652 4.76588C11.1802 4.06327 11.4708 3.39346 11.9764 2.89593" fill="#0C244E"/>
<path id="Caminho 70553 (Stroke)" fill-rule="evenodd" clip-rule="evenodd" d="M15.8511 6.51921L15.9004 6.46257C16.332 5.96616 16.5507 5.32576 16.5115 4.67558C16.4724 4.02537 16.1783 3.41446 15.6898 2.97117C15.2011 2.52778 14.5559 2.28666 13.8892 2.29941C13.2225 2.31216 12.5874 2.57774 12.1168 3.03938C11.6485 3.50065 11.3798 4.1204 11.3659 4.76995C11.3521 5.41991 11.5942 6.05074 12.0429 6.53085L12.0965 6.58825L12.1019 8.42425L11.7974 8.24004C11.0428 7.78366 10.459 7.09858 10.1347 6.28732C9.81034 5.47601 9.76328 4.58302 10.0007 3.74305C10.2381 2.90311 10.7468 2.16234 11.4496 1.63182C12.1523 1.10136 13.011 0.809612 13.8965 0.800048C14.782 0.790483 15.6471 1.0636 16.3615 1.57873C17.0759 2.09391 17.6011 2.82346 17.8573 3.65804C18.1135 4.49265 18.0864 5.38648 17.7803 6.20463C17.4742 7.02273 16.9059 7.72029 16.1618 8.19288L15.8554 8.38747L15.8511 6.51921ZM11.9768 2.89661C12.4841 2.39925 13.1685 2.11315 13.8854 2.09945C14.6026 2.08573 15.2974 2.34507 15.8242 2.82306C16.351 3.30105 16.6688 3.96062 16.7112 4.66355C16.7535 5.36649 16.517 6.05821 16.0513 6.59381L16.0545 8.02405C16.1227 7.98078 16.1893 7.93552 16.2542 7.88838C16.8641 7.44578 17.3303 6.83662 17.593 6.13454C17.8837 5.35768 17.9093 4.50913 17.6661 3.71672C17.4229 2.9243 16.924 2.23092 16.2445 1.74095C15.565 1.25099 14.7417 0.99093 13.8987 1.00004C13.0556 1.00914 12.2384 1.28692 11.5701 1.79145C10.9018 2.29597 10.4185 2.99997 10.1931 3.79744C9.96776 4.59492 10.0124 5.44268 10.3204 6.21308C10.5991 6.91017 11.0798 7.50974 11.7005 7.93917C11.7658 7.98432 11.8326 8.0276 11.9009 8.06891L11.8968 6.66741C11.4128 6.14954 11.151 5.46831 11.166 4.76569C11.181 4.06338 11.4715 3.39407 11.9768 2.89661Z" fill="#0C244E"/>
<g id="Caminho 70554">
<mask id="path-7-outside-1_26_714" maskUnits="userSpaceOnUse" x="7.49219" y="2.22803" width="18" height="23" fill="black">
<rect fill="white" x="7.49219" y="2.22803" width="18" height="23"/>
<path d="M24.9989 17.9994L24.9944 16.9675L24.9802 13.4794C24.98 13.2125 24.926 12.9483 24.8216 12.702C24.7171 12.4556 24.5641 12.2319 24.3714 12.0437C24.1793 11.8541 23.9508 11.7036 23.6991 11.601C23.4475 11.4985 23.1777 11.4458 22.9052 11.4461H22.8545C22.5196 11.4528 22.1916 11.5407 21.8997 11.7019C21.76 11.2955 21.4936 10.9426 21.1383 10.693C20.783 10.4434 20.3567 10.3097 19.9197 10.3111H19.88C19.4939 10.3191 19.1182 10.4349 18.7968 10.6449C18.6964 10.4523 18.5661 10.2763 18.4106 10.1231C18.0351 9.75141 17.5269 9.53798 16.9937 9.52821H16.948C16.6398 9.52919 16.3358 9.59786 16.0581 9.7292L16.0545 8.02442L16.0513 6.59417L16.0486 5.29311C16.0444 4.74184 15.8204 4.21411 15.4247 3.82294C15.0476 3.44957 14.5365 3.236 14.001 3.22803H13.9553C13.4053 3.23241 12.8794 3.45037 12.4926 3.83422C12.1059 4.21808 11.8897 4.73663 11.8913 5.27652L11.8958 6.66728L11.9004 8.06883L11.9182 13.7885C11.6485 13.5626 11.3245 13.4083 10.9769 13.34C10.6294 13.2718 10.2698 13.292 9.93235 13.3986H9.92956H9.92682C9.40324 13.5666 8.96887 13.9314 8.71887 14.4132C8.46887 14.895 8.42366 15.4544 8.59317 15.9689L9.37794 18.3381V18.3435V18.3489L10.122 20.5131C10.457 21.4839 11.0146 22.3663 11.7518 23.0923C12.9409 24.2702 14.5468 24.9527 16.2355 24.9977H16.2387C16.3095 24.9977 16.3794 24.9999 16.4471 24.9999H16.4508L17.9261 24.9941C19.1992 24.9889 20.4475 24.648 21.5404 24.0071C22.4969 23.4796 23.3086 22.7319 23.9057 21.8285C24.5028 20.925 24.8674 19.8927 24.9683 18.8204C24.9962 18.6032 24.9971 18.2699 24.9971 18.2663V18.2636L24.9989 17.9994ZM16.2661 23.9766C14.8452 23.9365 13.4946 23.3616 12.4936 22.3709C11.869 21.7573 11.3971 21.0106 11.1147 20.1887L10.3707 18.0245L9.58588 15.6557C9.50104 15.3995 9.52332 15.1208 9.64786 14.8807C9.7724 14.6407 9.989 14.4591 10.25 14.3758C10.3523 14.3433 10.4592 14.3266 10.5667 14.326C10.7857 14.3252 10.9994 14.3928 11.1768 14.5189C11.3542 14.645 11.4863 14.8231 11.5539 15.0276L12.2135 17.0191L12.2505 17.1304C12.2683 17.1872 12.2996 17.239 12.3419 17.2815C12.376 17.3144 12.4164 17.3403 12.4608 17.3577C12.5053 17.3751 12.5527 17.3837 12.6005 17.383C12.65 17.3841 12.6991 17.3753 12.745 17.3573C12.7909 17.3392 12.8325 17.3122 12.8675 17.2779C12.9024 17.2436 12.9299 17.2027 12.9483 17.1577C12.9667 17.1127 12.9756 17.0645 12.9745 17.016L12.9342 5.27247C12.9333 5.00312 13.0413 4.7444 13.2345 4.55318C13.4278 4.36197 13.6905 4.25393 13.9649 4.25274H13.9845C14.2487 4.25711 14.5005 4.36292 14.6861 4.54748C14.8893 4.74637 15.0043 5.01595 15.006 5.2976L15.0394 15.4179C15.0395 15.5324 15.0849 15.6423 15.1661 15.7243C15.2474 15.8064 15.358 15.8542 15.4745 15.8576H15.49C15.6119 15.8529 15.7271 15.8017 15.811 15.7149C15.8949 15.628 15.941 15.5125 15.9393 15.3928L15.9233 11.5722C15.9224 11.3029 16.0305 11.0443 16.2237 10.8531C16.417 10.6619 16.6796 10.5538 16.9539 10.5525H16.9731C17.2373 10.557 17.4892 10.663 17.6747 10.8477C17.8779 11.0466 17.9929 11.3161 17.9946 11.5978L18.0125 15.9356C18.0126 16.0501 18.0581 16.1601 18.1394 16.2422C18.2207 16.3243 18.3315 16.3721 18.4481 16.3753H18.4631C18.5848 16.3707 18.6999 16.3195 18.7838 16.2327C18.8676 16.146 18.9136 16.0305 18.912 15.911L18.8973 12.3892C18.893 12.1191 18.9962 11.8579 19.1848 11.6612C19.3735 11.4645 19.6329 11.3478 19.9079 11.3358H19.9275C20.2019 11.3348 20.4655 11.4408 20.6603 11.6305C20.8551 11.8202 20.9652 12.0781 20.9664 12.3475L20.9837 16.5426C20.9842 16.6597 21.0321 16.7719 21.1168 16.8543C21.1587 16.8951 21.2084 16.9274 21.2631 16.9494C21.3178 16.9714 21.3763 16.9825 21.4353 16.9823C21.4944 16.9821 21.5528 16.9704 21.6073 16.948C21.6618 16.9256 21.7112 16.8929 21.7528 16.8517C21.7944 16.8106 21.8273 16.7618 21.8497 16.7081C21.8721 16.6545 21.8835 16.5971 21.8832 16.5391L21.8709 13.5256C21.8665 13.2553 21.9696 12.994 22.1584 12.7973C22.3473 12.6006 22.6068 12.4839 22.8819 12.4722H22.9011C23.037 12.4716 23.1716 12.4973 23.2974 12.5478C23.4232 12.5983 23.5376 12.6726 23.6341 12.7665C23.7306 12.8604 23.8073 12.9721 23.8599 13.0951C23.9124 13.2181 23.9398 13.35 23.9404 13.4834L23.9546 16.972L23.9591 18.0039V18.2731C23.9591 18.4195 23.9514 18.5657 23.9363 18.7113C23.8527 19.6265 23.5425 20.5076 23.0327 21.2781C22.5229 22.0487 21.8289 22.6852 21.0112 23.1322C20.0791 23.6786 19.0145 23.9692 17.9289 23.9734L16.4535 23.9797C16.3925 23.9797 16.3316 23.9797 16.2707 23.9797"/>
</mask>
<path d="M24.9989 17.9994L24.9944 16.9675L24.9802 13.4794C24.98 13.2125 24.926 12.9483 24.8216 12.702C24.7171 12.4556 24.5641 12.2319 24.3714 12.0437C24.1793 11.8541 23.9508 11.7036 23.6991 11.601C23.4475 11.4985 23.1777 11.4458 22.9052 11.4461H22.8545C22.5196 11.4528 22.1916 11.5407 21.8997 11.7019C21.76 11.2955 21.4936 10.9426 21.1383 10.693C20.783 10.4434 20.3567 10.3097 19.9197 10.3111H19.88C19.4939 10.3191 19.1182 10.4349 18.7968 10.6449C18.6964 10.4523 18.5661 10.2763 18.4106 10.1231C18.0351 9.75141 17.5269 9.53798 16.9937 9.52821H16.948C16.6398 9.52919 16.3358 9.59786 16.0581 9.7292L16.0545 8.02442L16.0513 6.59417L16.0486 5.29311C16.0444 4.74184 15.8204 4.21411 15.4247 3.82294C15.0476 3.44957 14.5365 3.236 14.001 3.22803H13.9553C13.4053 3.23241 12.8794 3.45037 12.4926 3.83422C12.1059 4.21808 11.8897 4.73663 11.8913 5.27652L11.8958 6.66728L11.9004 8.06883L11.9182 13.7885C11.6485 13.5626 11.3245 13.4083 10.9769 13.34C10.6294 13.2718 10.2698 13.292 9.93235 13.3986H9.92956H9.92682C9.40324 13.5666 8.96887 13.9314 8.71887 14.4132C8.46887 14.895 8.42366 15.4544 8.59317 15.9689L9.37794 18.3381V18.3435V18.3489L10.122 20.5131C10.457 21.4839 11.0146 22.3663 11.7518 23.0923C12.9409 24.2702 14.5468 24.9527 16.2355 24.9977H16.2387C16.3095 24.9977 16.3794 24.9999 16.4471 24.9999H16.4508L17.9261 24.9941C19.1992 24.9889 20.4475 24.648 21.5404 24.0071C22.4969 23.4796 23.3086 22.7319 23.9057 21.8285C24.5028 20.925 24.8674 19.8927 24.9683 18.8204C24.9962 18.6032 24.9971 18.2699 24.9971 18.2663V18.2636L24.9989 17.9994ZM16.2661 23.9766C14.8452 23.9365 13.4946 23.3616 12.4936 22.3709C11.869 21.7573 11.3971 21.0106 11.1147 20.1887L10.3707 18.0245L9.58588 15.6557C9.50104 15.3995 9.52332 15.1208 9.64786 14.8807C9.7724 14.6407 9.989 14.4591 10.25 14.3758C10.3523 14.3433 10.4592 14.3266 10.5667 14.326C10.7857 14.3252 10.9994 14.3928 11.1768 14.5189C11.3542 14.645 11.4863 14.8231 11.5539 15.0276L12.2135 17.0191L12.2505 17.1304C12.2683 17.1872 12.2996 17.239 12.3419 17.2815C12.376 17.3144 12.4164 17.3403 12.4608 17.3577C12.5053 17.3751 12.5527 17.3837 12.6005 17.383C12.65 17.3841 12.6991 17.3753 12.745 17.3573C12.7909 17.3392 12.8325 17.3122 12.8675 17.2779C12.9024 17.2436 12.9299 17.2027 12.9483 17.1577C12.9667 17.1127 12.9756 17.0645 12.9745 17.016L12.9342 5.27247C12.9333 5.00312 13.0413 4.7444 13.2345 4.55318C13.4278 4.36197 13.6905 4.25393 13.9649 4.25274H13.9845C14.2487 4.25711 14.5005 4.36292 14.6861 4.54748C14.8893 4.74637 15.0043 5.01595 15.006 5.2976L15.0394 15.4179C15.0395 15.5324 15.0849 15.6423 15.1661 15.7243C15.2474 15.8064 15.358 15.8542 15.4745 15.8576H15.49C15.6119 15.8529 15.7271 15.8017 15.811 15.7149C15.8949 15.628 15.941 15.5125 15.9393 15.3928L15.9233 11.5722C15.9224 11.3029 16.0305 11.0443 16.2237 10.8531C16.417 10.6619 16.6796 10.5538 16.9539 10.5525H16.9731C17.2373 10.557 17.4892 10.663 17.6747 10.8477C17.8779 11.0466 17.9929 11.3161 17.9946 11.5978L18.0125 15.9356C18.0126 16.0501 18.0581 16.1601 18.1394 16.2422C18.2207 16.3243 18.3315 16.3721 18.4481 16.3753H18.4631C18.5848 16.3707 18.6999 16.3195 18.7838 16.2327C18.8676 16.146 18.9136 16.0305 18.912 15.911L18.8973 12.3892C18.893 12.1191 18.9962 11.8579 19.1848 11.6612C19.3735 11.4645 19.6329 11.3478 19.9079 11.3358H19.9275C20.2019 11.3348 20.4655 11.4408 20.6603 11.6305C20.8551 11.8202 20.9652 12.0781 20.9664 12.3475L20.9837 16.5426C20.9842 16.6597 21.0321 16.7719 21.1168 16.8543C21.1587 16.8951 21.2084 16.9274 21.2631 16.9494C21.3178 16.9714 21.3763 16.9825 21.4353 16.9823C21.4944 16.9821 21.5528 16.9704 21.6073 16.948C21.6618 16.9256 21.7112 16.8929 21.7528 16.8517C21.7944 16.8106 21.8273 16.7618 21.8497 16.7081C21.8721 16.6545 21.8835 16.5971 21.8832 16.5391L21.8709 13.5256C21.8665 13.2553 21.9696 12.994 22.1584 12.7973C22.3473 12.6006 22.6068 12.4839 22.8819 12.4722H22.9011C23.037 12.4716 23.1716 12.4973 23.2974 12.5478C23.4232 12.5983 23.5376 12.6726 23.6341 12.7665C23.7306 12.8604 23.8073 12.9721 23.8599 13.0951C23.9124 13.2181 23.9398 13.35 23.9404 13.4834L23.9546 16.972L23.9591 18.0039V18.2731C23.9591 18.4195 23.9514 18.5657 23.9363 18.7113C23.8527 19.6265 23.5425 20.5076 23.0327 21.2781C22.5229 22.0487 21.8289 22.6852 21.0112 23.1322C20.0791 23.6786 19.0145 23.9692 17.9289 23.9734L16.4535 23.9797C16.3925 23.9797 16.3316 23.9797 16.2707 23.9797" fill="#0C244E"/>
<path d="M24.9989 17.9994L25.1989 18.0008L25.1989 17.9985L24.9989 17.9994ZM24.9944 16.9675L24.7944 16.9683V16.9684L24.9944 16.9675ZM24.9802 13.4794L24.7802 13.4795L24.7802 13.4802L24.9802 13.4794ZM24.3714 12.0437L24.2309 12.1861L24.2317 12.1868L24.3714 12.0437ZM22.9052 11.4461V11.6461H22.9054L22.9052 11.4461ZM22.8545 11.4461V11.2461L22.8505 11.2462L22.8545 11.4461ZM21.8997 11.7019L21.7105 11.7669L21.788 11.9921L21.9964 11.877L21.8997 11.7019ZM19.9197 10.3111V10.5111L19.9203 10.5111L19.9197 10.3111ZM19.88 10.3111V10.111L19.8758 10.1111L19.88 10.3111ZM18.7968 10.6449L18.6194 10.7373L18.7214 10.933L18.9061 10.8123L18.7968 10.6449ZM18.4106 10.1231L18.2698 10.2653L18.2703 10.2657L18.4106 10.1231ZM16.9937 9.52821L16.9974 9.32821H16.9937V9.52821ZM16.948 9.52821V9.32821L16.9474 9.32822L16.948 9.52821ZM16.0581 9.7292L15.8581 9.72963L15.8588 10.0447L16.1437 9.90999L16.0581 9.7292ZM16.0545 8.02442L16.2545 8.02398V8.02397L16.0545 8.02442ZM16.0513 6.59417L15.8513 6.59459V6.59461L16.0513 6.59417ZM16.0486 5.29311L16.2486 5.29269L16.2485 5.2916L16.0486 5.29311ZM15.4247 3.82294L15.284 3.96506L15.2841 3.96519L15.4247 3.82294ZM14.001 3.22803L14.004 3.02803H14.001V3.22803ZM13.9553 3.22803V3.02802L13.9537 3.02803L13.9553 3.22803ZM11.8913 5.27652L11.6913 5.27711L11.6913 5.27717L11.8913 5.27652ZM11.8958 6.66728L11.6958 6.66793V6.66793L11.8958 6.66728ZM11.9004 8.06883L12.1004 8.06821V8.06818L11.9004 8.06883ZM11.9182 13.7885L11.7898 13.9418L12.1196 14.2179L12.1182 13.7878L11.9182 13.7885ZM9.93235 13.3986V13.5986H9.96321L9.99263 13.5893L9.93235 13.3986ZM9.92682 13.3986V13.1986H9.89554L9.86575 13.2082L9.92682 13.3986ZM8.59317 15.9689L8.40322 16.0315L8.40332 16.0318L8.59317 15.9689ZM9.37794 18.3381H9.57794V18.3059L9.5678 18.2752L9.37794 18.3381ZM9.37794 18.3489H9.17794V18.3823L9.18881 18.4139L9.37794 18.3489ZM10.122 20.5131L9.93285 20.5781L9.93292 20.5783L10.122 20.5131ZM11.7518 23.0923L11.8926 22.9502L11.8922 22.9498L11.7518 23.0923ZM16.2355 24.9977L16.2301 25.1977H16.2355V24.9977ZM16.4508 24.9999V25.1999L16.4516 25.1999L16.4508 24.9999ZM17.9261 24.9941L17.9269 25.1941H17.9269L17.9261 24.9941ZM21.5404 24.0071L21.4438 23.8319L21.4393 23.8346L21.5404 24.0071ZM24.9683 18.8204L24.7698 18.7949L24.7692 18.8017L24.9683 18.8204ZM24.9971 18.2636L24.7971 18.2623V18.2636H24.9971ZM12.4936 22.3709L12.6343 22.2287L12.6338 22.2282L12.4936 22.3709ZM11.1147 20.1887L11.3038 20.1238L11.3038 20.1237L11.1147 20.1887ZM10.3707 18.0245L10.1808 18.0874L10.1815 18.0895L10.3707 18.0245ZM9.58588 15.6557L9.39602 15.7186L9.39603 15.7186L9.58588 15.6557ZM10.25 14.3758L10.1896 14.1851L10.1892 14.1852L10.25 14.3758ZM10.5667 14.326L10.566 14.126L10.5656 14.126L10.5667 14.326ZM11.5539 15.0276L11.3641 15.0904L11.3641 15.0905L11.5539 15.0276ZM12.2135 17.0191L12.0236 17.082L12.0237 17.0822L12.2135 17.0191ZM12.2505 17.1304L12.4413 17.0706L12.4402 17.0673L12.2505 17.1304ZM12.3419 17.2815L12.2 17.4225L12.2032 17.4256L12.3419 17.2815ZM12.6005 17.383L12.605 17.1829L12.5974 17.183L12.6005 17.383ZM12.9745 17.016L12.7744 17.0167L12.7745 17.0206L12.9745 17.016ZM12.9342 5.27247L13.1342 5.27178V5.27174L12.9342 5.27247ZM13.9649 4.25274V4.05274L13.964 4.05274L13.9649 4.25274ZM13.9845 4.25274L13.9878 4.05274H13.9845V4.25274ZM14.6861 4.54748L14.5451 4.68929L14.5462 4.69041L14.6861 4.54748ZM15.006 5.2976L15.206 5.29694L15.206 5.29635L15.006 5.2976ZM15.0394 15.4179L15.2394 15.4178L15.2394 15.4173L15.0394 15.4179ZM15.4745 15.8576L15.4687 16.0576H15.4745V15.8576ZM15.49 15.8576V16.0577L15.4977 16.0574L15.49 15.8576ZM15.9393 15.3928L15.7393 15.3936L15.7393 15.3955L15.9393 15.3928ZM15.9233 11.5722L15.7233 11.5728L15.7233 11.5731L15.9233 11.5722ZM16.9539 10.5525V10.3525L16.953 10.3525L16.9539 10.5525ZM16.9731 10.5525L16.9766 10.3525H16.9731V10.5525ZM17.6747 10.8477L17.5336 10.9894L17.5348 10.9906L17.6747 10.8477ZM17.9946 11.5978L18.1946 11.597L18.1946 11.5965L17.9946 11.5978ZM18.0125 15.9356L18.2125 15.9355L18.2125 15.9348L18.0125 15.9356ZM18.4481 16.3753L18.4424 16.5753H18.4481V16.3753ZM18.4631 16.3753V16.5755L18.4708 16.5752L18.4631 16.3753ZM18.912 15.911L18.712 15.9118L18.712 15.9137L18.912 15.911ZM18.8973 12.3892L19.0974 12.3884L19.0973 12.386L18.8973 12.3892ZM19.9079 11.3358V11.1356L19.8991 11.136L19.9079 11.3358ZM19.9275 11.3358V11.5358L19.9282 11.5358L19.9275 11.3358ZM20.9664 12.3475L21.1664 12.3466L21.1664 12.3466L20.9664 12.3475ZM20.9837 16.5426L20.7837 16.5435V16.5435L20.9837 16.5426ZM21.1168 16.8543L21.2563 16.711L21.1168 16.8543ZM21.8832 16.5391L21.6832 16.5399V16.5399L21.8832 16.5391ZM21.8709 13.5256L22.0709 13.5248L22.0709 13.5223L21.8709 13.5256ZM22.8819 12.4722V12.272L22.8734 12.2724L22.8819 12.4722ZM22.9011 12.4722V12.6722L22.902 12.6722L22.9011 12.4722ZM23.9404 13.4834L24.1404 13.4826V13.4825L23.9404 13.4834ZM23.9546 16.972L23.7546 16.9728V16.9729L23.9546 16.972ZM23.9591 18.0039H24.1591L24.1591 18.003L23.9591 18.0039ZM23.9591 18.2731L24.1591 18.2732V18.2731H23.9591ZM23.9363 18.7113L23.7373 18.6907L23.7371 18.6932L23.9363 18.7113ZM21.0112 23.1322L20.9152 22.9566L20.9101 22.9597L21.0112 23.1322ZM17.9289 23.9734L17.9281 23.7734H17.928L17.9289 23.9734ZM16.4535 23.9797V24.1797L16.4543 24.1797L16.4535 23.9797ZM25.1989 17.9985L25.1944 16.9666L24.7944 16.9684L24.7989 18.0003L25.1989 17.9985ZM25.1944 16.9667L25.1802 13.4785L24.7802 13.4802L24.7944 16.9683L25.1944 16.9667ZM25.1802 13.4792C25.1799 13.1855 25.1206 12.8948 25.0057 12.6239L24.6374 12.78C24.7315 13.0018 24.78 13.2395 24.7802 13.4795L25.1802 13.4792ZM25.0057 12.6239C24.8908 12.353 24.7227 12.1072 24.5111 11.9006L24.2317 12.1868C24.4056 12.3566 24.5434 12.5583 24.6374 12.78L25.0057 12.6239ZM24.5119 11.9014C24.301 11.6932 24.0504 11.5282 23.7746 11.4158L23.6237 11.7862C23.8512 11.879 24.0575 12.0149 24.2309 12.1861L24.5119 11.9014ZM23.7746 11.4158C23.4989 11.3034 23.2033 11.2458 22.9049 11.2461L22.9054 11.6461C23.152 11.6459 23.3961 11.6935 23.6237 11.7862L23.7746 11.4158ZM22.9052 11.2461H22.8545V11.6461H22.9052V11.2461ZM22.8505 11.2462C22.4833 11.2535 22.1235 11.3498 21.803 11.5268L21.9964 11.877C22.2597 11.7315 22.5559 11.6521 22.8584 11.6461L22.8505 11.2462ZM22.0888 11.6369C21.9353 11.1902 21.6427 10.8029 21.2533 10.5293L21.0233 10.8566C21.3445 11.0822 21.5847 11.4009 21.7105 11.7669L22.0888 11.6369ZM21.2533 10.5293C20.8639 10.2558 20.3971 10.1096 19.9191 10.1111L19.9203 10.5111C20.3162 10.5099 20.7021 10.6309 21.0233 10.8566L21.2533 10.5293ZM19.9197 10.1111H19.88V10.5111H19.9197V10.1111ZM19.8758 10.1111C19.4526 10.1199 19.0403 10.2468 18.6874 10.4774L18.9061 10.8123C19.1961 10.6229 19.5353 10.5183 19.8841 10.511L19.8758 10.1111ZM18.9741 10.5525C18.8641 10.3413 18.7213 10.1483 18.5509 9.9806L18.2703 10.2657C18.411 10.4042 18.5288 10.5634 18.6194 10.7373L18.9741 10.5525ZM18.5513 9.98101C18.1389 9.57273 17.5814 9.33895 16.9974 9.32825L16.9901 9.72818C17.4723 9.73701 17.9313 9.93009 18.2698 10.2652L18.5513 9.98101ZM16.9937 9.32821H16.948V9.72821H16.9937V9.32821ZM16.9474 9.32822C16.61 9.32928 16.2769 9.40447 15.9726 9.54841L16.1437 9.90999C16.3947 9.79125 16.6697 9.72909 16.9487 9.72821L16.9474 9.32822ZM16.2581 9.72877L16.2545 8.02398L15.8545 8.02485L15.8581 9.72963L16.2581 9.72877ZM16.2545 8.02397L16.2513 6.59372L15.8513 6.59461L15.8545 8.02486L16.2545 8.02397ZM16.2513 6.59375L16.2486 5.29269L15.8486 5.29353L15.8513 6.59459L16.2513 6.59375ZM16.2485 5.2916C16.244 4.68685 15.9983 4.10867 15.5653 3.6807L15.2841 3.96519C15.6426 4.31954 15.8448 4.79683 15.8486 5.29463L16.2485 5.2916ZM15.5654 3.68082C15.1512 3.27072 14.5906 3.03678 14.004 3.02805L13.998 3.42801C14.4824 3.43522 14.944 3.62842 15.284 3.96506L15.5654 3.68082ZM14.001 3.02803H13.9553V3.42803H14.001V3.02803ZM13.9537 3.02803C13.352 3.03283 12.776 3.27124 12.3518 3.69227L12.6335 3.97618C12.9828 3.6295 13.4586 3.43199 13.9569 3.42802L13.9537 3.02803ZM12.3518 3.69227C11.9274 4.11343 11.6895 4.68316 11.6913 5.27711L12.0913 5.27593C12.0898 4.7901 12.2843 4.32273 12.6335 3.97618L12.3518 3.69227ZM11.6913 5.27717L11.6958 6.66793L12.0958 6.66663L12.0913 5.27587L11.6913 5.27717ZM11.6958 6.66793L11.7004 8.06948L12.1004 8.06818L12.0958 6.66663L11.6958 6.66793ZM11.7004 8.06946L11.7182 13.7891L12.1182 13.7878L12.1004 8.06821L11.7004 8.06946ZM12.0466 13.6351C11.7509 13.3875 11.3959 13.2185 11.0155 13.1438L10.9384 13.5363C11.2532 13.5981 11.5462 13.7378 11.7898 13.9418L12.0466 13.6351ZM11.0155 13.1438C10.635 13.0691 10.2415 13.0912 9.87207 13.2079L9.99263 13.5893C10.2981 13.4928 10.6237 13.4745 10.9384 13.5363L11.0155 13.1438ZM9.93235 13.1986H9.92956V13.5986H9.93235V13.1986ZM9.92956 13.1986H9.92682V13.5986H9.92956V13.1986ZM9.86575 13.2082C9.29262 13.392 8.81601 13.7917 8.54135 14.321L8.89639 14.5053C9.12172 14.071 9.51385 13.7411 9.9879 13.5891L9.86575 13.2082ZM8.54135 14.321C8.26661 14.8505 8.21681 15.4658 8.40322 16.0315L8.78313 15.9063C8.6305 15.4431 8.67114 14.9394 8.89639 14.5053L8.54135 14.321ZM8.40332 16.0318L9.18809 18.401L9.5678 18.2752L8.78303 15.906L8.40332 16.0318ZM9.17794 18.3381V18.3435H9.57794V18.3381H9.17794ZM9.17794 18.3435V18.3489H9.57794V18.3435H9.17794ZM9.18881 18.4139L9.93285 20.5781L10.3111 20.448L9.56708 18.2838L9.18881 18.4139ZM9.93292 20.5783C10.2781 21.5786 10.8525 22.4874 11.6115 23.2348L11.8922 22.9498C11.1767 22.2453 10.6359 21.3893 10.311 20.4478L9.93292 20.5783ZM11.6111 23.2344C12.8366 24.4484 14.4911 25.1513 16.2301 25.1976L16.2408 24.7978C14.6024 24.7541 13.0451 24.0919 11.8926 22.9502L11.6111 23.2344ZM16.2355 25.1977H16.2387V24.7977H16.2355V25.1977ZM16.2387 25.1977C16.2722 25.1977 16.3058 25.1982 16.3409 25.1988C16.3753 25.1993 16.4113 25.1999 16.4471 25.1999V24.7999C16.4152 24.7999 16.3824 24.7994 16.3473 24.7988C16.3127 24.7983 16.276 24.7977 16.2387 24.7977V25.1977ZM16.4471 25.1999H16.4508V24.7999H16.4471V25.1999ZM16.4516 25.1999L17.9269 25.1941L17.9253 24.7941L16.45 24.7999L16.4516 25.1999ZM17.9269 25.1941C19.2352 25.1888 20.5181 24.8385 21.6416 24.1796L21.4393 23.8346C20.3769 24.4576 19.1633 24.789 17.9253 24.7941L17.9269 25.1941ZM21.637 24.1822C22.6216 23.6392 23.4575 22.8694 24.0725 21.9387L23.7388 21.7182C23.1597 22.5944 22.3723 23.3199 21.4439 23.832L21.637 24.1822ZM24.0725 21.9387C24.6876 21.008 25.0635 19.9444 25.1674 18.8391L24.7692 18.8017C24.6714 19.8411 24.3179 20.842 23.7388 21.7182L24.0725 21.9387ZM25.1667 18.8459C25.1964 18.6141 25.1971 18.2684 25.1971 18.2663H24.7971C24.7971 18.2661 24.797 18.2866 24.7965 18.3209C24.796 18.3551 24.7951 18.4026 24.7933 18.4566C24.7896 18.5662 24.7826 18.6961 24.7699 18.7949L25.1667 18.8459ZM25.1971 18.2663V18.2636H24.7971V18.2663H25.1971ZM25.1971 18.265L25.1989 18.0008L24.7989 17.998L24.7971 18.2623L25.1971 18.265ZM16.2717 23.7767C14.9011 23.738 13.5988 23.1833 12.6343 22.2287L12.353 22.513C13.3903 23.5398 14.7894 24.135 16.2604 24.1765L16.2717 23.7767ZM12.6338 22.2282C12.0311 21.6362 11.5761 20.916 11.3038 20.1238L10.9255 20.2537C11.2181 21.1052 11.7069 21.8785 12.3535 22.5135L12.6338 22.2282ZM11.3038 20.1237L10.5598 17.9595L10.1815 18.0895L10.9256 20.2538L11.3038 20.1237ZM10.5605 17.9616L9.77573 15.5928L9.39603 15.7186L10.1808 18.0874L10.5605 17.9616ZM9.77574 15.5928C9.70789 15.388 9.72564 15.1651 9.82539 14.9729L9.47034 14.7886C9.32101 15.0765 9.29418 15.4111 9.39602 15.7186L9.77574 15.5928ZM9.82539 14.9729C9.92522 14.7804 10.0995 14.6337 10.3108 14.5663L10.1892 14.1852C9.87853 14.2844 9.61959 14.501 9.47034 14.7886L9.82539 14.9729ZM10.3103 14.5664C10.3935 14.5401 10.4803 14.5265 10.5678 14.526L10.5656 14.126C10.438 14.1267 10.3112 14.1466 10.1896 14.1851L10.3103 14.5664ZM10.5674 14.526C10.745 14.5254 10.9178 14.5801 11.0609 14.6819L11.2927 14.3558C11.081 14.2054 10.8265 14.1251 10.566 14.126L10.5674 14.526ZM11.0609 14.6819C11.204 14.7836 11.3099 14.9268 11.3641 15.0904L11.7438 14.9648C11.6626 14.7194 11.5044 14.5063 11.2927 14.3558L11.0609 14.6819ZM11.3641 15.0905L12.0236 17.082L12.4033 16.9562L11.7438 14.9647L11.3641 15.0905ZM12.0237 17.0822L12.0607 17.1935L12.4402 17.0673L12.4033 16.956L12.0237 17.0822ZM12.0596 17.1902C12.0871 17.2779 12.1354 17.3575 12.2 17.4225L12.4838 17.1406C12.4638 17.1205 12.4494 17.0965 12.4413 17.0706L12.0596 17.1902ZM12.2032 17.4256C12.2563 17.4768 12.3191 17.517 12.3879 17.5439L12.5338 17.1715C12.5138 17.1637 12.4958 17.1521 12.4806 17.1375L12.2032 17.4256ZM12.3879 17.5439C12.4565 17.5708 12.5299 17.5841 12.6037 17.5829L12.5974 17.183C12.5756 17.1833 12.554 17.1794 12.5338 17.1715L12.3879 17.5439ZM12.5961 17.5829C12.672 17.5846 12.7476 17.5712 12.8182 17.5434L12.6717 17.1712C12.6507 17.1795 12.628 17.1835 12.605 17.183L12.5961 17.5829ZM12.8182 17.5434C12.8889 17.5156 12.9534 17.4739 13.0076 17.4207L12.7274 17.1352C12.7117 17.1506 12.6928 17.1629 12.6717 17.1712L12.8182 17.5434ZM13.0076 17.4207C13.0618 17.3675 13.1047 17.3038 13.1334 17.2333L12.7631 17.0821C12.7551 17.1017 12.743 17.1198 12.7274 17.1352L13.0076 17.4207ZM13.1334 17.2333C13.1622 17.1629 13.1762 17.0874 13.1744 17.0113L12.7745 17.0206C12.775 17.0416 12.7712 17.0625 12.7631 17.0821L13.1334 17.2333ZM13.1745 17.0153L13.1342 5.27178L12.7342 5.27315L12.7745 17.0167L13.1745 17.0153ZM13.1342 5.27174C13.1335 5.05661 13.2197 4.84921 13.3752 4.69535L13.0938 4.41101C12.8628 4.63958 12.7331 4.94963 12.7342 5.27319L13.1342 5.27174ZM13.3752 4.69535C13.5308 4.54137 13.7432 4.4537 13.9658 4.45274L13.964 4.05274C13.6378 4.05415 13.3247 4.18256 13.0938 4.41101L13.3752 4.69535ZM13.9649 4.45274H13.9845V4.05274H13.9649V4.45274ZM13.9812 4.45271C14.1942 4.45624 14.3966 4.54158 14.5451 4.68929L14.8271 4.40568C14.6045 4.18427 14.3031 4.05798 13.9878 4.05277L13.9812 4.45271ZM14.5462 4.69041C14.7117 4.85237 14.8046 5.07111 14.806 5.29886L15.206 5.29635C15.2039 4.96079 15.0669 4.64037 14.826 4.40456L14.5462 4.69041ZM14.806 5.29826L14.8394 15.4186L15.2394 15.4173L15.206 5.29694L14.806 5.29826ZM14.8394 15.4181C14.8395 15.5857 14.9061 15.7459 15.024 15.865L15.3083 15.5837C15.2637 15.5386 15.2394 15.4791 15.2394 15.4178L14.8394 15.4181ZM15.024 15.865C15.1418 15.984 15.3014 16.0526 15.4687 16.0575L15.4803 15.6577C15.4146 15.6558 15.353 15.6288 15.3083 15.5837L15.024 15.865ZM15.4745 16.0576H15.49V15.6576H15.4745V16.0576ZM15.4977 16.0574C15.6705 16.0508 15.8346 15.9782 15.9548 15.8539L15.6672 15.5759C15.6195 15.6252 15.5532 15.655 15.4824 15.6577L15.4977 16.0574ZM15.9548 15.8539C16.0751 15.7294 16.1417 15.5631 16.1393 15.3901L15.7393 15.3955C15.7402 15.4619 15.7148 15.5267 15.6672 15.5759L15.9548 15.8539ZM16.1393 15.392L16.1233 11.5714L15.7233 11.5731L15.7393 15.3936L16.1393 15.392ZM16.1233 11.5716C16.1226 11.3565 16.2089 11.1491 16.3644 10.9953L16.0831 10.7109C15.8521 10.9394 15.7223 11.2493 15.7233 11.5728L16.1233 11.5716ZM16.3644 10.9953C16.52 10.8413 16.7323 10.7535 16.9549 10.7525L16.953 10.3525C16.6268 10.354 16.3139 10.4825 16.0831 10.7109L16.3644 10.9953ZM16.9539 10.7525H16.9731V10.3525H16.9539V10.7525ZM16.9697 10.7525C17.1828 10.7561 17.3851 10.8416 17.5336 10.9894L17.8158 10.7059C17.5933 10.4844 17.2919 10.3579 16.9766 10.3525L16.9697 10.7525ZM17.5348 10.9906C17.7003 11.1526 17.7932 11.3713 17.7946 11.599L18.1946 11.5965C18.1925 11.261 18.0555 10.9406 17.8146 10.7047L17.5348 10.9906ZM17.7946 11.5986L17.8125 15.9365L18.2125 15.9348L18.1946 11.597L17.7946 11.5986ZM17.8125 15.9358C17.8126 16.1035 17.8793 16.2638 17.9973 16.383L18.2815 16.1014C18.2369 16.0564 18.2125 15.9968 18.2125 15.9355L17.8125 15.9358ZM17.9973 16.383C18.1152 16.5019 18.275 16.5706 18.4425 16.5753L18.4537 16.1754C18.388 16.1736 18.3263 16.1466 18.2815 16.1014L17.9973 16.383ZM18.4481 16.5753H18.4631V16.1753H18.4481V16.5753ZM18.4708 16.5752C18.6435 16.5686 18.8075 16.4959 18.9276 16.3717L18.64 16.0937C18.5923 16.143 18.5262 16.1728 18.4555 16.1755L18.4708 16.5752ZM18.9276 16.3717C19.0477 16.2474 19.1143 16.0812 19.1119 15.9082L18.712 15.9137C18.7129 15.9799 18.6875 16.0446 18.64 16.0937L18.9276 16.3717ZM19.112 15.9102L19.0973 12.3884L18.6974 12.39L18.712 15.9118L19.112 15.9102ZM19.0973 12.386C19.0939 12.1691 19.1766 11.9587 19.3292 11.7997L19.0405 11.5228C18.8157 11.7571 18.6922 12.069 18.6974 12.3924L19.0973 12.386ZM19.3292 11.7997C19.4818 11.6405 19.6925 11.5454 19.9166 11.5356L19.8991 11.136C19.5733 11.1502 19.2652 11.2885 19.0405 11.5228L19.3292 11.7997ZM19.9079 11.5358H19.9275V11.1358H19.9079V11.5358ZM19.9282 11.5358C20.1508 11.535 20.3638 11.621 20.5207 11.7738L20.7998 11.4873C20.5671 11.2606 20.253 11.1347 19.9268 11.1358L19.9282 11.5358ZM20.5207 11.7738C20.6775 11.9265 20.7654 12.1332 20.7664 12.3484L21.1664 12.3466C21.1649 12.023 21.0326 11.714 20.7998 11.4873L20.5207 11.7738ZM20.7664 12.3483L20.7837 16.5435L21.1837 16.5418L21.1664 12.3466L20.7664 12.3483ZM20.7837 16.5435C20.7845 16.7148 20.8545 16.8781 20.9772 16.9976L21.2563 16.711C21.2097 16.6656 21.184 16.6047 21.1837 16.5418L20.7837 16.5435ZM20.9772 16.9976C21.0381 17.0568 21.1099 17.1034 21.1885 17.135L21.3377 16.7638C21.3069 16.7515 21.2793 16.7334 21.2563 16.711L20.9772 16.9976ZM21.1885 17.135C21.2672 17.1666 21.3513 17.1826 21.4361 17.1823L21.4345 16.7823C21.4012 16.7824 21.3683 16.7761 21.3377 16.7638L21.1885 17.135ZM21.4361 17.1823C21.5209 17.182 21.6049 17.1652 21.6834 17.133L21.5312 16.7631C21.5007 16.7756 21.4678 16.7822 21.4345 16.7823L21.4361 17.1823ZM21.6834 17.133C21.7618 17.1007 21.8332 17.0535 21.8935 16.9939L21.6121 16.7096C21.5892 16.7323 21.5617 16.7505 21.5312 16.7631L21.6834 17.133ZM21.8935 16.9939C21.9537 16.9343 22.0016 16.8634 22.0343 16.7851L21.6651 16.6312C21.653 16.6602 21.6351 16.6869 21.6121 16.7096L21.8935 16.9939ZM22.0343 16.7851C22.0669 16.7069 22.0836 16.623 22.0832 16.5383L21.6832 16.5399C21.6834 16.5711 21.6772 16.6021 21.6651 16.6312L22.0343 16.7851ZM22.0832 16.5383L22.0709 13.5248L21.6709 13.5264L21.6832 16.5399L22.0832 16.5383ZM22.0709 13.5223C22.0673 13.3053 22.1501 13.0948 22.3027 12.9358L22.0142 12.6588C21.7892 12.8932 21.6656 13.2053 21.6709 13.5289L22.0709 13.5223ZM22.3027 12.9358C22.4555 12.7766 22.6663 12.6816 22.8905 12.672L22.8734 12.2724C22.5474 12.2863 22.239 12.4245 22.0142 12.6588L22.3027 12.9358ZM22.8819 12.6722H22.9011V12.2722H22.8819V12.6722ZM22.902 12.6722C23.0121 12.6717 23.1211 12.6925 23.2229 12.7334L23.3719 12.3622C23.2221 12.3021 23.0619 12.2715 22.9002 12.2722L22.902 12.6722ZM23.2229 12.7334C23.3246 12.7743 23.417 12.8343 23.4946 12.9098L23.7736 12.6231C23.6582 12.5109 23.5217 12.4223 23.3719 12.3622L23.2229 12.7334ZM23.4946 12.9098C23.5723 12.9854 23.6339 13.0751 23.676 13.1736L24.0438 13.0165C23.9808 12.869 23.8889 12.7354 23.7736 12.6231L23.4946 12.9098ZM23.676 13.1736C23.7181 13.2722 23.7399 13.3777 23.7404 13.4843L24.1404 13.4825C24.1397 13.3223 24.1068 13.164 24.0438 13.0165L23.676 13.1736ZM23.7404 13.4842L23.7546 16.9728L24.1546 16.9712L24.1404 13.4826L23.7404 13.4842ZM23.7546 16.9729L23.7591 18.0048L24.1591 18.003L24.1546 16.9711L23.7546 16.9729ZM23.7591 18.0039V18.2731H24.1591V18.0039H23.7591ZM23.7591 18.273C23.7591 18.4124 23.7518 18.5518 23.7373 18.6907L24.1352 18.732C24.151 18.5796 24.159 18.4265 24.1591 18.2732L23.7591 18.273ZM23.7371 18.6932C23.6566 19.5752 23.3576 20.4247 22.8659 21.1678L23.1995 21.3885C23.7275 20.5906 24.0489 19.6777 24.1354 18.7295L23.7371 18.6932ZM22.8659 21.1678C22.3742 21.9109 21.7047 22.5252 20.9153 22.9567L21.1071 23.3077C21.9532 22.8452 22.6716 22.1864 23.1995 21.3885L22.8659 21.1678ZM20.9101 22.9597C20.0085 23.4882 18.9786 23.7693 17.9281 23.7734L17.9296 24.1734C19.0504 24.169 20.1496 23.8691 21.1123 23.3048L20.9101 22.9597ZM17.928 23.7734L16.4526 23.7797L16.4543 24.1797L17.9297 24.1734L17.928 23.7734ZM16.4535 23.7797C16.4534 23.7797 16.4533 23.7797 16.4531 23.7797C16.453 23.7797 16.4529 23.7797 16.4528 23.7797C16.4527 23.7797 16.4525 23.7797 16.4524 23.7797C16.4523 23.7797 16.4522 23.7797 16.4521 23.7797C16.4519 23.7797 16.4518 23.7797 16.4517 23.7797C16.4516 23.7797 16.4515 23.7797 16.4513 23.7797C16.4512 23.7797 16.4511 23.7797 16.451 23.7797C16.4509 23.7797 16.4508 23.7797 16.4506 23.7797C16.4505 23.7797 16.4504 23.7797 16.4503 23.7797C16.4502 23.7797 16.45 23.7797 16.4499 23.7797C16.4498 23.7797 16.4497 23.7797 16.4496 23.7797C16.4494 23.7797 16.4493 23.7797 16.4492 23.7797C16.4491 23.7797 16.449 23.7797 16.4488 23.7797C16.4487 23.7797 16.4486 23.7797 16.4485 23.7797C16.4484 23.7797 16.4483 23.7797 16.4481 23.7797C16.448 23.7797 16.4479 23.7797 16.4478 23.7797C16.4477 23.7797 16.4475 23.7797 16.4474 23.7797C16.4473 23.7797 16.4472 23.7797 16.4471 23.7797C16.4469 23.7797 16.4468 23.7797 16.4467 23.7797C16.4466 23.7797 16.4465 23.7797 16.4463 23.7797C16.4462 23.7797 16.4461 23.7797 16.446 23.7797C16.4459 23.7797 16.4458 23.7797 16.4456 23.7797C16.4455 23.7797 16.4454 23.7797 16.4453 23.7797C16.4452 23.7797 16.445 23.7797 16.4449 23.7797C16.4448 23.7797 16.4447 23.7797 16.4446 23.7797C16.4444 23.7797 16.4443 23.7797 16.4442 23.7797C16.4441 23.7797 16.444 23.7797 16.4438 23.7797C16.4437 23.7797 16.4436 23.7797 16.4435 23.7797C16.4434 23.7797 16.4433 23.7797 16.4431 23.7797C16.443 23.7797 16.4429 23.7797 16.4428 23.7797C16.4427 23.7797 16.4425 23.7797 16.4424 23.7797C16.4423 23.7797 16.4422 23.7797 16.4421 23.7797C16.4419 23.7797 16.4418 23.7797 16.4417 23.7797C16.4416 23.7797 16.4415 23.7797 16.4413 23.7797C16.4412 23.7797 16.4411 23.7797 16.441 23.7797C16.4409 23.7797 16.4408 23.7797 16.4406 23.7797C16.4405 23.7797 16.4404 23.7797 16.4403 23.7797C16.4402 23.7797 16.44 23.7797 16.4399 23.7797C16.4398 23.7797 16.4397 23.7797 16.4396 23.7797C16.4394 23.7797 16.4393 23.7797 16.4392 23.7797C16.4391 23.7797 16.439 23.7797 16.4388 23.7797C16.4387 23.7797 16.4386 23.7797 16.4385 23.7797C16.4384 23.7797 16.4383 23.7797 16.4381 23.7797C16.438 23.7797 16.4379 23.7797 16.4378 23.7797C16.4377 23.7797 16.4375 23.7797 16.4374 23.7797C16.4373 23.7797 16.4372 23.7797 16.4371 23.7797C16.4369 23.7797 16.4368 23.7797 16.4367 23.7797C16.4366 23.7797 16.4365 23.7797 16.4363 23.7797C16.4362 23.7797 16.4361 23.7797 16.436 23.7797C16.4359 23.7797 16.4358 23.7797 16.4356 23.7797C16.4355 23.7797 16.4354 23.7797 16.4353 23.7797C16.4352 23.7797 16.435 23.7797 16.4349 23.7797C16.4348 23.7797 16.4347 23.7797 16.4346 23.7797C16.4344 23.7797 16.4343 23.7797 16.4342 23.7797C16.4341 23.7797 16.434 23.7797 16.4339 23.7797C16.4337 23.7797 16.4336 23.7797 16.4335 23.7797C16.4334 23.7797 16.4333 23.7797 16.4331 23.7797C16.433 23.7797 16.4329 23.7797 16.4328 23.7797C16.4327 23.7797 16.4325 23.7797 16.4324 23.7797C16.4323 23.7797 16.4322 23.7797 16.4321 23.7797C16.4319 23.7797 16.4318 23.7797 16.4317 23.7797C16.4316 23.7797 16.4315 23.7797 16.4314 23.7797C16.4312 23.7797 16.4311 23.7797 16.431 23.7797C16.4309 23.7797 16.4308 23.7797 16.4306 23.7797C16.4305 23.7797 16.4304 23.7797 16.4303 23.7797C16.4302 23.7797 16.43 23.7797 16.4299 23.7797C16.4298 23.7797 16.4297 23.7797 16.4296 23.7797C16.4294 23.7797 16.4293 23.7797 16.4292 23.7797C16.4291 23.7797 16.429 23.7797 16.4289 23.7797C16.4287 23.7797 16.4286 23.7797 16.4285 23.7797C16.4284 23.7797 16.4283 23.7797 16.4281 23.7797C16.428 23.7797 16.4279 23.7797 16.4278 23.7797C16.4277 23.7797 16.4275 23.7797 16.4274 23.7797C16.4273 23.7797 16.4272 23.7797 16.4271 23.7797C16.4269 23.7797 16.4268 23.7797 16.4267 23.7797C16.4266 23.7797 16.4265 23.7797 16.4264 23.7797C16.4262 23.7797 16.4261 23.7797 16.426 23.7797C16.4259 23.7797 16.4258 23.7797 16.4256 23.7797C16.4255 23.7797 16.4254 23.7797 16.4253 23.7797C16.4252 23.7797 16.425 23.7797 16.4249 23.7797C16.4248 23.7797 16.4247 23.7797 16.4246 23.7797C16.4244 23.7797 16.4243 23.7797 16.4242 23.7797C16.4241 23.7797 16.424 23.7797 16.4239 23.7797C16.4237 23.7797 16.4236 23.7797 16.4235 23.7797C16.4234 23.7797 16.4233 23.7797 16.4231 23.7797C16.423 23.7797 16.4229 23.7797 16.4228 23.7797C16.4227 23.7797 16.4225 23.7797 16.4224 23.7797C16.4223 23.7797 16.4222 23.7797 16.4221 23.7797C16.4219 23.7797 16.4218 23.7797 16.4217 23.7797C16.4216 23.7797 16.4215 23.7797 16.4214 23.7797C16.4212 23.7797 16.4211 23.7797 16.421 23.7797C16.4209 23.7797 16.4208 23.7797 16.4206 23.7797C16.4205 23.7797 16.4204 23.7797 16.4203 23.7797C16.4202 23.7797 16.42 23.7797 16.4199 23.7797C16.4198 23.7797 16.4197 23.7797 16.4196 23.7797C16.4194 23.7797 16.4193 23.7797 16.4192 23.7797C16.4191 23.7797 16.419 23.7797 16.4189 23.7797C16.4187 23.7797 16.4186 23.7797 16.4185 23.7797C16.4184 23.7797 16.4183 23.7797 16.4181 23.7797C16.418 23.7797 16.4179 23.7797 16.4178 23.7797C16.4177 23.7797 16.4175 23.7797 16.4174 23.7797C16.4173 23.7797 16.4172 23.7797 16.4171 23.7797C16.4169 23.7797 16.4168 23.7797 16.4167 23.7797C16.4166 23.7797 16.4165 23.7797 16.4164 23.7797C16.4162 23.7797 16.4161 23.7797 16.416 23.7797C16.4159 23.7797 16.4158 23.7797 16.4156 23.7797C16.4155 23.7797 16.4154 23.7797 16.4153 23.7797C16.4152 23.7797 16.415 23.7797 16.4149 23.7797C16.4148 23.7797 16.4147 23.7797 16.4146 23.7797C16.4144 23.7797 16.4143 23.7797 16.4142 23.7797C16.4141 23.7797 16.414 23.7797 16.4139 23.7797C16.4137 23.7797 16.4136 23.7797 16.4135 23.7797C16.4134 23.7797 16.4133 23.7797 16.4131 23.7797C16.413 23.7797 16.4129 23.7797 16.4128 23.7797C16.4127 23.7797 16.4125 23.7797 16.4124 23.7797C16.4123 23.7797 16.4122 23.7797 16.4121 23.7797C16.4119 23.7797 16.4118 23.7797 16.4117 23.7797C16.4116 23.7797 16.4115 23.7797 16.4114 23.7797C16.4112 23.7797 16.4111 23.7797 16.411 23.7797C16.4109 23.7797 16.4108 23.7797 16.4106 23.7797C16.4105 23.7797 16.4104 23.7797 16.4103 23.7797C16.4102 23.7797 16.41 23.7797 16.4099 23.7797C16.4098 23.7797 16.4097 23.7797 16.4096 23.7797C16.4094 23.7797 16.4093 23.7797 16.4092 23.7797C16.4091 23.7797 16.409 23.7797 16.4089 23.7797C16.4087 23.7797 16.4086 23.7797 16.4085 23.7797C16.4084 23.7797 16.4083 23.7797 16.4081 23.7797C16.408 23.7797 16.4079 23.7797 16.4078 23.7797C16.4077 23.7797 16.4075 23.7797 16.4074 23.7797C16.4073 23.7797 16.4072 23.7797 16.4071 23.7797C16.4069 23.7797 16.4068 23.7797 16.4067 23.7797C16.4066 23.7797 16.4065 23.7797 16.4064 23.7797C16.4062 23.7797 16.4061 23.7797 16.406 23.7797C16.4059 23.7797 16.4058 23.7797 16.4056 23.7797C16.4055 23.7797 16.4054 23.7797 16.4053 23.7797C16.4052 23.7797 16.405 23.7797 16.4049 23.7797C16.4048 23.7797 16.4047 23.7797 16.4046 23.7797C16.4044 23.7797 16.4043 23.7797 16.4042 23.7797C16.4041 23.7797 16.404 23.7797 16.4039 23.7797C16.4037 23.7797 16.4036 23.7797 16.4035 23.7797C16.4034 23.7797 16.4033 23.7797 16.4031 23.7797C16.403 23.7797 16.4029 23.7797 16.4028 23.7797C16.4027 23.7797 16.4025 23.7797 16.4024 23.7797C16.4023 23.7797 16.4022 23.7797 16.4021 23.7797C16.402 23.7797 16.4018 23.7797 16.4017 23.7797C16.4016 23.7797 16.4015 23.7797 16.4014 23.7797C16.4012 23.7797 16.4011 23.7797 16.401 23.7797C16.4009 23.7797 16.4008 23.7797 16.4006 23.7797C16.4005 23.7797 16.4004 23.7797 16.4003 23.7797C16.4002 23.7797 16.4 23.7797 16.3999 23.7797C16.3998 23.7797 16.3997 23.7797 16.3996 23.7797C16.3995 23.7797 16.3993 23.7797 16.3992 23.7797C16.3991 23.7797 16.399 23.7797 16.3989 23.7797C16.3987 23.7797 16.3986 23.7797 16.3985 23.7797C16.3984 23.7797 16.3983 23.7797 16.3981 23.7797C16.398 23.7797 16.3979 23.7797 16.3978 23.7797C16.3977 23.7797 16.3975 23.7797 16.3974 23.7797C16.3973 23.7797 16.3972 23.7797 16.3971 23.7797C16.397 23.7797 16.3968 23.7797 16.3967 23.7797C16.3966 23.7797 16.3965 23.7797 16.3964 23.7797C16.3962 23.7797 16.3961 23.7797 16.396 23.7797C16.3959 23.7797 16.3958 23.7797 16.3956 23.7797C16.3955 23.7797 16.3954 23.7797 16.3953 23.7797C16.3952 23.7797 16.395 23.7797 16.3949 23.7797C16.3948 23.7797 16.3947 23.7797 16.3946 23.7797C16.3945 23.7797 16.3943 23.7797 16.3942 23.7797C16.3941 23.7797 16.394 23.7797 16.3939 23.7797C16.3937 23.7797 16.3936 23.7797 16.3935 23.7797C16.3934 23.7797 16.3933 23.7797 16.3931 23.7797C16.393 23.7797 16.3929 23.7797 16.3928 23.7797C16.3927 23.7797 16.3925 23.7797 16.3924 23.7797C16.3923 23.7797 16.3922 23.7797 16.3921 23.7797C16.392 23.7797 16.3918 23.7797 16.3917 23.7797C16.3916 23.7797 16.3915 23.7797 16.3914 23.7797C16.3912 23.7797 16.3911 23.7797 16.391 23.7797C16.3909 23.7797 16.3908 23.7797 16.3906 23.7797C16.3905 23.7797 16.3904 23.7797 16.3903 23.7797C16.3902 23.7797 16.39 23.7797 16.3899 23.7797C16.3898 23.7797 16.3897 23.7797 16.3896 23.7797C16.3895 23.7797 16.3893 23.7797 16.3892 23.7797C16.3891 23.7797 16.389 23.7797 16.3889 23.7797C16.3887 23.7797 16.3886 23.7797 16.3885 23.7797C16.3884 23.7797 16.3883 23.7797 16.3881 23.7797C16.388 23.7797 16.3879 23.7797 16.3878 23.7797C16.3877 23.7797 16.3875 23.7797 16.3874 23.7797C16.3873 23.7797 16.3872 23.7797 16.3871 23.7797C16.387 23.7797 16.3868 23.7797 16.3867 23.7797C16.3866 23.7797 16.3865 23.7797 16.3864 23.7797C16.3862 23.7797 16.3861 23.7797 16.386 23.7797C16.3859 23.7797 16.3858 23.7797 16.3856 23.7797C16.3855 23.7797 16.3854 23.7797 16.3853 23.7797C16.3852 23.7797 16.385 23.7797 16.3849 23.7797C16.3848 23.7797 16.3847 23.7797 16.3846 23.7797C16.3845 23.7797 16.3843 23.7797 16.3842 23.7797C16.3841 23.7797 16.384 23.7797 16.3839 23.7797C16.3837 23.7797 16.3836 23.7797 16.3835 23.7797C16.3834 23.7797 16.3833 23.7797 16.3831 23.7797C16.383 23.7797 16.3829 23.7797 16.3828 23.7797C16.3827 23.7797 16.3825 23.7797 16.3824 23.7797C16.3823 23.7797 16.3822 23.7797 16.3821 23.7797C16.382 23.7797 16.3818 23.7797 16.3817 23.7797C16.3816 23.7797 16.3815 23.7797 16.3814 23.7797C16.3812 23.7797 16.3811 23.7797 16.381 23.7797C16.3809 23.7797 16.3808 23.7797 16.3806 23.7797C16.3805 23.7797 16.3804 23.7797 16.3803 23.7797C16.3802 23.7797 16.38 23.7797 16.3799 23.7797C16.3798 23.7797 16.3797 23.7797 16.3796 23.7797C16.3795 23.7797 16.3793 23.7797 16.3792 23.7797C16.3791 23.7797 16.379 23.7797 16.3789 23.7797C16.3787 23.7797 16.3786 23.7797 16.3785 23.7797C16.3784 23.7797 16.3783 23.7797 16.3781 23.7797C16.378 23.7797 16.3779 23.7797 16.3778 23.7797C16.3777 23.7797 16.3775 23.7797 16.3774 23.7797C16.3773 23.7797 16.3772 23.7797 16.3771 23.7797C16.377 23.7797 16.3768 23.7797 16.3767 23.7797C16.3766 23.7797 16.3765 23.7797 16.3764 23.7797C16.3762 23.7797 16.3761 23.7797 16.376 23.7797C16.3759 23.7797 16.3758 23.7797 16.3756 23.7797C16.3755 23.7797 16.3754 23.7797 16.3753 23.7797C16.3752 23.7797 16.375 23.7797 16.3749 23.7797C16.3748 23.7797 16.3747 23.7797 16.3746 23.7797C16.3745 23.7797 16.3743 23.7797 16.3742 23.7797C16.3741 23.7797 16.374 23.7797 16.3739 23.7797C16.3737 23.7797 16.3736 23.7797 16.3735 23.7797C16.3734 23.7797 16.3733 23.7797 16.3731 23.7797C16.373 23.7797 16.3729 23.7797 16.3728 23.7797C16.3727 23.7797 16.3725 23.7797 16.3724 23.7797C16.3723 23.7797 16.3722 23.7797 16.3721 23.7797C16.372 23.7797 16.3718 23.7797 16.3717 23.7797C16.3716 23.7797 16.3715 23.7797 16.3714 23.7797C16.3712 23.7797 16.3711 23.7797 16.371 23.7797C16.3709 23.7797 16.3708 23.7797 16.3706 23.7797C16.3705 23.7797 16.3704 23.7797 16.3703 23.7797C16.3702 23.7797 16.37 23.7797 16.3699 23.7797C16.3698 23.7797 16.3697 23.7797 16.3696 23.7797C16.3695 23.7797 16.3693 23.7797 16.3692 23.7797C16.3691 23.7797 16.369 23.7797 16.3689 23.7797C16.3687 23.7797 16.3686 23.7797 16.3685 23.7797C16.3684 23.7797 16.3683 23.7797 16.3681 23.7797C16.368 23.7797 16.3679 23.7797 16.3678 23.7797C16.3677 23.7797 16.3675 23.7797 16.3674 23.7797C16.3673 23.7797 16.3672 23.7797 16.3671 23.7797C16.367 23.7797 16.3668 23.7797 16.3667 23.7797C16.3666 23.7797 16.3665 23.7797 16.3664 23.7797C16.3662 23.7797 16.3661 23.7797 16.366 23.7797C16.3659 23.7797 16.3658 23.7797 16.3656 23.7797C16.3655 23.7797 16.3654 23.7797 16.3653 23.7797C16.3652 23.7797 16.365 23.7797 16.3649 23.7797C16.3648 23.7797 16.3647 23.7797 16.3646 23.7797C16.3645 23.7797 16.3643 23.7797 16.3642 23.7797C16.3641 23.7797 16.364 23.7797 16.3639 23.7797C16.3637 23.7797 16.3636 23.7797 16.3635 23.7797C16.3634 23.7797 16.3633 23.7797 16.3631 23.7797C16.363 23.7797 16.3629 23.7797 16.3628 23.7797C16.3627 23.7797 16.3626 23.7797 16.3624 23.7797C16.3623 23.7797 16.3622 23.7797 16.3621 23.7797C16.362 23.7797 16.3618 23.7797 16.3617 23.7797C16.3616 23.7797 16.3615 23.7797 16.3614 23.7797C16.3612 23.7797 16.3611 23.7797 16.361 23.7797C16.3609 23.7797 16.3608 23.7797 16.3606 23.7797C16.3605 23.7797 16.3604 23.7797 16.3603 23.7797C16.3602 23.7797 16.3601 23.7797 16.3599 23.7797C16.3598 23.7797 16.3597 23.7797 16.3596 23.7797C16.3595 23.7797 16.3593 23.7797 16.3592 23.7797C16.3591 23.7797 16.359 23.7797 16.3589 23.7797C16.3587 23.7797 16.3586 23.7797 16.3585 23.7797C16.3584 23.7797 16.3583 23.7797 16.3581 23.7797C16.358 23.7797 16.3579 23.7797 16.3578 23.7797C16.3577 23.7797 16.3576 23.7797 16.3574 23.7797C16.3573 23.7797 16.3572 23.7797 16.3571 23.7797C16.357 23.7797 16.3568 23.7797 16.3567 23.7797C16.3566 23.7797 16.3565 23.7797 16.3564 23.7797C16.3562 23.7797 16.3561 23.7797 16.356 23.7797C16.3559 23.7797 16.3558 23.7797 16.3556 23.7797C16.3555 23.7797 16.3554 23.7797 16.3553 23.7797C16.3552 23.7797 16.3551 23.7797 16.3549 23.7797C16.3548 23.7797 16.3547 23.7797 16.3546 23.7797C16.3545 23.7797 16.3543 23.7797 16.3542 23.7797C16.3541 23.7797 16.354 23.7797 16.3539 23.7797C16.3537 23.7797 16.3536 23.7797 16.3535 23.7797C16.3534 23.7797 16.3533 23.7797 16.3531 23.7797C16.353 23.7797 16.3529 23.7797 16.3528 23.7797C16.3527 23.7797 16.3526 23.7797 16.3524 23.7797C16.3523 23.7797 16.3522 23.7797 16.3521 23.7797C16.352 23.7797 16.3518 23.7797 16.3517 23.7797C16.3516 23.7797 16.3515 23.7797 16.3514 23.7797C16.3512 23.7797 16.3511 23.7797 16.351 23.7797C16.3509 23.7797 16.3508 23.7797 16.3506 23.7797C16.3505 23.7797 16.3504 23.7797 16.3503 23.7797C16.3502 23.7797 16.3501 23.7797 16.3499 23.7797C16.3498 23.7797 16.3497 23.7797 16.3496 23.7797C16.3495 23.7797 16.3493 23.7797 16.3492 23.7797C16.3491 23.7797 16.349 23.7797 16.3489 23.7797C16.3487 23.7797 16.3486 23.7797 16.3485 23.7797C16.3484 23.7797 16.3483 23.7797 16.3481 23.7797C16.348 23.7797 16.3479 23.7797 16.3478 23.7797C16.3477 23.7797 16.3476 23.7797 16.3474 23.7797C16.3473 23.7797 16.3472 23.7797 16.3471 23.7797C16.347 23.7797 16.3468 23.7797 16.3467 23.7797C16.3466 23.7797 16.3465 23.7797 16.3464 23.7797C16.3462 23.7797 16.3461 23.7797 16.346 23.7797C16.3459 23.7797 16.3458 23.7797 16.3456 23.7797C16.3455 23.7797 16.3454 23.7797 16.3453 23.7797C16.3452 23.7797 16.3451 23.7797 16.3449 23.7797C16.3448 23.7797 16.3447 23.7797 16.3446 23.7797C16.3445 23.7797 16.3443 23.7797 16.3442 23.7797C16.3441 23.7797 16.344 23.7797 16.3439 23.7797C16.3437 23.7797 16.3436 23.7797 16.3435 23.7797C16.3434 23.7797 16.3433 23.7797 16.3431 23.7797C16.343 23.7797 16.3429 23.7797 16.3428 23.7797C16.3427 23.7797 16.3426 23.7797 16.3424 23.7797C16.3423 23.7797 16.3422 23.7797 16.3421 23.7797C16.342 23.7797 16.3418 23.7797 16.3417 23.7797C16.3416 23.7797 16.3415 23.7797 16.3414 23.7797C16.3412 23.7797 16.3411 23.7797 16.341 23.7797C16.3409 23.7797 16.3408 23.7797 16.3406 23.7797C16.3405 23.7797 16.3404 23.7797 16.3403 23.7797C16.3402 23.7797 16.3401 23.7797 16.3399 23.7797C16.3398 23.7797 16.3397 23.7797 16.3396 23.7797C16.3395 23.7797 16.3393 23.7797 16.3392 23.7797C16.3391 23.7797 16.339 23.7797 16.3389 23.7797C16.3387 23.7797 16.3386 23.7797 16.3385 23.7797C16.3384 23.7797 16.3383 23.7797 16.3381 23.7797C16.338 23.7797 16.3379 23.7797 16.3378 23.7797C16.3377 23.7797 16.3376 23.7797 16.3374 23.7797C16.3373 23.7797 16.3372 23.7797 16.3371 23.7797C16.337 23.7797 16.3368 23.7797 16.3367 23.7797C16.3366 23.7797 16.3365 23.7797 16.3364 23.7797C16.3362 23.7797 16.3361 23.7797 16.336 23.7797C16.3359 23.7797 16.3358 23.7797 16.3356 23.7797C16.3355 23.7797 16.3354 23.7797 16.3353 23.7797C16.3352 23.7797 16.3351 23.7797 16.3349 23.7797C16.3348 23.7797 16.3347 23.7797 16.3346 23.7797C16.3345 23.7797 16.3343 23.7797 16.3342 23.7797C16.3341 23.7797 16.334 23.7797 16.3339 23.7797C16.3337 23.7797 16.3336 23.7797 16.3335 23.7797C16.3334 23.7797 16.3333 23.7797 16.3331 23.7797C16.333 23.7797 16.3329 23.7797 16.3328 23.7797C16.3327 23.7797 16.3326 23.7797 16.3324 23.7797C16.3323 23.7797 16.3322 23.7797 16.3321 23.7797C16.332 23.7797 16.3318 23.7797 16.3317 23.7797C16.3316 23.7797 16.3315 23.7797 16.3314 23.7797C16.3312 23.7797 16.3311 23.7797 16.331 23.7797C16.3309 23.7797 16.3308 23.7797 16.3306 23.7797C16.3305 23.7797 16.3304 23.7797 16.3303 23.7797C16.3302 23.7797 16.3301 23.7797 16.3299 23.7797C16.3298 23.7797 16.3297 23.7797 16.3296 23.7797C16.3295 23.7797 16.3293 23.7797 16.3292 23.7797C16.3291 23.7797 16.329 23.7797 16.3289 23.7797C16.3287 23.7797 16.3286 23.7797 16.3285 23.7797C16.3284 23.7797 16.3283 23.7797 16.3281 23.7797C16.328 23.7797 16.3279 23.7797 16.3278 23.7797C16.3277 23.7797 16.3276 23.7797 16.3274 23.7797C16.3273 23.7797 16.3272 23.7797 16.3271 23.7797C16.327 23.7797 16.3268 23.7797 16.3267 23.7797C16.3266 23.7797 16.3265 23.7797 16.3264 23.7797C16.3262 23.7797 16.3261 23.7797 16.326 23.7797C16.3259 23.7797 16.3258 23.7797 16.3256 23.7797C16.3255 23.7797 16.3254 23.7797 16.3253 23.7797C16.3252 23.7797 16.3251 23.7797 16.3249 23.7797C16.3248 23.7797 16.3247 23.7797 16.3246 23.7797C16.3245 23.7797 16.3243 23.7797 16.3242 23.7797C16.3241 23.7797 16.324 23.7797 16.3239 23.7797C16.3237 23.7797 16.3236 23.7797 16.3235 23.7797C16.3234 23.7797 16.3233 23.7797 16.3232 23.7797C16.323 23.7797 16.3229 23.7797 16.3228 23.7797C16.3227 23.7797 16.3226 23.7797 16.3224 23.7797C16.3223 23.7797 16.3222 23.7797 16.3221 23.7797C16.322 23.7797 16.3218 23.7797 16.3217 23.7797C16.3216 23.7797 16.3215 23.7797 16.3214 23.7797C16.3212 23.7797 16.3211 23.7797 16.321 23.7797C16.3209 23.7797 16.3208 23.7797 16.3207 23.7797C16.3205 23.7797 16.3204 23.7797 16.3203 23.7797C16.3202 23.7797 16.3201 23.7797 16.3199 23.7797C16.3198 23.7797 16.3197 23.7797 16.3196 23.7797C16.3195 23.7797 16.3193 23.7797 16.3192 23.7797C16.3191 23.7797 16.319 23.7797 16.3189 23.7797C16.3187 23.7797 16.3186 23.7797 16.3185 23.7797C16.3184 23.7797 16.3183 23.7797 16.3182 23.7797C16.318 23.7797 16.3179 23.7797 16.3178 23.7797C16.3177 23.7797 16.3176 23.7797 16.3174 23.7797C16.3173 23.7797 16.3172 23.7797 16.3171 23.7797C16.317 23.7797 16.3168 23.7797 16.3167 23.7797C16.3166 23.7797 16.3165 23.7797 16.3164 23.7797C16.3162 23.7797 16.3161 23.7797 16.316 23.7797C16.3159 23.7797 16.3158 23.7797 16.3157 23.7797C16.3155 23.7797 16.3154 23.7797 16.3153 23.7797C16.3152 23.7797 16.3151 23.7797 16.3149 23.7797C16.3148 23.7797 16.3147 23.7797 16.3146 23.7797C16.3145 23.7797 16.3143 23.7797 16.3142 23.7797C16.3141 23.7797 16.314 23.7797 16.3139 23.7797C16.3137 23.7797 16.3136 23.7797 16.3135 23.7797C16.3134 23.7797 16.3133 23.7797 16.3132 23.7797C16.313 23.7797 16.3129 23.7797 16.3128 23.7797C16.3127 23.7797 16.3126 23.7797 16.3124 23.7797C16.3123 23.7797 16.3122 23.7797 16.3121 23.7797C16.312 23.7797 16.3118 23.7797 16.3117 23.7797C16.3116 23.7797 16.3115 23.7797 16.3114 23.7797C16.3112 23.7797 16.3111 23.7797 16.311 23.7797C16.3109 23.7797 16.3108 23.7797 16.3107 23.7797C16.3105 23.7797 16.3104 23.7797 16.3103 23.7797C16.3102 23.7797 16.3101 23.7797 16.3099 23.7797C16.3098 23.7797 16.3097 23.7797 16.3096 23.7797C16.3095 23.7797 16.3093 23.7797 16.3092 23.7797C16.3091 23.7797 16.309 23.7797 16.3089 23.7797C16.3087 23.7797 16.3086 23.7797 16.3085 23.7797C16.3084 23.7797 16.3083 23.7797 16.3082 23.7797C16.308 23.7797 16.3079 23.7797 16.3078 23.7797C16.3077 23.7797 16.3076 23.7797 16.3074 23.7797C16.3073 23.7797 16.3072 23.7797 16.3071 23.7797C16.307 23.7797 16.3068 23.7797 16.3067 23.7797C16.3066 23.7797 16.3065 23.7797 16.3064 23.7797C16.3062 23.7797 16.3061 23.7797 16.306 23.7797C16.3059 23.7797 16.3058 23.7797 16.3057 23.7797C16.3055 23.7797 16.3054 23.7797 16.3053 23.7797C16.3052 23.7797 16.3051 23.7797 16.3049 23.7797C16.3048 23.7797 16.3047 23.7797 16.3046 23.7797C16.3045 23.7797 16.3043 23.7797 16.3042 23.7797C16.3041 23.7797 16.304 23.7797 16.3039 23.7797C16.3037 23.7797 16.3036 23.7797 16.3035 23.7797C16.3034 23.7797 16.3033 23.7797 16.3032 23.7797C16.303 23.7797 16.3029 23.7797 16.3028 23.7797C16.3027 23.7797 16.3026 23.7797 16.3024 23.7797C16.3023 23.7797 16.3022 23.7797 16.3021 23.7797C16.302 23.7797 16.3018 23.7797 16.3017 23.7797C16.3016 23.7797 16.3015 23.7797 16.3014 23.7797C16.3012 23.7797 16.3011 23.7797 16.301 23.7797C16.3009 23.7797 16.3008 23.7797 16.3007 23.7797C16.3005 23.7797 16.3004 23.7797 16.3003 23.7797C16.3002 23.7797 16.3001 23.7797 16.2999 23.7797C16.2998 23.7797 16.2997 23.7797 16.2996 23.7797C16.2995 23.7797 16.2993 23.7797 16.2992 23.7797C16.2991 23.7797 16.299 23.7797 16.2989 23.7797C16.2987 23.7797 16.2986 23.7797 16.2985 23.7797C16.2984 23.7797 16.2983 23.7797 16.2982 23.7797C16.298 23.7797 16.2979 23.7797 16.2978 23.7797C16.2977 23.7797 16.2976 23.7797 16.2974 23.7797C16.2973 23.7797 16.2972 23.7797 16.2971 23.7797C16.297 23.7797 16.2968 23.7797 16.2967 23.7797C16.2966 23.7797 16.2965 23.7797 16.2964 23.7797C16.2962 23.7797 16.2961 23.7797 16.296 23.7797C16.2959 23.7797 16.2958 23.7797 16.2957 23.7797C16.2955 23.7797 16.2954 23.7797 16.2953 23.7797C16.2952 23.7797 16.2951 23.7797 16.2949 23.7797C16.2948 23.7797 16.2947 23.7797 16.2946 23.7797C16.2945 23.7797 16.2943 23.7797 16.2942 23.7797C16.2941 23.7797 16.294 23.7797 16.2939 23.7797C16.2937 23.7797 16.2936 23.7797 16.2935 23.7797C16.2934 23.7797 16.2933 23.7797 16.2932 23.7797C16.293 23.7797 16.2929 23.7797 16.2928 23.7797C16.2927 23.7797 16.2926 23.7797 16.2924 23.7797C16.2923 23.7797 16.2922 23.7797 16.2921 23.7797C16.292 23.7797 16.2918 23.7797 16.2917 23.7797C16.2916 23.7797 16.2915 23.7797 16.2914 23.7797C16.2913 23.7797 16.2911 23.7797 16.291 23.7797C16.2909 23.7797 16.2908 23.7797 16.2907 23.7797C16.2905 23.7797 16.2904 23.7797 16.2903 23.7797C16.2902 23.7797 16.2901 23.7797 16.2899 23.7797C16.2898 23.7797 16.2897 23.7797 16.2896 23.7797C16.2895 23.7797 16.2893 23.7797 16.2892 23.7797C16.2891 23.7797 16.289 23.7797 16.2889 23.7797C16.2888 23.7797 16.2886 23.7797 16.2885 23.7797C16.2884 23.7797 16.2883 23.7797 16.2882 23.7797C16.288 23.7797 16.2879 23.7797 16.2878 23.7797C16.2877 23.7797 16.2876 23.7797 16.2874 23.7797C16.2873 23.7797 16.2872 23.7797 16.2871 23.7797C16.287 23.7797 16.2868 23.7797 16.2867 23.7797C16.2866 23.7797 16.2865 23.7797 16.2864 23.7797C16.2863 23.7797 16.2861 23.7797 16.286 23.7797C16.2859 23.7797 16.2858 23.7797 16.2857 23.7797C16.2855 23.7797 16.2854 23.7797 16.2853 23.7797C16.2852 23.7797 16.2851 23.7797 16.2849 23.7797C16.2848 23.7797 16.2847 23.7797 16.2846 23.7797C16.2845 23.7797 16.2843 23.7797 16.2842 23.7797C16.2841 23.7797 16.284 23.7797 16.2839 23.7797C16.2838 23.7797 16.2836 23.7797 16.2835 23.7797C16.2834 23.7797 16.2833 23.7797 16.2832 23.7797C16.283 23.7797 16.2829 23.7797 16.2828 23.7797C16.2827 23.7797 16.2826 23.7797 16.2824 23.7797C16.2823 23.7797 16.2822 23.7797 16.2821 23.7797C16.282 23.7797 16.2818 23.7797 16.2817 23.7797C16.2816 23.7797 16.2815 23.7797 16.2814 23.7797C16.2813 23.7797 16.2811 23.7797 16.281 23.7797C16.2809 23.7797 16.2808 23.7797 16.2807 23.7797C16.2805 23.7797 16.2804 23.7797 16.2803 23.7797C16.2802 23.7797 16.2801 23.7797 16.2799 23.7797C16.2798 23.7797 16.2797 23.7797 16.2796 23.7797C16.2795 23.7797 16.2793 23.7797 16.2792 23.7797C16.2791 23.7797 16.279 23.7797 16.2789 23.7797C16.2788 23.7797 16.2786 23.7797 16.2785 23.7797C16.2784 23.7797 16.2783 23.7797 16.2782 23.7797C16.278 23.7797 16.2779 23.7797 16.2778 23.7797C16.2777 23.7797 16.2776 23.7797 16.2774 23.7797C16.2773 23.7797 16.2772 23.7797 16.2771 23.7797C16.277 23.7797 16.2768 23.7797 16.2767 23.7797C16.2766 23.7797 16.2765 23.7797 16.2764 23.7797C16.2763 23.7797 16.2761 23.7797 16.276 23.7797C16.2759 23.7797 16.2758 23.7797 16.2757 23.7797C16.2755 23.7797 16.2754 23.7797 16.2753 23.7797C16.2752 23.7797 16.2751 23.7797 16.2749 23.7797C16.2748 23.7797 16.2747 23.7797 16.2746 23.7797C16.2745 23.7797 16.2743 23.7797 16.2742 23.7797C16.2741 23.7797 16.274 23.7797 16.2739 23.7797C16.2738 23.7797 16.2736 23.7797 16.2735 23.7797C16.2734 23.7797 16.2733 23.7797 16.2732 23.7797C16.273 23.7797 16.2729 23.7797 16.2728 23.7797C16.2727 23.7797 16.2726 23.7797 16.2724 23.7797C16.2723 23.7797 16.2722 23.7797 16.2721 23.7797C16.272 23.7797 16.2718 23.7797 16.2717 23.7797C16.2716 23.7797 16.2715 23.7797 16.2714 23.7797C16.2713 23.7797 16.2711 23.7797 16.271 23.7797C16.2709 23.7797 16.2708 23.7797 16.2707 23.7797V24.1797C16.2708 24.1797 16.2709 24.1797 16.271 24.1797C16.2711 24.1797 16.2713 24.1797 16.2714 24.1797C16.2715 24.1797 16.2716 24.1797 16.2717 24.1797C16.2718 24.1797 16.272 24.1797 16.2721 24.1797C16.2722 24.1797 16.2723 24.1797 16.2724 24.1797C16.2726 24.1797 16.2727 24.1797 16.2728 24.1797C16.2729 24.1797 16.273 24.1797 16.2732 24.1797C16.2733 24.1797 16.2734 24.1797 16.2735 24.1797C16.2736 24.1797 16.2738 24.1797 16.2739 24.1797C16.274 24.1797 16.2741 24.1797 16.2742 24.1797C16.2743 24.1797 16.2745 24.1797 16.2746 24.1797C16.2747 24.1797 16.2748 24.1797 16.2749 24.1797C16.2751 24.1797 16.2752 24.1797 16.2753 24.1797C16.2754 24.1797 16.2755 24.1797 16.2757 24.1797C16.2758 24.1797 16.2759 24.1797 16.276 24.1797C16.2761 24.1797 16.2763 24.1797 16.2764 24.1797C16.2765 24.1797 16.2766 24.1797 16.2767 24.1797C16.2768 24.1797 16.277 24.1797 16.2771 24.1797C16.2772 24.1797 16.2773 24.1797 16.2774 24.1797C16.2776 24.1797 16.2777 24.1797 16.2778 24.1797C16.2779 24.1797 16.278 24.1797 16.2782 24.1797C16.2783 24.1797 16.2784 24.1797 16.2785 24.1797C16.2786 24.1797 16.2788 24.1797 16.2789 24.1797C16.279 24.1797 16.2791 24.1797 16.2792 24.1797C16.2793 24.1797 16.2795 24.1797 16.2796 24.1797C16.2797 24.1797 16.2798 24.1797 16.2799 24.1797C16.2801 24.1797 16.2802 24.1797 16.2803 24.1797C16.2804 24.1797 16.2805 24.1797 16.2807 24.1797C16.2808 24.1797 16.2809 24.1797 16.281 24.1797C16.2811 24.1797 16.2813 24.1797 16.2814 24.1797C16.2815 24.1797 16.2816 24.1797 16.2817 24.1797C16.2818 24.1797 16.282 24.1797 16.2821 24.1797C16.2822 24.1797 16.2823 24.1797 16.2824 24.1797C16.2826 24.1797 16.2827 24.1797 16.2828 24.1797C16.2829 24.1797 16.283 24.1797 16.2832 24.1797C16.2833 24.1797 16.2834 24.1797 16.2835 24.1797C16.2836 24.1797 16.2838 24.1797 16.2839 24.1797C16.284 24.1797 16.2841 24.1797 16.2842 24.1797C16.2843 24.1797 16.2845 24.1797 16.2846 24.1797C16.2847 24.1797 16.2848 24.1797 16.2849 24.1797C16.2851 24.1797 16.2852 24.1797 16.2853 24.1797C16.2854 24.1797 16.2855 24.1797 16.2857 24.1797C16.2858 24.1797 16.2859 24.1797 16.286 24.1797C16.2861 24.1797 16.2863 24.1797 16.2864 24.1797C16.2865 24.1797 16.2866 24.1797 16.2867 24.1797C16.2868 24.1797 16.287 24.1797 16.2871 24.1797C16.2872 24.1797 16.2873 24.1797 16.2874 24.1797C16.2876 24.1797 16.2877 24.1797 16.2878 24.1797C16.2879 24.1797 16.288 24.1797 16.2882 24.1797C16.2883 24.1797 16.2884 24.1797 16.2885 24.1797C16.2886 24.1797 16.2888 24.1797 16.2889 24.1797C16.289 24.1797 16.2891 24.1797 16.2892 24.1797C16.2893 24.1797 16.2895 24.1797 16.2896 24.1797C16.2897 24.1797 16.2898 24.1797 16.2899 24.1797C16.2901 24.1797 16.2902 24.1797 16.2903 24.1797C16.2904 24.1797 16.2905 24.1797 16.2907 24.1797C16.2908 24.1797 16.2909 24.1797 16.291 24.1797C16.2911 24.1797 16.2913 24.1797 16.2914 24.1797C16.2915 24.1797 16.2916 24.1797 16.2917 24.1797C16.2918 24.1797 16.292 24.1797 16.2921 24.1797C16.2922 24.1797 16.2923 24.1797 16.2924 24.1797C16.2926 24.1797 16.2927 24.1797 16.2928 24.1797C16.2929 24.1797 16.293 24.1797 16.2932 24.1797C16.2933 24.1797 16.2934 24.1797 16.2935 24.1797C16.2936 24.1797 16.2937 24.1797 16.2939 24.1797C16.294 24.1797 16.2941 24.1797 16.2942 24.1797C16.2943 24.1797 16.2945 24.1797 16.2946 24.1797C16.2947 24.1797 16.2948 24.1797 16.2949 24.1797C16.2951 24.1797 16.2952 24.1797 16.2953 24.1797C16.2954 24.1797 16.2955 24.1797 16.2957 24.1797C16.2958 24.1797 16.2959 24.1797 16.296 24.1797C16.2961 24.1797 16.2962 24.1797 16.2964 24.1797C16.2965 24.1797 16.2966 24.1797 16.2967 24.1797C16.2968 24.1797 16.297 24.1797 16.2971 24.1797C16.2972 24.1797 16.2973 24.1797 16.2974 24.1797C16.2976 24.1797 16.2977 24.1797 16.2978 24.1797C16.2979 24.1797 16.298 24.1797 16.2982 24.1797C16.2983 24.1797 16.2984 24.1797 16.2985 24.1797C16.2986 24.1797 16.2987 24.1797 16.2989 24.1797C16.299 24.1797 16.2991 24.1797 16.2992 24.1797C16.2993 24.1797 16.2995 24.1797 16.2996 24.1797C16.2997 24.1797 16.2998 24.1797 16.2999 24.1797C16.3001 24.1797 16.3002 24.1797 16.3003 24.1797C16.3004 24.1797 16.3005 24.1797 16.3007 24.1797C16.3008 24.1797 16.3009 24.1797 16.301 24.1797C16.3011 24.1797 16.3012 24.1797 16.3014 24.1797C16.3015 24.1797 16.3016 24.1797 16.3017 24.1797C16.3018 24.1797 16.302 24.1797 16.3021 24.1797C16.3022 24.1797 16.3023 24.1797 16.3024 24.1797C16.3026 24.1797 16.3027 24.1797 16.3028 24.1797C16.3029 24.1797 16.303 24.1797 16.3032 24.1797C16.3033 24.1797 16.3034 24.1797 16.3035 24.1797C16.3036 24.1797 16.3037 24.1797 16.3039 24.1797C16.304 24.1797 16.3041 24.1797 16.3042 24.1797C16.3043 24.1797 16.3045 24.1797 16.3046 24.1797C16.3047 24.1797 16.3048 24.1797 16.3049 24.1797C16.3051 24.1797 16.3052 24.1797 16.3053 24.1797C16.3054 24.1797 16.3055 24.1797 16.3057 24.1797C16.3058 24.1797 16.3059 24.1797 16.306 24.1797C16.3061 24.1797 16.3062 24.1797 16.3064 24.1797C16.3065 24.1797 16.3066 24.1797 16.3067 24.1797C16.3068 24.1797 16.307 24.1797 16.3071 24.1797C16.3072 24.1797 16.3073 24.1797 16.3074 24.1797C16.3076 24.1797 16.3077 24.1797 16.3078 24.1797C16.3079 24.1797 16.308 24.1797 16.3082 24.1797C16.3083 24.1797 16.3084 24.1797 16.3085 24.1797C16.3086 24.1797 16.3087 24.1797 16.3089 24.1797C16.309 24.1797 16.3091 24.1797 16.3092 24.1797C16.3093 24.1797 16.3095 24.1797 16.3096 24.1797C16.3097 24.1797 16.3098 24.1797 16.3099 24.1797C16.3101 24.1797 16.3102 24.1797 16.3103 24.1797C16.3104 24.1797 16.3105 24.1797 16.3107 24.1797C16.3108 24.1797 16.3109 24.1797 16.311 24.1797C16.3111 24.1797 16.3112 24.1797 16.3114 24.1797C16.3115 24.1797 16.3116 24.1797 16.3117 24.1797C16.3118 24.1797 16.312 24.1797 16.3121 24.1797C16.3122 24.1797 16.3123 24.1797 16.3124 24.1797C16.3126 24.1797 16.3127 24.1797 16.3128 24.1797C16.3129 24.1797 16.313 24.1797 16.3132 24.1797C16.3133 24.1797 16.3134 24.1797 16.3135 24.1797C16.3136 24.1797 16.3137 24.1797 16.3139 24.1797C16.314 24.1797 16.3141 24.1797 16.3142 24.1797C16.3143 24.1797 16.3145 24.1797 16.3146 24.1797C16.3147 24.1797 16.3148 24.1797 16.3149 24.1797C16.3151 24.1797 16.3152 24.1797 16.3153 24.1797C16.3154 24.1797 16.3155 24.1797 16.3157 24.1797C16.3158 24.1797 16.3159 24.1797 16.316 24.1797C16.3161 24.1797 16.3162 24.1797 16.3164 24.1797C16.3165 24.1797 16.3166 24.1797 16.3167 24.1797C16.3168 24.1797 16.317 24.1797 16.3171 24.1797C16.3172 24.1797 16.3173 24.1797 16.3174 24.1797C16.3176 24.1797 16.3177 24.1797 16.3178 24.1797C16.3179 24.1797 16.318 24.1797 16.3182 24.1797C16.3183 24.1797 16.3184 24.1797 16.3185 24.1797C16.3186 24.1797 16.3187 24.1797 16.3189 24.1797C16.319 24.1797 16.3191 24.1797 16.3192 24.1797C16.3193 24.1797 16.3195 24.1797 16.3196 24.1797C16.3197 24.1797 16.3198 24.1797 16.3199 24.1797C16.3201 24.1797 16.3202 24.1797 16.3203 24.1797C16.3204 24.1797 16.3205 24.1797 16.3207 24.1797C16.3208 24.1797 16.3209 24.1797 16.321 24.1797C16.3211 24.1797 16.3212 24.1797 16.3214 24.1797C16.3215 24.1797 16.3216 24.1797 16.3217 24.1797C16.3218 24.1797 16.322 24.1797 16.3221 24.1797C16.3222 24.1797 16.3223 24.1797 16.3224 24.1797C16.3226 24.1797 16.3227 24.1797 16.3228 24.1797C16.3229 24.1797 16.323 24.1797 16.3232 24.1797C16.3233 24.1797 16.3234 24.1797 16.3235 24.1797C16.3236 24.1797 16.3237 24.1797 16.3239 24.1797C16.324 24.1797 16.3241 24.1797 16.3242 24.1797C16.3243 24.1797 16.3245 24.1797 16.3246 24.1797C16.3247 24.1797 16.3248 24.1797 16.3249 24.1797C16.3251 24.1797 16.3252 24.1797 16.3253 24.1797C16.3254 24.1797 16.3255 24.1797 16.3256 24.1797C16.3258 24.1797 16.3259 24.1797 16.326 24.1797C16.3261 24.1797 16.3262 24.1797 16.3264 24.1797C16.3265 24.1797 16.3266 24.1797 16.3267 24.1797C16.3268 24.1797 16.327 24.1797 16.3271 24.1797C16.3272 24.1797 16.3273 24.1797 16.3274 24.1797C16.3276 24.1797 16.3277 24.1797 16.3278 24.1797C16.3279 24.1797 16.328 24.1797 16.3281 24.1797C16.3283 24.1797 16.3284 24.1797 16.3285 24.1797C16.3286 24.1797 16.3287 24.1797 16.3289 24.1797C16.329 24.1797 16.3291 24.1797 16.3292 24.1797C16.3293 24.1797 16.3295 24.1797 16.3296 24.1797C16.3297 24.1797 16.3298 24.1797 16.3299 24.1797C16.3301 24.1797 16.3302 24.1797 16.3303 24.1797C16.3304 24.1797 16.3305 24.1797 16.3306 24.1797C16.3308 24.1797 16.3309 24.1797 16.331 24.1797C16.3311 24.1797 16.3312 24.1797 16.3314 24.1797C16.3315 24.1797 16.3316 24.1797 16.3317 24.1797C16.3318 24.1797 16.332 24.1797 16.3321 24.1797C16.3322 24.1797 16.3323 24.1797 16.3324 24.1797C16.3326 24.1797 16.3327 24.1797 16.3328 24.1797C16.3329 24.1797 16.333 24.1797 16.3331 24.1797C16.3333 24.1797 16.3334 24.1797 16.3335 24.1797C16.3336 24.1797 16.3337 24.1797 16.3339 24.1797C16.334 24.1797 16.3341 24.1797 16.3342 24.1797C16.3343 24.1797 16.3345 24.1797 16.3346 24.1797C16.3347 24.1797 16.3348 24.1797 16.3349 24.1797C16.3351 24.1797 16.3352 24.1797 16.3353 24.1797C16.3354 24.1797 16.3355 24.1797 16.3356 24.1797C16.3358 24.1797 16.3359 24.1797 16.336 24.1797C16.3361 24.1797 16.3362 24.1797 16.3364 24.1797C16.3365 24.1797 16.3366 24.1797 16.3367 24.1797C16.3368 24.1797 16.337 24.1797 16.3371 24.1797C16.3372 24.1797 16.3373 24.1797 16.3374 24.1797C16.3376 24.1797 16.3377 24.1797 16.3378 24.1797C16.3379 24.1797 16.338 24.1797 16.3381 24.1797C16.3383 24.1797 16.3384 24.1797 16.3385 24.1797C16.3386 24.1797 16.3387 24.1797 16.3389 24.1797C16.339 24.1797 16.3391 24.1797 16.3392 24.1797C16.3393 24.1797 16.3395 24.1797 16.3396 24.1797C16.3397 24.1797 16.3398 24.1797 16.3399 24.1797C16.3401 24.1797 16.3402 24.1797 16.3403 24.1797C16.3404 24.1797 16.3405 24.1797 16.3406 24.1797C16.3408 24.1797 16.3409 24.1797 16.341 24.1797C16.3411 24.1797 16.3412 24.1797 16.3414 24.1797C16.3415 24.1797 16.3416 24.1797 16.3417 24.1797C16.3418 24.1797 16.342 24.1797 16.3421 24.1797C16.3422 24.1797 16.3423 24.1797 16.3424 24.1797C16.3426 24.1797 16.3427 24.1797 16.3428 24.1797C16.3429 24.1797 16.343 24.1797 16.3431 24.1797C16.3433 24.1797 16.3434 24.1797 16.3435 24.1797C16.3436 24.1797 16.3437 24.1797 16.3439 24.1797C16.344 24.1797 16.3441 24.1797 16.3442 24.1797C16.3443 24.1797 16.3445 24.1797 16.3446 24.1797C16.3447 24.1797 16.3448 24.1797 16.3449 24.1797C16.3451 24.1797 16.3452 24.1797 16.3453 24.1797C16.3454 24.1797 16.3455 24.1797 16.3456 24.1797C16.3458 24.1797 16.3459 24.1797 16.346 24.1797C16.3461 24.1797 16.3462 24.1797 16.3464 24.1797C16.3465 24.1797 16.3466 24.1797 16.3467 24.1797C16.3468 24.1797 16.347 24.1797 16.3471 24.1797C16.3472 24.1797 16.3473 24.1797 16.3474 24.1797C16.3476 24.1797 16.3477 24.1797 16.3478 24.1797C16.3479 24.1797 16.348 24.1797 16.3481 24.1797C16.3483 24.1797 16.3484 24.1797 16.3485 24.1797C16.3486 24.1797 16.3487 24.1797 16.3489 24.1797C16.349 24.1797 16.3491 24.1797 16.3492 24.1797C16.3493 24.1797 16.3495 24.1797 16.3496 24.1797C16.3497 24.1797 16.3498 24.1797 16.3499 24.1797C16.3501 24.1797 16.3502 24.1797 16.3503 24.1797C16.3504 24.1797 16.3505 24.1797 16.3506 24.1797C16.3508 24.1797 16.3509 24.1797 16.351 24.1797C16.3511 24.1797 16.3512 24.1797 16.3514 24.1797C16.3515 24.1797 16.3516 24.1797 16.3517 24.1797C16.3518 24.1797 16.352 24.1797 16.3521 24.1797C16.3522 24.1797 16.3523 24.1797 16.3524 24.1797C16.3526 24.1797 16.3527 24.1797 16.3528 24.1797C16.3529 24.1797 16.353 24.1797 16.3531 24.1797C16.3533 24.1797 16.3534 24.1797 16.3535 24.1797C16.3536 24.1797 16.3537 24.1797 16.3539 24.1797C16.354 24.1797 16.3541 24.1797 16.3542 24.1797C16.3543 24.1797 16.3545 24.1797 16.3546 24.1797C16.3547 24.1797 16.3548 24.1797 16.3549 24.1797C16.3551 24.1797 16.3552 24.1797 16.3553 24.1797C16.3554 24.1797 16.3555 24.1797 16.3556 24.1797C16.3558 24.1797 16.3559 24.1797 16.356 24.1797C16.3561 24.1797 16.3562 24.1797 16.3564 24.1797C16.3565 24.1797 16.3566 24.1797 16.3567 24.1797C16.3568 24.1797 16.357 24.1797 16.3571 24.1797C16.3572 24.1797 16.3573 24.1797 16.3574 24.1797C16.3576 24.1797 16.3577 24.1797 16.3578 24.1797C16.3579 24.1797 16.358 24.1797 16.3581 24.1797C16.3583 24.1797 16.3584 24.1797 16.3585 24.1797C16.3586 24.1797 16.3587 24.1797 16.3589 24.1797C16.359 24.1797 16.3591 24.1797 16.3592 24.1797C16.3593 24.1797 16.3595 24.1797 16.3596 24.1797C16.3597 24.1797 16.3598 24.1797 16.3599 24.1797C16.3601 24.1797 16.3602 24.1797 16.3603 24.1797C16.3604 24.1797 16.3605 24.1797 16.3606 24.1797C16.3608 24.1797 16.3609 24.1797 16.361 24.1797C16.3611 24.1797 16.3612 24.1797 16.3614 24.1797C16.3615 24.1797 16.3616 24.1797 16.3617 24.1797C16.3618 24.1797 16.362 24.1797 16.3621 24.1797C16.3622 24.1797 16.3623 24.1797 16.3624 24.1797C16.3626 24.1797 16.3627 24.1797 16.3628 24.1797C16.3629 24.1797 16.363 24.1797 16.3631 24.1797C16.3633 24.1797 16.3634 24.1797 16.3635 24.1797C16.3636 24.1797 16.3637 24.1797 16.3639 24.1797C16.364 24.1797 16.3641 24.1797 16.3642 24.1797C16.3643 24.1797 16.3645 24.1797 16.3646 24.1797C16.3647 24.1797 16.3648 24.1797 16.3649 24.1797C16.365 24.1797 16.3652 24.1797 16.3653 24.1797C16.3654 24.1797 16.3655 24.1797 16.3656 24.1797C16.3658 24.1797 16.3659 24.1797 16.366 24.1797C16.3661 24.1797 16.3662 24.1797 16.3664 24.1797C16.3665 24.1797 16.3666 24.1797 16.3667 24.1797C16.3668 24.1797 16.367 24.1797 16.3671 24.1797C16.3672 24.1797 16.3673 24.1797 16.3674 24.1797C16.3675 24.1797 16.3677 24.1797 16.3678 24.1797C16.3679 24.1797 16.368 24.1797 16.3681 24.1797C16.3683 24.1797 16.3684 24.1797 16.3685 24.1797C16.3686 24.1797 16.3687 24.1797 16.3689 24.1797C16.369 24.1797 16.3691 24.1797 16.3692 24.1797C16.3693 24.1797 16.3695 24.1797 16.3696 24.1797C16.3697 24.1797 16.3698 24.1797 16.3699 24.1797C16.37 24.1797 16.3702 24.1797 16.3703 24.1797C16.3704 24.1797 16.3705 24.1797 16.3706 24.1797C16.3708 24.1797 16.3709 24.1797 16.371 24.1797C16.3711 24.1797 16.3712 24.1797 16.3714 24.1797C16.3715 24.1797 16.3716 24.1797 16.3717 24.1797C16.3718 24.1797 16.372 24.1797 16.3721 24.1797C16.3722 24.1797 16.3723 24.1797 16.3724 24.1797C16.3725 24.1797 16.3727 24.1797 16.3728 24.1797C16.3729 24.1797 16.373 24.1797 16.3731 24.1797C16.3733 24.1797 16.3734 24.1797 16.3735 24.1797C16.3736 24.1797 16.3737 24.1797 16.3739 24.1797C16.374 24.1797 16.3741 24.1797 16.3742 24.1797C16.3743 24.1797 16.3745 24.1797 16.3746 24.1797C16.3747 24.1797 16.3748 24.1797 16.3749 24.1797C16.375 24.1797 16.3752 24.1797 16.3753 24.1797C16.3754 24.1797 16.3755 24.1797 16.3756 24.1797C16.3758 24.1797 16.3759 24.1797 16.376 24.1797C16.3761 24.1797 16.3762 24.1797 16.3764 24.1797C16.3765 24.1797 16.3766 24.1797 16.3767 24.1797C16.3768 24.1797 16.377 24.1797 16.3771 24.1797C16.3772 24.1797 16.3773 24.1797 16.3774 24.1797C16.3775 24.1797 16.3777 24.1797 16.3778 24.1797C16.3779 24.1797 16.378 24.1797 16.3781 24.1797C16.3783 24.1797 16.3784 24.1797 16.3785 24.1797C16.3786 24.1797 16.3787 24.1797 16.3789 24.1797C16.379 24.1797 16.3791 24.1797 16.3792 24.1797C16.3793 24.1797 16.3795 24.1797 16.3796 24.1797C16.3797 24.1797 16.3798 24.1797 16.3799 24.1797C16.38 24.1797 16.3802 24.1797 16.3803 24.1797C16.3804 24.1797 16.3805 24.1797 16.3806 24.1797C16.3808 24.1797 16.3809 24.1797 16.381 24.1797C16.3811 24.1797 16.3812 24.1797 16.3814 24.1797C16.3815 24.1797 16.3816 24.1797 16.3817 24.1797C16.3818 24.1797 16.382 24.1797 16.3821 24.1797C16.3822 24.1797 16.3823 24.1797 16.3824 24.1797C16.3825 24.1797 16.3827 24.1797 16.3828 24.1797C16.3829 24.1797 16.383 24.1797 16.3831 24.1797C16.3833 24.1797 16.3834 24.1797 16.3835 24.1797C16.3836 24.1797 16.3837 24.1797 16.3839 24.1797C16.384 24.1797 16.3841 24.1797 16.3842 24.1797C16.3843 24.1797 16.3845 24.1797 16.3846 24.1797C16.3847 24.1797 16.3848 24.1797 16.3849 24.1797C16.385 24.1797 16.3852 24.1797 16.3853 24.1797C16.3854 24.1797 16.3855 24.1797 16.3856 24.1797C16.3858 24.1797 16.3859 24.1797 16.386 24.1797C16.3861 24.1797 16.3862 24.1797 16.3864 24.1797C16.3865 24.1797 16.3866 24.1797 16.3867 24.1797C16.3868 24.1797 16.387 24.1797 16.3871 24.1797C16.3872 24.1797 16.3873 24.1797 16.3874 24.1797C16.3875 24.1797 16.3877 24.1797 16.3878 24.1797C16.3879 24.1797 16.388 24.1797 16.3881 24.1797C16.3883 24.1797 16.3884 24.1797 16.3885 24.1797C16.3886 24.1797 16.3887 24.1797 16.3889 24.1797C16.389 24.1797 16.3891 24.1797 16.3892 24.1797C16.3893 24.1797 16.3895 24.1797 16.3896 24.1797C16.3897 24.1797 16.3898 24.1797 16.3899 24.1797C16.39 24.1797 16.3902 24.1797 16.3903 24.1797C16.3904 24.1797 16.3905 24.1797 16.3906 24.1797C16.3908 24.1797 16.3909 24.1797 16.391 24.1797C16.3911 24.1797 16.3912 24.1797 16.3914 24.1797C16.3915 24.1797 16.3916 24.1797 16.3917 24.1797C16.3918 24.1797 16.392 24.1797 16.3921 24.1797C16.3922 24.1797 16.3923 24.1797 16.3924 24.1797C16.3925 24.1797 16.3927 24.1797 16.3928 24.1797C16.3929 24.1797 16.393 24.1797 16.3931 24.1797C16.3933 24.1797 16.3934 24.1797 16.3935 24.1797C16.3936 24.1797 16.3937 24.1797 16.3939 24.1797C16.394 24.1797 16.3941 24.1797 16.3942 24.1797C16.3943 24.1797 16.3945 24.1797 16.3946 24.1797C16.3947 24.1797 16.3948 24.1797 16.3949 24.1797C16.395 24.1797 16.3952 24.1797 16.3953 24.1797C16.3954 24.1797 16.3955 24.1797 16.3956 24.1797C16.3958 24.1797 16.3959 24.1797 16.396 24.1797C16.3961 24.1797 16.3962 24.1797 16.3964 24.1797C16.3965 24.1797 16.3966 24.1797 16.3967 24.1797C16.3968 24.1797 16.397 24.1797 16.3971 24.1797C16.3972 24.1797 16.3973 24.1797 16.3974 24.1797C16.3975 24.1797 16.3977 24.1797 16.3978 24.1797C16.3979 24.1797 16.398 24.1797 16.3981 24.1797C16.3983 24.1797 16.3984 24.1797 16.3985 24.1797C16.3986 24.1797 16.3987 24.1797 16.3989 24.1797C16.399 24.1797 16.3991 24.1797 16.3992 24.1797C16.3993 24.1797 16.3995 24.1797 16.3996 24.1797C16.3997 24.1797 16.3998 24.1797 16.3999 24.1797C16.4 24.1797 16.4002 24.1797 16.4003 24.1797C16.4004 24.1797 16.4005 24.1797 16.4006 24.1797C16.4008 24.1797 16.4009 24.1797 16.401 24.1797C16.4011 24.1797 16.4012 24.1797 16.4014 24.1797C16.4015 24.1797 16.4016 24.1797 16.4017 24.1797C16.4018 24.1797 16.402 24.1797 16.4021 24.1797C16.4022 24.1797 16.4023 24.1797 16.4024 24.1797C16.4025 24.1797 16.4027 24.1797 16.4028 24.1797C16.4029 24.1797 16.403 24.1797 16.4031 24.1797C16.4033 24.1797 16.4034 24.1797 16.4035 24.1797C16.4036 24.1797 16.4037 24.1797 16.4039 24.1797C16.404 24.1797 16.4041 24.1797 16.4042 24.1797C16.4043 24.1797 16.4044 24.1797 16.4046 24.1797C16.4047 24.1797 16.4048 24.1797 16.4049 24.1797C16.405 24.1797 16.4052 24.1797 16.4053 24.1797C16.4054 24.1797 16.4055 24.1797 16.4056 24.1797C16.4058 24.1797 16.4059 24.1797 16.406 24.1797C16.4061 24.1797 16.4062 24.1797 16.4064 24.1797C16.4065 24.1797 16.4066 24.1797 16.4067 24.1797C16.4068 24.1797 16.4069 24.1797 16.4071 24.1797C16.4072 24.1797 16.4073 24.1797 16.4074 24.1797C16.4075 24.1797 16.4077 24.1797 16.4078 24.1797C16.4079 24.1797 16.408 24.1797 16.4081 24.1797C16.4083 24.1797 16.4084 24.1797 16.4085 24.1797C16.4086 24.1797 16.4087 24.1797 16.4089 24.1797C16.409 24.1797 16.4091 24.1797 16.4092 24.1797C16.4093 24.1797 16.4094 24.1797 16.4096 24.1797C16.4097 24.1797 16.4098 24.1797 16.4099 24.1797C16.41 24.1797 16.4102 24.1797 16.4103 24.1797C16.4104 24.1797 16.4105 24.1797 16.4106 24.1797C16.4108 24.1797 16.4109 24.1797 16.411 24.1797C16.4111 24.1797 16.4112 24.1797 16.4114 24.1797C16.4115 24.1797 16.4116 24.1797 16.4117 24.1797C16.4118 24.1797 16.4119 24.1797 16.4121 24.1797C16.4122 24.1797 16.4123 24.1797 16.4124 24.1797C16.4125 24.1797 16.4127 24.1797 16.4128 24.1797C16.4129 24.1797 16.413 24.1797 16.4131 24.1797C16.4133 24.1797 16.4134 24.1797 16.4135 24.1797C16.4136 24.1797 16.4137 24.1797 16.4139 24.1797C16.414 24.1797 16.4141 24.1797 16.4142 24.1797C16.4143 24.1797 16.4144 24.1797 16.4146 24.1797C16.4147 24.1797 16.4148 24.1797 16.4149 24.1797C16.415 24.1797 16.4152 24.1797 16.4153 24.1797C16.4154 24.1797 16.4155 24.1797 16.4156 24.1797C16.4158 24.1797 16.4159 24.1797 16.416 24.1797C16.4161 24.1797 16.4162 24.1797 16.4164 24.1797C16.4165 24.1797 16.4166 24.1797 16.4167 24.1797C16.4168 24.1797 16.4169 24.1797 16.4171 24.1797C16.4172 24.1797 16.4173 24.1797 16.4174 24.1797C16.4175 24.1797 16.4177 24.1797 16.4178 24.1797C16.4179 24.1797 16.418 24.1797 16.4181 24.1797C16.4183 24.1797 16.4184 24.1797 16.4185 24.1797C16.4186 24.1797 16.4187 24.1797 16.4189 24.1797C16.419 24.1797 16.4191 24.1797 16.4192 24.1797C16.4193 24.1797 16.4194 24.1797 16.4196 24.1797C16.4197 24.1797 16.4198 24.1797 16.4199 24.1797C16.42 24.1797 16.4202 24.1797 16.4203 24.1797C16.4204 24.1797 16.4205 24.1797 16.4206 24.1797C16.4208 24.1797 16.4209 24.1797 16.421 24.1797C16.4211 24.1797 16.4212 24.1797 16.4214 24.1797C16.4215 24.1797 16.4216 24.1797 16.4217 24.1797C16.4218 24.1797 16.4219 24.1797 16.4221 24.1797C16.4222 24.1797 16.4223 24.1797 16.4224 24.1797C16.4225 24.1797 16.4227 24.1797 16.4228 24.1797C16.4229 24.1797 16.423 24.1797 16.4231 24.1797C16.4233 24.1797 16.4234 24.1797 16.4235 24.1797C16.4236 24.1797 16.4237 24.1797 16.4239 24.1797C16.424 24.1797 16.4241 24.1797 16.4242 24.1797C16.4243 24.1797 16.4244 24.1797 16.4246 24.1797C16.4247 24.1797 16.4248 24.1797 16.4249 24.1797C16.425 24.1797 16.4252 24.1797 16.4253 24.1797C16.4254 24.1797 16.4255 24.1797 16.4256 24.1797C16.4258 24.1797 16.4259 24.1797 16.426 24.1797C16.4261 24.1797 16.4262 24.1797 16.4264 24.1797C16.4265 24.1797 16.4266 24.1797 16.4267 24.1797C16.4268 24.1797 16.4269 24.1797 16.4271 24.1797C16.4272 24.1797 16.4273 24.1797 16.4274 24.1797C16.4275 24.1797 16.4277 24.1797 16.4278 24.1797C16.4279 24.1797 16.428 24.1797 16.4281 24.1797C16.4283 24.1797 16.4284 24.1797 16.4285 24.1797C16.4286 24.1797 16.4287 24.1797 16.4289 24.1797C16.429 24.1797 16.4291 24.1797 16.4292 24.1797C16.4293 24.1797 16.4294 24.1797 16.4296 24.1797C16.4297 24.1797 16.4298 24.1797 16.4299 24.1797C16.43 24.1797 16.4302 24.1797 16.4303 24.1797C16.4304 24.1797 16.4305 24.1797 16.4306 24.1797C16.4308 24.1797 16.4309 24.1797 16.431 24.1797C16.4311 24.1797 16.4312 24.1797 16.4314 24.1797C16.4315 24.1797 16.4316 24.1797 16.4317 24.1797C16.4318 24.1797 16.4319 24.1797 16.4321 24.1797C16.4322 24.1797 16.4323 24.1797 16.4324 24.1797C16.4325 24.1797 16.4327 24.1797 16.4328 24.1797C16.4329 24.1797 16.433 24.1797 16.4331 24.1797C16.4333 24.1797 16.4334 24.1797 16.4335 24.1797C16.4336 24.1797 16.4337 24.1797 16.4339 24.1797C16.434 24.1797 16.4341 24.1797 16.4342 24.1797C16.4343 24.1797 16.4344 24.1797 16.4346 24.1797C16.4347 24.1797 16.4348 24.1797 16.4349 24.1797C16.435 24.1797 16.4352 24.1797 16.4353 24.1797C16.4354 24.1797 16.4355 24.1797 16.4356 24.1797C16.4358 24.1797 16.4359 24.1797 16.436 24.1797C16.4361 24.1797 16.4362 24.1797 16.4363 24.1797C16.4365 24.1797 16.4366 24.1797 16.4367 24.1797C16.4368 24.1797 16.4369 24.1797 16.4371 24.1797C16.4372 24.1797 16.4373 24.1797 16.4374 24.1797C16.4375 24.1797 16.4377 24.1797 16.4378 24.1797C16.4379 24.1797 16.438 24.1797 16.4381 24.1797C16.4383 24.1797 16.4384 24.1797 16.4385 24.1797C16.4386 24.1797 16.4387 24.1797 16.4388 24.1797C16.439 24.1797 16.4391 24.1797 16.4392 24.1797C16.4393 24.1797 16.4394 24.1797 16.4396 24.1797C16.4397 24.1797 16.4398 24.1797 16.4399 24.1797C16.44 24.1797 16.4402 24.1797 16.4403 24.1797C16.4404 24.1797 16.4405 24.1797 16.4406 24.1797C16.4408 24.1797 16.4409 24.1797 16.441 24.1797C16.4411 24.1797 16.4412 24.1797 16.4413 24.1797C16.4415 24.1797 16.4416 24.1797 16.4417 24.1797C16.4418 24.1797 16.4419 24.1797 16.4421 24.1797C16.4422 24.1797 16.4423 24.1797 16.4424 24.1797C16.4425 24.1797 16.4427 24.1797 16.4428 24.1797C16.4429 24.1797 16.443 24.1797 16.4431 24.1797C16.4433 24.1797 16.4434 24.1797 16.4435 24.1797C16.4436 24.1797 16.4437 24.1797 16.4438 24.1797C16.444 24.1797 16.4441 24.1797 16.4442 24.1797C16.4443 24.1797 16.4444 24.1797 16.4446 24.1797C16.4447 24.1797 16.4448 24.1797 16.4449 24.1797C16.445 24.1797 16.4452 24.1797 16.4453 24.1797C16.4454 24.1797 16.4455 24.1797 16.4456 24.1797C16.4458 24.1797 16.4459 24.1797 16.446 24.1797C16.4461 24.1797 16.4462 24.1797 16.4463 24.1797C16.4465 24.1797 16.4466 24.1797 16.4467 24.1797C16.4468 24.1797 16.4469 24.1797 16.4471 24.1797C16.4472 24.1797 16.4473 24.1797 16.4474 24.1797C16.4475 24.1797 16.4477 24.1797 16.4478 24.1797C16.4479 24.1797 16.448 24.1797 16.4481 24.1797C16.4483 24.1797 16.4484 24.1797 16.4485 24.1797C16.4486 24.1797 16.4487 24.1797 16.4488 24.1797C16.449 24.1797 16.4491 24.1797 16.4492 24.1797C16.4493 24.1797 16.4494 24.1797 16.4496 24.1797C16.4497 24.1797 16.4498 24.1797 16.4499 24.1797C16.45 24.1797 16.4502 24.1797 16.4503 24.1797C16.4504 24.1797 16.4505 24.1797 16.4506 24.1797C16.4508 24.1797 16.4509 24.1797 16.451 24.1797C16.4511 24.1797 16.4512 24.1797 16.4513 24.1797C16.4515 24.1797 16.4516 24.1797 16.4517 24.1797C16.4518 24.1797 16.4519 24.1797 16.4521 24.1797C16.4522 24.1797 16.4523 24.1797 16.4524 24.1797C16.4525 24.1797 16.4527 24.1797 16.4528 24.1797C16.4529 24.1797 16.453 24.1797 16.4531 24.1797C16.4533 24.1797 16.4534 24.1797 16.4535 24.1797V23.7797Z" fill="#0C244E" mask="url(#path-7-outside-1_26_714)"/>
</g>
</g>
</svg>
