<svg width="24" height="24" viewBox="0 0 24 24" fill="none" xmlns="http://www.w3.org/2000/svg">
<path fill-rule="evenodd" clip-rule="evenodd" d="M12 22C17.5228 22 22 17.5228 22 12C22 6.47715 17.5228 2 12 2C6.47715 2 2 6.47715 2 12C2 17.5228 6.47715 22 12 22ZM12 24C18.6274 24 24 18.6274 24 12C24 5.37258 18.6274 0 12 0C5.37258 0 0 5.37258 0 12C0 18.6274 5.37258 24 12 24Z" fill="black"/>
<path d="M15.3816 17H7.98384V15.2251H15.3816V17ZM13.4128 12.9481H7.95898V11.2528H13.4128V12.9481ZM11.1159 9.69673L11.275 13.9276C11.2916 14.3816 11.2005 14.7611 11.0016 15.066C10.806 15.3677 10.468 15.6245 9.98739 15.8366L8.63512 15.2251C8.78095 15.1953 8.89033 15.1207 8.96325 15.0014C9.03948 14.8788 9.08919 14.7329 9.11239 14.5639C9.13891 14.3949 9.15051 14.2225 9.14719 14.0469L8.99805 9.69673C8.97153 9.05042 9.09582 8.50354 9.37092 8.0561C9.64933 7.60534 10.0338 7.26396 10.5243 7.03195C11.0149 6.79663 11.5684 6.67897 12.1848 6.67897C12.7052 6.67897 13.1676 6.75189 13.5719 6.89772C13.9763 7.04024 14.3176 7.24407 14.5961 7.50923C14.8778 7.77106 15.0866 8.08096 15.2225 8.43891C15.3584 8.79687 15.418 9.18962 15.4015 9.61718L13.388 9.56249C13.3946 9.28077 13.3449 9.05539 13.2388 8.88636C13.1328 8.71732 12.9902 8.59469 12.8113 8.51846C12.6323 8.44223 12.4351 8.40411 12.2196 8.40411C12.0108 8.40411 11.8219 8.45217 11.6529 8.54829C11.4872 8.64109 11.3546 8.78361 11.2551 8.97585C11.159 9.16477 11.1126 9.40506 11.1159 9.69673Z" fill="black"/>
</svg>
