<svg width="24" height="24" viewBox="0 0 24 24" fill="none" xmlns="http://www.w3.org/2000/svg">
<g id="ic-down">
<path id="ic-down_2" d="M12.0057 18C12.2936 18 12.5814 17.8773 12.7772 17.6441L21.6891 7.91411C21.8848 7.70552 22 7.43557 22 7.12884C22 6.4908 21.5509 6 20.9522 6C20.6643 6 20.3995 6.1227 20.2037 6.31902L11.384 15.9264H12.616L3.79619 6.31902C3.61197 6.1227 3.34714 6 3.04779 6C2.44905 6 2 6.4908 2 7.12884C2 7.43557 2.11514 7.70552 2.31088 7.92638L11.2228 17.6441C11.4416 17.8773 11.7064 18 12.0057 18Z" fill="#0C244E"/>
</g>
</svg>
