<svg xmlns="http://www.w3.org/2000/svg" xmlns:xlink="http://www.w3.org/1999/xlink" width="370" height="465" viewBox="0 0 370 465">
  <defs>
    <clipPath id="clip-path">
      <rect id="Retângulo_4002" data-name="Retângulo 4002" width="370" height="465" transform="translate(30 221)" fill="#fff" stroke="#707070" stroke-width="1" opacity="0.44"/>
    </clipPath>
    <clipPath id="clip-path-2">
      <rect id="Retângulo_3990" data-name="Retângulo 3990" width="358" height="723" fill="none"/>
    </clipPath>
  </defs>
  <g id="error-title-category" transform="translate(-30 -221)" clip-path="url(#clip-path)">
    <g id="Grupo_22780" data-name="Grupo 22780">
      <g id="Grupo_22766" data-name="Grupo 22766" transform="translate(36 230)">
        <g id="Grupo_22765" data-name="Grupo 22765" clip-path="url(#clip-path-2)">
          <path id="Caminho_66846" data-name="Caminho 66846" d="M352.637,114.305h-.68V42.88A42.88,42.88,0,0,0,309.076,0H49.16A42.881,42.881,0,0,0,6.279,42.88v71.425H5.6A5.6,5.6,0,0,0,0,119.9v49.407a5.6,5.6,0,0,0,5.6,5.6h.681v11.784H5.6a5.6,5.6,0,0,0-5.6,5.6V241.7a5.6,5.6,0,0,0,5.6,5.6h.681v432.69a42.881,42.881,0,0,0,42.881,42.88H309.076a42.88,42.88,0,0,0,42.88-42.88V205.211h.68a5.6,5.6,0,0,0,5.6-5.6V119.9a5.6,5.6,0,0,0-5.6-5.6" fill="#0c244e"/>
          <path id="Caminho_66847" data-name="Caminho 66847" d="M341.6,733.156H90.539A34.828,34.828,0,0,1,55.71,698.328v-632A34.829,34.829,0,0,1,90.539,31.5H341.6a34.828,34.828,0,0,1,34.828,34.828v632A34.828,34.828,0,0,1,341.6,733.156" transform="translate(-36.953 -20.894)" fill="#fff"/>
        </g>
      </g>
      <g id="Grupo_22768" data-name="Grupo 22768" transform="translate(11196 12461)">
        <g id="Retângulo_3991" data-name="Retângulo 3991" transform="translate(-11134 -12093)" fill="none" stroke="#e8eef6" stroke-width="1">
          <rect width="306" height="254" rx="15" stroke="none"/>
          <rect x="0.5" y="0.5" width="305" height="253" rx="14.5" fill="none"/>
        </g>
        <text id="Comprinha_da_tarde" data-name="Comprinha da tarde" transform="translate(-11122 -12060)" fill="#ff5757" font-size="15" font-family="Roboto-Black, Roboto" font-weight="800"><tspan x="0" y="0">Comprinha da tarde</tspan></text>
        <text id="Café_da_tarde_para_eu_e_meus_colegas_de_trabalhos_na_sede_da_ziyøn_na_França._" data-name="Café da tarde para eu e meus colegas de trabalhos na sede da ziyøn na França. " transform="translate(-11122 -12051)" fill="#0c244e" font-size="14" font-family="Roboto-Light, Roboto" font-weight="300"><tspan x="0" y="15">Café da tarde para eu e meus colegas de </tspan><tspan x="0" y="35">trabalhos na sede da ziyøn na França. </tspan></text>
        <path id="Caminho_66848" data-name="Caminho 66848" d="M1824.278,1150.646H1520.119" transform="translate(-12653.335 -13047.668)" fill="none" stroke="#e8eef6" stroke-linecap="square" stroke-width="1"/>
        <rect id="Retângulo_3992" data-name="Retângulo 3992" width="282" height="23" rx="10" transform="translate(-11122 -11878)" fill="#014fe0"/>
        <text id="_add_item" data-name="+ add item" transform="translate(-11010.533 -11863.244)" fill="#fff" font-size="10" font-family="Roboto-Regular, Roboto"><tspan x="0" y="0">+ ADD ITEM</tspan></text>
        <rect id="Retângulo_3993" data-name="Retângulo 3993" width="31" height="31" transform="translate(-11122 -11944)" fill="none"/>
        <path id="ic-market" d="M8.137,20.07A2.135,2.135,0,1,0,10.349,22.2,2.171,2.171,0,0,0,8.137,20.07ZM1.5,3V5.134H3.712l3.982,8.1L6.2,15.845a2.006,2.006,0,0,0-.277,1.024A2.18,2.18,0,0,0,8.137,19H21.41V16.87H8.6a.269.269,0,0,1-.277-.267l.033-.128,1-1.739h8.24a2.215,2.215,0,0,0,1.936-1.1l3.96-6.924a1.013,1.013,0,0,0,.133-.512,1.09,1.09,0,0,0-1.106-1.067H6.157L5.117,3ZM19.2,20.07A2.135,2.135,0,1,0,21.41,22.2,2.171,2.171,0,0,0,19.2,20.07Z" transform="translate(-11123.741 -11942.353)" fill="#ff5757"/>
        <text id="Categoria_-_mercado" data-name="Categoria - mercado" transform="translate(-11087 -11925)" fill="#ff5757" font-size="11" font-family="Roboto-Light, Roboto" font-weight="300"><tspan x="0" y="0">Categoria - mercado</tspan></text>
        <rect id="Retângulo_3994" data-name="Retângulo 3994" width="19" height="19" transform="translate(-10990 -11938)" fill="none"/>
        <g id="Grupo_22767" data-name="Grupo 22767" transform="translate(-10985.84 -11933.865)">
          <g id="Elipse_260" data-name="Elipse 260" transform="translate(-0.16 -0.135)" fill="none" stroke="#ff5757" stroke-width="1">
            <circle cx="5.5" cy="5.5" r="5.5" stroke="none"/>
            <circle cx="5.5" cy="5.5" r="5" fill="none"/>
          </g>
          <text id="_" data-name="?" transform="translate(3.84 7.865)" fill="#ff5757" font-size="7" font-family="Roboto-Medium, Roboto" font-weight="500"><tspan x="0" y="0">?</tspan></text>
        </g>
        <rect id="Retângulo_3995" data-name="Retângulo 3995" width="19" height="19" transform="translate(-10859 -11938)" fill="none"/>
        <g id="document" transform="translate(-10858.063 -11937.001)">
          <g id="ziyon-category" transform="translate(-0.938 -0.999)">
            <rect id="Retângulo_1199" data-name="Retângulo 1199" width="19" height="19" fill="none"/>
            <g id="Layer_2" data-name="Layer 2" transform="translate(0.975 0.975)">
              <path id="Caminho_66841" data-name="Caminho 66841" d="M9.683,17H6.131A2.131,2.131,0,0,0,4,19.131v3.552a2.131,2.131,0,0,0,2.131,2.131H9.683a2.131,2.131,0,0,0,2.131-2.131V19.131A2.131,2.131,0,0,0,9.683,17Zm.71,5.683a.71.71,0,0,1-.71.71H6.131a.71.71,0,0,1-.71-.71V19.131a.71.71,0,0,1,.71-.71H9.683a.71.71,0,0,1,.71.71Z" transform="translate(-4 -7.765)" fill="#ff5757"/>
              <path id="Caminho_66842" data-name="Caminho 66842" d="M22.683,17H19.131A2.131,2.131,0,0,0,17,19.131v3.552a2.131,2.131,0,0,0,2.131,2.131h3.552a2.131,2.131,0,0,0,2.131-2.131V19.131A2.131,2.131,0,0,0,22.683,17Zm.71,5.683a.71.71,0,0,1-.71.71H19.131a.71.71,0,0,1-.71-.71V19.131a.71.71,0,0,1,.71-.71h3.552a.71.71,0,0,1,.71.71Z" transform="translate(-7.765 -7.765)" fill="#ff5757"/>
              <path id="Caminho_66843" data-name="Caminho 66843" d="M9.683,4H6.131A2.131,2.131,0,0,0,4,6.131V9.683a2.131,2.131,0,0,0,2.131,2.131H9.683a2.131,2.131,0,0,0,2.131-2.131V6.131A2.131,2.131,0,0,0,9.683,4Zm.71,5.683a.71.71,0,0,1-.71.71H6.131a.71.71,0,0,1-.71-.71V6.131a.71.71,0,0,1,.71-.71H9.683a.71.71,0,0,1,.71.71Z" transform="translate(-4 -4)" fill="#ff5757"/>
              <path id="Caminho_66844" data-name="Caminho 66844" d="M17.71,8.618H20.2V11.1a.71.71,0,0,0,1.421,0V8.618H24.1a.71.71,0,1,0,0-1.421H21.618V4.71a.71.71,0,1,0-1.421,0V7.2H17.71a.71.71,0,0,0,0,1.421Z" transform="translate(-7.765 -4)" fill="#ff5757"/>
            </g>
          </g>
        </g>
        <text id="Valor_total" data-name="Valor total" transform="translate(-11122 -11992)" fill="#0c244e" font-size="12" font-family="Roboto-Light, Roboto" font-weight="300"><tspan x="0" y="0">Valor total</tspan></text>
        <text id="R_91_42" data-name="R$91,42" transform="translate(-10885 -11992)" fill="#014fe0" font-size="12" font-family="Roboto-Light, Roboto" font-weight="300"><tspan x="0" y="0">R$91,42</tspan></text>
        <text id="Data_de_criação" data-name="Data de criação" transform="translate(-11122 -11970)" fill="#0c244e" font-size="11" font-family="Roboto-Light, Roboto" font-weight="300"><tspan x="0" y="0">Data de criação</tspan></text>
        <text id="_22_02_2023" data-name="22/02/2023" transform="translate(-10897 -11971)" fill="#0c244e" font-size="10" font-family="Roboto-Light, Roboto" font-weight="300"><tspan x="0" y="0">22/02/2023</tspan></text>
      </g>
      <g id="Grupo_22779" data-name="Grupo 22779" transform="translate(28.375 162.271)">
        <g id="Grupo_22773" data-name="Grupo 22773" transform="translate(26.624 119.629)">
          <rect id="Rectangle_69" data-name="Rectangle 69" width="320" height="46" transform="translate(0.001 0.1)" fill="none"/>
          <g id="Grupo_22770" data-name="Grupo 22770" transform="translate(267.237 8.975)">
            <rect id="Retângulo_3996" data-name="Retângulo 3996" width="33" height="33" rx="12" transform="translate(-0.237 4.125)" fill="#f4f9ff"/>
            <g id="Retângulo_3997" data-name="Retângulo 3997" transform="translate(23.763 1.125)" fill="none" stroke="#0c244f" stroke-width="1">
              <rect width="13" height="13" rx="5" stroke="none"/>
              <rect x="0.5" y="0.5" width="12" height="12" rx="4.5" fill="none"/>
            </g>
            <text id="_3" data-name="3" transform="translate(28.764 10.125)" fill="#0c244e" font-size="7" font-family="Roboto-Black, Roboto" font-weight="800"><tspan x="0" y="0">3</tspan></text>
            <g id="Grupo_22769" data-name="Grupo 22769" transform="translate(9.406 14.938)">
              <g id="Icon_feather-shopping-cart" data-name="Icon feather-shopping-cart">
                <path id="Caminho_66853" data-name="Caminho 66853" d="M13.29,30.645A.645.645,0,1,1,12.645,30,.645.645,0,0,1,13.29,30.645Z" transform="translate(-7.911 -18.908)" fill="none" stroke="#0c244f" stroke-linecap="round" stroke-linejoin="round" stroke-width="2"/>
                <path id="Caminho_66854" data-name="Caminho 66854" d="M29.79,30.645A.645.645,0,1,1,29.145,30,.645.645,0,0,1,29.79,30.645Z" transform="translate(-18.108 -18.908)" fill="none" stroke="#0c244f" stroke-linecap="round" stroke-linejoin="round" stroke-width="2"/>
                <path id="Caminho_66855" data-name="Caminho 66855" d="M1.5,1.5H3.859l1.58,7.6a1.17,1.17,0,0,0,1.179.914h5.731A1.17,1.17,0,0,0,13.528,9.1l.943-4.761H4.448" transform="translate(-1.5 -1.5)" fill="none" stroke="#0c244f" stroke-linecap="round" stroke-linejoin="round" stroke-width="2"/>
              </g>
              <path id="Caminho_66856" data-name="Caminho 66856" d="M2873.2-1368.172l.856,5.023.518.376.979.389h6.306l.483-.389.352-.813,1.092-4.9h-8.233Z" transform="translate(-2870.901 1371.396)" fill="#0c244f"/>
              <path id="Caminho_66857" data-name="Caminho 66857" d="M2874.387-1356.8v1.356h1.48v-1.356Z" transform="translate(-2870.404 1367.831)" fill="#0c244f"/>
              <path id="Caminho_66858" data-name="Caminho 66858" d="M2874.387-1356.8v1.356h1.542v-1.356Z" transform="translate(-2864.211 1367.831)" fill="#0c244f"/>
            </g>
          </g>
          <g id="ziyon-exit-larger" transform="translate(15.955 19.943)">
            <rect id="Retângulo_3998" data-name="Retângulo 3998" width="16" height="19" transform="translate(0.046 0.156)" fill="none"/>
            <g id="exit" transform="translate(1.13 4.551)">
              <g id="ic_arrow_left" transform="translate(0 10.655) rotate(-45)">
                <g id="Grupo_22771" data-name="Grupo 22771" transform="translate(0 0)">
                  <path id="Caminho_66859" data-name="Caminho 66859" d="M14.967,0H0" transform="translate(0)" fill="none" stroke="#0c244e" stroke-linecap="round" stroke-width="3"/>
                </g>
              </g>
              <g id="ic_arrow_left-2" data-name="ic_arrow_left" transform="translate(10.583 10.583) rotate(-135)">
                <g id="Grupo_22772" data-name="Grupo 22772" transform="translate(0 0)">
                  <path id="Caminho_66860" data-name="Caminho 66860" d="M14.967,0H0" transform="translate(0)" fill="none" stroke="#0c244e" stroke-linecap="round" stroke-width="3"/>
                </g>
              </g>
            </g>
          </g>
        </g>
        <g id="Grupo_22778" data-name="Grupo 22778" transform="translate(26.624 84.729)">
          <rect id="Rectangle_68" data-name="Rectangle 68" width="320" height="35" transform="translate(0.001 0)" fill="none"/>
          <g id="Grupo_22777" data-name="Grupo 22777" transform="translate(44.872 7.977)">
            <g id="Grupo_22774" data-name="Grupo 22774" transform="translate(0 7.978)">
              <text id="_9:41" data-name="9:41" transform="translate(0.128 11.045)" fill="#0c244e" font-size="12" font-family="Roboto-Bold, Roboto" font-weight="700"><tspan x="0" y="0">9:41</tspan></text>
            </g>
            <g id="Grupo_22776" data-name="Grupo 22776" transform="translate(185.399 8.761)">
              <path id="Icon_material-wifi" data-name="Icon material-wifi" d="M1.5,9.836l1.39,1.39a8.848,8.848,0,0,1,12.512,0l1.39-1.39A10.819,10.819,0,0,0,1.5,9.836ZM7.061,15.4l2.085,2.085L11.231,15.4A2.945,2.945,0,0,0,7.061,15.4Zm-2.78-2.78,1.39,1.39a4.917,4.917,0,0,1,6.951,0l1.39-1.39A6.889,6.889,0,0,0,4.28,12.616Z" transform="translate(18.235 -6.671)" fill="#0c244e"/>
              <g id="Icon_ionic-ios-battery-full" data-name="Icon ionic-ios-battery-full" transform="translate(42.388 0.527)">
                <path id="Caminho_66861" data-name="Caminho 66861" d="M17,10.125H3.13A2.011,2.011,0,0,0,1.125,12.13v5.348A2.011,2.011,0,0,0,3.13,19.484H17a2.011,2.011,0,0,0,2.005-2.005V12.13A2.011,2.011,0,0,0,17,10.125Zm.836,7.353a.838.838,0,0,1-.836.836H3.13a.838.838,0,0,1-.836-.836V12.13a.838.838,0,0,1,.836-.836H17a.838.838,0,0,1,.836.836Z" transform="translate(-1.125 -10.125)" fill="#0c244e"/>
                <path id="Caminho_66862" data-name="Caminho 66862" d="M32.625,14.386v4.3c.668,0,1.337-1.157,1.337-2.148S33.293,14.386,32.625,14.386Z" transform="translate(-13.908 -11.854)" fill="#0c244e"/>
                <path id="Caminho_66863" data-name="Caminho 66863" d="M17.869,13.5H5a.5.5,0,0,0-.5.5v4.345a.5.5,0,0,0,.5.5H17.869a.5.5,0,0,0,.5-.5V14A.5.5,0,0,0,17.869,13.5Z" transform="translate(-2.495 -11.495)" fill="#0c244e"/>
              </g>
              <g id="Grupo_22775" data-name="Grupo 22775" transform="translate(0 1.583)">
                <path id="Caminho_66864" data-name="Caminho 66864" d="M-21962.922,12419.481v7.793" transform="translate(21974.074 -12419.481)" fill="none" stroke="#0c244e" stroke-linecap="round" stroke-width="2"/>
                <line id="Linha_112" data-name="Linha 112" y2="5.948" transform="translate(7.434 1.503)" fill="none" stroke="#0c244e" stroke-linecap="round" stroke-width="2"/>
                <line id="Linha_113" data-name="Linha 113" y2="3.717" transform="translate(3.717 3.733)" fill="none" stroke="#0c244e" stroke-linecap="round" stroke-width="2"/>
                <line id="Linha_114" data-name="Linha 114" y2="2.974" transform="translate(0 4.477)" fill="none" stroke="#0c244e" stroke-linecap="round" stroke-width="2"/>
              </g>
            </g>
            <rect id="Retângulo_3999" data-name="Retângulo 3999" width="95" height="27" rx="13.5" transform="translate(67.129 0.023)" fill="#0c244e"/>
          </g>
        </g>
      </g>
      <rect id="Retângulo_4000" data-name="Retângulo 4000" width="296" height="93" transform="translate(67 406)" fill="#fff"/>
      <rect id="Retângulo_4001" data-name="Retângulo 4001" width="304" height="70" rx="21" transform="translate(63 550)" fill="#fff"/>
    </g>
  </g>
</svg>
