<svg width="24" height="24" viewBox="0 0 24 24" fill="none" xmlns="http://www.w3.org/2000/svg">
<g id="ic-calendar-plus">
<path id="Caminho 63376 (Stroke)" fill-rule="evenodd" clip-rule="evenodd" d="M4.22209 4C3.89797 4 3.58713 4.12876 3.35794 4.35794C3.12876 4.58713 3 4.89797 3 5.22209V20.7779C3 21.102 3.12875 21.4129 3.35794 21.6421C3.58713 21.8712 3.89797 22 4.22209 22H19.7779C20.102 22 20.4129 21.8712 20.6421 21.6421C20.8712 21.4129 21 21.102 21 20.7779V5.22209C21 4.89797 20.8712 4.58713 20.6421 4.35794C20.4129 4.12875 20.102 4 19.7779 4H4.22209ZM1.94373 2.94373C2.54799 2.33947 3.36754 2 4.22209 2H19.7779C20.6325 2 21.452 2.33947 22.0563 2.94373C22.6605 3.54799 23 4.36754 23 5.22209V20.7779C23 21.6325 22.6605 22.452 22.0563 23.0563C21.452 23.6605 20.6325 24 19.7779 24H4.22209C3.36754 24 2.54799 23.6605 1.94373 23.0563C1.33947 22.452 1 21.6325 1 20.7779V5.22209C1 4.36754 1.33947 3.54799 1.94373 2.94373Z" fill="#0C244E"/>
<path id="Caminho 63377 (Stroke)" fill-rule="evenodd" clip-rule="evenodd" d="M16 0C16.5523 0 17 0.447715 17 1V6C17 6.55228 16.5523 7 16 7C15.4477 7 15 6.55228 15 6V1C15 0.447715 15.4477 0 16 0Z" fill="#0C244E"/>
<path id="Caminho 63378 (Stroke)" fill-rule="evenodd" clip-rule="evenodd" d="M8 0C8.55228 0 9 0.447715 9 1V6C9 6.55228 8.55228 7 8 7C7.44772 7 7 6.55228 7 6V1C7 0.447715 7.44772 0 8 0Z" fill="#0C244E"/>
<path id="Caminho 63379 (Stroke)" fill-rule="evenodd" clip-rule="evenodd" d="M1 10C1 9.44772 1.44772 9 2 9H22C22.5523 9 23 9.44772 23 10C23 10.5523 22.5523 11 22 11H2C1.44772 11 1 10.5523 1 10Z" fill="#0C244E"/>
<path id="Linha 12 (Stroke)" fill-rule="evenodd" clip-rule="evenodd" d="M16.0529 16.6169C16.0529 17.1664 15.603 17.6119 15.0479 17.6119H8.9521C8.39704 17.6119 7.94708 17.1664 7.94708 16.6169C7.94708 16.0674 8.39704 15.6219 8.9521 15.6219H15.0479C15.603 15.6219 16.0529 16.0674 16.0529 16.6169Z" fill="#0C244E"/>
<path id="Linha 13 (Stroke)" fill-rule="evenodd" clip-rule="evenodd" d="M12 12.6045C12.5551 12.6045 13.005 13.05 13.005 13.5995L13.005 19.6343C13.005 20.1838 12.5551 20.6293 12 20.6293C11.4449 20.6293 10.995 20.1838 10.995 19.6343L10.995 13.5995C10.995 13.05 11.4449 12.6045 12 12.6045Z" fill="#0C244E"/>
</g>
</svg>
