<svg width="24" height="24" viewBox="0 0 24 24" fill="none" xmlns="http://www.w3.org/2000/svg">
<g id="ic-filter" clip-path="url(#clip0_2382_26523)">
<path id="vector (Stroke)" fill-rule="evenodd" clip-rule="evenodd" d="M11.3497 1.06341C11.9963 0.936079 12.6665 1.00143 13.2756 1.2512C13.8847 1.50097 14.4053 1.92394 14.7716 2.46662C14.9264 2.69607 15.0508 2.94256 15.1427 3.2L20.8889 3.2C21.5025 3.2 22 3.69249 22 4.3C22 4.90751 21.5025 5.4 20.8889 5.4H15.1427C14.9785 5.85969 14.7119 6.28211 14.357 6.63345C13.7319 7.25232 12.8841 7.6 12 7.6C11.3407 7.6 10.6963 7.40646 10.1481 7.04385C9.59994 6.68124 9.17269 6.16585 8.9204 5.56286C8.66811 4.95986 8.6021 4.29634 8.73071 3.6562C8.85933 3.01606 9.1768 2.42806 9.64298 1.96655C10.1092 1.50504 10.7031 1.19074 11.3497 1.06341ZM12.4252 3.28373C12.2222 3.20048 11.9988 3.17869 11.7832 3.22114C11.5677 3.26358 11.3697 3.36835 11.2143 3.52218C11.0589 3.67602 10.9531 3.87202 10.9102 4.0854C10.8674 4.29878 10.8894 4.51995 10.9735 4.72095C11.0576 4.92195 11.2 5.09375 11.3827 5.21462C11.5654 5.33549 11.7802 5.4 12 5.4C12.2947 5.4 12.5773 5.28411 12.7857 5.07782C12.994 4.87153 13.1111 4.59174 13.1111 4.3C13.1111 4.08244 13.0459 3.86977 12.9239 3.68887C12.8018 3.50798 12.6282 3.36699 12.4252 3.28373ZM2 4.3C2 3.69249 2.49746 3.2 3.11111 3.2L6.44444 3.2C7.05809 3.2 7.55556 3.69249 7.55556 4.3C7.55556 4.90751 7.05809 5.4 6.44444 5.4H3.11111C2.49746 5.4 2 4.90751 2 4.3ZM16.3096 9.66655C16.9348 9.04768 17.7826 8.7 18.6667 8.7C19.3259 8.7 19.9704 8.89354 20.5186 9.25615C21.0667 9.61876 21.494 10.1342 21.7463 10.7371C21.9986 11.3401 22.0646 12.0037 21.9359 12.6438C21.8073 13.2839 21.4899 13.8719 21.0237 14.3335C20.5575 14.795 19.9636 15.1093 19.317 15.2366C18.6704 15.3639 18.0001 15.2986 17.3911 15.0488C16.782 14.799 16.2614 14.3761 15.8951 13.8334C15.7402 13.6039 15.6159 13.3574 15.524 13.1H9.77778C9.16413 13.1 8.66667 12.6075 8.66667 12C8.66667 11.3925 9.16413 10.9 9.77778 10.9H15.524C15.6881 10.4403 15.9548 10.0179 16.3096 9.66655ZM18.6667 10.9C18.372 10.9 18.0894 11.0159 17.881 11.2222C17.6726 11.4285 17.5556 11.7083 17.5556 12C17.5556 12.2176 17.6207 12.4302 17.7428 12.6111C17.8649 12.792 18.0384 12.933 18.2415 13.0163C18.4445 13.0995 18.6679 13.1213 18.8834 13.0789C19.099 13.0364 19.2969 12.9317 19.4523 12.7778C19.6077 12.624 19.7136 12.428 19.7564 12.2146C19.7993 12.0012 19.7773 11.78 19.6932 11.579C19.6091 11.378 19.4667 11.2063 19.284 11.0854C19.1012 10.9645 18.8864 10.9 18.6667 10.9ZM2 12C2 11.3925 2.49746 10.9 3.11111 10.9H6.44444C7.05809 10.9 7.55556 11.3925 7.55556 12C7.55556 12.6075 7.05809 13.1 6.44444 13.1H3.11111C2.49746 13.1 2 12.6075 2 12ZM5.33333 18.6C5.03865 18.6 4.75603 18.7159 4.54766 18.9222C4.33928 19.1285 4.22222 19.4083 4.22222 19.7C4.22222 19.9176 4.28739 20.1302 4.40948 20.3111C4.53157 20.492 4.7051 20.633 4.90813 20.7163C5.11116 20.7995 5.33457 20.8213 5.5501 20.7789C5.76563 20.7364 5.96362 20.6317 6.11901 20.4778C6.2744 20.324 6.38022 20.128 6.42309 19.9146C6.46597 19.7012 6.44396 19.48 6.35987 19.279C6.27577 19.0781 6.13336 18.9063 5.95063 18.7854C5.76791 18.6645 5.55309 18.6 5.33333 18.6ZM2.97631 17.3665C3.60143 16.7477 4.44928 16.4 5.33333 16.4C5.9926 16.4 6.63707 16.5935 7.18523 16.9562C7.7334 17.3188 8.16064 17.8341 8.41293 18.4371C8.66522 19.0401 8.73123 19.7037 8.60262 20.3438C8.474 20.9839 8.15653 21.5719 7.69036 22.0335C7.22418 22.495 6.63024 22.8093 5.98363 22.9366C5.33703 23.0639 4.66681 22.9986 4.05772 22.7488C3.44863 22.499 2.92804 22.0761 2.56177 21.5334C2.1955 20.9907 2 20.3527 2 19.7C2 18.8248 2.35119 17.9854 2.97631 17.3665ZM9.77778 19.7C9.77778 19.0925 10.2752 18.6 10.8889 18.6H20.8889C21.5025 18.6 22 19.0925 22 19.7C22 20.3075 21.5025 20.8 20.8889 20.8H10.8889C10.2752 20.8 9.77778 20.3075 9.77778 19.7Z" fill="#0C2143"/>
</g>
<defs>
<clipPath id="clip0_2382_26523">
<rect width="24" height="24" fill="white"/>
</clipPath>
</defs>
</svg>
