<svg width="26" height="26" viewBox="0 0 26 26" fill="none" xmlns="http://www.w3.org/2000/svg">
<g id="ic-time">
<g id="Elipse 255">
<path id="Vector (Stroke)" fill-rule="evenodd" clip-rule="evenodd" d="M12.9983 2.85693C7.39658 2.85693 2.85547 7.39805 2.85547 12.9998C2.85547 18.6015 7.39658 23.1426 12.9983 23.1426C18.6001 23.1426 23.1412 18.6015 23.1412 12.9998C23.1412 7.39805 18.6001 2.85693 12.9983 2.85693ZM0.855469 12.9998C0.855469 6.29348 6.29201 0.856934 12.9983 0.856934C19.7046 0.856934 25.1412 6.29348 25.1412 12.9998C25.1412 19.7061 19.7046 25.1426 12.9983 25.1426C6.29201 25.1426 0.855469 19.7061 0.855469 12.9998Z" fill="#0C244E"/>
</g>
<path id="Caminho 66815 (Stroke)" fill-rule="evenodd" clip-rule="evenodd" d="M12 7C12.5523 7 13 7.44772 13 8V13.9385L16.3181 15.052C16.8417 15.2277 17.1237 15.7946 16.948 16.3181C16.7723 16.8417 16.2054 17.1237 15.6819 16.948L11.6819 15.6057C11.2745 15.469 11 15.0874 11 14.6577V8C11 7.44772 11.4477 7 12 7Z" fill="#0C244E"/>
</g>
</svg>
