<svg width="60" height="60" viewBox="0 0 60 60" fill="none" xmlns="http://www.w3.org/2000/svg">
<rect x="1" y="1" width="58" height="58" rx="14" stroke="#0C244E" stroke-width="2" stroke-dasharray="10 10"/>
<path d="M39.6923 19H20.3077C19.6958 19.0007 19.1092 19.2852 18.6765 19.7912C18.2439 20.2972 18.0006 20.9833 18 21.6989V34.6534C18.0006 35.369 18.2439 36.0551 18.6765 36.5611C19.1092 37.0671 19.6958 37.3516 20.3077 37.3523H24.8113C24.9336 37.3528 25.0509 37.4096 25.1376 37.5104L27.4453 40.2093C27.6595 40.46 27.9139 40.6588 28.1939 40.7945C28.4738 40.9302 28.7739 41 29.0769 41C29.38 41 29.68 40.9302 29.96 40.7945C30.24 40.6588 30.4943 40.46 30.7085 40.2093L33.0162 37.5104C33.103 37.4096 33.2202 37.3528 33.3425 37.3523H39.6923C40.3042 37.3516 40.8908 37.0671 41.3235 36.5611C41.7561 36.0551 41.9994 35.369 42 34.6534V21.6989C41.9994 20.9833 41.7561 20.2972 41.3235 19.7912C40.8908 19.2852 40.3042 19.0007 39.6923 19ZM25.3846 24.3977H30.9231C31.1679 24.3977 31.4027 24.5115 31.5758 24.7139C31.7489 24.9164 31.8462 25.191 31.8462 25.4773C31.8462 25.7636 31.7489 26.0382 31.5758 26.2406C31.4027 26.4431 31.1679 26.5568 30.9231 26.5568H25.3846C25.1398 26.5568 24.905 26.4431 24.7319 26.2406C24.5588 26.0382 24.4615 25.7636 24.4615 25.4773C24.4615 25.191 24.5588 24.9164 24.7319 24.7139C24.905 24.5115 25.1398 24.3977 25.3846 24.3977ZM34.6154 31.9546H25.3846C25.1398 31.9546 24.905 31.8408 24.7319 31.6384C24.5588 31.4359 24.4615 31.1613 24.4615 30.875C24.4615 30.5887 24.5588 30.3141 24.7319 30.1117C24.905 29.9092 25.1398 29.7955 25.3846 29.7955H34.6154C34.8602 29.7955 35.095 29.9092 35.2681 30.1117C35.4412 30.3141 35.5385 30.5887 35.5385 30.875C35.5385 31.1613 35.4412 31.4359 35.2681 31.6384C35.095 31.8408 34.8602 31.9546 34.6154 31.9546Z" fill="#0C244E"/>
</svg>
