<svg width="24" height="24" viewBox="0 0 24 24" fill="none" xmlns="http://www.w3.org/2000/svg">
<g id="ic-edit">
<g id="Group 29">
<path id="Caminho 66824 (Stroke)" fill-rule="evenodd" clip-rule="evenodd" d="M1.87515 3.98353C2.4355 3.42319 3.19549 3.1084 3.98794 3.1084H10.9457C11.498 3.1084 11.9457 3.55611 11.9457 4.1084C11.9457 4.66068 11.498 5.1084 10.9457 5.1084H3.98794C3.72592 5.1084 3.47463 5.21249 3.28936 5.39776C3.10408 5.58303 3 5.83431 3 6.09631V20.0117C3 20.2737 3.10408 20.525 3.28936 20.7103C3.47463 20.8955 3.72592 20.9996 3.98794 20.9996H17.9035C18.1656 20.9996 18.4168 20.8955 18.6021 20.7103C18.7874 20.525 18.8915 20.2737 18.8915 20.0117V13.054C18.8915 12.5017 19.3392 12.054 19.8915 12.054C20.4438 12.054 20.8915 12.5017 20.8915 13.054V20.0117C20.8915 20.8042 20.5767 21.5642 20.0163 22.1245C19.456 22.6848 18.696 22.9996 17.9035 22.9996H3.98794C3.19549 22.9996 2.4355 22.6848 1.87515 22.1245C1.3148 21.5642 1 20.8042 1 20.0117V6.09631C1 5.30387 1.3148 4.54388 1.87515 3.98353Z" fill="#0C244E"/>
<path id="Caminho 66825 (Stroke)" fill-rule="evenodd" clip-rule="evenodd" d="M19.8925 2.99951C19.5985 2.99951 19.3165 3.1163 19.1087 3.32419L9.8618 12.5709L9.33924 14.6611L11.4295 14.1386L20.6764 4.89184C20.8843 4.68395 21.001 4.402 21.001 4.10801C21.001 3.81403 20.8843 3.53208 20.6764 3.32419C20.4685 3.1163 20.1865 2.99951 19.8925 2.99951ZM17.6945 1.90997C18.2774 1.32701 19.0681 0.999512 19.8925 0.999512C20.7169 0.999512 21.5076 1.32701 22.0906 1.90997C22.6735 2.49292 23.001 3.28358 23.001 4.10801C23.001 4.93245 22.6735 5.72311 22.0906 6.30606L12.6478 15.7487C12.5197 15.8768 12.3591 15.9677 12.1833 16.0117L8.2074 17.0056C7.86662 17.0908 7.50614 16.991 7.25776 16.7426C7.00938 16.4942 6.90953 16.1337 6.99472 15.793L7.98869 11.8171C8.03265 11.6413 8.12357 11.4807 8.25173 11.3526L17.6945 1.90997Z" fill="#0C244E"/>
</g>
</g>
</svg>
