<svg width="26" height="26" viewBox="0 0 26 26" fill="none" xmlns="http://www.w3.org/2000/svg">
<g id="ic-more">
<g id="line">
<g id="Grupo 4">
<path id="Caminho 3 (Stroke)" fill-rule="evenodd" clip-rule="evenodd" d="M0.726114 12.9023C0.724205 12.3501 1.17037 11.9039 1.72265 11.9058L24.2721 11.9838C24.8244 11.9857 25.2736 12.435 25.2755 12.9872C25.2774 13.5395 24.8313 13.9857 24.279 13.9838L1.72957 13.9058C1.17729 13.9039 0.728024 13.4546 0.726114 12.9023Z" fill="#0C244E"/>
</g>
</g>
<g id="line_2">
<g id="Grupo 4_2">
<path id="Caminho 3 (Stroke)_2" fill-rule="evenodd" clip-rule="evenodd" d="M13.043 25.2201C12.4907 25.2183 12.0415 24.7691 12.0396 24.2168L11.9642 1.66737C11.9624 1.11509 12.4086 0.668874 12.9609 0.670721C13.5132 0.672567 13.9624 1.12178 13.9642 1.67406L14.0396 24.2235C14.0415 24.7758 13.5952 25.222 13.043 25.2201Z" fill="#0C244E"/>
</g>
</g>
</g>
</svg>
