<svg width="24" height="24" viewBox="0 0 24 24" fill="none" xmlns="http://www.w3.org/2000/svg">
<g id="ic-cosmetics">
<g id="Group 21">
<g id="Grupo 15403">
<g id="Clip path group">
<mask id="mask0_112_2233" style="mask-type:luminance" maskUnits="userSpaceOnUse" x="4" y="2" width="10" height="20">
<g id="clip-path">
<path id="Ret&#195;&#162;ngulo 1036" d="M13.2784 2H4V21.9984H13.2784V2Z" fill="white"/>
</g>
</mask>
<g mask="url(#mask0_112_2233)">
<g id="Grupo 15402">
<path id="Caminho 63417" d="M4.00081 15.3187C4.00081 13.5821 4.00081 11.8445 4.00081 10.1035C3.99161 9.72879 4.06105 9.35639 4.20439 9.01173C4.34773 8.66707 4.56161 8.35823 4.83145 8.10625C5.25043 7.68943 5.80747 7.45152 6.39026 7.44049C7.7139 7.41275 9.03862 7.43383 10.3623 7.42828C10.7889 7.4118 11.2126 7.50767 11.5931 7.7068C11.9639 7.90606 12.2822 8.19477 12.5208 8.54821C12.7594 8.90166 12.9112 9.3093 12.9631 9.73626C12.9886 9.93412 12.999 10.1337 12.9944 10.3332C12.9944 12.2869 12.9944 14.2405 12.9944 16.1942C12.9944 17.6455 12.9944 19.0969 12.9944 20.5483C13.0093 20.7935 12.9597 21.0384 12.8507 21.2571C12.7418 21.4758 12.5775 21.6602 12.3752 21.791C12.1604 21.9277 11.9114 21.9967 11.6589 21.9896H7.24895C6.58983 21.9896 5.93179 21.9896 5.27267 21.9896C5.00329 21.9908 4.74067 21.903 4.52339 21.7392C4.30611 21.5754 4.14563 21.3443 4.06553 21.0797C4.01904 20.9143 3.99721 20.7426 4.00081 20.5704C4.00081 18.8173 4.00081 17.0667 4.00081 15.3187Z" fill="#0C244E"/>
<path id="Caminho 63418" d="M7.70887 2.00009C8.59777 2.00009 9.48775 2.00009 10.3766 2.00009C10.5505 1.99464 10.7234 2.02757 10.8838 2.09666C11.0442 2.16576 11.1884 2.26942 11.3065 2.40066C11.8901 3.02093 12.4845 3.6301 13.0736 4.24593C13.1873 4.3432 13.2588 4.48295 13.2723 4.63444C13.2859 4.78592 13.2404 4.93674 13.1458 5.05373C13.1015 5.11663 13.0452 5.16962 12.9804 5.20948C12.9156 5.24934 12.8436 5.27524 12.7687 5.28562C12.6939 5.29599 12.6178 5.29062 12.545 5.26984C12.4722 5.24905 12.4043 5.21328 12.3454 5.16469C12.2668 5.09561 12.1926 5.02149 12.1232 4.94277C11.5809 4.38205 11.0379 3.82207 10.4942 3.26282C10.4777 3.24609 10.4579 3.23318 10.4361 3.22495C10.4144 3.21672 10.3911 3.21337 10.368 3.21511C10.0606 3.21511 9.75313 3.21511 9.44568 3.21511C9.36693 3.21511 9.3378 3.24396 9.3378 3.32607C9.31299 3.9652 9.33133 4.60545 9.32701 5.24458C9.33419 5.30234 9.33743 5.36056 9.33672 5.41879C9.32054 5.52975 9.37124 5.54417 9.46078 5.54306C9.63762 5.52822 9.81564 5.54208 9.98829 5.58412C10.1924 5.65024 10.3713 5.78013 10.5003 5.95573C10.6292 6.13134 10.7018 6.34392 10.7078 6.5639C10.7078 6.64601 10.7078 6.72923 10.7078 6.81134C10.7078 6.89345 10.6765 6.9223 10.6064 6.91564C10.5557 6.91564 10.5061 6.91564 10.4554 6.91564H6.4176C6.37771 6.91773 6.33774 6.91773 6.29786 6.91564C6.28857 6.91595 6.27931 6.9143 6.27067 6.91078C6.26203 6.90727 6.25418 6.90197 6.24761 6.89521C6.24103 6.88845 6.23588 6.88037 6.23246 6.87148C6.22905 6.86259 6.22744 6.85307 6.22774 6.84352C6.20004 6.64509 6.22173 6.44267 6.29078 6.25521C6.35983 6.06775 6.47398 5.90137 6.62256 5.77164C6.7904 5.63258 6.99826 5.55455 7.21372 5.54972C7.30758 5.54972 7.40143 5.54972 7.4942 5.54972C7.58697 5.54972 7.61071 5.52087 7.60963 5.43099C7.60963 5.04263 7.60963 4.65427 7.60963 4.2648C7.60963 3.95855 7.60963 3.6523 7.60963 3.34605C7.60963 3.24063 7.57079 3.22177 7.4791 3.22288C6.64342 3.22288 5.80738 3.22288 4.97098 3.22288C4.8732 3.23009 4.7751 3.21436 4.68409 3.17688C4.59309 3.1394 4.51155 3.08114 4.44562 3.00651C4.36809 2.92146 4.31725 2.81437 4.29974 2.69918C4.28223 2.58399 4.29886 2.46605 4.34746 2.36072C4.39145 2.25318 4.46593 2.16177 4.56119 2.09843C4.65644 2.03509 4.76805 2.00276 4.88144 2.00564C5.0616 1.99677 5.24283 2.00564 5.42082 2.00564H7.7078" fill="#0C244E"/>
</g>
</g>
</g>
</g>
<g id="Grupo 15404">
<g id="Clip path group_2">
<mask id="mask1_112_2233" style="mask-type:luminance" maskUnits="userSpaceOnUse" x="13" y="8" width="8" height="14">
<g id="clip-path-2">
<path id="Ret&#195;&#162;ngulo 1036_2" d="M20.0027 8.91846H13.9336V21.9996H20.0027V8.91846Z" fill="white"/>
</g>
</mask>
<g mask="url(#mask1_112_2233)">
<g id="Grupo 15402_2">
<path id="Caminho 63417_2" d="M20.0024 17.6295C20.0024 16.4932 20.0024 15.357 20.0024 14.2208C20.0089 13.976 19.964 13.7327 19.8709 13.5074C19.7779 13.282 19.6388 13.0799 19.463 12.9148C19.1884 12.6435 18.8243 12.4889 18.4436 12.482C17.5806 12.4643 16.7111 12.482 15.846 12.4743C15.5653 12.4637 15.2867 12.5275 15.0369 12.6596C14.7936 12.79 14.5849 12.9794 14.4287 13.2114C14.2725 13.4434 14.1736 13.711 14.1404 13.9911C14.1238 14.1179 14.1166 14.2459 14.1189 14.3739C14.1189 15.6522 14.1189 16.9301 14.1189 18.2076C14.1189 19.1567 14.1189 20.1058 14.1189 21.0548C14.1092 21.2151 14.1416 21.3751 14.2128 21.518C14.284 21.6609 14.3913 21.7815 14.5234 21.8671C14.6638 21.9565 14.8265 22.0016 14.9916 21.9969H17.8794C18.3109 21.9969 18.7424 21.9969 19.1739 21.9969C19.3505 21.9975 19.5226 21.9397 19.6648 21.832C19.807 21.7243 19.9117 21.5724 19.9636 21.3988C19.9936 21.2906 20.0074 21.1784 20.0046 21.0659C20.0046 19.9208 20.0046 18.7742 20.0046 17.6262" fill="#0C244E"/>
<path id="Caminho 63418_2" d="M17.5744 8.91836C16.993 8.91836 16.4115 8.91836 15.829 8.91836C15.7153 8.91476 15.6021 8.93626 15.4972 8.98144C15.3922 9.02661 15.2979 9.09439 15.2206 9.18022C14.8387 9.58412 14.4503 9.98469 14.0652 10.3875C14.0284 10.4189 13.9979 10.4576 13.9756 10.5012C13.9533 10.5447 13.9395 10.5924 13.9351 10.6414C13.9307 10.6905 13.9358 10.74 13.9499 10.787C13.9641 10.834 13.9872 10.8778 14.0178 10.9156C14.047 10.9565 14.084 10.9908 14.1265 11.0165C14.169 11.0422 14.2161 11.0587 14.2651 11.0652C14.314 11.0716 14.3636 11.0678 14.4111 11.0539C14.4585 11.04 14.5027 11.0164 14.541 10.9844C14.5924 10.9392 14.6411 10.8906 14.6866 10.8391C15.0411 10.4692 15.3964 10.103 15.7524 9.74057C15.7632 9.72946 15.7763 9.72084 15.7906 9.71529C15.8049 9.70974 15.8202 9.70739 15.8355 9.7084C16.0372 9.7084 16.2379 9.7084 16.4396 9.7084C16.4914 9.7084 16.5065 9.72726 16.5086 9.77941C16.5248 10.1977 16.5086 10.6161 16.5162 11.0344C16.5116 11.0712 16.5094 11.1082 16.5097 11.1453C16.5205 11.2175 16.487 11.2274 16.4288 11.2263C16.3131 11.2165 16.1966 11.2255 16.0836 11.253C15.9503 11.2962 15.8333 11.3811 15.7491 11.4959C15.6648 11.6106 15.6173 11.7495 15.6133 11.8932C15.6133 11.9476 15.6133 12.0042 15.6133 12.0552C15.6133 12.1063 15.6337 12.124 15.6791 12.1229H18.4202C18.4464 12.1243 18.4727 12.1243 18.4989 12.1229C18.505 12.1232 18.5111 12.1222 18.5168 12.12C18.5225 12.1178 18.5277 12.1144 18.532 12.11C18.5364 12.1056 18.5398 12.1004 18.5421 12.0946C18.5444 12.0888 18.5455 12.0826 18.5453 12.0763C18.5634 11.9465 18.5492 11.8142 18.5041 11.6915C18.459 11.5689 18.3845 11.46 18.2875 11.375C18.1776 11.2839 18.0414 11.2327 17.9002 11.2297C17.8387 11.2297 17.7772 11.2297 17.7168 11.2297C17.6564 11.2297 17.6402 11.2108 17.6413 11.152C17.6413 10.8979 17.6413 10.6438 17.6413 10.3897C17.6413 10.19 17.6413 9.98913 17.6413 9.7894C17.6413 9.7206 17.6672 9.7084 17.7265 9.7084C18.2731 9.7084 18.82 9.7084 19.3673 9.7084C19.4303 9.71392 19.4937 9.70493 19.5528 9.68209C19.612 9.65924 19.6654 9.62312 19.7093 9.57635C19.7601 9.52098 19.7936 9.45115 19.8053 9.37595C19.8171 9.30075 19.8065 9.22366 19.7751 9.1547C19.7469 9.08337 19.6982 9.02255 19.6356 8.98034C19.573 8.93812 19.4994 8.91651 19.4245 8.91836C19.3069 8.91836 19.1883 8.91836 19.0707 8.91836H17.5744Z" fill="#0C244E"/>
</g>
</g>
</g>
</g>
</g>
</g>
</svg>
