<svg width="24" height="24" viewBox="0 0 24 24" fill="none" xmlns="http://www.w3.org/2000/svg">
<g id="ic-right">
<path id="ic-down" d="M18 11.9943C18 11.7064 17.8773 11.4186 17.6441 11.2228L7.91411 2.31087C7.70552 2.11515 7.43558 2 7.12884 2C6.4908 2 6 2.44911 6 3.04777C6 3.33566 6.1227 3.60045 6.31902 3.79627L15.9264 12.616L15.9264 11.384L6.31902 20.2038C6.1227 20.388 6 20.6529 6 20.9522C6 21.551 6.4908 22 7.12884 22C7.43557 22 7.70552 21.8849 7.92638 21.6891L17.6441 12.7772C17.8773 12.5584 18 12.2936 18 11.9943Z" fill="#0C244E"/>
</g>
</svg>
