<svg width="24" height="24" viewBox="0 0 24 24" fill="none" xmlns="http://www.w3.org/2000/svg">
<path fill-rule="evenodd" clip-rule="evenodd" d="M12 22C17.5228 22 22 17.5228 22 12C22 6.47715 17.5228 2 12 2C6.47715 2 2 6.47715 2 12C2 17.5228 6.47715 22 12 22ZM12 24C18.6274 24 24 18.6274 24 12C24 5.37258 18.6274 0 12 0C5.37258 0 0 5.37258 0 12C0 18.6274 5.37258 24 12 24Z" fill="black"/>
<path d="M14.1103 9.82102V10.875L9.25799 12.7841V11.7699L14.1103 9.82102ZM14.1103 11.9091V12.9631L9.25799 14.8722V13.858L14.1103 11.9091ZM7.49805 8.59304V6.81818H15.8603V8.59304H12.7431V17H10.6152V8.59304H7.49805Z" fill="black"/>
</svg>
