<svg width="24" height="24" viewBox="0 0 24 24" fill="none" xmlns="http://www.w3.org/2000/svg">
<path fill-rule="evenodd" clip-rule="evenodd" d="M12 22C17.5228 22 22 17.5228 22 12C22 6.47715 17.5228 2 12 2C6.47715 2 2 6.47715 2 12C2 17.5228 6.47715 22 12 22ZM12 24C18.6274 24 24 18.6274 24 12C24 5.37258 18.6274 0 12 0C5.37258 0 0 5.37258 0 12C0 18.6274 5.37258 24 12 24Z" fill="black"/>
<path d="M10.8833 7.33523V5.54546H11.6987V7.33523H10.8833ZM12.7328 7.33523V5.54546H13.5481V7.33523H12.7328ZM10.8833 18.2727V16.483H11.6987V18.2727H10.8833ZM12.7328 18.2727V16.483H13.5481V18.2727H12.7328ZM8.88477 17V6.81818H12.9615C13.7105 6.81818 14.3353 6.92922 14.8358 7.15128C15.3362 7.37335 15.7124 7.68158 15.9643 8.076C16.2162 8.46709 16.3422 8.91785 16.3422 9.42827C16.3422 9.826 16.2626 10.1757 16.1035 10.4773C15.9444 10.7756 15.7257 11.0208 15.4473 11.2131C15.1722 11.402 14.8573 11.5362 14.5027 11.6158V11.7152C14.8904 11.7318 15.2534 11.8411 15.5914 12.0433C15.9328 12.2455 16.2096 12.5289 16.4217 12.8935C16.6338 13.2547 16.7399 13.6856 16.7399 14.1861C16.7399 14.7263 16.6056 15.2086 16.3372 15.6328C16.072 16.0537 15.6793 16.3868 15.1589 16.6321C14.6386 16.8774 13.9972 17 13.2349 17H8.88477ZM11.0375 15.2401H12.7924C13.3923 15.2401 13.8298 15.1257 14.1049 14.897C14.38 14.665 14.5176 14.3568 14.5176 13.9723C14.5176 13.6906 14.4496 13.442 14.3137 13.2266C14.1779 13.0111 13.984 12.8421 13.7321 12.7195C13.4835 12.5968 13.1868 12.5355 12.8422 12.5355H11.0375V15.2401ZM11.0375 11.0788H12.6333C12.9283 11.0788 13.1902 11.0275 13.4189 10.9247C13.6509 10.8187 13.8332 10.6695 13.9657 10.4773C14.1016 10.285 14.1696 10.0547 14.1696 9.78622C14.1696 9.41833 14.0386 9.12169 13.7768 8.89631C13.5183 8.67093 13.1504 8.55824 12.6731 8.55824H11.0375V11.0788Z" fill="black"/>
</svg>
