<svg width="24" height="24" viewBox="0 0 24 24" fill="none" xmlns="http://www.w3.org/2000/svg">
<g id="Grupo 22979">
<g id="Ret&#195;&#162;ngulo 1285">
<path id="Vector" d="M19 2.75H5C3.75736 2.75 2.75 3.75736 2.75 5V19C2.75 20.2426 3.75736 21.25 5 21.25H19C20.2426 21.25 21.25 20.2426 21.25 19V5C21.25 3.75736 20.2426 2.75 19 2.75Z" stroke="#FFFFFF" stroke-width="1.5" stroke-linecap="round" stroke-linejoin="round"/>
</g>
<path id="Caminho 66857" d="M17.012 9.24398L16.184 8.45398C16.1665 8.43705 16.1459 8.42374 16.1232 8.41482C16.1006 8.4059 16.0764 8.40153 16.052 8.40198C16.0276 8.40107 16.0033 8.40522 15.9806 8.41417C15.9579 8.42312 15.9372 8.43667 15.92 8.45398L10.181 13.817L8.09202 11.88C8.05642 11.8465 8.00939 11.8279 7.96052 11.8279C7.91166 11.8279 7.86463 11.8465 7.82902 11.88L6.99202 12.657C6.97421 12.6725 6.95994 12.6916 6.95015 12.7131C6.94037 12.7345 6.9353 12.7579 6.9353 12.7815C6.9353 12.8051 6.94037 12.8284 6.95015 12.8499C6.95994 12.8714 6.97421 12.8905 6.99202 12.906L9.63102 15.349C9.77829 15.4956 9.97364 15.5841 10.181 15.598C10.385 15.5824 10.5776 15.4977 10.727 15.358L17.017 9.49298C17.0492 9.45918 17.0667 9.41407 17.0657 9.36745C17.0648 9.32082 17.0455 9.27645 17.012 9.24398Z" fill="#FFFFFF"/>
</g>
</svg>
