<svg width="24" height="24" viewBox="0 0 24 24" fill="none" xmlns="http://www.w3.org/2000/svg">
<path fill-rule="evenodd" clip-rule="evenodd" d="M12 22C17.5228 22 22 17.5228 22 12C22 6.47715 17.5228 2 12 2C6.47715 2 2 6.47715 2 12C2 17.5228 6.47715 22 12 22ZM12 24C18.6274 24 24 18.6274 24 12C24 5.37258 18.6274 0 12 0C5.37258 0 0 5.37258 0 12C0 18.6274 5.37258 24 12 24Z" fill="black"/>
<path d="M15.3711 8.17045L12.4677 11.0739L9.5245 8.17045L12.4677 5.22727L15.3711 8.17045ZM19.1097 11.9091L16.2063 14.8523L13.3029 11.9091L16.2063 9.00568L19.1097 11.9091ZM11.6325 11.9091L8.68928 14.8523L5.74609 11.9091L8.68928 9.00568L11.6325 11.9091ZM15.3711 15.6875L12.4677 18.5909L9.5245 15.6875L12.4677 12.7443L15.3711 15.6875Z" fill="black"/>
</svg>
