<svg width="24" height="24" viewBox="0 0 24 24" fill="none" xmlns="http://www.w3.org/2000/svg">
<g id="ic-exit">
<g id="line">
<g id="Grupo 4">
<path id="Caminho 3 (Stroke)" fill-rule="evenodd" clip-rule="evenodd" d="M3.29158 20.5943C2.89971 20.2051 2.89971 19.5742 3.29158 19.185L19.2916 3.29527C19.6835 2.9061 20.3188 2.9061 20.7107 3.29527C21.1025 3.68444 21.1025 4.31542 20.7107 4.70459L4.71067 20.5943C4.3188 20.9835 3.68345 20.9835 3.29158 20.5943Z" fill="#0C244E"/>
</g>
</g>
<g id="line_2">
<g id="Grupo 4_2">
<path id="Caminho 3 (Stroke)_2" fill-rule="evenodd" clip-rule="evenodd" d="M20.7095 20.5965C20.3176 20.9857 19.6824 20.9857 19.2905 20.5965L3.29238 4.70498C2.90055 4.31576 2.90055 3.68472 3.29238 3.2955C3.6842 2.90628 4.31948 2.90628 4.71131 3.2955L20.7095 19.1871C21.1013 19.5763 21.1013 20.2073 20.7095 20.5965Z" fill="#0C244E"/>
</g>
</g>
</g>
</svg>
