<svg width="24" height="24" viewBox="0 0 24 24" fill="none" xmlns="http://www.w3.org/2000/svg">
<g id="ic-company">
<g id="Grupo 22599">
<path id="Caminho 66805" d="M10.6282 4.35259H13.3728C13.5806 4.35291 13.7799 4.43564 13.9268 4.58263C14.0738 4.72963 14.1565 4.9289 14.1568 5.13678H16.5088V3.56839C16.5085 3.15274 16.3434 2.75419 16.0496 2.46016C15.7559 2.16614 15.3576 2.00065 14.942 2H9.06142C8.64545 2 8.24648 2.1652 7.95223 2.4593C7.65798 2.75339 7.49251 3.15232 7.49219 3.56839V5.13678H9.8442C9.84452 4.9289 9.92722 4.72963 10.0742 4.58263C10.2211 4.43564 10.4204 4.35291 10.6282 4.35259Z" fill="#0C244E"/>
<path id="Caminho 66806" d="M13.7172 14.5495C13.6285 14.9394 13.41 15.2875 13.0975 15.5368C12.7851 15.7862 12.3973 15.9219 11.9976 15.9219C11.5979 15.9219 11.21 15.7862 10.8976 15.5368C10.5851 15.2875 10.3666 14.9394 10.2779 14.5495H2.784C2.50855 14.5496 2.23802 14.4766 2 14.3379V20.4316C2.00065 20.8474 2.16605 21.2459 2.45997 21.5399C2.75389 21.8339 3.15234 21.9994 3.568 22H20.4271C20.8428 21.9994 21.2412 21.8339 21.5351 21.5399C21.8291 21.2459 21.9945 20.8474 21.9951 20.4316V14.3379C21.7571 14.4765 21.4865 14.5495 21.2111 14.5495H13.7172Z" fill="#0C244E"/>
<path id="Caminho 66807" d="M12.9726 14.1568V12.7842H11.0156V14.1568C11.0156 14.4164 11.1187 14.6653 11.3022 14.8489C11.4857 15.0324 11.7346 15.1355 11.9941 15.1355C12.2536 15.1355 12.5025 15.0324 12.686 14.8489C12.8695 14.6653 12.9726 14.4164 12.9726 14.1568Z" fill="#0C244E"/>
<path id="Caminho 66808" d="M20.4271 5.92237H3.568C3.15234 5.92301 2.75389 6.08846 2.45997 6.38245C2.16605 6.67644 2.00065 7.07499 2 7.49075V12.9813C2.00032 13.1892 2.08303 13.3885 2.22999 13.5355C2.37695 13.6825 2.57617 13.7652 2.784 13.7655H10.2326V12.3929C10.2326 12.2887 10.274 12.1889 10.3476 12.1152C10.4213 12.0416 10.5211 12.0002 10.6252 12.0002H13.3748C13.4789 12.0002 13.5787 12.0416 13.6524 12.1152C13.726 12.1889 13.7674 12.2887 13.7674 12.3929V13.7655H21.216C21.4238 13.7652 21.6231 13.6825 21.77 13.5355C21.917 13.3885 21.9997 13.1892 22 12.9813V7.49075C21.9997 7.28447 21.9587 7.08027 21.8795 6.88981C21.8003 6.69935 21.6844 6.52636 21.5383 6.38072C21.3922 6.23508 21.2189 6.11964 21.0283 6.041C20.8376 5.96235 20.6333 5.92204 20.4271 5.92237Z" fill="#0C244E"/>
</g>
</g>
</svg>
