<svg width="16" height="17" viewBox="0 0 16 17" fill="none" xmlns="http://www.w3.org/2000/svg">
<g id="trash">
<path fill-rule="evenodd" clip-rule="evenodd" d="M6.10524 2.60495C6.23646 2.47371 6.41442 2.4 6.59996 2.4H9.40007C9.58561 2.4 9.76357 2.47371 9.89479 2.60495C10.026 2.7362 10.0998 2.91421 10.0998 3.09985V3.8H5.90027V3.09985C5.90027 2.91421 5.97401 2.7362 6.10524 2.60495ZM5.17538 5.2C5.18364 5.20029 5.19194 5.20044 5.20027 5.20044C5.20861 5.20044 5.21691 5.20029 5.22517 5.2H10.7749C10.7831 5.20029 10.7914 5.20044 10.7998 5.20044C10.8081 5.20044 10.8164 5.20029 10.8246 5.2H12.2V14.3001C12.2 14.3921 12.1819 14.4831 12.1467 14.568C12.1116 14.6529 12.06 14.7301 11.9951 14.795C11.9301 14.86 11.8529 14.9116 11.7681 14.9467C11.6832 14.9819 11.5922 15 11.5003 15H4.4997C4.40783 15 4.31685 14.9819 4.23197 14.9467C4.14709 14.9116 4.06995 14.86 4.00498 14.795C3.94 14.7301 3.88846 14.6529 3.85329 14.568C3.81812 14.4831 3.80001 14.3921 3.80001 14.3001V5.2H5.17538ZM4.50027 3.8V3.09985C4.50027 2.54297 4.72147 2.00887 5.11523 1.61506C5.50899 1.22125 6.04306 1 6.59996 1H9.40007C9.95696 1 10.491 1.22125 10.8848 1.61506C11.2786 2.00887 11.4998 2.54297 11.4998 3.09985V3.8H14.3C14.6866 3.8 15 4.1134 15 4.5C15 4.8866 14.6866 5.2 14.3 5.2H13.6V14.3001C13.6 14.5759 13.5457 14.8489 13.4402 15.1037C13.3347 15.3585 13.18 15.5899 12.9851 15.7849C12.7901 15.9799 12.5586 16.1346 12.3039 16.2401C12.0491 16.3457 11.7761 16.4 11.5003 16.4H4.4997C4.22396 16.4 3.95091 16.3457 3.69616 16.2401C3.44141 16.1346 3.20994 15.9799 3.01497 15.7849C2.82 15.5899 2.66535 15.3585 2.55983 15.1037C2.45432 14.8489 2.40002 14.5759 2.40002 14.3001V5.2H1.7C1.3134 5.2 1 4.8866 1 4.5C1 4.1134 1.3134 3.8 1.7 3.8H4.50027ZM6.60003 7.3C6.98662 7.3 7.30003 7.6134 7.30003 8V12.2C7.30003 12.5866 6.98662 12.9 6.60003 12.9C6.21343 12.9 5.90003 12.5866 5.90003 12.2V8C5.90003 7.6134 6.21343 7.3 6.60003 7.3ZM10.1 8C10.1 7.6134 9.7866 7.3 9.4 7.3C9.0134 7.3 8.7 7.6134 8.7 8V12.2C8.7 12.5866 9.0134 12.9 9.4 12.9C9.7866 12.9 10.1 12.5866 10.1 12.2V8Z" fill="#0C244E"/>
<path d="M6.10524 2.60495L6.28203 2.78172V2.78172L6.10524 2.60495ZM9.89479 2.60495L10.0716 2.42819L10.0716 2.42819L9.89479 2.60495ZM10.0998 3.8V4.05C10.2378 4.05 10.3498 3.93807 10.3498 3.8H10.0998ZM5.90027 3.8H5.65027C5.65027 3.93807 5.7622 4.05 5.90027 4.05V3.8ZM5.17538 5.2L5.18412 4.95H5.17538V5.2ZM5.22517 5.2V4.94985L5.21643 4.95016L5.22517 5.2ZM10.7749 5.2L10.7836 4.95H10.7749V5.2ZM10.8246 5.2V4.94985L10.8159 4.95016L10.8246 5.2ZM12.2 5.2H12.45C12.45 5.06193 12.3381 4.95 12.2 4.95V5.2ZM12.1467 14.568L11.9158 14.4723V14.4723L12.1467 14.568ZM11.9951 14.795L11.8183 14.6183L11.8183 14.6183L11.9951 14.795ZM11.7681 14.9467L11.8637 15.1777L11.7681 14.9467ZM4.23197 14.9467L4.13629 15.1777H4.13629L4.23197 14.9467ZM4.00498 14.795L4.18177 14.6183L4.18176 14.6183L4.00498 14.795ZM3.85329 14.568L4.08426 14.4723H4.08426L3.85329 14.568ZM3.80001 5.2V4.95C3.66194 4.95 3.55001 5.06193 3.55001 5.2H3.80001ZM4.50027 3.8V4.05C4.63835 4.05 4.75027 3.93807 4.75027 3.8H4.50027ZM5.11523 1.61506L4.93844 1.4383V1.4383L5.11523 1.61506ZM10.8848 1.61506L10.708 1.79183V1.79183L10.8848 1.61506ZM11.4998 3.8H11.2498C11.2498 3.93807 11.3617 4.05 11.4998 4.05V3.8ZM13.6 5.2V4.95C13.4619 4.95 13.35 5.06193 13.35 5.2H13.6ZM13.4402 15.1037L13.2092 15.008L13.2092 15.008L13.4402 15.1037ZM12.9851 15.7849L12.8083 15.6082L12.9851 15.7849ZM12.3039 16.2401L12.3995 16.4711L12.3996 16.4711L12.3039 16.2401ZM3.69616 16.2401L3.60048 16.4711L3.60048 16.4711L3.69616 16.2401ZM3.01497 15.7849L3.19176 15.6082H3.19176L3.01497 15.7849ZM2.55983 15.1037L2.32886 15.1994H2.32886L2.55983 15.1037ZM2.40002 5.2H2.65002C2.65002 5.06193 2.53809 4.95 2.40002 4.95V5.2ZM6.59996 2.15C6.34811 2.15 6.10656 2.25006 5.92845 2.42819L6.28203 2.78172C6.36637 2.69737 6.48073 2.65 6.59996 2.65V2.15ZM9.40007 2.15H6.59996V2.65H9.40007V2.15ZM10.0716 2.42819C9.89347 2.25006 9.65192 2.15 9.40007 2.15V2.65C9.51929 2.65 9.63366 2.69737 9.71801 2.78172L10.0716 2.42819ZM10.3498 3.09985C10.3498 2.84792 10.2497 2.60632 10.0716 2.42819L9.718 2.78172C9.80235 2.86607 9.84975 2.98051 9.84975 3.09985H10.3498ZM10.3498 3.8V3.09985H9.84975V3.8H10.3498ZM5.90027 4.05H10.0998V3.55H5.90027V4.05ZM5.65027 3.09985V3.8H6.15027V3.09985H5.65027ZM5.92845 2.42819C5.75034 2.60632 5.65027 2.84792 5.65027 3.09985H6.15027C6.15027 2.98051 6.19768 2.86608 6.28203 2.78172L5.92845 2.42819ZM5.20027 4.95044C5.19485 4.95044 5.18947 4.95034 5.18412 4.95016L5.16664 5.44985C5.17782 5.45024 5.18903 5.45044 5.20027 5.45044V4.95044ZM5.21643 4.95016C5.21108 4.95034 5.2057 4.95044 5.20027 4.95044V5.45044C5.21152 5.45044 5.22273 5.45024 5.23391 5.44985L5.21643 4.95016ZM10.7749 4.95H5.22517V5.45H10.7749V4.95ZM10.7998 4.95044C10.7943 4.95044 10.7889 4.95034 10.7836 4.95016L10.7661 5.44985C10.7773 5.45024 10.7885 5.45044 10.7998 5.45044V4.95044ZM10.8159 4.95016C10.8106 4.95034 10.8052 4.95044 10.7998 4.95044V5.45044C10.811 5.45044 10.8222 5.45024 10.8334 5.44985L10.8159 4.95016ZM12.2 4.95H10.8246V5.45H12.2V4.95ZM12.45 14.3001V5.2H11.95V14.3001H12.45ZM12.3777 14.6637C12.4254 14.5484 12.45 14.4249 12.45 14.3001H11.95C11.95 14.3592 11.9384 14.4177 11.9158 14.4723L12.3777 14.6637ZM12.1718 14.9718C12.26 14.8836 12.33 14.7789 12.3777 14.6637L11.9158 14.4723C11.8932 14.5269 11.86 14.5765 11.8183 14.6183L12.1718 14.9718ZM11.8637 15.1777C11.979 15.13 12.0837 15.06 12.1718 14.9718L11.8183 14.6183C11.7765 14.66 11.7269 14.6932 11.6724 14.7158L11.8637 15.1777ZM11.5003 15.25C11.625 15.25 11.7485 15.2254 11.8637 15.1777L11.6724 14.7158C11.6178 14.7384 11.5594 14.75 11.5003 14.75V15.25ZM4.4997 15.25H11.5003V14.75H4.4997V15.25ZM4.13629 15.1777C4.25151 15.2254 4.37499 15.25 4.4997 15.25V14.75C4.44066 14.75 4.3822 14.7384 4.32765 14.7158L4.13629 15.1777ZM3.82819 14.9718C3.91638 15.06 4.02107 15.13 4.13629 15.1777L4.32765 14.7158C4.2731 14.6932 4.22353 14.66 4.18177 14.6183L3.82819 14.9718ZM3.62231 14.6637C3.67004 14.7789 3.74 14.8836 3.82819 14.9718L4.18176 14.6183C4.14 14.5765 4.10687 14.5269 4.08426 14.4723L3.62231 14.6637ZM3.55001 14.3001C3.55001 14.4249 3.57458 14.5484 3.62231 14.6637L4.08426 14.4723C4.06165 14.4177 4.05001 14.3592 4.05001 14.3001H3.55001ZM3.55001 5.2V14.3001H4.05001V5.2H3.55001ZM5.17538 4.95H3.80001V5.45H5.17538V4.95ZM4.25027 3.09985V3.8H4.75027V3.09985H4.25027ZM4.93844 1.4383C4.4978 1.87899 4.25027 2.47667 4.25027 3.09985H4.75027C4.75027 2.60926 4.94514 2.13875 5.29202 1.79183L4.93844 1.4383ZM6.59996 0.75C5.97675 0.75 5.37909 0.997601 4.93844 1.4383L5.29202 1.79183C5.6389 1.44491 6.10938 1.25 6.59996 1.25V0.75ZM9.40007 0.75H6.59996V1.25H9.40007V0.75ZM11.0616 1.4383C10.6209 0.9976 10.0233 0.75 9.40007 0.75V1.25C9.89065 1.25 10.3611 1.44491 10.708 1.79183L11.0616 1.4383ZM11.7498 3.09985C11.7498 2.47667 11.5022 1.87899 11.0616 1.4383L10.708 1.79183C11.0549 2.13875 11.2498 2.60926 11.2498 3.09985H11.7498ZM11.7498 3.8V3.09985H11.2498V3.8H11.7498ZM14.3 3.55H11.4998V4.05H14.3V3.55ZM15.25 4.5C15.25 3.97533 14.8247 3.55 14.3 3.55V4.05C14.5485 4.05 14.75 4.25147 14.75 4.5H15.25ZM14.3 5.45C14.8247 5.45 15.25 5.02467 15.25 4.5H14.75C14.75 4.74853 14.5485 4.95 14.3 4.95V5.45ZM13.6 5.45H14.3V4.95H13.6V5.45ZM13.85 14.3001V5.2H13.35V14.3001H13.85ZM13.6712 15.1994C13.7892 14.9143 13.85 14.6087 13.85 14.3001H13.35C13.35 14.5431 13.3022 14.7836 13.2092 15.008L13.6712 15.1994ZM13.1618 15.9617C13.38 15.7435 13.5531 15.4844 13.6712 15.1994L13.2092 15.008C13.1163 15.2325 12.98 15.4364 12.8083 15.6082L13.1618 15.9617ZM12.3996 16.4711C12.6846 16.353 12.9437 16.1799 13.1618 15.9617L12.8083 15.6082C12.6365 15.78 12.4326 15.9162 12.2082 16.0092L12.3996 16.4711ZM11.5003 16.65C11.8089 16.65 12.1145 16.5892 12.3995 16.4711L12.2082 16.0092C11.9838 16.1021 11.7432 16.15 11.5003 16.15V16.65ZM4.4997 16.65H11.5003V16.15H4.4997V16.65ZM3.60048 16.4711C3.88557 16.5892 4.19112 16.65 4.4997 16.65V16.15C4.25679 16.15 4.01626 16.1021 3.79184 16.0092L3.60048 16.4711ZM2.83818 15.9617C3.05637 16.1799 3.31539 16.353 3.60048 16.4711L3.79184 16.0092C3.56742 15.9162 3.36351 15.7799 3.19176 15.6082L2.83818 15.9617ZM2.32886 15.1994C2.44693 15.4844 2.62 15.7435 2.83818 15.9617L3.19176 15.6082C3.02 15.4364 2.88376 15.2325 2.79081 15.008L2.32886 15.1994ZM2.15002 14.3001C2.15002 14.6087 2.21079 14.9143 2.32886 15.1994L2.79081 15.008C2.69786 14.7836 2.65002 14.5431 2.65002 14.3001H2.15002ZM2.15002 5.2V14.3001H2.65002V5.2H2.15002ZM1.7 5.45H2.40002V4.95H1.7V5.45ZM0.75 4.5C0.75 5.02467 1.17533 5.45 1.7 5.45V4.95C1.45147 4.95 1.25 4.74853 1.25 4.5H0.75ZM1.7 3.55C1.17533 3.55 0.75 3.97533 0.75 4.5H1.25C1.25 4.25147 1.45147 4.05 1.7 4.05V3.55ZM4.50027 3.55H1.7V4.05H4.50027V3.55ZM7.55003 8C7.55003 7.47533 7.1247 7.05 6.60003 7.05V7.55C6.84855 7.55 7.05003 7.75147 7.05003 8H7.55003ZM7.55003 12.2V8H7.05003V12.2H7.55003ZM6.60003 13.15C7.1247 13.15 7.55003 12.7247 7.55003 12.2H7.05003C7.05003 12.4485 6.84855 12.65 6.60003 12.65V13.15ZM5.65003 12.2C5.65003 12.7247 6.07536 13.15 6.60003 13.15V12.65C6.3515 12.65 6.15003 12.4485 6.15003 12.2H5.65003ZM5.65003 8V12.2H6.15003V8H5.65003ZM6.60003 7.05C6.07536 7.05 5.65003 7.47533 5.65003 8H6.15003C6.15003 7.75147 6.3515 7.55 6.60003 7.55V7.05ZM9.4 7.55C9.64853 7.55 9.85 7.75147 9.85 8H10.35C10.35 7.47533 9.92467 7.05 9.4 7.05V7.55ZM8.95 8C8.95 7.75147 9.15147 7.55 9.4 7.55V7.05C8.87533 7.05 8.45 7.47533 8.45 8H8.95ZM8.95 12.2V8H8.45V12.2H8.95ZM9.4 12.65C9.15147 12.65 8.95 12.4485 8.95 12.2H8.45C8.45 12.7247 8.87533 13.15 9.4 13.15V12.65ZM9.85 12.2C9.85 12.4485 9.64853 12.65 9.4 12.65V13.15C9.92467 13.15 10.35 12.7247 10.35 12.2H9.85ZM9.85 8V12.2H10.35V8H9.85Z" fill="#0C244E"/>
</g>
</svg>
