<svg width="24" height="24" viewBox="0 0 24 24" fill="none" xmlns="http://www.w3.org/2000/svg">
<g id="ic-laze">
<g id="Group 23">
<path id="Caminho 70653" d="M6.60245 17C9.11906 17 11.1667 14.6455 11.1667 11.8005C11.1675 10.4567 10.6929 9.1564 9.82792 8.13244C9.95111 7.64119 10.0166 7.13708 10.0229 6.63048C10.0249 4.09843 8.49015 2 6.60245 2C4.71476 2 3.14103 4.09843 3.14103 6.63048C3.14746 7.13708 3.21291 7.64117 3.33604 8.13244C2.46319 9.15003 1.98835 10.4525 2.00022 11.7966C2.00022 14.6445 4.08585 17 6.60245 17Z" fill="#0C244E"/>
<path id="Caminho 70654" d="M2.58588 22.0003H21.4141C21.5695 22.0003 21.7185 21.9389 21.8284 21.8295C21.9383 21.7201 22 21.5717 22 21.417C22 21.2623 21.9383 21.1139 21.8284 21.0045C21.7185 20.8951 21.5695 20.8336 21.4141 20.8336H20.8282V19.667H21.4141C21.5695 19.667 21.7185 19.6055 21.8284 19.4961C21.9383 19.3867 22 19.2384 22 19.0836C22 18.9289 21.9383 18.7806 21.8284 18.6712C21.7185 18.5618 21.5695 18.5003 21.4141 18.5003H20.8282V16.7503C20.8282 16.6737 20.8131 16.5979 20.7836 16.5271C20.7542 16.4563 20.711 16.392 20.6566 16.3378C20.6022 16.2837 20.5377 16.2407 20.4666 16.2114C20.3955 16.1821 20.3193 16.167 20.2424 16.167H16.687C16.5316 16.167 16.3826 16.2284 16.2728 16.3378C16.1629 16.4472 16.1012 16.5956 16.1012 16.7503V18.5003H15.5203C15.3649 18.5003 15.2159 18.5618 15.106 18.6712C14.9961 18.7806 14.9344 18.9289 14.9344 19.0836C14.9344 19.2384 14.9961 19.3867 15.106 19.4961C15.2159 19.6055 15.3649 19.667 15.5203 19.667H16.1062V20.8336H13.7626V18.3707C13.378 18.4567 12.9851 18.5002 12.5909 18.5003C12.1945 18.4984 11.7997 18.4513 11.4141 18.3597V20.8316H7.89885V18.3687C7.12726 18.541 6.32692 18.541 5.55533 18.3687V20.8316H2.58588C2.43049 20.8316 2.28147 20.8931 2.1716 21.0025C2.06173 21.1119 2 21.2603 2 21.415C2 21.5697 2.06173 21.7181 2.1716 21.8274C2.28147 21.9368 2.43049 21.9983 2.58588 21.9983V22.0003ZM17.2739 19.667H19.6565V20.8336H17.2739V19.667Z" fill="#0C244E"/>
<path id="Caminho 70655" d="M11.2269 7.85732C12.0374 9.00613 12.4732 10.383 12.4732 11.7952C12.4862 13.5606 11.8082 15.2593 10.5877 16.5192C11.1676 16.8306 11.8131 16.9955 12.4693 17C14.9688 17 17.0024 14.6449 17.0024 11.7992C17.0134 10.4543 16.5407 9.15147 15.6728 8.13404C15.7951 7.64265 15.8601 7.13842 15.8665 6.63169C15.8665 4.09898 14.3412 2 12.4664 2C12.059 2.01341 11.6589 2.11325 11.2919 2.2931C10.9249 2.47294 10.5993 2.72878 10.3359 3.04409C11.2102 4.48308 11.5253 6.19999 11.2201 7.86125L11.2269 7.85732Z" fill="#0C244E"/>
</g>
</g>
</svg>
