<svg width="24" height="24" viewBox="0 0 24 24" fill="none" xmlns="http://www.w3.org/2000/svg">
<g id="ic-home-fill">
<g id="Group 28">
<g id="Group 27">
<g id="Group 26">
<path id="Union" fill-rule="evenodd" clip-rule="evenodd" d="M12.5805 2.22052C12.2428 1.92649 11.7572 1.92649 11.4195 2.22052L7.41796 5.70498V4.9266C7.41796 4.3878 7.00756 3.95101 6.5013 3.95101H5.58463C5.07837 3.95101 4.66797 4.3878 4.66797 4.9266V7.47538C4.66797 7.66415 4.71723 7.8372 4.80134 7.98346L1.33623 11.0008C0.944402 11.342 0.88665 11.9566 1.20723 12.3736C1.52782 12.7906 2.10534 12.8521 2.49716 12.5109L12 4.2361L21.5028 12.5109C21.8947 12.8521 22.4722 12.7906 22.7928 12.3736C23.1133 11.9566 23.0556 11.342 22.6638 11.0008L12.5805 2.22052Z" fill="#0C244E"/>
<path id="Subtract" fill-rule="evenodd" clip-rule="evenodd" d="M3.75 12.3954V19.0257C3.75 19.8096 4.03882 20.5644 4.55742 21.1233C5.0765 21.6827 5.78359 21.9998 6.52395 21.9998H17.9343C18.6747 21.9998 19.3818 21.6827 19.9009 21.1233C20.4195 20.5644 20.7083 19.8096 20.7083 19.0257V12.7945L12 5.21143L3.75 12.3954ZM13.832 19.5608H10.6237V13.2193H13.832V19.5608Z" fill="#0C244E"/>
</g>
</g>
</g>
</g>
</svg>
