<svg id="ziyon-policy" xmlns="http://www.w3.org/2000/svg" width="24" height="24" viewBox="0 0 24 24">
  <rect id="Retângulo_1200" data-name="Retângulo 1200" width="24" height="24" fill="none"/>
  <g id="Caminho_70551" data-name="Caminho 70551" transform="translate(2 1)" fill="none">
    <path d="M2,0H16a2,2,0,0,1,2,2V18a2,2,0,0,1-2,2H2a2,2,0,0,1-2-2V2A2,2,0,0,1,2,0Z" stroke="none"/>
    <path d="M 2 2 L 2 18 L 16 18 L 16 2 L 2 2 M 2 0 L 16 0 C 17.10457038879395 0 18 0.8954296112060547 18 2 L 18 18 C 18 19.10457038879395 17.10457038879395 20 16 20 L 2 20 C 0.8954296112060547 20 0 19.10457038879395 0 18 L 0 2 C 0 0.8954296112060547 0.8954296112060547 0 2 0 Z" stroke="none" fill="#0c2143"/>
  </g>
  <line id="Linha_110" data-name="Linha 110" x2="10.172" transform="translate(5.828 6.047)" fill="none" stroke="#0c2143" stroke-linecap="round" stroke-width="1.4"/>
  <line id="Linha_111" data-name="Linha 111" x2="9.672" transform="translate(5.828 9.489)" fill="none" stroke="#0c2143" stroke-linecap="round" stroke-width="1.4"/>
  <line id="Linha_112" data-name="Linha 112" x2="3.672" transform="translate(5.828 13)" fill="none" stroke="#0c2143" stroke-linecap="round" stroke-width="1.4"/>
  <g id="Elipse_285" data-name="Elipse 285" transform="translate(11 12)" fill="#fff" stroke="#0c2143" stroke-width="1.4">
    <circle cx="5.5" cy="5.5" r="5.5" stroke="none"/>
    <circle cx="5.5" cy="5.5" r="4.8" fill="none"/>
  </g>
  <path id="Caminho_70549" data-name="Caminho 70549" d="M6273.853,1501.2l1.616,1.616,2.408-2.407" transform="translate(-6430.581 -259.034) rotate(-11)" fill="none" stroke="#0c2143" stroke-linecap="round" stroke-linejoin="round" stroke-width="1.4"/>
</svg>
