<svg width="24" height="24" viewBox="0 0 24 24" fill="none" xmlns="http://www.w3.org/2000/svg">
<g id="ic-shopping">
<path id="Caminho 62983 (Stroke)" fill-rule="evenodd" clip-rule="evenodd" d="M10.0957 20.231C10.1107 20.2247 10.1252 20.217 10.1389 20.2079C10.1663 20.1895 10.1897 20.1661 10.2079 20.1389C10.2169 20.1253 10.2247 20.1109 10.231 20.0957C10.2436 20.0652 10.25 20.0327 10.25 20C10.25 19.9837 10.2484 19.9674 10.2452 19.9512C10.2356 19.9027 10.2117 19.8582 10.1768 19.8232C10.1418 19.7883 10.0973 19.7644 10.0488 19.7548C10.0326 19.7516 10.0163 19.75 10 19.75C9.96733 19.75 9.93481 19.7564 9.90433 19.769C9.88913 19.7753 9.87466 19.7831 9.86111 19.7921C9.83394 19.8103 9.81046 19.8337 9.79213 19.8611C9.78299 19.8748 9.77527 19.8893 9.76903 19.9043C9.75653 19.9345 9.75 19.967 9.75 20C9.75 20.0165 9.75163 20.0328 9.7548 20.0488C9.76438 20.0969 9.788 20.1416 9.82322 20.1768C9.85844 20.212 9.90309 20.2356 9.95123 20.2452C9.96717 20.2484 9.9835 20.25 10 20.25C10.033 20.25 10.0655 20.2435 10.0957 20.231ZM8.74997 18.1292C9.11998 17.882 9.55499 17.75 10 17.75C10.5967 17.75 11.169 17.9871 11.591 18.409C12.0129 18.831 12.25 19.4033 12.25 20C12.25 20.445 12.118 20.88 11.8708 21.25C11.6236 21.62 11.2722 21.9084 10.861 22.0787C10.4499 22.249 9.99751 22.2936 9.56105 22.2068C9.12459 22.12 8.72368 21.9057 8.40901 21.591C8.09434 21.2763 7.88005 20.8754 7.79323 20.439C7.70642 20.0025 7.75098 19.5501 7.92127 19.139C8.09157 18.7278 8.37996 18.3764 8.74997 18.1292Z" fill="#0C244E"/>
<path id="Caminho 62984 (Stroke)" fill-rule="evenodd" clip-rule="evenodd" d="M19.0957 20.231C19.1107 20.2247 19.1252 20.217 19.1389 20.2079C19.1663 20.1895 19.1897 20.1661 19.2079 20.1389C19.2169 20.1253 19.2247 20.1109 19.231 20.0957C19.2436 20.0652 19.25 20.0327 19.25 20C19.25 19.9837 19.2484 19.9674 19.2452 19.9512C19.2356 19.9027 19.2117 19.8582 19.1768 19.8232C19.1418 19.7883 19.0973 19.7644 19.0488 19.7548C19.0326 19.7516 19.0163 19.75 19 19.75C18.9673 19.75 18.9348 19.7564 18.9043 19.769C18.8891 19.7753 18.8747 19.7831 18.8611 19.7921C18.8339 19.8103 18.8105 19.8337 18.7921 19.8611C18.783 19.8748 18.7753 19.8893 18.769 19.9043C18.7565 19.9345 18.75 19.967 18.75 20C18.75 20.0165 18.7516 20.0328 18.7548 20.0488C18.7644 20.0969 18.788 20.1416 18.8232 20.1768C18.8584 20.212 18.9031 20.2356 18.9512 20.2452C18.9672 20.2484 18.9835 20.25 19 20.25C19.033 20.25 19.0655 20.2435 19.0957 20.231ZM17.75 18.1292C18.12 17.882 18.555 17.75 19 17.75C19.5967 17.75 20.169 17.9871 20.591 18.409C21.0129 18.831 21.25 19.4033 21.25 20C21.25 20.445 21.118 20.88 20.8708 21.25C20.6236 21.6201 20.2722 21.9084 19.861 22.0787C19.4499 22.249 18.9975 22.2936 18.561 22.2068C18.1246 22.12 17.7237 21.9057 17.409 21.591C17.0943 21.2763 16.8801 20.8754 16.7932 20.439C16.7064 20.0025 16.751 19.5501 16.9213 19.139C17.0916 18.7278 17.38 18.3764 17.75 18.1292Z" fill="#0C244E"/>
<path id="Caminho 62985 (Stroke)" fill-rule="evenodd" clip-rule="evenodd" d="M0.75 3C0.75 2.30964 1.30964 1.75 2 1.75H5.63658C6.22024 1.75 6.72621 2.15392 6.85552 2.72308L7.5432 5.75007H22C22.378 5.75007 22.7357 5.9211 22.973 6.2153C23.2103 6.5095 23.3017 6.89528 23.2217 7.26469L21.768 13.976L21.7636 13.9955C21.6028 14.6845 21.1847 15.2693 20.623 15.668C20.0675 16.0624 19.3948 16.2603 18.7203 16.2495H9.89995C9.22495 16.2611 8.55162 16.0637 7.99535 15.6695C7.43264 15.2708 7.01373 14.6853 6.85274 13.9954L6.85108 13.9883L6.8511 13.9883L5.32987 7.2923C5.32762 7.2829 5.32547 7.27346 5.32344 7.26398L4.6387 4.25H2C1.30964 4.25 0.75 3.69036 0.75 3ZM8.11117 8.25007L9.2878 13.4293C9.30043 13.4811 9.3404 13.5586 9.44074 13.6297C9.54456 13.7033 9.6932 13.7535 9.86056 13.7498L9.88794 13.7495H18.7315L18.757 13.7498C18.9241 13.7532 19.0724 13.7029 19.176 13.6294C19.2739 13.5599 19.3142 13.4843 19.3277 13.4326L20.4503 8.25007H8.11117Z" fill="#0C244E"/>
</g>
</svg>
