<svg width="24" height="24" viewBox="0 0 24 24" fill="none" xmlns="http://www.w3.org/2000/svg">
<g id="ic-scrip">
<g id="Grupo 15211">
<g id="Ret&#195;&#162;ngulo 974">
<path id="Vector (Stroke)" fill-rule="evenodd" clip-rule="evenodd" d="M19.2539 11.3101V19.7078H20.8652V11.3101H19.2539ZM16.7539 10.6853C16.7539 9.84851 17.368 8.81006 18.5351 8.81006H21.584C22.7511 8.81006 23.3652 9.84851 23.3652 10.6853V20.3325C23.3652 21.1693 22.7511 22.2078 21.584 22.2078H18.5351C17.368 22.2078 16.7539 21.1693 16.7539 20.3325V10.6853Z" fill="#0C244E"/>
</g>
<path id="Caminho 63166 (Stroke)" fill-rule="evenodd" clip-rule="evenodd" d="M20.0586 1.9165C20.7489 1.9165 21.3086 2.47615 21.3086 3.1665V9.76083C21.3086 10.4512 20.7489 11.0108 20.0586 11.0108C19.3682 11.0108 18.8086 10.4512 18.8086 9.76083V3.1665C18.8086 2.47615 19.3682 1.9165 20.0586 1.9165Z" fill="#0C244E"/>
</g>
<g id="Grupo 15210">
<g id="Ret&#195;&#162;ngulo 975">
<path id="Vector (Stroke)_2" fill-rule="evenodd" clip-rule="evenodd" d="M11.1953 4.29248V12.6902H12.8066V4.29248H11.1953ZM8.69531 3.66773C8.69531 2.83093 9.30942 1.79248 10.4765 1.79248H13.5254C14.6925 1.79248 15.3066 2.83093 15.3066 3.66773V13.315C15.3066 14.1518 14.6925 15.1902 13.5254 15.1902H10.4765C9.30942 15.1902 8.69531 14.1518 8.69531 13.315V3.66773Z" fill="#0C244E"/>
</g>
<path id="Caminho 63167 (Stroke)" fill-rule="evenodd" clip-rule="evenodd" d="M12 22.0835C11.3096 22.0835 10.75 21.5239 10.75 20.8335V14.21C10.75 13.5196 11.3096 12.96 12 12.96C12.6904 12.96 13.25 13.5196 13.25 14.21V20.8335C13.25 21.5239 12.6904 22.0835 12 22.0835Z" fill="#0C244E"/>
</g>
<g id="Grupo 15209">
<g id="Ret&#195;&#162;ngulo 976">
<path id="Vector (Stroke)_3" fill-rule="evenodd" clip-rule="evenodd" d="M3.13672 8.29492V15.8273H4.74803V8.29492H3.13672ZM0.636719 7.67017C0.636719 6.83337 1.25083 5.79492 2.4179 5.79492H5.46686C6.63392 5.79492 7.24803 6.83337 7.24803 7.67017V16.4521C7.24803 17.2889 6.63392 18.3273 5.46686 18.3273H2.4179C1.25083 18.3273 0.636719 17.2889 0.636719 16.4521V7.67017Z" fill="#0C244E"/>
</g>
<path id="Caminho 63168 (Stroke)" fill-rule="evenodd" clip-rule="evenodd" d="M3.94141 22.0845C3.25105 22.0845 2.69141 21.5248 2.69141 20.8345L2.69141 17.0429C2.69141 16.3526 3.25105 15.7929 3.94141 15.7929C4.63176 15.7929 5.19141 16.3526 5.19141 17.0429V20.8345C5.19141 21.5248 4.63176 22.0845 3.94141 22.0845Z" fill="#0C244E"/>
<path id="Caminho 63169 (Stroke)" fill-rule="evenodd" clip-rule="evenodd" d="M3.94141 8.20752C3.25105 8.20752 2.69141 7.64788 2.69141 6.95752L2.69141 3.16599C2.69141 2.47563 3.25105 1.91599 3.94141 1.91599C4.63176 1.91599 5.19141 2.47563 5.19141 3.16599V6.95752C5.19141 7.64788 4.63176 8.20752 3.94141 8.20752Z" fill="#0C244E"/>
</g>
</g>
</svg>
