<svg width="24" height="24" viewBox="0 0 24 24" fill="none" xmlns="http://www.w3.org/2000/svg">
<g id="ic-chat">
<path id="Vector" d="M6.69692 23C7.2305 23 7.60074 22.7235 8.26498 22.1493L12.0218 18.8849H19.0127C22.2577 18.8849 24 17.1305 24 14.015V5.86999C24 2.75447 22.2577 1 19.0127 1H4.9873C1.74229 1 0 2.74384 0 5.86999V14.015C0 17.1412 1.74229 18.8849 4.9873 18.8849H5.50999V21.6496C5.50999 22.4684 5.93467 23 6.69692 23ZM7.14338 21.0542V17.9705C7.14338 17.3963 6.91471 17.173 6.32668 17.173H4.9873C2.78766 17.173 1.75318 16.0778 1.75318 14.0043V5.86999C1.75318 3.79652 2.78766 2.71194 4.9873 2.71194H19.0127C21.2015 2.71194 22.2468 3.79652 22.2468 5.86999V14.0043C22.2468 16.0778 21.2015 17.173 19.0127 17.173H11.9565C11.3466 17.173 11.0417 17.2581 10.628 17.6728L7.14338 21.0542ZM6.67514 11.463C7.5354 11.463 8.23232 10.7825 8.23232 9.94251C8.23232 9.10248 7.5354 8.42194 6.67514 8.42194C5.81489 8.42194 5.11797 9.10248 5.11797 9.94251C5.11797 10.7825 5.81489 11.463 6.67514 11.463ZM12.0109 11.463C12.8602 11.463 13.5681 10.7825 13.5681 9.94251C13.5681 9.10248 12.8602 8.42194 12.0109 8.42194C11.1506 8.42194 10.4429 9.10248 10.4429 9.94251C10.4429 10.7825 11.1506 11.463 12.0109 11.463ZM17.3357 11.463C18.196 11.463 18.8929 10.7825 18.8929 9.94251C18.8929 9.10248 18.196 8.42194 17.3357 8.42194C16.4755 8.42194 15.7786 9.10248 15.7786 9.94251C15.7786 10.7825 16.4755 11.463 17.3357 11.463Z" fill="#0C244E"/>
</g>
</svg>
