<svg width="24" height="24" viewBox="0 0 24 24" fill="none" xmlns="http://www.w3.org/2000/svg">
<path fill-rule="evenodd" clip-rule="evenodd" d="M12 22C17.5228 22 22 17.5228 22 12C22 6.47715 17.5228 2 12 2C6.47715 2 2 6.47715 2 12C2 17.5228 6.47715 22 12 22ZM12 24C18.6274 24 24 18.6274 24 12C24 5.37258 18.6274 0 12 0C5.37258 0 0 5.37258 0 12C0 18.6274 5.37258 24 12 24Z" fill="black"/>
<path d="M11.2456 18.2727V5.54546H12.0609V18.2727H11.2456ZM13.4082 9.74645C13.3684 9.34541 13.1977 9.03386 12.8961 8.81179C12.5945 8.58973 12.1852 8.47869 11.6681 8.47869C11.3168 8.47869 11.0202 8.52841 10.7782 8.62784C10.5363 8.72396 10.3507 8.85819 10.2214 9.03054C10.0955 9.20289 10.0325 9.39844 10.0325 9.61719C10.0259 9.79948 10.064 9.95857 10.1468 10.0945C10.233 10.2304 10.3507 10.348 10.4998 10.4474C10.649 10.5436 10.8213 10.6281 11.0169 10.701C11.2124 10.7706 11.4212 10.8303 11.6433 10.88L12.5581 11.0987C13.0022 11.1982 13.4099 11.3307 13.7811 11.4965C14.1523 11.6622 14.4738 11.866 14.7456 12.108C15.0173 12.3499 15.2278 12.6349 15.377 12.9631C15.5294 13.2912 15.6073 13.6674 15.6106 14.0916C15.6073 14.7147 15.4482 15.255 15.1333 15.7124C14.8218 16.1664 14.371 16.5194 13.7811 16.7713C13.1944 17.0199 12.4868 17.1442 11.6582 17.1442C10.8362 17.1442 10.1203 17.0182 9.51048 16.7663C8.90394 16.5144 8.42998 16.1416 8.0886 15.6477C7.75053 15.1506 7.57321 14.5357 7.55664 13.8033H9.63974C9.66294 14.1447 9.76071 14.4297 9.93306 14.6584C10.1087 14.8838 10.3424 15.0545 10.6341 15.1705C10.929 15.2831 11.2621 15.3395 11.6333 15.3395C11.9979 15.3395 12.3145 15.2865 12.5829 15.1804C12.8547 15.0743 13.0652 14.9268 13.2143 14.7379C13.3635 14.549 13.438 14.3319 13.438 14.0866C13.438 13.858 13.3701 13.6657 13.2342 13.5099C13.1016 13.3542 12.9061 13.2216 12.6476 13.1122C12.3923 13.0028 12.0791 12.9034 11.7079 12.8139L10.5993 12.5355C9.74083 12.3267 9.06303 12.0002 8.56587 11.5561C8.06871 11.112 7.82179 10.5137 7.82511 9.76136C7.82179 9.14489 7.98585 8.6063 8.31729 8.1456C8.65205 7.6849 9.11109 7.32529 9.69442 7.06676C10.2778 6.80824 10.9406 6.67898 11.6831 6.67898C12.4387 6.67898 13.0983 6.80824 13.6618 7.06676C14.2285 7.32529 14.6693 7.6849 14.9842 8.1456C15.2991 8.6063 15.4615 9.13992 15.4714 9.74645H13.4082Z" fill="black"/>
</svg>
