<svg width="24" height="24" viewBox="0 0 24 24" fill="none" xmlns="http://www.w3.org/2000/svg">
<circle cx="12" cy="12" r="11" fill="black"/>
<path fill-rule="evenodd" clip-rule="evenodd" d="M12 22C17.5228 22 22 17.5228 22 12C22 6.47715 17.5228 2 12 2C6.47715 2 2 6.47715 2 12C2 17.5228 6.47715 22 12 22ZM12 24C18.6274 24 24 18.6274 24 12C24 5.37258 18.6274 0 12 0C5.37258 0 0 5.37258 0 12C0 18.6274 5.37258 24 12 24Z" fill="black"/>
<path fill-rule="evenodd" clip-rule="evenodd" d="M15.8575 7.51461C16.1416 7.04104 15.9881 6.4268 15.5145 6.14265C15.0409 5.85851 14.4267 6.01207 14.1425 6.48564L13.7458 7.14685C13.2023 6.94433 12.6141 6.83363 12 6.83363C9.23858 6.83363 7 9.07215 7 11.8335C7 13.324 7.65222 14.6622 8.68683 15.5782L8.14251 16.4854C7.85836 16.959 8.01192 17.5732 8.4855 17.8573C8.95908 18.1415 9.57334 17.9879 9.85749 17.5144L10.4191 16.5783C10.916 16.7438 11.4475 16.8334 12 16.8334C14.7614 16.8334 17 14.5949 17 11.8335C17 10.4059 16.4017 9.11802 15.4421 8.20698L15.8575 7.51461ZM12.6864 8.91246C12.4659 8.86087 12.2362 8.83358 12 8.83358C10.3431 8.83358 9 10.1767 9 11.8335C9 12.5921 9.28157 13.2849 9.74589 13.8132L12.6864 8.91246ZM11.4918 14.7906L14.3699 9.99387C14.7648 10.5019 15 11.1402 15 11.8335C15 13.4903 13.6569 14.8334 12 14.8334C11.8268 14.8334 11.657 14.8187 11.4918 14.7906Z" fill="white"/>
</svg>
