<svg width="24" height="24" viewBox="0 0 24 24" fill="none" xmlns="http://www.w3.org/2000/svg">
<path fill-rule="evenodd" clip-rule="evenodd" d="M12 22C17.5228 22 22 17.5228 22 12C22 6.47715 17.5228 2 12 2C6.47715 2 2 6.47715 2 12C2 17.5228 6.47715 22 12 22ZM12 24C18.6274 24 24 18.6274 24 12C24 5.37258 18.6274 0 12 0C5.37258 0 0 5.37258 0 12C0 18.6274 5.37258 24 12 24Z" fill="black"/>
<path d="M10.4066 6.81818L12.5096 11.9489L11.0529 13.0526L8.19922 6.81818H10.4066ZM11.5252 11.8991L13.6033 6.81818H15.8107L12.9421 13.0526L11.5252 11.8991ZM13.0415 11.6406V17H10.9137V11.6406H13.0415ZM15.0501 11.75V12.978H8.74609V11.75H15.0501ZM13.0415 13.7187V14.9467H11V13.7187H13.0415Z" fill="black"/>
</svg>
