<svg xmlns="http://www.w3.org/2000/svg" xmlns:xlink="http://www.w3.org/1999/xlink" width="24.246" height="24.239" viewBox="0 0 24.246 24.239">
  <defs>
    <clipPath id="clip-path">
      <rect id="Retângulo_1035" data-name="Retângulo 1035" width="24.246" height="24.239" fill="#11254b"/>
    </clipPath>
  </defs>
  <g id="ic-analytics" transform="translate(-62 -27.463)">
    <g id="Grupo_15397" data-name="Grupo 15397" transform="translate(62 27.463)">
      <g id="Grupo_15396" data-name="Grupo 15396" clip-path="url(#clip-path)">
        <path id="Caminho_63415" data-name="Caminho 63415" d="M10.536,19.043q-.594-.587-1.188-1.175c-.3-.3-.3-.3-.007-.593.333-.334.672-.663,1-1,.133-.138.23-.137.365,0,1.046,1.054,2.1,2.1,3.143,3.155a1.017,1.017,0,0,1,0,1.485c-1.04,1.059-2.1,2.1-3.143,3.156-.135.136-.231.137-.364,0q-.543-.562-1.105-1.105c-.15-.145-.137-.25.006-.389.367-.356.726-.72,1.085-1.084.067-.068.156-.121.18-.231-.094-.079-.207-.041-.309-.041-1.022,0-2.045,0-3.067,0A4.075,4.075,0,0,1,3.02,17.089c0-2.881-.007-5.761.007-8.642A.558.558,0,0,0,2.6,7.815,4.015,4.015,0,0,1,.014,3.7a4.063,4.063,0,0,1,7.92-.868A4.044,4.044,0,0,1,5.562,7.814c-.453.18-.453.18-.453.661,0,2.822.03,5.644-.013,8.465a2.071,2.071,0,0,0,2.21,2.193c1.059-.047,2.121-.01,3.182-.01l.048-.081m-8.44-15a1.934,1.934,0,0,0,1.93,1.99,1.935,1.935,0,0,0,2-1.946A1.934,1.934,0,0,0,4.07,2.094,1.933,1.933,0,0,0,2.1,4.039" transform="translate(0 0.001)" fill="#11254b"/>
        <path id="Caminho_63416" data-name="Caminho 63416" d="M131.365,5.946c.331.323.674.654,1.013.99.474.47.472.471,0,.948-.271.271-.546.538-.811.816-.128.134-.225.15-.364.009-1.046-1.054-2.1-2.1-3.145-3.154a1.024,1.024,0,0,1,.009-1.507C129.1,3,130.148,1.961,131.186.913c.149-.151.249-.133.386.01.341.354.685.706,1.044,1.041.186.174.2.3.005.476-.428.4-.838.825-1.258,1.243.113.121.227.075.326.076,1.032,0,2.065,0,3.1,0a4.073,4.073,0,0,1,4.09,4.088q.011,4.395,0,8.79a.425.425,0,0,0,.34.48,4.051,4.051,0,1,1-5.334,4.686,4,4,0,0,1,2.539-4.663.479.479,0,0,0,.377-.547c-.011-2.91,0-5.821-.009-8.731a1.946,1.946,0,0,0-1.6-1.98,1.149,1.149,0,0,0-.233-.028q-1.711,0-3.421,0a.154.154,0,0,0-.165.092m6.47,16.936a1.968,1.968,0,1,0-1.969-1.981,1.933,1.933,0,0,0,1.969,1.981" transform="translate(-117.661 -0.744)" fill="#11254b"/>
      </g>
    </g>
  </g>
</svg>
