<svg width="35" height="35" viewBox="0 0 35 35" fill="none" xmlns="http://www.w3.org/2000/svg">
<g id="ic-clothes">
<path id="ic-clothes_2" d="M34.9823 7.84946C35.0066 7.97658 35.0059 8.10742 34.9803 8.23426C34.9547 8.36111 34.9047 8.4814 34.8333 8.58804L30.6296 15.4671C30.5456 15.5941 30.4327 15.698 30.3008 15.7698C30.1688 15.8417 30.0219 15.8792 29.8727 15.8792C29.7447 15.8773 29.6171 15.863 29.4916 15.8364L26.1228 14.9266V31.2252C26.1307 31.3353 26.1164 31.4459 26.0807 31.55C26.045 31.6541 25.9888 31.7495 25.9156 31.8301C25.8424 31.9107 25.7537 31.9748 25.6552 32.0184C25.5567 32.062 25.4506 32.0841 25.3434 32.0833H8.96332C8.85613 32.0841 8.74995 32.062 8.65147 32.0184C8.55298 31.9748 8.46433 31.9107 8.3911 31.8301C8.31787 31.7495 8.26165 31.6541 8.22599 31.55C8.19033 31.4459 8.17599 31.3353 8.18389 31.2252L8.18389 14.9266L5.15799 15.8436C4.99695 15.9004 4.82124 15.8941 4.66438 15.826C4.50753 15.7579 4.3805 15.6327 4.30755 15.4743L0.136761 8.61301C0.0724217 8.50796 0.0295608 8.39049 0.0107987 8.2678C-0.00796331 8.1451 -0.0022322 8.01975 0.0276415 7.89941C0.0551834 7.78074 0.108017 7.66987 0.182312 7.57483C0.256607 7.47979 0.350503 7.40298 0.457191 7.34994L8.96332 2.91671L12.8622 2.91671C12.9696 2.9151 13.0761 2.93664 13.175 2.97994C13.2739 3.02324 13.3628 3.08734 13.4362 3.16814C13.5096 3.24894 13.5658 3.34464 13.6012 3.44912C13.6365 3.55359 13.6503 3.66453 13.6416 3.77481C13.6416 5.54275 15.8933 6.79512 17.5024 6.79512C19.1114 6.79512 21.4411 5.54632 21.4411 3.77481C21.4332 3.66471 21.4475 3.55412 21.4832 3.45C21.5188 3.34589 21.575 3.25052 21.6483 3.1699C21.7215 3.08928 21.8101 3.02516 21.9086 2.98158C22.0071 2.938 22.1133 2.91592 22.2205 2.91671L26.1193 2.91671L34.5406 7.25717C34.6506 7.31828 34.7468 7.40263 34.8229 7.5047C34.899 7.60677 34.9533 7.72426 34.9823 7.84946Z" fill="#E7EEF7"/>
</g>
</svg>
