<svg width="25" height="31" viewBox="0 0 25 31" fill="none" xmlns="http://www.w3.org/2000/svg">
<g id="Grupo 22600">
<path id="Caminho 66809" d="M7.5805 13.2856C7.74793 14.3276 8.16667 15.3068 8.79652 16.1291C9.42636 16.9514 10.2462 17.5892 11.1772 17.9813C12.0308 18.301 12.9628 18.301 13.8164 17.9813C14.743 17.5818 15.5591 16.9427 16.1895 16.123C16.8199 15.3032 17.2442 14.3292 17.4233 13.2909C17.6973 13.266 18.0594 12.8629 18.4485 11.4077C18.9814 9.42094 18.4146 9.12668 17.9409 9.17483C18.0303 8.90941 18.0993 8.63687 18.1473 8.35981C18.9611 3.2111 16.5554 3.03633 16.5554 3.03633C16.2043 2.4311 15.7037 1.93793 15.1072 1.6096C14.2083 1.06153 13.1672 0.829177 12.1347 0.946172C11.7317 0.967509 11.3333 1.04671 10.9505 1.18158C10.4853 1.35307 10.0456 1.59325 9.64445 1.89495C9.15235 2.22384 8.7021 2.61758 8.30457 3.06665C7.59943 3.80242 7.09863 4.72751 6.8564 5.74176C6.67139 6.60464 6.67545 7.50062 6.86825 8.36159C6.91554 8.63882 6.98457 8.91142 7.07463 9.17661C6.59417 9.12846 6.02744 9.42451 6.56712 11.4094C6.94439 12.8558 7.30643 13.2606 7.5805 13.2856Z" fill="#E7EEF7"/>
<path id="Caminho 66810" d="M21.9427 20.0353C20.0569 19.4926 18.2665 18.6326 16.6406 17.4885L14.7797 23.677L14.4312 24.8416V24.8237L14.1283 25.8135L13.1488 22.8851C15.5545 19.3486 12.6616 19.3843 12.5025 19.3897C12.3435 19.395 9.45733 19.3468 11.8563 22.8851L10.8767 25.8135L10.5739 24.8237V24.8416L10.2254 23.677L8.36445 17.4885C6.73548 18.6337 4.94161 19.4937 3.05226 20.0353C0.86986 20.6202 0.766662 23.2775 0.852943 24.5865C0.852943 24.5865 0.978132 26.3699 1.10502 27.1528C4.5898 29.177 8.52345 30.1854 12.5008 30.0741C16.4786 30.1889 20.4131 29.1804 23.8967 27.1528C24.0219 26.3681 24.1488 24.5865 24.1488 24.5865C24.2283 23.2811 24.1251 20.6256 21.9427 20.0353Z" fill="#E7EEF7"/>
</g>
</svg>
