<svg width="60" height="60" viewBox="0 0 60 60" fill="none" xmlns="http://www.w3.org/2000/svg">
<rect x="1" y="1" width="58" height="58" rx="14" stroke="#0C244E" stroke-width="2" stroke-dasharray="10 10"/>
<path d="M25.7442 40.6719C25.7442 41.3236 25.2465 41.8568 24.6382 41.8568H20.0669C19.4586 41.8568 18.9609 41.3236 18.9609 40.6719V35.3006C18.9609 34.6489 19.4586 34.1157 20.0669 34.1157H24.6382C25.2465 34.1157 25.7442 34.6489 25.7442 35.3006V40.6719Z" fill="#0C244E"/>
<path d="M33.8731 40.6724C33.8731 41.324 33.3754 41.8572 32.7671 41.8572H28.1958C27.5875 41.8572 27.0898 41.324 27.0898 40.6724V32.4573C27.0898 31.8056 27.5875 31.2725 28.1958 31.2725H32.7671C33.3754 31.2725 33.8731 31.8056 33.8731 32.4573V40.6724Z" fill="#0C244E"/>
<path d="M42.002 40.6713C42.002 41.323 41.5043 41.8562 40.896 41.8562H36.3247C35.7164 41.8562 35.2188 41.323 35.2188 40.6713V29.2967C35.2188 28.645 35.7164 28.1118 36.3247 28.1118H40.896C41.5043 28.1118 42.002 28.645 42.002 29.2967V40.6713Z" fill="#0C244E"/>
<path d="M41.4243 19.0245L36.3744 20.4575C35.9737 20.5706 35.8844 20.9414 36.1759 21.2814L37.2535 22.5089C37.344 22.6292 37.2366 22.7891 37.1515 22.8569C36.4729 23.3972 35.3961 24.1899 33.9076 25.0957C25.8042 30.027 19.1242 29.7245 19.0237 29.7191C18.4875 29.6874 18.029 30.1692 18.0013 30.7957C17.9737 31.4225 18.3868 31.9569 18.9242 31.9892C18.9637 31.9915 19.1243 32 19.3944 32C21.1263 32 27.3476 31.6514 34.8091 27.111C36.5746 26.0366 37.7983 25.11 38.5128 24.5234C38.6138 24.4405 38.7899 24.2974 38.9524 24.4904L40.131 25.865C40.4225 26.205 40.7388 26.1004 40.8341 25.6326L41.9798 19.6694C42.075 19.2015 41.8249 18.9113 41.4243 19.0245Z" fill="#0C244E"/>
</svg>
