<svg width="24" height="24" viewBox="0 0 24 24" fill="none" xmlns="http://www.w3.org/2000/svg">
<g id="ic-shoes">
<g id="Grupo 30494">
<path id="Caminho 63419" d="M24 21.7772C23.9331 21.8546 23.8476 21.9151 23.7507 21.9535C23.6539 21.9918 23.5488 22.0068 23.4445 21.9971C22.2568 21.9971 21.0702 21.9971 19.8824 21.9971C19.7813 21.9988 19.6805 21.9858 19.5835 21.9586C19.5043 21.9405 19.4351 21.8945 19.3895 21.8298C19.3439 21.765 19.3252 21.6862 19.3372 21.6089C19.3401 21.5307 19.3725 21.4561 19.4283 21.3991C19.4842 21.3421 19.5596 21.3064 19.6407 21.2987C19.7258 21.2887 19.8117 21.2858 19.8973 21.2899C20.9201 21.2899 21.9441 21.2844 22.9669 21.2899C23.1879 21.2899 23.2509 21.225 23.2441 21.0303C23.2303 20.6498 23.2326 20.2681 23.2441 19.8865C23.2441 19.7138 23.1753 19.6665 22.9967 19.6665C22.3255 19.6731 21.6531 19.6665 20.982 19.6665H1.15567C0.753651 19.6665 0.753651 19.6665 0.753651 20.046C0.753651 20.3913 0.753651 20.7367 0.753651 21.082C0.753651 21.2261 0.802902 21.302 0.970125 21.2855C1.03999 21.2789 1.11101 21.2855 1.18087 21.2855H20.9442C21.0381 21.2855 21.132 21.2855 21.2248 21.2855C21.2727 21.2805 21.3212 21.2848 21.3674 21.2983C21.4135 21.3117 21.4564 21.3339 21.4934 21.3636C21.5304 21.3933 21.5608 21.4298 21.5827 21.4711C21.6047 21.5123 21.6178 21.5574 21.6212 21.6035C21.6245 21.6497 21.6182 21.6961 21.6025 21.7399C21.5868 21.7837 21.562 21.824 21.5297 21.8584C21.4974 21.8927 21.4582 21.9205 21.4145 21.94C21.3708 21.9595 21.3234 21.9703 21.2752 21.9718C21.1909 21.9863 21.1054 21.9929 21.0198 21.9916H0.599026C0.48784 22.0091 0.373809 21.998 0.268572 21.9594C0.163334 21.9207 0.0706578 21.8559 0 21.7717L0 19.0099C0.105374 18.3345 0.213038 17.6603 0.314976 16.9839C0.518851 15.6365 0.71929 14.2804 0.92431 12.9331C0.964398 12.6658 1.13506 12.5316 1.36871 12.5624C1.4234 12.571 1.4756 12.5905 1.52189 12.6197C1.56818 12.649 1.60753 12.6873 1.63736 12.7321C1.66719 12.777 1.68684 12.8273 1.69502 12.88C1.7032 12.9326 1.69973 12.9863 1.68483 13.0375C1.40155 14.944 1.11444 16.8504 0.823518 18.7569C0.799465 18.9164 0.859024 18.9626 1.02167 18.9593C1.34122 18.9527 1.66193 18.9593 1.98263 18.9593H16.2298C16.5734 18.9593 16.5872 18.9593 16.6112 18.6535C16.6589 18.0277 16.8012 17.4119 17.0339 16.8255C17.0774 16.7155 17.0408 16.6726 16.9193 16.6462C16.1989 16.4889 15.5009 16.2485 14.8405 15.9302C14.8189 15.9149 14.7942 15.9041 14.768 15.8985C14.7418 15.8929 14.7147 15.8926 14.6883 15.8977C14.662 15.9028 14.6371 15.9131 14.6152 15.928C14.5932 15.9429 14.5748 15.962 14.561 15.9841C14.5098 16.0484 14.4506 16.1064 14.3847 16.1568C14.3204 16.2181 14.2346 16.2541 14.1441 16.2577C14.0536 16.2614 13.965 16.2325 13.8956 16.1766C13.8569 16.1526 13.8241 16.1209 13.7993 16.0837C13.7744 16.0465 13.7581 16.0046 13.7515 15.9608C13.7449 15.9171 13.7481 15.8725 13.7609 15.83C13.7737 15.7876 13.7958 15.7482 13.8257 15.7146C14.0216 15.5101 13.9105 15.4254 13.7226 15.3154C13.3117 15.0686 12.9232 14.7889 12.5612 14.4795C12.2623 14.2309 12.3413 14.2716 12.0527 14.4718C12.0106 14.5042 11.9666 14.5343 11.921 14.562C11.8418 14.611 11.7464 14.6299 11.6534 14.6151C11.5605 14.6002 11.4766 14.5527 11.4182 14.4817C11.3606 14.4176 11.3308 14.3347 11.3351 14.2502C11.3394 14.1656 11.3773 14.0859 11.4411 14.0274C11.5281 13.924 11.7503 13.8899 11.7079 13.7349C11.6747 13.6161 11.535 13.5149 11.4365 13.4181C11.1484 13.1159 10.8784 12.7983 10.6279 12.4667C10.5282 12.338 10.4389 12.2962 10.2842 12.3831C10.1921 12.4423 10.0794 12.4644 9.97041 12.4447C9.89778 12.4334 9.8305 12.401 9.77766 12.3518C9.72482 12.3026 9.68896 12.2391 9.67491 12.1697C9.65514 12.0979 9.66288 12.0216 9.69673 11.9548C9.73057 11.888 9.78826 11.8351 9.85931 11.8057C10.0506 11.7188 10.0242 11.6352 9.93147 11.4922C9.69552 11.1282 9.47332 10.7553 9.25914 10.3802C9.18354 10.2482 9.11368 10.2043 8.95103 10.2702C8.90636 10.297 8.85652 10.3148 8.8045 10.3226C8.75248 10.3304 8.69935 10.328 8.64832 10.3155C8.59729 10.3031 8.5494 10.2809 8.50753 10.2503C8.46567 10.2196 8.43069 10.1811 8.4047 10.1372C8.37986 10.0914 8.36596 10.0409 8.36399 9.9893C8.36202 9.93773 8.37204 9.88638 8.39332 9.83898C8.4146 9.79159 8.4466 9.74934 8.487 9.71531C8.5274 9.68127 8.57519 9.6563 8.6269 9.64222C8.7987 9.56412 8.80672 9.48053 8.73456 9.33645C8.62173 9.11563 8.52342 8.88825 8.4402 8.65563C8.37606 8.46755 8.29245 8.44555 8.10346 8.53024C6.95147 9.0413 5.73696 9.41084 4.48869 9.63012C3.7916 9.75837 3.08572 9.83777 2.37663 9.86769C2.20025 9.87429 2.13496 9.93038 2.11435 10.0932C2.04791 10.6211 1.75012 12.6031 1.67109 13.1299C1.66985 13.1834 1.65728 13.2361 1.63415 13.2847C1.61101 13.3334 1.5778 13.377 1.53654 13.4129C1.49528 13.4488 1.44683 13.4763 1.39415 13.4936C1.34147 13.511 1.28566 13.5178 1.23012 13.5138C1.1749 13.5068 1.12189 13.4885 1.07467 13.4601C1.02744 13.4317 0.987109 13.3939 0.956385 13.3493C0.925661 13.3047 0.905264 13.2543 0.896569 13.2014C0.887875 13.1486 0.891085 13.0946 0.905985 13.043C0.997614 12.3831 1.11673 11.2832 1.36413 10.1372C1.52334 8.25087 1.31373 6.1413 1.48898 4.76866C1.66422 3.39601 4.00878 3.10234 5.01098 2.87577C6.27088 2.5931 8.18249 2.02556 8.18249 2.02556C8.18249 2.02556 9.54204 1.78249 9.85931 2.79548C10.1766 3.80846 9.59931 5.72665 10.2762 7.70093C10.4137 7.999 10.5362 8.30147 10.6622 8.60393C10.7057 8.70732 10.7538 8.76671 10.9004 8.74911C10.9743 8.74085 11.0489 8.75578 11.1131 8.79168C11.1773 8.82757 11.2277 8.88249 11.2567 8.94819C11.2938 9.00839 11.3076 9.07924 11.2957 9.14826C11.2837 9.21728 11.2468 9.28003 11.1914 9.32545C11.1714 9.33804 11.1543 9.3545 11.1413 9.37377C11.1284 9.39305 11.1197 9.41471 11.1159 9.43738C11.1121 9.46006 11.1133 9.48324 11.1194 9.50544C11.1255 9.52764 11.1364 9.54838 11.1513 9.56632C11.37 9.94028 11.59 10.312 11.827 10.6761C11.9015 10.7861 11.9714 10.8466 12.1226 10.7927C12.1962 10.7662 12.2772 10.7654 12.3513 10.7906C12.4255 10.8157 12.488 10.8651 12.528 10.9302C12.5805 10.9893 12.6068 11.0658 12.6013 11.1433C12.5957 11.2209 12.5587 11.2932 12.4982 11.3448C12.4781 11.3572 12.4612 11.3739 12.449 11.3937C12.4369 11.4135 12.4297 11.4357 12.4281 11.4586C12.4266 11.4815 12.4307 11.5045 12.44 11.5256C12.4494 11.5467 12.4639 11.5654 12.4822 11.5802C12.7262 11.8794 12.977 12.173 13.2427 12.4601C13.2556 12.4802 13.2728 12.4974 13.2932 12.5105C13.3136 12.5237 13.3367 12.5324 13.361 12.5362C13.3852 12.5399 13.41 12.5386 13.4337 12.5323C13.4574 12.526 13.4794 12.5149 13.4981 12.4997C13.5719 12.4485 13.6624 12.4248 13.753 12.4329C13.8436 12.441 13.928 12.4803 13.9906 12.5437C14.0236 12.5717 14.0502 12.6059 14.0691 12.6441C14.0879 12.6823 14.0985 12.7237 14.1002 12.766C14.1019 12.8082 14.0947 12.8503 14.079 12.8898C14.0633 12.9293 14.0395 12.9653 14.009 12.9957C13.9219 13.0969 13.9609 13.1563 14.0445 13.2311C14.3699 13.512 14.7102 13.7767 15.0639 14.0241C15.1784 14.1088 15.2654 14.1264 15.38 14.0142C15.4376 13.951 15.5181 13.9113 15.6051 13.9031C15.6922 13.8949 15.7792 13.9189 15.8484 13.9702C15.8879 13.9894 15.9227 14.0162 15.9509 14.0489C15.979 14.0816 15.9998 14.1195 16.012 14.1603C16.0241 14.2011 16.0274 14.2439 16.0215 14.2859C16.0156 14.328 16.0008 14.3684 15.9779 14.4047C15.9034 14.5334 15.9847 14.5631 16.0798 14.6126C17.0138 15.0931 18.029 15.4111 19.0784 15.5519C19.8458 15.6294 20.6084 15.745 21.3634 15.8983C22.1818 16.0511 22.9183 16.4751 23.4445 17.0961C23.7233 17.494 23.9121 17.9436 23.9989 18.4159L24 21.7772ZM20.273 18.9582C21.179 18.9582 22.0849 18.9582 22.9898 18.9582C23.1822 18.9582 23.2544 18.9054 23.2429 18.7239C23.2328 18.2503 23.0623 17.7928 22.7573 17.4206C22.3228 16.9705 21.7459 16.6706 21.116 16.567C20.2604 16.3658 19.3716 16.3372 18.5091 16.17C18.4384 16.1456 18.3607 16.1477 18.2915 16.1758C18.2223 16.2039 18.1667 16.256 18.1357 16.3218C17.683 17.0747 17.4176 17.9178 17.3603 18.7855C17.342 18.9692 17.4748 18.956 17.602 18.956H20.273M11.2246 11.1358C11.2074 11.1007 11.196 11.0743 11.1811 11.049C10.9337 10.642 10.684 10.2361 10.4389 9.82809C10.3885 9.7445 10.3346 9.70931 10.235 9.7544C10.1353 9.7995 10.0666 9.83029 9.97957 9.86439C9.89253 9.89849 9.87764 9.94578 9.91658 10.0162C10.1617 10.4495 10.4125 10.8785 10.7 11.2898C10.7098 11.306 10.7231 11.3199 10.7389 11.3307C10.7548 11.3415 10.7729 11.349 10.792 11.3525C10.8111 11.356 10.8307 11.3556 10.8496 11.3513C10.8685 11.3469 10.8863 11.3387 10.9016 11.3272C11.0161 11.2678 11.1536 11.2535 11.2234 11.1381M11.6232 11.798C11.5659 11.8222 11.4983 11.8574 11.425 11.8816C11.2383 11.9443 11.2131 12.0213 11.3414 12.1763C11.6335 12.5305 11.9416 12.8715 12.2577 13.2091C12.4123 13.3752 12.4982 13.2267 12.6013 13.1607C12.7044 13.0947 12.7674 13.0232 12.6506 12.9023C12.3438 12.5795 12.054 12.2421 11.7824 11.8915C11.7469 11.8464 11.7171 11.7903 11.6243 11.7969M14.7065 14.7127C14.7134 14.6599 14.6802 14.639 14.6504 14.617C14.2037 14.3057 13.7856 13.9636 13.3664 13.6205C13.2026 13.4863 13.1236 13.7041 13.0136 13.7668C12.9037 13.8295 12.9942 13.8899 13.0526 13.9383C13.4624 14.2819 13.9019 14.5914 14.3663 14.8633C14.3988 14.8782 14.4343 14.8861 14.4704 14.8864C14.5064 14.8867 14.542 14.8794 14.5748 14.8651C14.6076 14.8507 14.6366 14.8296 14.66 14.8033C14.6833 14.7769 14.7004 14.746 14.7099 14.7127M9.45729 7.88021C9.40283 7.88319 9.34972 7.89756 9.30165 7.92231C9.25358 7.94706 9.21172 7.98159 9.17899 8.02349C9.14627 8.06539 9.12347 8.11365 9.11218 8.16489C9.1009 8.21614 9.10141 8.26913 9.11368 8.32016C9.22821 8.58853 9.34962 8.8525 9.45729 9.12087C9.51227 9.25506 9.60733 9.26276 9.71156 9.19347C9.81579 9.12417 10.0689 9.15607 9.96812 8.9207C9.83373 8.60686 9.69781 8.2934 9.56037 7.9803C9.5409 7.93631 9.53632 7.87581 9.44583 7.88131M17.4485 15.9412C17.1897 15.8488 16.9308 15.7586 16.6719 15.6651C16.282 15.5198 15.9041 15.3463 15.5415 15.146C15.3983 15.069 15.3124 15.1394 15.2551 15.2373C15.1818 15.3572 15.3227 15.3583 15.3846 15.388C15.8821 15.6168 16.4035 15.7945 16.94 15.9181C17.1009 15.9847 17.2815 15.9933 17.4485 15.9423" fill="#0C244E"/>
<path id="Caminho 63420" d="M5.04176 11.8178C4.70991 11.829 4.38881 11.9335 4.1183 12.1185C3.84779 12.3034 3.6398 12.5605 3.52014 12.858C3.40049 13.1554 3.37443 13.48 3.44521 13.7916C3.51599 14.1031 3.68049 14.3878 3.91829 14.6103C4.1561 14.8329 4.45672 14.9835 4.78286 15.0434C5.10899 15.1033 5.44627 15.0699 5.75282 14.9474C6.05937 14.8249 6.3217 14.6186 6.50723 14.3541C6.69277 14.0897 6.79333 13.7787 6.79646 13.4599C6.79544 13.2409 6.74904 13.0243 6.65994 12.8227C6.57084 12.6211 6.44083 12.4385 6.27751 12.2857C6.11418 12.1328 5.92079 12.0127 5.70863 11.9324C5.49646 11.8521 5.26977 11.8131 5.04176 11.8178Z" fill="#0C244E"/>
<path id="Caminho 63421" d="M17.1592 16.3667L15.6909 15.7848L14.1263 15.1128L12.5297 14.0393L11.4439 12.8294L10.2309 11.1081L9.10272 9.47702L8.69841 8.35734L8.31471 8.20996L7.56679 8.32765L6.17631 8.90838L3.71836 9.43852L1.80216 9.72999L1.22948 13.5092L0.460938 19.3132L16.9989 19.1372L17.0309 18.1353L17.3608 16.8979L17.1592 16.3667ZM5.05844 15.7848C4.5801 15.7716 4.11637 15.6236 3.72502 15.3591C3.33368 15.0947 3.03201 14.7255 2.85761 14.2976C2.6832 13.8696 2.64377 13.4019 2.74421 12.9526C2.84466 12.5033 3.08055 12.0923 3.4225 11.7709C3.76445 11.4494 4.19734 11.2317 4.66723 11.1448C5.13713 11.0579 5.62327 11.1056 6.06509 11.2822C6.50691 11.4587 6.88488 11.7561 7.15191 12.1375C7.41893 12.5188 7.56322 12.9672 7.56679 13.4267C7.55683 14.0579 7.2877 14.6598 6.81794 15.1014C6.34819 15.543 5.71582 15.7887 5.05844 15.7848Z" fill="#0C244E"/>
</g>
</g>
</svg>
