<svg width="24" height="24" viewBox="0 0 24 24" fill="none" xmlns="http://www.w3.org/2000/svg">
<g id="ic-notfy">
<g id="group">
<mask id="mask0_15_693" style="mask-type:luminance" maskUnits="userSpaceOnUse" x="3" y="0" width="18" height="24">
<g id="clip-path">
<path id="Ret&#195;&#162;ngulo 626" d="M21 0H3V24H21V0Z" fill="white"/>
</g>
</mask>
<g mask="url(#mask0_15_693)">
<g id="Grupo 14830">
<path id="Caminho 62951" d="M11.9374 20.119C10.3689 20.0881 8.80387 19.9521 7.2517 19.712C6.82028 19.6658 6.39235 19.5886 5.97086 19.481C5.05562 19.1902 4.26267 18.5766 3.72451 17.7428C3.18635 16.909 2.93558 15.9055 3.01412 14.9C3.07359 14.1433 3.30076 13.412 3.67728 12.765C3.9378 12.312 4.19359 11.856 4.43517 11.392C4.70782 10.8726 4.84419 10.2857 4.83023 9.69203C4.79885 8.83875 4.80802 7.98434 4.8577 7.13203C4.91158 5.72177 5.3504 4.35799 6.12136 3.20482C6.89231 2.05164 7.96255 1.15821 9.20328 0.632028C10.1502 0.197719 11.1754 -0.0135388 12.2076 0.0129597C13.2397 0.0394582 14.254 0.303076 15.1798 0.785464C16.1057 1.26785 16.9207 1.95742 17.5684 2.80617C18.216 3.65491 18.6806 4.64245 18.9299 5.70003C19.0697 6.35271 19.1494 7.01815 19.1677 7.68703C19.2065 8.35503 19.1895 9.02903 19.1724 9.69903C19.155 10.2764 19.286 10.8479 19.5514 11.353C19.8166 11.863 20.1028 12.361 20.3813 12.863C20.6855 13.3896 20.8842 13.9765 20.9651 14.5874C21.046 15.1983 21.0073 15.8202 20.8515 16.4146C20.6957 17.0091 20.426 17.5635 20.0591 18.0437C19.6923 18.5238 19.2361 18.9194 18.7186 19.206C18.2221 19.4551 17.6884 19.6114 17.1413 19.668C15.4168 19.931 13.6785 20.0813 11.9364 20.118M12.5664 18.45C13.277 18.386 14.5559 18.284 15.8225 18.15C16.4111 18.1088 16.9954 18.0162 17.5695 17.873C17.9534 17.7509 18.3057 17.5379 18.5997 17.2501C18.8936 16.9623 19.1214 16.6074 19.2655 16.2125C19.4097 15.8176 19.4664 15.3931 19.4314 14.9716C19.3964 14.55 19.2705 14.1424 19.0635 13.78C18.8276 13.342 18.5718 12.915 18.3321 12.48C17.8167 11.5907 17.5607 10.5609 17.596 9.51903C17.6216 8.91003 17.6083 8.29903 17.596 7.68903C17.5974 7.3493 17.5739 7.00996 17.5259 6.67403C17.3108 5.24264 16.6041 3.94489 15.5406 3.02827C14.4771 2.11164 13.1311 1.64028 11.7595 1.70406C10.3878 1.76785 9.08632 2.36232 8.10329 3.37411C7.12025 4.3859 6.5244 5.74422 6.42938 7.19003C6.38486 8.01503 6.38865 8.84503 6.4057 9.67303C6.42631 10.5653 6.21849 11.447 5.80412 12.225C5.52559 12.757 5.21865 13.273 4.93538 13.803C4.72129 14.1837 4.59647 14.6129 4.57129 15.0548C4.54612 15.4967 4.62133 15.9386 4.79066 16.3436C4.95999 16.7486 5.21854 17.1051 5.54478 17.3833C5.87102 17.6615 6.25551 17.8534 6.66623 17.943C6.89833 17.993 7.13991 18.012 7.37201 18.043C9.09335 18.2999 10.829 18.4356 12.5674 18.449" fill="#0C244E"/>
<path id="Caminho 62952" d="M12.0069 23.9999C11.4433 24.0016 10.8877 23.8591 10.3876 23.5846C9.88752 23.3101 9.45788 22.9119 9.13543 22.4239C9.06092 22.3372 9.00445 22.235 8.96968 22.1239C8.93491 22.0127 8.92261 21.8951 8.93357 21.7787C8.94453 21.6622 8.97852 21.5494 9.03332 21.4477C9.08813 21.3459 9.16254 21.2575 9.25176 21.188C9.34097 21.1185 9.44301 21.0695 9.55127 21.0442C9.65953 21.0189 9.77161 21.0179 9.88028 21.0411C9.98895 21.0644 10.0918 21.1115 10.1822 21.1793C10.2725 21.2471 10.3484 21.3342 10.4049 21.4349C10.5819 21.7113 10.8204 21.9376 11.0996 22.094C11.3787 22.2505 11.6899 22.3323 12.006 22.3323C12.322 22.3323 12.6332 22.2505 12.9124 22.094C13.1915 21.9376 13.43 21.7113 13.607 21.4349C13.6641 21.3373 13.7394 21.2529 13.8284 21.187C13.9173 21.1212 14.0181 21.0751 14.1245 21.0517C14.2309 21.0283 14.3407 21.0281 14.4472 21.051C14.5537 21.0739 14.6546 21.1194 14.7439 21.1849C14.8331 21.2553 14.9077 21.3444 14.9628 21.4467C15.0179 21.5489 15.0524 21.6621 15.0642 21.7791C15.0759 21.8961 15.0646 22.0143 15.031 22.1265C14.9974 22.2387 14.9422 22.3423 14.8689 22.4309C14.547 22.9167 14.1187 23.3133 13.6204 23.5868C13.1221 23.8603 12.5686 24.0027 12.0069 24.0019" fill="#0C244E"/>
</g>
</g>
</g>
</g>
</svg>
