<svg width="24" height="24" viewBox="0 0 24 24" fill="none" xmlns="http://www.w3.org/2000/svg">
<g id="ic-calendar-arrow">
<path id="Caminho 63376 (Stroke)" fill-rule="evenodd" clip-rule="evenodd" d="M4.22209 4.2002C3.89474 4.2002 3.58281 4.32903 3.35438 4.55517C3.12629 4.78098 3 5.0851 3 5.40007V20.8004C3 21.1153 3.12629 21.4195 3.35438 21.6453C3.58281 21.8714 3.89475 22.0002 4.22209 22.0002H19.7779C20.1053 22.0002 20.4172 21.8714 20.6456 21.6453C20.8737 21.4195 21 21.1153 21 20.8004V5.40007C21 5.0851 20.8737 4.78098 20.6456 4.55517C20.4172 4.32903 20.1053 4.2002 19.7779 4.2002H4.22209ZM1.94729 3.13387C2.5523 2.53491 3.37076 2.2002 4.22209 2.2002H19.7779C20.6292 2.2002 21.4477 2.53491 22.0527 3.13387C22.6581 3.73317 23 4.54815 23 5.40007V20.8004C23 21.6523 22.6581 22.4673 22.0527 23.0666C21.4477 23.6655 20.6292 24.0002 19.7779 24.0002H4.22209C3.37076 24.0002 2.5523 23.6655 1.94729 23.0666C1.34194 22.4673 1 21.6523 1 20.8004V5.40007C1 4.54815 1.34194 3.73317 1.94729 3.13387Z" fill="#0C244E"/>
<path id="Caminho 63377 (Stroke)" fill-rule="evenodd" clip-rule="evenodd" d="M16.4414 0C16.9937 0 17.4414 0.447715 17.4414 1V5.39974C17.4414 5.95203 16.9937 6.39974 16.4414 6.39974C15.8891 6.39974 15.4414 5.95203 15.4414 5.39974V1C15.4414 0.447715 15.8891 0 16.4414 0Z" fill="#0C244E"/>
<path id="Caminho 63378 (Stroke)" fill-rule="evenodd" clip-rule="evenodd" d="M7.55469 0C8.10697 0 8.55469 0.447715 8.55469 1V5.39974C8.55469 5.95203 8.10697 6.39974 7.55469 6.39974C7.0024 6.39974 6.55469 5.95203 6.55469 5.39974V1C6.55469 0.447715 7.0024 0 7.55469 0Z" fill="#0C244E"/>
<path id="Caminho 63379 (Stroke)" fill-rule="evenodd" clip-rule="evenodd" d="M1 9.7998C1 9.24752 1.44772 8.7998 2 8.7998H22C22.5523 8.7998 23 9.24752 23 9.7998C23 10.3521 22.5523 10.7998 22 10.7998H2C1.44772 10.7998 1 10.3521 1 9.7998Z" fill="#0C244E"/>
<path id="Linha 12 (Stroke)" fill-rule="evenodd" clip-rule="evenodd" d="M15.3459 16.6164C15.3459 17.1659 14.8959 17.6114 14.3409 17.6114H8.24507C7.69001 17.6114 7.24005 17.1659 7.24005 16.6164C7.24005 16.0669 7.69001 15.6215 8.24506 15.6215H14.3409C14.8959 15.6215 15.3459 16.0669 15.3459 16.6164Z" fill="#0C244E"/>
<path id="Caminho 66850 (Stroke)" fill-rule="evenodd" clip-rule="evenodd" d="M12.1803 13.2363C12.5485 12.8246 13.1807 12.7893 13.5924 13.1574L16.4201 15.686C16.6249 15.8691 16.7453 16.1284 16.7532 16.4029C16.761 16.6775 16.6555 16.9432 16.4615 17.1377L13.6337 19.9721C13.2437 20.3631 12.6105 20.3639 12.2195 19.9738C11.8285 19.5837 11.8278 18.9506 12.2179 18.5596L14.2997 16.4729L12.2592 14.6483C11.8475 14.2801 11.8122 13.648 12.1803 13.2363Z" fill="#0C244E"/>
</g>
</svg>
