<svg width="24" height="24" viewBox="0 0 24 24" fill="none" xmlns="http://www.w3.org/2000/svg">
<path fill-rule="evenodd" clip-rule="evenodd" d="M12 22C17.5228 22 22 17.5228 22 12C22 6.47715 17.5228 2 12 2C6.47715 2 2 6.47715 2 12C2 17.5228 6.47715 22 12 22ZM12 24C18.6274 24 24 18.6274 24 12C24 5.37258 18.6274 0 12 0C5.37258 0 0 5.37258 0 12C0 18.6274 5.37258 24 12 24Z" fill="black"/>
<path d="M12.1306 17.14C10.992 17.14 10.138 16.888 9.56863 16.384C9.00863 15.88 8.72863 15.1847 8.72863 14.298C8.72863 14.018 8.76129 13.766 8.82662 13.542H8.14062V12.506H9.35863C9.52663 12.31 9.72729 12.128 9.96063 11.96C10.194 11.792 10.4553 11.638 10.7446 11.498H8.14062V10.462H12.8166C13.0593 10.238 13.1806 9.944 13.1806 9.58C13.1806 9.28133 13.0686 9.048 12.8446 8.88C12.63 8.712 12.3173 8.628 11.9066 8.628C11.524 8.628 11.146 8.67933 10.7726 8.782C10.3993 8.88467 9.97929 9.02933 9.51263 9.216L8.88262 7.564C9.36796 7.34933 9.87196 7.18133 10.3946 7.06C10.9266 6.92933 11.4866 6.864 12.0746 6.864C13.0453 6.864 13.8153 7.102 14.3846 7.578C14.9633 8.04467 15.2526 8.726 15.2526 9.622C15.2526 9.91133 15.2153 10.1913 15.1406 10.462H15.8546V11.498H14.5526C14.3473 11.7313 14.1046 11.9273 13.8246 12.086C13.5446 12.2353 13.2553 12.3753 12.9566 12.506H15.8546V13.542H11.0666C10.8893 13.7473 10.8006 13.9993 10.8006 14.298C10.8006 14.6433 10.922 14.914 11.1646 15.11C11.4073 15.2967 11.7713 15.39 12.2566 15.39C12.7606 15.39 13.2553 15.334 13.7406 15.222C14.226 15.1007 14.7113 14.942 15.1966 14.746V16.51C14.786 16.706 14.3193 16.86 13.7966 16.972C13.2833 17.084 12.728 17.14 12.1306 17.14Z" fill="black"/>
</svg>
