<svg width="24" height="24" viewBox="0 0 24 24" fill="none" xmlns="http://www.w3.org/2000/svg">
<g id="ic-client">
<g id="Grupo 22600">
<path id="Caminho 66809" d="M8.62663 10.4816C8.74144 11.1961 9.02857 11.8676 9.46047 12.4314C9.89236 12.9953 10.4545 13.4326 11.0929 13.7015C11.6783 13.9207 12.3173 13.9207 12.9027 13.7015C13.538 13.4276 14.0977 12.9893 14.53 12.4272C14.9622 11.8651 15.2532 11.1972 15.376 10.4852C15.5639 10.4681 15.8121 10.1917 16.079 9.19385C16.4444 7.83153 16.0558 7.62975 15.7309 7.66277C15.7922 7.48077 15.8395 7.29388 15.8725 7.1039C16.4305 3.57335 14.7808 3.45351 14.7808 3.45351C14.5401 3.0385 14.1969 2.70032 13.7878 2.47518C13.1714 2.09936 12.4575 1.94004 11.7495 2.02026C11.4732 2.03489 11.2 2.0892 10.9375 2.18168C10.6185 2.29928 10.317 2.46397 10.0419 2.67085C9.70447 2.89637 9.39572 3.16637 9.12313 3.4743C8.63961 3.97883 8.2962 4.61318 8.1301 5.30866C8.00324 5.90035 8.00602 6.51474 8.13823 7.10512C8.17066 7.29522 8.21799 7.48215 8.27975 7.66399C7.95029 7.63097 7.56168 7.83397 7.93174 9.19507C8.19044 10.1869 8.43869 10.4645 8.62663 10.4816Z" fill="#0C244E"/>
<path id="Caminho 66810" d="M18.4752 15.1101C17.1821 14.738 15.9544 14.1483 14.8395 13.3638L13.5634 17.6073L13.3245 18.4058V18.3936L13.1168 19.0723L12.4451 17.0643C14.0947 14.6393 12.111 14.6637 12.002 14.6674C11.8929 14.6711 9.91382 14.638 11.5588 17.0643L10.8871 19.0723L10.6795 18.3936V18.4058L10.4405 17.6073L9.16441 13.3638C8.04741 14.149 6.81732 14.7387 5.52177 15.1101C4.02527 15.5112 3.95451 17.3333 4.01367 18.231C4.01367 18.231 4.09951 19.4539 4.18652 19.9907C6.57609 21.3787 9.27345 22.0702 12.0008 21.9939C14.7284 22.0726 17.4264 21.381 19.8151 19.9907C19.9009 19.4526 19.9879 18.231 19.9879 18.231C20.0425 17.3358 19.9717 15.5149 18.4752 15.1101Z" fill="#0C244E"/>
</g>
</g>
</svg>
