<svg width="24" height="24" viewBox="0 0 24 24" fill="none" xmlns="http://www.w3.org/2000/svg">
<g id="ic-info">
<path id="ic-info_2" d="M12 24C18.5648 24 24 18.553 24 12C24 5.4353 18.553 0 11.9883 0C5.4353 0 0 5.4353 0 12C0 18.553 5.44707 24 12 24ZM12 22.0001C6.44708 22.0001 2.01177 17.553 2.01177 12C2.01177 6.44708 6.43531 2.00001 11.9883 2.00001C17.5413 2.00001 22.0001 6.44708 22.0001 12C22.0001 17.553 17.553 22.0001 12 22.0001ZM9.94119 18.5882H14.7295C15.2118 18.5882 15.5882 18.2354 15.5882 17.753C15.5882 17.2942 15.2118 16.9295 14.7295 16.9295H13.2707V10.9412C13.2707 10.3059 12.9529 9.88237 12.353 9.88237H10.1412C9.65884 9.88237 9.28237 10.247 9.28237 10.7059C9.28237 11.1882 9.65884 11.5412 10.1412 11.5412H11.4001V16.9295H9.94119C9.45885 16.9295 9.08238 17.2942 9.08238 17.753C9.08238 18.2354 9.45885 18.5882 9.94119 18.5882ZM11.8942 7.92943C12.7529 7.92943 13.4236 7.24707 13.4236 6.38825C13.4236 5.52942 12.7529 4.84706 11.8942 4.84706C11.0471 4.84706 10.3647 5.52942 10.3647 6.38825C10.3647 7.24707 11.0471 7.92943 11.8942 7.92943Z" fill="#0C244E"/>
</g>
</svg>
