<svg width="31" height="27" viewBox="0 0 31 27" fill="none" xmlns="http://www.w3.org/2000/svg">
<g id="Group 25">
<path id="Caminho 63412" d="M17.1134 0.961489C16.3914 0.56176 15.5724 0.359473 14.7425 0.37593C13.7391 0.37562 12.7453 0.566572 11.8168 0.938066C9.93208 1.67498 8.21137 2.76117 6.74966 4.13668C6.23205 4.64273 5.75338 5.18535 5.31755 5.76014C4.93665 6.29154 5.43602 7.04252 4.93665 7.53C4.43729 8.01747 3.39207 7.53 3.39207 7.53C3.3466 7.52901 3.30142 7.53722 3.25935 7.5541C3.21729 7.57098 3.17926 7.59617 3.14764 7.62808L1.01971 9.69803C0.9872 9.72898 0.961363 9.76598 0.943722 9.80683C0.92608 9.84769 0.916992 9.89158 0.916992 9.93591C0.916992 9.98025 0.92608 10.0241 0.943722 10.065C0.961363 10.1058 0.9872 10.1428 1.01971 10.1738L4.98614 14.0268C5.01813 14.0582 5.05623 14.0831 5.09821 14.0999C5.14019 14.1168 5.18519 14.1252 5.23057 14.1249C5.27604 14.1258 5.32123 14.1176 5.36329 14.1007C5.40536 14.0839 5.44339 14.0587 5.47501 14.0268L7.55195 11.9027C7.58446 11.8717 7.6103 11.8347 7.62794 11.7938C7.64558 11.753 7.65467 11.7091 7.65467 11.6648C7.65467 11.6204 7.64558 11.5766 7.62794 11.5357C7.6103 11.4948 7.58446 11.4578 7.55195 11.4269C7.55195 11.4269 7.22054 11.1092 6.80215 10.6949C6.38376 10.2807 6.85164 9.52382 7.13356 9.26618C7.50521 8.97229 7.97568 8.82407 8.4532 8.85043C8.69487 8.85271 8.93488 8.8897 9.16551 8.96022C10.3977 9.55659 11.4836 10.4054 12.3492 11.4488L12.1047 11.8456C12.0451 11.9455 12.0208 12.0618 12.0354 12.1766C12.0501 12.2913 12.1028 12.3982 12.1857 12.4809C12.1857 12.4809 11.8723 12.1881 13.0045 13.2802L16.1311 10.3992C14.9315 9.24568 15.2314 9.53846 15.2314 9.53846C15.1239 9.44233 14.9828 9.38996 14.837 9.39207C14.7457 9.39135 14.6556 9.41246 14.5746 9.45356L14.2161 9.6424C12.4601 7.94574 12.0027 7.18891 12.0657 5.87579C12.1198 5.23465 12.3189 4.61321 12.6488 4.05629C12.9787 3.49937 13.431 3.02084 13.9732 2.65522C15.0632 1.87369 16.4241 1.54144 17.7627 1.73003C18.2651 1.73003 17.5003 1.20596 17.1134 0.961489Z" fill="#E7EEF7"/>
<path id="Caminho 63413" d="M28.771 22.6141C28.771 22.6141 24.5724 19.0342 20.8383 15.3748L17.9326 18.5406C21.4972 22.332 24.9332 26.5241 24.9332 26.5241C24.9644 26.5563 25.0015 26.5818 25.0424 26.5991C25.0833 26.6163 25.1271 26.625 25.1713 26.6246C25.2156 26.6256 25.2596 26.6172 25.3006 26.5999C25.3416 26.5826 25.3786 26.5568 25.4094 26.5241L28.7695 23.1017C28.8326 23.0372 28.8682 22.9496 28.8684 22.8582C28.8687 22.7668 28.8337 22.679 28.771 22.6141Z" fill="#E7EEF7"/>
<path id="Caminho 63414" d="M29.0908 5.23769L26.0264 8.5612L23.0405 7.9747L22.5022 4.74515L25.5652 1.42013C24.9538 0.774895 24.1399 0.402579 23.2858 0.377457C23.2471 0.374181 23.2082 0.374181 23.1695 0.377457C21.8302 0.526732 20.5858 1.19347 19.6648 2.25517C18.8702 3.09243 18.3221 4.16476 18.0891 5.3376C17.8562 6.51044 17.9489 7.73153 18.3555 8.84764C18.4647 9.04362 18.5085 9.27409 18.4796 9.50073C18.4508 9.72736 18.3511 9.9365 18.1971 10.0934C18.1088 10.1813 17.6182 10.6875 16.8822 11.4392L16.2037 12.1348C15.7355 12.6152 15.2042 13.1593 14.6364 13.7276C14.415 13.9549 14.1865 14.1822 13.958 14.4232C10.6286 17.821 6.54081 21.9735 6.54081 21.9735C6.30101 22.2217 6.11018 22.5199 5.97981 22.85C5.84944 23.1802 5.78223 23.5354 5.78223 23.8944C5.78223 24.2533 5.84944 24.6086 5.97981 24.9387C6.11018 25.2688 6.30101 25.567 6.54081 25.8153C7.02941 26.333 7.68604 26.6235 8.37021 26.6246C8.69596 26.6303 9.01896 26.5592 9.31673 26.4163C9.6145 26.2734 9.87991 26.0621 10.0945 25.7971C10.0945 25.7971 13.9243 21.3854 17.0686 17.777C17.2845 17.5239 17.5018 17.2845 17.7121 17.0374C18.256 16.4115 18.7649 15.825 19.2205 15.3128C19.449 15.0476 19.6648 14.8006 19.8639 14.5793C20.5368 13.8079 20.9854 13.2896 21.0919 13.1896C21.1742 13.0909 21.2741 13.0114 21.3857 12.9559C21.4973 12.9004 21.6182 12.8701 21.741 12.8668C21.9174 12.8737 22.0899 12.9257 22.2442 13.0183C22.8329 13.3311 23.4823 13.487 24.1381 13.473C25.7093 13.443 27.2132 12.7779 28.3535 11.6089C29.3459 10.6225 29.9627 9.27168 30.0833 7.82012C30.0928 7.33877 30.0094 6.86055 29.8386 6.41594C29.6677 5.97133 29.413 5.57006 29.0908 5.23769ZM9.10898 24.2482C8.99448 24.372 8.84861 24.4563 8.68981 24.4904C8.531 24.5245 8.36641 24.507 8.21682 24.44C8.06724 24.373 7.93939 24.2596 7.84945 24.114C7.7595 23.9685 7.71149 23.7974 7.71149 23.6223C7.71149 23.4473 7.7595 23.2762 7.84945 23.1306C7.93939 22.9851 8.06724 22.8717 8.21682 22.8047C8.36641 22.7377 8.531 22.7201 8.68981 22.7543C8.84861 22.7884 8.99448 22.8727 9.10898 22.9964C9.26086 23.1634 9.34598 23.3882 9.34598 23.6223C9.34598 23.8565 9.26086 24.0813 9.10898 24.2482Z" fill="#E7EEF7"/>
</g>
</svg>
