<svg width="24" height="24" viewBox="0 0 24 24" fill="none" xmlns="http://www.w3.org/2000/svg">
<path fill-rule="evenodd" clip-rule="evenodd" d="M12 22C17.5228 22 22 17.5228 22 12C22 6.47715 17.5228 2 12 2C6.47715 2 2 6.47715 2 12C2 17.5228 6.47715 22 12 22ZM12 24C18.6274 24 24 18.6274 24 12C24 5.37258 18.6274 0 12 0C5.37258 0 0 5.37258 0 12C0 18.6274 5.37258 24 12 24Z" fill="black"/>
<path d="M19.0748 9.64701V10.7408H5.58185V9.64701H19.0748ZM19.0748 11.581V12.6747H5.58185V11.581H19.0748ZM7.50586 6.81818L9.36026 13.8928H9.44478L11.3539 6.81818H13.3027L15.2118 13.9077H15.2963L17.1507 6.81818H19.1195L16.4199 17H14.2275L12.373 10.343H12.2935L10.4292 17H8.23668L5.53711 6.81818H7.50586Z" fill="black"/>
</svg>
