<svg width="24" height="24" viewBox="0 0 24 24" fill="none" xmlns="http://www.w3.org/2000/svg">
<g id="ic-construction">
<g id="Group 25">
<path id="Caminho 63412" d="M13.1061 3.40216C12.611 3.12806 12.0494 2.98935 11.4804 3.00064C10.7923 3.00043 10.1108 3.13136 9.47415 3.3861C8.18177 3.89141 7.00186 4.63623 5.99955 5.57944C5.64461 5.92644 5.31638 6.29853 5.01753 6.69267C4.75634 7.05705 5.09876 7.57201 4.75634 7.90628C4.41392 8.24055 3.6972 7.90628 3.6972 7.90628C3.66602 7.90561 3.63504 7.91124 3.60619 7.92281C3.57735 7.93438 3.55127 7.95166 3.52959 7.97354L2.07044 9.39293C2.04814 9.41416 2.03043 9.43953 2.01833 9.46754C2.00623 9.49556 2 9.52565 2 9.55605C2 9.58646 2.00623 9.61655 2.01833 9.64456C2.03043 9.67258 2.04814 9.69795 2.07044 9.71917L4.79027 12.3612C4.81221 12.3828 4.83834 12.3998 4.86712 12.4114C4.8959 12.4229 4.92676 12.4287 4.95789 12.4285C4.98906 12.4291 5.02005 12.4235 5.04889 12.4119C5.07774 12.4004 5.10382 12.3831 5.1255 12.3612L6.54968 10.9047C6.57198 10.8835 6.58969 10.8581 6.60179 10.8301C6.61389 10.8021 6.62012 10.772 6.62012 10.7416C6.62012 10.7112 6.61389 10.6811 6.60179 10.653C6.58969 10.625 6.57198 10.5997 6.54968 10.5784C6.54968 10.5784 6.32243 10.3606 6.03554 10.0765C5.74864 9.79245 6.06947 9.27348 6.26279 9.09681C6.51764 8.89528 6.84024 8.79365 7.16769 8.81172C7.3334 8.81328 7.49798 8.83865 7.65613 8.88701C8.50107 9.29595 9.2457 9.87802 9.8392 10.5935L9.67158 10.8655C9.63073 10.9341 9.61404 11.0138 9.62407 11.0925C9.6341 11.1712 9.6703 11.2445 9.72711 11.3012C9.72711 11.3012 9.5122 11.1004 10.2886 11.8493L12.4326 9.87376C11.6099 9.08275 11.8156 9.28352 11.8156 9.28352C11.7419 9.2176 11.6451 9.18169 11.5451 9.18314C11.4825 9.18264 11.4207 9.19712 11.3652 9.2253L11.1194 9.35479C9.91529 8.19137 9.60166 7.67239 9.64485 6.77197C9.68192 6.33233 9.81848 5.9062 10.0447 5.52431C10.2709 5.14242 10.581 4.81429 10.9528 4.56358C11.7003 4.02768 12.6335 3.79984 13.5513 3.92917C13.8958 3.92917 13.3714 3.5698 13.1061 3.40216Z" fill="#0C244E"/>
<path id="Caminho 63413" d="M21.1 18.2498C21.1 18.2498 18.2209 15.795 15.6605 13.2856L13.668 15.4565C16.1122 18.0563 18.4684 20.9309 18.4684 20.9309C18.4897 20.953 18.5152 20.9705 18.5432 20.9823C18.5713 20.9941 18.6013 21.0001 18.6317 20.9998C18.662 21.0005 18.6922 20.9948 18.7203 20.9829C18.7484 20.971 18.7738 20.9533 18.7949 20.9309L21.099 18.5841C21.1422 18.5399 21.1666 18.4799 21.1668 18.4172C21.167 18.3545 21.143 18.2943 21.1 18.2498Z" fill="#0C244E"/>
<path id="Caminho 63414" d="M21.319 6.33442L19.2177 8.6134L17.1702 8.21122L16.801 5.99668L18.9014 3.71666C18.4822 3.27421 17.9241 3.01891 17.3384 3.00168C17.3118 2.99944 17.2852 2.99944 17.2586 3.00168C16.3403 3.10404 15.487 3.56124 14.8555 4.28926C14.3106 4.86338 13.9347 5.5987 13.775 6.40293C13.6152 7.20716 13.6788 8.04448 13.9576 8.80981C14.0325 8.9442 14.0625 9.10224 14.0427 9.25764C14.023 9.41305 13.9546 9.55646 13.849 9.66403C13.7884 9.72431 13.452 10.0714 12.9473 10.5868L12.4821 11.0638C12.161 11.3933 11.7967 11.7663 11.4074 12.156C11.2555 12.3119 11.0988 12.4678 10.9422 12.633C8.65915 14.9629 5.85611 17.8104 5.85611 17.8104C5.69168 17.9806 5.56082 18.1851 5.47142 18.4115C5.38202 18.6378 5.33594 18.8814 5.33594 19.1276C5.33594 19.3737 5.38202 19.6173 5.47142 19.8437C5.56082 20.07 5.69168 20.2745 5.85611 20.4448C6.19115 20.7998 6.64141 20.999 7.11056 20.9997C7.33393 21.0036 7.55541 20.9549 7.7596 20.8569C7.96378 20.7589 8.14577 20.614 8.29291 20.4323C8.29291 20.4323 10.9191 17.4072 13.0752 14.9328C13.2232 14.7593 13.3722 14.5951 13.5164 14.4257C13.8894 13.9965 14.2383 13.5943 14.5507 13.2431C14.7074 13.0612 14.8555 12.8918 14.992 12.7401C15.4534 12.2111 15.761 11.8557 15.834 11.7871C15.8904 11.7195 15.9589 11.665 16.0355 11.6269C16.112 11.5889 16.1949 11.5681 16.2791 11.5658C16.4001 11.5706 16.5183 11.6062 16.6242 11.6697C17.0279 11.8842 17.4731 11.9911 17.9228 11.9815C19.0002 11.9609 20.0315 11.5049 20.8134 10.7032C21.4939 10.0269 21.9168 9.10058 21.9996 8.10522C22.006 7.77515 21.9489 7.44724 21.8317 7.14236C21.7145 6.83748 21.5399 6.56233 21.319 6.33442ZM7.61714 19.3702C7.53863 19.4551 7.4386 19.5129 7.32971 19.5363C7.22081 19.5597 7.10795 19.5476 7.00538 19.5017C6.90281 19.4558 6.81514 19.378 6.75346 19.2782C6.69178 19.1784 6.65886 19.0611 6.65886 18.941C6.65886 18.821 6.69178 18.7037 6.75346 18.6039C6.81514 18.5041 6.90281 18.4263 7.00538 18.3803C7.10795 18.3344 7.22081 18.3224 7.32971 18.3458C7.4386 18.3692 7.53863 18.427 7.61714 18.5118C7.72129 18.6263 7.77965 18.7805 7.77965 18.941C7.77965 19.1016 7.72129 19.2557 7.61714 19.3702Z" fill="#0C244E"/>
</g>
</g>
</svg>
