<svg width="24" height="24" viewBox="0 0 24 24" fill="none" xmlns="http://www.w3.org/2000/svg">
<g id="ic-choice">
<path id="Caminho 63415" d="M10.5678 18.2866C10.2082 17.9316 9.84872 17.5762 9.4892 17.2206C9.21406 16.9456 9.21406 16.9456 9.48278 16.6825C9.78544 16.3791 10.0927 16.0812 10.3898 15.7723C10.51 15.6467 10.598 15.6476 10.7209 15.7723C11.6702 16.7283 12.6295 17.6752 13.5742 18.6358C13.6664 18.7222 13.74 18.8267 13.7903 18.9426C13.8405 19.0586 13.8665 19.1836 13.8665 19.31C13.8665 19.4364 13.8405 19.5614 13.7903 19.6774C13.74 19.7933 13.6664 19.8978 13.5742 19.9842C12.6295 20.9457 11.6702 21.8917 10.7209 22.8486C10.5989 22.9715 10.5109 22.9733 10.3898 22.8486C10.0609 22.5089 9.72644 22.1743 9.38648 21.8449C9.24982 21.7139 9.26266 21.6176 9.39198 21.492C9.72582 21.1694 10.0505 20.8385 10.377 20.5076C10.4375 20.4462 10.5192 20.3976 10.5412 20.2977C10.4559 20.2262 10.3577 20.2601 10.2614 20.2601C9.33328 20.2601 8.40513 20.2601 7.47698 20.2601C6.98442 20.2644 6.49596 20.1704 6.04023 19.9836C5.58449 19.7967 5.17067 19.5209 4.823 19.1721C4.47534 18.8234 4.20083 18.4088 4.01559 17.9526C3.83034 17.4965 3.73807 17.0079 3.74419 16.5157C3.74419 13.9014 3.73777 11.2909 3.75061 8.67209C3.77105 8.54508 3.74231 8.41505 3.67025 8.30846C3.59818 8.20187 3.48819 8.12672 3.36266 8.09828C2.61603 7.81773 1.98208 7.30019 1.55798 6.625C1.13389 5.94982 0.943064 5.15425 1.01476 4.36028C1.09021 3.51193 1.45723 2.71585 2.05345 2.10732C2.64967 1.49879 3.43832 1.11535 4.28538 1.02215C5.13244 0.928946 5.98567 1.13174 6.70007 1.59606C7.41447 2.06039 7.94598 2.7576 8.20428 3.56923C8.48696 4.45572 8.42185 5.41646 8.02216 6.25675C7.62246 7.09705 6.91807 7.75405 6.05173 8.09462C5.64085 8.25778 5.64085 8.25778 5.64085 8.69501C5.64085 11.2561 5.66837 13.8171 5.62893 16.3773C5.61235 16.6443 5.65302 16.9118 5.74821 17.1618C5.8434 17.4118 5.99092 17.6387 6.18089 17.8272C6.37087 18.0157 6.59892 18.1614 6.8498 18.2547C7.10068 18.348 7.3686 18.3867 7.63564 18.3682C8.59682 18.3251 9.56166 18.359 10.5247 18.359L10.5687 18.2857M2.905 4.66918C2.89826 4.9036 2.93859 5.13698 3.0236 5.35556C3.10861 5.57414 3.23658 5.77348 3.39996 5.9418C3.56334 6.11013 3.75881 6.24403 3.97482 6.3356C4.19084 6.42717 4.42303 6.47455 4.65767 6.47494C4.89456 6.48335 5.1307 6.44378 5.35189 6.3586C5.57308 6.27342 5.77474 6.1444 5.94473 5.9793C6.11472 5.8142 6.24954 5.61643 6.34106 5.39789C6.43258 5.17936 6.47892 4.94458 6.47729 4.70768C6.48399 4.47102 6.44272 4.23544 6.35596 4.01513C6.2692 3.79482 6.13874 3.59433 5.97243 3.42572C5.80613 3.25711 5.60741 3.12387 5.38824 3.03401C5.16907 2.94415 4.93398 2.89953 4.69711 2.90284C4.46251 2.89794 4.2293 2.94009 4.01128 3.02681C3.79326 3.11352 3.59485 3.24305 3.42777 3.40772C3.2607 3.57239 3.12835 3.76887 3.03856 3.98554C2.94877 4.20221 2.90336 4.43467 2.905 4.66918Z" fill="#0C244E"/>
<path id="Caminho 63416" d="M13.4433 5.72736C13.7441 6.02068 14.0559 6.32133 14.3604 6.62565C14.7906 7.05188 14.7887 7.0528 14.3604 7.48545C14.1146 7.73202 13.8642 7.97401 13.6267 8.22608C13.5102 8.34799 13.4222 8.36174 13.2956 8.23433C12.3464 7.27829 11.3861 6.33141 10.4405 5.3717C10.3464 5.28409 10.2716 5.17792 10.2206 5.05991C10.1697 4.9419 10.1438 4.81461 10.1445 4.68609C10.1453 4.55757 10.1728 4.4306 10.2251 4.31322C10.2775 4.19583 10.3537 4.09057 10.4488 4.0041C11.3889 3.0508 12.3418 2.11035 13.2837 1.16255C13.4194 1.02598 13.5093 1.04156 13.634 1.17172C13.9431 1.49346 14.2559 1.81336 14.5815 2.11676C14.7502 2.27442 14.7649 2.38442 14.586 2.54849C14.1972 2.91514 13.8257 3.29738 13.4442 3.67686C13.5469 3.78594 13.6505 3.74561 13.7404 3.74561C14.6777 3.74561 15.6151 3.74561 16.5524 3.74561C17.0405 3.74379 17.524 3.83852 17.9753 4.02435C18.4266 4.21018 18.8366 4.48342 19.1817 4.82834C19.5268 5.17325 19.8002 5.58302 19.9861 6.03402C20.172 6.48502 20.2668 6.96833 20.265 7.45611C20.2711 10.1156 20.2711 12.7738 20.265 15.4308C20.2505 15.5292 20.2745 15.6294 20.3321 15.7105C20.3897 15.7916 20.4764 15.8474 20.5741 15.8662C21.1752 16.0834 21.7094 16.4535 22.1238 16.94C22.5383 17.4264 22.8188 18.0124 22.9376 18.6401C23.0564 19.2679 23.0095 19.9158 22.8015 20.5199C22.5935 21.1241 22.2316 21.6636 21.7514 22.0853C21.2712 22.5071 20.6893 22.7965 20.0631 22.925C19.4369 23.0536 18.788 23.0168 18.1804 22.8183C17.5728 22.6199 17.0273 22.2666 16.5979 21.7933C16.1685 21.32 15.8699 20.7431 15.7316 20.1193C15.5322 19.2542 15.6567 18.346 16.0815 17.5663C16.5063 16.7866 17.202 16.1893 18.0373 15.8872C18.1474 15.8648 18.2445 15.8006 18.3082 15.7082C18.372 15.6157 18.3975 15.5022 18.3794 15.3914C18.3693 12.7496 18.3794 10.1088 18.3711 7.46711C18.3851 7.04309 18.2459 6.62821 17.979 6.29832C17.712 5.96844 17.3352 5.74559 16.9174 5.67052C16.8479 5.65475 16.7769 5.64615 16.7056 5.64486C15.6704 5.64486 14.635 5.64486 13.5992 5.64486C13.5684 5.64011 13.5369 5.64573 13.5097 5.66083C13.4825 5.67593 13.461 5.69966 13.4488 5.72827M19.3185 21.0992C19.6713 21.099 20.0161 20.9944 20.3095 20.7987C20.6029 20.6029 20.8318 20.3248 20.9672 19.9992C21.1027 19.6737 21.1386 19.3153 21.0706 18.9694C21.0026 18.6234 20.8337 18.3053 20.5851 18.0552C20.3364 17.8051 20.0193 17.6341 19.6736 17.5638C19.3279 17.4936 18.9692 17.5272 18.6425 17.6604C18.3159 17.7936 18.0361 18.0204 17.8383 18.3124C17.6404 18.6043 17.5335 18.9482 17.531 19.3008C17.525 19.5376 17.5671 19.7731 17.6546 19.9932C17.7422 20.2133 17.8734 20.4135 18.0405 20.5815C18.2075 20.7495 18.4068 20.8821 18.6265 20.971C18.8461 21.06 19.0815 21.1036 19.3185 21.0992Z" fill="#0C244E"/>
</g>
</svg>
