<svg width="24" height="24" viewBox="0 0 24 24" fill="none" xmlns="http://www.w3.org/2000/svg">
<g id="ic-wallet">
<path id="Caminho 70641 (Stroke)" fill-rule="evenodd" clip-rule="evenodd" d="M22 8.27583C22 7.98999 21.8827 7.7085 21.662 7.49536C21.4401 7.28107 21.132 7.15479 20.8036 7.15479L3.22951 7.15479C2.90117 7.15479 2.59301 7.28107 2.37111 7.49536C2.1504 7.7085 2.03315 7.98999 2.03315 8.27583V18.8789C2.03315 19.1648 2.1504 19.4462 2.37111 19.6594C2.59301 19.8737 2.90117 20 3.22951 20H20.8036C21.132 20 21.4401 19.8737 21.662 19.6594C21.8827 19.4462 22 19.1648 22 18.8789V8.27583ZM23.0514 6.05669C23.6545 6.63909 24 7.43659 24 8.27583V18.8789C24 19.7182 23.6545 20.5157 23.0514 21.0981C22.4495 21.6793 21.6403 22 20.8036 22H3.22951C2.39282 22 1.58368 21.6793 0.981781 21.0981C0.378698 20.5157 0.0331459 19.7182 0.0331459 18.8789V8.27583C0.0331459 7.43659 0.378698 6.63909 0.981781 6.05669C1.58368 5.47543 2.39282 5.15479 3.22951 5.15479L20.8036 5.15479C21.6403 5.15479 22.4495 5.47543 23.0514 6.05669Z" fill="#0C244E"/>
<path id="Caminho 70640 (Stroke)" fill-rule="evenodd" clip-rule="evenodd" d="M23 10.4316V12.4316H17.5745C17.5676 12.4321 17.5578 12.4329 17.5453 12.434C17.5081 12.4375 17.4495 12.4442 17.3774 12.457C17.2277 12.4835 17.0485 12.531 16.8867 12.6091C16.7256 12.6868 16.6192 12.7764 16.5558 12.8704C16.5019 12.9503 16.4356 13.0951 16.4557 13.3806L16.4567 13.3953L16.4573 13.4101C16.4681 13.6769 16.5828 13.9369 16.789 14.136C16.9925 14.3325 17.2704 14.4545 17.5705 14.4697H23V16.4697H17.5299L17.511 16.469C16.7221 16.4391 15.9675 16.1231 15.3997 15.5747C14.8344 15.0288 14.4954 14.2915 14.4596 13.5063C14.4143 12.821 14.5751 12.23 14.898 11.7515C15.2138 11.2837 15.6386 10.9907 16.0174 10.8079C16.3954 10.6255 16.7646 10.5345 17.0284 10.4877C17.163 10.4638 17.2774 10.4503 17.3615 10.4425C17.4037 10.4386 17.4387 10.4361 17.4653 10.4346L17.4991 10.4328L17.511 10.4324L17.5157 10.4322L17.5178 10.4321C17.5182 10.4321 17.5196 10.4321 17.5488 11.4316L17.5196 10.4321L17.5342 10.4316H23Z" fill="#0C244E"/>
<path id="Caminho 70632 (Stroke)" fill-rule="evenodd" clip-rule="evenodd" d="M18.7396 5.04589C18.7582 4.79908 18.6763 4.54949 18.5013 4.35135C18.3324 4.16009 18.0885 4.03124 17.8157 4L2.92721 4C2.65439 4.03124 2.41053 4.16009 2.24164 4.35135C2.06668 4.54949 1.98475 4.79908 2.00335 5.04589C2.00524 5.0709 2.00618 5.09596 2.00618 5.12104V5.23517L2.67966 5.09808C2.74531 5.08471 2.81213 5.07798 2.87913 5.07798L18.7377 5.07798C18.7381 5.06728 18.7388 5.05658 18.7396 5.04589ZM2.16608 7.24364L1.97008 7.95317C1.83684 8.43547 1.36765 8.74506 0.871824 8.67783C0.375999 8.61061 0.00617981 8.18726 0.00617981 7.6869V5.15473C-0.0414333 4.37527 0.225523 3.61296 0.742466 3.02754C1.26748 2.43298 2.00659 2.06916 2.79619 2.00345C2.82378 2.00115 2.85145 2 2.87913 2L17.8638 2C17.8915 2 17.9192 2.00115 17.9467 2.00345C18.7363 2.06916 19.4755 2.43298 20.0005 3.02754C20.5174 3.61296 20.7844 4.37528 20.7368 5.15474V6.07798C20.7368 6.63026 20.289 7.07798 19.7368 7.07798L2.97988 7.07798L2.16608 7.24364Z" fill="#0C244E"/>
</g>
</svg>
