<svg width="24" height="25" viewBox="0 0 24 25" fill="none" xmlns="http://www.w3.org/2000/svg">
<g id="ic-down-line">
<path id="ic-down" d="M12.0057 24.5C12.2936 24.5 12.5814 24.3773 12.7772 24.1441L21.6891 14.4141C21.8848 14.2055 22 13.9356 22 13.6288C22 12.9908 21.5509 12.5 20.9522 12.5C20.6643 12.5 20.3995 12.6227 20.2037 12.819L11.384 22.4264H12.616L3.79619 12.819C3.61197 12.6227 3.34714 12.5 3.04779 12.5C2.44905 12.5 2 12.9908 2 13.6288C2 13.9356 2.11514 14.2055 2.31088 14.4264L11.2228 24.1441C11.4416 24.3773 11.7064 24.5 12.0057 24.5Z" fill="#0C244E"/>
<path id="Vector 9 (Stroke)" fill-rule="evenodd" clip-rule="evenodd" d="M12 -4.37115e-08C12.5523 -6.78527e-08 13 0.447715 13 1L13 22C13 22.5523 12.5523 23 12 23C11.4477 23 11 22.5523 11 22L11 1C11 0.447715 11.4477 -1.95703e-08 12 -4.37115e-08Z" fill="#0C244E"/>
</g>
</svg>
