<svg id="ziyon-user" xmlns="http://www.w3.org/2000/svg" width="24" height="24" viewBox="0 0 24 24">
  <path id="Caminho_70537" data-name="Caminho 70537" d="M9.887,19.85H2.553a.855.855,0,0,1-.673-.32.879.879,0,0,1-.178-.737,9.293,9.293,0,0,1,8.85-7.359c.071,0,.143,0,.214,0s.144,0,.216,0a9.212,9.212,0,0,1,3.038.585.841.841,0,0,0,.591-1.575q-.209-.078-.42-.148a5.719,5.719,0,1,0-6.847,0,10.938,10.938,0,0,0-7.29,8.151,2.555,2.555,0,0,0,2.5,3.082H9.887a.841.841,0,0,0,0-1.682ZM6.729,5.72a4.037,4.037,0,1,1,4.234,4.032l-.2,0-.2,0A4.042,4.042,0,0,1,6.729,5.72Z" transform="translate(1.234 1.234)" fill="#0c2143" stroke="#0c2143" stroke-width="0.5"/>
  <path id="Caminho_70552" data-name="Caminho 70552" d="M2.614,19.85H13.933a.855.855,0,0,0,.673-.32.879.879,0,0,0,.178-.737,9.293,9.293,0,0,0-8.85-7.359c-.071,0-.143,0-.214,0s-.144,0-.216,0a9.212,9.212,0,0,0-3.038.585.841.841,0,0,1-.591-1.575q.209-.078.42-.148a5.719,5.719,0,1,1,6.847,0,10.938,10.938,0,0,1,7.29,8.151,2.555,2.555,0,0,1-2.5,3.082H2.614a.841.841,0,0,1,0-1.682ZM9.757,5.72A4.037,4.037,0,1,0,5.523,9.752l.2,0,.2,0A4.042,4.042,0,0,0,9.757,5.72Z" transform="translate(6.234 1.234)" fill="#0c2143" stroke="#0c2143" stroke-width="0.5"/>
  <rect id="Retângulo_1201" data-name="Retângulo 1201" width="24" height="24" fill="none"/>
</svg>
