<svg width="24" height="24" viewBox="0 0 24 24" fill="none" xmlns="http://www.w3.org/2000/svg">
<g id="ic-card-fill">
<path id="Rectangle 1 (Stroke)" fill-rule="evenodd" clip-rule="evenodd" d="M21 5H3C2.44772 5 2 5.44772 2 6V18C2 18.5523 2.44772 19 3 19H21C21.5523 19 22 18.5523 22 18V6C22 5.44772 21.5523 5 21 5ZM3 3C1.34315 3 0 4.34315 0 6V18C0 19.6569 1.34315 21 3 21H21C22.6569 21 24 19.6569 24 18V6C24 4.34315 22.6569 3 21 3H3Z" fill="#0C244E"/>
<path id="Subtract" fill-rule="evenodd" clip-rule="evenodd" d="M22 5H2V9V16V19H22V9V5ZM2 16C2 15.4477 2.3731 15 2.83333 15H6.16667C6.6269 15 7 15.4477 7 16C7 16.5523 6.6269 17 6.16667 17H2.83333C2.3731 17 2 16.5523 2 16ZM22 9C22 9.55228 21.6269 10 21.1667 10H2.83333C2.3731 10 2 9.55228 2 9C2 8.44772 2.3731 8 2.83333 8H21.1667C21.6269 8 22 8.44772 22 9ZM16 17C16.5973 17 17.1335 16.7381 17.5 16.3229C17.8665 16.7381 18.4027 17 19 17C20.1046 17 21 16.1046 21 15C21 13.8954 20.1046 13 19 13C18.4027 13 17.8665 13.2619 17.5 13.6771C17.1335 13.2619 16.5973 13 16 13C14.8954 13 14 13.8954 14 15C14 16.1046 14.8954 17 16 17ZM9 15C8.44772 15 8 15.4477 8 16C8 16.5523 8.44772 17 9 17H11C11.5523 17 12 16.5523 12 16C12 15.4477 11.5523 15 11 15H9Z" fill="#0C244E"/>
</g>
</svg>
