<svg width="34" height="34" viewBox="0 0 34 34" fill="none" xmlns="http://www.w3.org/2000/svg">
<g id="ic-calculator">
<g id="Vector">
<path fill-rule="evenodd" clip-rule="evenodd" d="M9.06632 3.39992H26.065C26.6232 3.39965 27.176 3.50938 27.6919 3.72284C28.2077 3.93631 28.6764 4.24932 29.0712 4.644C29.4661 5.03868 29.7793 5.5073 29.993 6.02307C30.2067 6.53885 30.3167 7.09167 30.3167 7.64997V27.4832C30.3167 28.6104 29.8689 29.6914 29.072 30.4884C28.275 31.2855 27.1941 31.7332 26.067 31.7332H9.06632C7.93924 31.7332 6.85833 31.2855 6.06136 30.4884C5.2644 29.6914 4.81667 28.6104 4.81667 27.4832V7.64997C4.81667 6.52279 5.2644 5.44177 6.06136 4.64473C6.85833 3.84769 7.93924 3.39992 9.06632 3.39992ZM9.06632 6.23294C8.69054 6.23294 8.33015 6.38224 8.06443 6.64798C7.79871 6.91373 7.64943 7.27415 7.64943 7.64997V11.9H27.4818V7.64997C27.4818 7.27415 27.3326 6.91373 27.0669 6.64798C26.8011 6.38224 26.4407 6.23294 26.065 6.23294H9.06632ZM27.4818 14.733H7.64943V27.4842C7.64929 27.6704 7.68584 27.8548 7.75699 28.0268C7.82813 28.1989 7.93248 28.3552 8.06406 28.4869C8.19565 28.6186 8.35189 28.723 8.52386 28.7943C8.69584 28.8656 8.88017 28.9023 9.06632 28.9023H26.065C26.4407 28.9023 26.8011 28.753 27.0669 28.4872C27.3326 28.2215 27.4818 27.8611 27.4818 27.4853V14.733ZM9.06632 18.9831C9.06632 18.5627 9.19097 18.1518 9.42451 17.8022C9.65804 17.4527 9.98998 17.1802 10.3783 17.0194C10.7667 16.8585 11.194 16.8164 11.6063 16.8984C12.0186 16.9804 12.3973 17.1829 12.6945 17.4801C12.9917 17.7774 13.1942 18.1561 13.2762 18.5684C13.3582 18.9807 13.3161 19.4081 13.1552 19.7965C12.9944 20.1849 12.722 20.5169 12.3724 20.7504C12.0229 20.984 11.612 21.1086 11.1917 21.1086C10.628 21.1086 10.0874 20.8847 9.68882 20.4861C9.29024 20.0875 9.06632 19.5468 9.06632 18.9831ZM17.5667 16.8586C17.1463 16.8586 16.7354 16.9832 16.3859 17.2168C16.0364 17.4504 15.764 17.7823 15.6031 18.1707C15.4422 18.5591 15.4002 18.9865 15.4822 19.3988C15.5642 19.8111 15.7666 20.1898 16.0638 20.4871C16.3611 20.7844 16.7398 20.9868 17.152 21.0688C17.5643 21.1508 17.9916 21.1087 18.38 20.9479C18.7684 20.787 19.1003 20.5146 19.3338 20.165C19.5674 19.8155 19.692 19.4045 19.692 18.9841C19.692 18.4204 19.4681 17.8798 19.0695 17.4811C18.6709 17.0825 18.1303 16.8586 17.5667 16.8586ZM21.8163 18.9841C21.8101 18.7011 21.8605 18.4197 21.9644 18.1565C22.0684 17.8932 22.2239 17.6534 22.4219 17.451C22.6198 17.2487 22.8561 17.0879 23.117 16.9781C23.3779 16.8684 23.6581 16.8118 23.9412 16.8118C24.2242 16.8118 24.5044 16.8684 24.7653 16.9781C25.0262 17.0879 25.2625 17.2487 25.4604 17.451C25.6584 17.6534 25.8139 17.8932 25.9179 18.1565C26.0218 18.4197 26.0722 18.7011 26.066 18.9841V24.6512C26.0722 24.9342 26.0218 25.2156 25.9179 25.4789C25.8139 25.7421 25.6584 25.982 25.4604 26.1843C25.2625 26.3867 25.0262 26.5474 24.7653 26.6572C24.5044 26.767 24.2242 26.8235 23.9412 26.8235C23.6581 26.8235 23.3779 26.767 23.117 26.6572C22.8561 26.5474 22.6198 26.3867 22.4219 26.1843C22.2239 25.982 22.0684 25.7421 21.9644 25.4789C21.8605 25.2156 21.8101 24.9342 21.8163 24.6512V18.9841ZM11.1917 22.5267C10.7713 22.5267 10.3603 22.6514 10.0108 22.885C9.66125 23.1186 9.38884 23.4506 9.22801 23.8391C9.06718 24.2275 9.02515 24.6549 9.10724 25.0673C9.18933 25.4796 9.39185 25.8584 9.68919 26.1556C9.98652 26.4528 10.3653 26.6552 10.7777 26.7371C11.19 26.819 11.6174 26.7767 12.0057 26.6157C12.3941 26.4546 12.7259 26.182 12.9593 25.8324C13.1927 25.4827 13.3172 25.0716 13.317 24.6512C13.3167 24.0877 13.0927 23.5473 12.6941 23.1489C12.2956 22.7505 11.7552 22.5267 11.1917 22.5267ZM15.4413 24.6512C15.4411 24.2308 15.5656 23.8197 15.799 23.47C16.0324 23.1204 16.3643 22.8478 16.7526 22.6867C17.141 22.5257 17.5683 22.4835 17.9807 22.5653C18.393 22.6472 18.7718 22.8496 19.0691 23.1468C19.3665 23.444 19.569 23.8228 19.6511 24.2351C19.7332 24.6475 19.6912 25.0749 19.5303 25.4633C19.3695 25.8518 19.0971 26.1838 18.7476 26.4174C18.398 26.651 17.9871 26.7757 17.5667 26.7757C17.003 26.7757 16.4624 26.5518 16.0638 26.1532C15.6652 25.7545 15.4413 25.2149 15.4413 24.6512Z" fill="#0C244E"/>
<path fill-rule="evenodd" clip-rule="evenodd" d="M7.64943 27.4842C7.64929 27.6704 7.68584 27.8548 7.75699 28.0268C7.82813 28.1989 7.93248 28.3552 8.06406 28.4869C8.19565 28.6186 8.35189 28.723 8.52386 28.7943C8.69584 28.8656 8.88017 28.9023 9.06632 28.9023H26.065C26.4407 28.9023 26.8011 28.753 27.0669 28.4872C27.3326 28.2215 27.4818 27.8611 27.4818 27.4853V14.733H7.64943V27.4842ZM8.2161 15.2997V27.4842C8.21601 27.596 8.23795 27.707 8.28064 27.8103C8.32334 27.9135 8.38596 28.0073 8.46492 28.0864C8.54389 28.1654 8.63764 28.2281 8.74083 28.2708C8.84402 28.3136 8.95462 28.3356 9.06632 28.3356H26.065C26.2904 28.3356 26.5067 28.246 26.6661 28.0866C26.8256 27.9271 26.9152 27.7108 26.9152 27.4853V15.2997H8.2161ZM26.0647 2.83325L9.06632 2.83325C7.78894 2.83325 6.56388 3.34074 5.66065 4.24405C4.75742 5.14737 4.25 6.37251 4.25 7.64997V27.4832C4.25 28.7607 4.75742 29.9858 5.66065 30.8891C6.56388 31.7924 7.78894 32.2999 9.06632 32.2999H26.067C27.3444 32.2999 28.5695 31.7924 29.4727 30.8891C30.3759 29.9858 30.8833 28.7607 30.8833 27.4832V7.64997C30.8833 7.01724 30.7587 6.39071 30.5165 5.80617C30.2743 5.22163 29.9193 4.69054 29.4719 4.24323C29.0244 3.79592 28.4932 3.44117 27.9085 3.19924C27.324 2.95735 26.6973 2.83298 26.0647 2.83325ZM9.06632 6.79961C8.84085 6.79961 8.62459 6.88919 8.46514 7.04866C8.30569 7.20813 8.2161 7.42442 8.2161 7.64997V11.3334H26.9152V7.64997C26.9152 7.42442 26.8256 7.20813 26.6661 7.04866C26.5067 6.88919 26.2904 6.79961 26.065 6.79961H9.06632ZM27.4818 7.64997C27.4818 7.27415 27.3326 6.91373 27.0669 6.64798C26.8011 6.38224 26.4407 6.23294 26.065 6.23294H9.06632C8.69054 6.23294 8.33015 6.38224 8.06443 6.64798C7.79871 6.91373 7.64943 7.27415 7.64943 7.64997V11.9H27.4818V7.64997ZM21.8163 18.9841C21.8101 18.7011 21.8605 18.4197 21.9644 18.1565C22.0684 17.8932 22.2239 17.6534 22.4219 17.451C22.6198 17.2487 22.8561 17.0879 23.117 16.9781C23.3779 16.8684 23.6581 16.8118 23.9412 16.8118C24.2242 16.8118 24.5044 16.8684 24.7653 16.9781C25.0262 17.0879 25.2625 17.2487 25.4604 17.451C25.6584 17.6534 25.8139 17.8932 25.9179 18.1565C26.0218 18.4197 26.0722 18.7011 26.066 18.9841V24.6512C26.0722 24.9342 26.0218 25.2156 25.9179 25.4789C25.8139 25.7421 25.6584 25.982 25.4604 26.1843C25.2625 26.3867 25.0262 26.5474 24.7653 26.6572C24.5044 26.767 24.2242 26.8235 23.9412 26.8235C23.6581 26.8235 23.3779 26.767 23.117 26.6572C22.8561 26.5474 22.6198 26.3867 22.4219 26.1843C22.2239 25.982 22.0684 25.7421 21.9644 25.4789C21.8605 25.2156 21.8101 24.9342 21.8163 24.6512V18.9841ZM15.4413 24.6512C15.4411 24.2308 15.5656 23.8197 15.799 23.47C16.0324 23.1204 16.3643 22.8478 16.7526 22.6867C17.141 22.5257 17.5683 22.4835 17.9807 22.5653C18.393 22.6472 18.7718 22.8496 19.0691 23.1468C19.3665 23.444 19.569 23.8228 19.6511 24.2351C19.7332 24.6475 19.6912 25.0749 19.5303 25.4633C19.3695 25.8518 19.0971 26.1838 18.7476 26.4174C18.398 26.651 17.9871 26.7757 17.5667 26.7757C17.003 26.7757 16.4624 26.5518 16.0638 26.1532C15.6652 25.7545 15.4413 25.2149 15.4413 24.6512ZM26.065 3.39992H9.06632C7.93924 3.39992 6.85833 3.84769 6.06136 4.64473C5.2644 5.44177 4.81667 6.52279 4.81667 7.64997V27.4832C4.81667 28.6104 5.2644 29.6914 6.06136 30.4884C6.85833 31.2855 7.93924 31.7332 9.06632 31.7332H26.067C27.1941 31.7332 28.275 31.2855 29.072 30.4884C29.8689 29.6914 30.3167 28.6104 30.3167 27.4832V7.64997C30.3167 7.09167 30.2067 6.53885 29.993 6.02307C29.7793 5.5073 29.4661 5.03868 29.0712 4.644C28.6764 4.24932 28.2077 3.93631 27.6919 3.72284C27.176 3.50938 26.6232 3.39965 26.065 3.39992ZM9.42451 17.8022C9.19097 18.1518 9.06632 18.5627 9.06632 18.9831C9.06632 19.5468 9.29024 20.0875 9.68882 20.4861C10.0874 20.8847 10.628 21.1086 11.1917 21.1086C11.612 21.1086 12.0229 20.984 12.3724 20.7504C12.722 20.5169 12.9944 20.1849 13.1552 19.7965C13.3161 19.4081 13.3582 18.9807 13.2762 18.5684C13.1942 18.1561 12.9917 17.7774 12.6945 17.4801C12.3973 17.1829 12.0186 16.9804 11.6063 16.8984C11.194 16.8164 10.7667 16.8585 10.3783 17.0194C9.98998 17.1802 9.65804 17.4527 9.42451 17.8022ZM16.3859 17.2168C16.7354 16.9832 17.1463 16.8586 17.5667 16.8586C18.1303 16.8586 18.6709 17.0825 19.0695 17.4811C19.4681 17.8798 19.692 18.4204 19.692 18.9841C19.692 19.4045 19.5674 19.8155 19.3338 20.165C19.1003 20.5146 18.7684 20.787 18.38 20.9479C17.9916 21.1087 17.5643 21.1508 17.152 21.0688C16.7398 20.9868 16.3611 20.7844 16.0638 20.4871C15.7666 20.1898 15.5642 19.8111 15.4822 19.3988C15.4002 18.9865 15.4422 18.5591 15.6031 18.1707C15.764 17.7823 16.0364 17.4504 16.3859 17.2168ZM10.0108 22.885C10.3603 22.6514 10.7713 22.5267 11.1917 22.5267C11.7552 22.5267 12.2956 22.7505 12.6941 23.1489C13.0927 23.5473 13.3167 24.0877 13.317 24.6512C13.3172 25.0716 13.1927 25.4827 12.9593 25.8324C12.7259 26.182 12.3941 26.4546 12.0057 26.6157C11.6174 26.7767 11.19 26.819 10.7777 26.7371C10.3653 26.6552 9.98652 26.4528 9.68919 26.1556C9.39185 25.8584 9.18933 25.4796 9.10724 25.0673C9.02515 24.6549 9.06718 24.2275 9.22801 23.8391C9.38884 23.4506 9.66125 23.1186 10.0108 22.885Z" fill="#0C244E"/>
</g>
</g>
</svg>
