<svg width="24" height="24" viewBox="0 0 24 24" fill="none" xmlns="http://www.w3.org/2000/svg">
<g id="ic-home">
<path id="Caminho 63151 (Stroke)" fill-rule="evenodd" clip-rule="evenodd" d="M11.2266 2.018C11.6803 1.66067 12.3197 1.66067 12.7734 2.018L20.7734 8.31875C21.0744 8.55577 21.25 8.91768 21.25 9.30075V19.2015C21.25 20.005 20.9349 20.7787 20.3692 21.3516C19.8029 21.925 19.0315 22.25 18.2239 22.25H5.77613C4.96847 22.25 4.19709 21.925 3.63082 21.3516C3.06507 20.7787 2.75 20.005 2.75 19.2015V9.30075C2.75 8.91768 2.92564 8.55577 3.22658 8.31875L11.2266 2.018ZM5.25 9.9074V19.2015C5.25 19.352 5.30918 19.4932 5.40961 19.5949C5.50952 19.6961 5.64168 19.75 5.77613 19.75H18.2239C18.3583 19.75 18.4905 19.6961 18.5904 19.5949C18.6908 19.4932 18.75 19.352 18.75 19.2015V9.9074L12 4.59114L5.25 9.9074Z" fill="#0C244E"/>
<path id="Caminho 63152 (Stroke)" fill-rule="evenodd" clip-rule="evenodd" d="M7.75 12C7.75 11.3096 8.30964 10.75 9 10.75H15C15.6904 10.75 16.25 11.3096 16.25 12V21C16.25 21.6904 15.6904 22.25 15 22.25C14.3096 22.25 13.75 21.6904 13.75 21V13.25H10.25V21C10.25 21.6904 9.69036 22.25 9 22.25C8.30964 22.25 7.75 21.6904 7.75 21V12Z" fill="#0C244E"/>
</g>
</svg>
