<svg width="24" height="24" viewBox="0 0 24 24" fill="none" xmlns="http://www.w3.org/2000/svg">
<g id="ic-gym">
<path id="ginastica" d="M20.941 8.93322L21.5727 8.3014C21.7082 8.16597 21.8156 8.00517 21.8889 7.82819C21.9623 7.65121 22 7.46152 22 7.26996C22 7.07839 21.9623 6.8887 21.8889 6.71173C21.8156 6.53475 21.7082 6.37395 21.5727 6.23851L20.2534 4.91591L20.9252 4.24407C21.0082 4.16801 21.0749 4.07593 21.1213 3.97338C21.1677 3.87084 21.1929 3.75995 21.1954 3.64741C21.1978 3.53486 21.1775 3.42298 21.1355 3.31852C21.0936 3.21405 21.0309 3.11916 20.9513 3.03956C20.8718 2.95996 20.7769 2.8973 20.6724 2.85535C20.568 2.8134 20.4561 2.79304 20.3436 2.79548C20.231 2.79793 20.1202 2.82313 20.0176 2.86958C19.9151 2.91603 19.823 2.98275 19.747 3.06573L19.0752 3.73757L17.7538 2.41601C17.4758 2.14907 17.1053 2 16.7199 2C16.3344 2 15.964 2.14907 15.6859 2.41601L15.0542 3.04783L14.8362 2.83301C14.5584 2.56762 14.1891 2.41952 13.8049 2.41952C13.4207 2.41952 13.0514 2.56762 12.7736 2.83301L12.285 3.32162C12.0122 3.59555 11.859 3.96643 11.859 4.35306C11.859 4.73969 12.0122 5.11057 12.285 5.38451L14.8573 7.95706L7.96601 14.8502L5.3927 12.2745C5.1188 12.0016 4.74797 11.8485 4.36138 11.8485C3.9748 11.8485 3.60396 12.0016 3.33006 12.2745L2.84046 12.7631C2.70437 12.8986 2.59637 13.0597 2.52269 13.237C2.449 13.4144 2.41107 13.6046 2.41107 13.7966C2.41107 13.9887 2.449 14.1789 2.52269 14.3562C2.59637 14.5336 2.70437 14.6947 2.84046 14.8302L3.05946 15.0492L2.42772 15.681C2.29213 15.8164 2.18456 15.9772 2.11117 16.1542C2.03778 16.3312 2 16.5209 2 16.7125C2 16.9041 2.03778 17.0938 2.11117 17.2708C2.18456 17.4478 2.29213 17.6086 2.42772 17.7439L3.75017 19.0665L3.07842 19.7384C2.99318 19.8137 2.92426 19.9057 2.87591 20.0087C2.82755 20.1117 2.80077 20.2235 2.79722 20.3372C2.79367 20.4509 2.81343 20.5642 2.85527 20.67C2.89711 20.7758 2.96016 20.8719 3.04053 20.9524C3.1209 21.0329 3.2169 21.0962 3.32261 21.1382C3.42833 21.1803 3.54152 21.2002 3.65524 21.1969C3.76895 21.1935 3.88078 21.1669 3.98384 21.1188C4.0869 21.0706 4.17901 21.0018 4.25451 20.9167L4.92627 20.2449L6.24766 21.5696C6.38311 21.706 6.5442 21.8142 6.72165 21.8881C6.8991 21.962 7.08941 22 7.28162 22C7.47383 22 7.66414 21.962 7.84159 21.8881C8.01904 21.8142 8.18013 21.706 8.31557 21.5696L8.94732 20.9378L9.16527 21.1557C9.30069 21.2912 9.46147 21.3987 9.63842 21.472C9.81538 21.5453 10.005 21.5831 10.1966 21.5831C10.3881 21.5831 10.5778 21.5453 10.7548 21.472C10.9317 21.3987 11.0925 21.2912 11.2279 21.1557L11.7165 20.6671C11.9893 20.3932 12.1424 20.0223 12.1424 19.6357C12.1424 19.2491 11.9893 18.8782 11.7165 18.6043L9.14421 16.0254L16.0355 9.1333L18.6077 11.7058C18.8815 11.9789 19.2524 12.1323 19.6391 12.1323C20.0257 12.1323 20.3966 11.9789 20.6704 11.7058L21.1589 11.2172C21.2945 11.0819 21.4021 10.9211 21.4755 10.7441C21.5489 10.5671 21.5866 10.3774 21.5866 10.1858C21.5866 9.99419 21.5489 9.80447 21.4755 9.62748C21.4021 9.4505 21.2945 9.28972 21.1589 9.15436L20.941 8.93322Z" fill="#0C244E"/>
</g>
</svg>
