<svg width="24" height="24" viewBox="0 0 24 24" fill="none" xmlns="http://www.w3.org/2000/svg">
<g id="ic-exchange">
<g id="g2448">
<path id="path2450 (Stroke)" fill-rule="evenodd" clip-rule="evenodd" d="M8.61666 7.1333C8.50383 7.1333 8.4038 7.17664 8.33653 7.24108C8.2711 7.30377 8.2425 7.37938 8.24219 7.44887C8.24266 7.51828 8.27137 7.59378 8.33681 7.65634C8.40407 7.72063 8.50398 7.76385 8.61666 7.76384C9.23287 7.76384 9.83204 7.99793 10.2803 8.42738C10.7301 8.85822 10.9911 9.45195 10.9911 10.0806C10.9911 10.7092 10.7301 11.3029 10.2803 11.7337C9.83206 12.1632 9.23289 12.3973 8.61666 12.3973H7.24219C6.6899 12.3973 6.24219 11.9496 6.24219 11.3973C6.24219 10.845 6.6899 10.3973 7.24219 10.3973H8.61666C8.72948 10.3973 8.82952 10.3539 8.89678 10.2895C8.96258 10.2265 8.99112 10.1504 8.99112 10.0806C8.99112 10.0107 8.96257 9.93463 8.89678 9.87161C8.82954 9.80719 8.72951 9.76384 8.61666 9.76384C8.00131 9.76385 7.40294 9.53041 6.95485 9.10209C6.5053 8.67238 6.24363 8.08001 6.24219 7.45232L6.24219 7.45002C6.24219 6.82139 6.50326 6.22768 6.95299 5.79685C7.40125 5.36742 8.00042 5.1333 8.61666 5.1333H9.99213C10.5444 5.1333 10.9921 5.58102 10.9921 6.1333C10.9921 6.68559 10.5444 7.1333 9.99213 7.1333H8.61666Z" fill="#0C244E"/>
</g>
<g id="g2452">
<path id="path2454 (Stroke)" fill-rule="evenodd" clip-rule="evenodd" d="M8.625 4.34229C9.17728 4.34229 9.625 4.79 9.625 5.34229V6.12826C9.625 6.68054 9.17728 7.12826 8.625 7.12826C8.07272 7.12826 7.625 6.68054 7.625 6.12826V5.34229C7.625 4.79 8.07272 4.34229 8.625 4.34229Z" fill="#0C244E"/>
</g>
<g id="g2456">
<path id="path2458 (Stroke)" fill-rule="evenodd" clip-rule="evenodd" d="M8.625 10.3975C9.17728 10.3975 9.625 10.8452 9.625 11.3975V12.1834C9.625 12.7357 9.17728 13.1834 8.625 13.1834C8.07272 13.1834 7.625 12.7357 7.625 12.1834V11.3975C7.625 10.8452 8.07272 10.3975 8.625 10.3975Z" fill="#0C244E"/>
</g>
<g id="g2464">
<path id="path2466 (Stroke)" fill-rule="evenodd" clip-rule="evenodd" d="M11.2812 15.2363C11.2812 14.684 11.729 14.2363 12.2812 14.2363H15.7255C16.2778 14.2363 16.7255 14.684 16.7255 15.2363C16.7255 15.7886 16.2778 16.2363 15.7255 16.2363H12.2812C11.729 16.2363 11.2812 15.7886 11.2812 15.2363Z" fill="#0C244E"/>
</g>
<path id="Ellipse 1 (Stroke)" fill-rule="evenodd" clip-rule="evenodd" d="M8.5 14.7333C11.9426 14.7333 14.7333 11.9426 14.7333 8.5C14.7333 5.05743 11.9426 2.26667 8.5 2.26667C5.05743 2.26667 2.26667 5.05743 2.26667 8.5C2.26667 11.9426 5.05743 14.7333 8.5 14.7333ZM8.5 17C13.1944 17 17 13.1944 17 8.5C17 3.80558 13.1944 0 8.5 0C3.80558 0 0 3.80558 0 8.5C0 13.1944 3.80558 17 8.5 17Z" fill="#0C244E"/>
<path id="Subtract" fill-rule="evenodd" clip-rule="evenodd" d="M7.01975 14.9068C7.00665 15.0999 7 15.2948 7 15.4913C7 20.1905 10.8056 24 15.5 24C20.1944 24 24 20.1905 24 15.4913C24 10.976 20.4865 7.28222 16.0469 7C15.9937 7.78469 15.8343 8.54019 15.5828 9.25219C18.9872 9.29656 21.7333 12.0729 21.7333 15.4913C21.7333 18.9374 18.9426 21.731 15.5 21.731C12.0574 21.731 9.26667 18.9374 9.26667 15.4913C9.26667 15.2387 9.28167 14.9896 9.31082 14.7448C8.74787 14.8623 8.16447 14.9241 7.56667 14.9241C7.38294 14.9241 7.20058 14.9183 7.01975 14.9068Z" fill="#0C244E"/>
<path id="Subtract_2" fill-rule="evenodd" clip-rule="evenodd" d="M18.0714 12.2539C17.9957 12.1971 17.9176 12.1425 17.8371 12.0902C15.9117 10.8393 13.3377 11.3845 12.0881 13.308C10.8384 15.2315 11.3863 17.8049 13.3118 19.0558C15.1619 20.2578 17.6107 19.8015 18.9081 18.0575C19.3554 17.369 18.809 16.6838 18.1089 17.2678C17.1844 18.6509 15.3158 19.0371 13.9151 18.1271C12.5031 17.2098 12.1014 15.3226 13.0178 13.912C13.9342 12.5015 15.8217 12.1016 17.2337 13.019C17.3373 13.0862 17.4354 13.1587 17.5279 13.2358C17.6915 13.3163 18.0665 13.2479 18.2256 13.003C18.3847 12.758 18.2949 12.3876 18.0714 12.2539Z" fill="#0C244E"/>
<path id="Subtract (Stroke)" fill-rule="evenodd" clip-rule="evenodd" d="M18.9069 18.0572C17.6095 19.8012 15.1607 20.2575 13.3106 19.0556C11.3851 17.8046 10.8372 15.2312 12.0869 13.3077C13.3365 11.3842 15.9105 10.839 17.836 12.0899C17.9165 12.1422 17.9946 12.1968 18.0702 12.2536C18.2937 12.3873 18.3836 12.7577 18.2244 13.0027C18.0653 13.2476 17.6903 13.316 17.5267 13.2355C17.4342 13.1584 17.3361 13.0859 17.2326 13.0187C15.8206 12.1013 13.933 12.5012 13.0166 13.9117C12.1002 15.3223 12.5019 17.2095 13.914 18.1268C15.3146 19.0368 17.1832 18.6506 18.1077 17.2675C18.8078 16.6836 19.3542 17.3687 18.9069 18.0572ZM18.3792 11.8031C18.2995 11.7439 18.2176 11.6869 18.1333 11.6322C15.9555 10.2173 13.0433 10.8336 11.6292 13.0104C10.215 15.1871 10.8354 18.0984 13.0132 19.5133C15.106 20.8729 17.8763 20.3569 19.3449 18.383L19.3552 18.3691L19.3647 18.3546C19.6779 17.8724 19.727 17.2406 19.3408 16.8173C19.1446 16.6022 18.8656 16.4875 18.5636 16.5026C18.2716 16.5172 17.9968 16.6492 17.7581 16.8484L17.6976 16.8988L17.6539 16.9642C16.8955 18.0989 15.3616 18.4164 14.2113 17.6691C13.0517 16.9157 12.7224 15.3664 13.4743 14.2091C14.2262 13.0518 15.7755 12.723 16.9352 13.4764C17.0206 13.5318 17.1013 13.5915 17.1773 13.6548L17.2273 13.6964L17.2856 13.7252C17.5348 13.8479 17.822 13.8236 18.0248 13.7666C18.2454 13.7047 18.51 13.565 18.6822 13.3C18.8555 13.0332 18.8796 12.7244 18.8241 12.4701C18.7716 12.2292 18.6316 11.9667 18.3792 11.8031Z" fill="#0C244E"/>
</g>
</svg>
