<svg width="26" height="24" viewBox="0 0 26 24" fill="none" xmlns="http://www.w3.org/2000/svg">
<g id="ic-chat-fill">
<path id="Vector" d="M7.69692 23C8.2305 23 8.60074 22.7235 9.26498 22.1493L13.0218 18.8849H20.0127C23.2577 18.8849 25 17.1305 25 14.015V5.86999C25 2.75447 23.2577 1 20.0127 1H5.9873C2.74229 1 1 2.74384 1 5.86999V14.015C1 17.1412 2.74229 18.8849 5.9873 18.8849H6.50999V21.6496C6.50999 22.4684 6.93467 23 7.69692 23ZM8.14338 21.0542V17.9705C8.14338 17.3963 7.91471 17.173 7.32668 17.173H5.9873C3.78766 17.173 2.75318 16.0778 2.75318 14.0043V5.86999C2.75318 3.79652 3.78766 2.71194 5.9873 2.71194H20.0127C22.2015 2.71194 23.2468 3.79652 23.2468 5.86999V14.0043C23.2468 16.0778 22.2015 17.173 20.0127 17.173H12.9565C12.3466 17.173 12.0417 17.2581 11.628 17.6728L8.14338 21.0542ZM7.67514 11.463C8.5354 11.463 9.23232 10.7825 9.23232 9.94251C9.23232 9.10247 8.5354 8.42194 7.67514 8.42194C6.81489 8.42194 6.11797 9.10247 6.11797 9.94251C6.11797 10.7825 6.81489 11.463 7.67514 11.463ZM13.0109 11.463C13.8602 11.463 14.5681 10.7825 14.5681 9.94251C14.5681 9.10247 13.8602 8.42194 13.0109 8.42194C12.1506 8.42194 11.4429 9.10247 11.4429 9.94251C11.4429 10.7825 12.1506 11.463 13.0109 11.463ZM18.3357 11.463C19.196 11.463 19.8929 10.7825 19.8929 9.94251C19.8929 9.10247 19.196 8.42194 18.3357 8.42194C17.4755 8.42194 16.7786 9.10247 16.7786 9.94251C16.7786 10.7825 17.4755 11.463 18.3357 11.463Z" fill="#0C244E"/>
<path id="Vector (Stroke)" fill-rule="evenodd" clip-rule="evenodd" d="M9.46039 22.3765C8.80891 22.9396 8.35751 23.3002 7.69614 23.3002C7.24035 23.3002 6.85533 23.1382 6.58896 22.8272C6.32797 22.5224 6.20921 22.1078 6.20921 21.6498V19.1851H5.98652C4.31231 19.1851 2.97968 18.7347 2.06571 17.8364C1.15096 16.9374 0.699219 15.6329 0.699219 14.0152V5.87018C0.699219 4.25254 1.15096 2.94793 2.06571 2.04892C2.97968 1.15067 4.3123 0.700195 5.98652 0.700195H20.0119C21.6866 0.700195 23.0191 1.15358 23.9329 2.05307C24.8474 2.95323 25.2992 4.25761 25.2992 5.87018V14.0152C25.2992 15.6278 24.8473 16.9321 23.9329 17.8323C23.0191 18.7317 21.6866 19.1851 20.0119 19.1851H13.1331L9.46039 22.3765ZM13.021 18.8851L9.2642 22.1495C8.59996 22.7237 8.22972 23.0002 7.69614 23.0002C6.93389 23.0002 6.50921 22.4686 6.50921 21.6498V18.8851H5.98652C2.74151 18.8851 0.999219 17.1414 0.999219 14.0152V5.87018C0.999219 2.74404 2.74151 1.0002 5.98652 1.0002H20.0119C23.2569 1.0002 24.9992 2.75466 24.9992 5.87018V14.0152C24.9992 17.1306 23.2569 18.8851 20.0119 18.8851H13.021ZM8.1426 17.9707C8.1426 17.3965 7.91393 17.1732 7.3259 17.1732H5.98652C3.78688 17.1732 2.7524 16.078 2.7524 14.0045V5.87018C2.7524 3.79671 3.78688 2.71213 5.98652 2.71213H20.0119C22.2007 2.71213 23.2461 3.79671 23.2461 5.87018V14.0045C23.2461 16.078 22.2007 17.1732 20.0119 17.1732H12.9557C12.3458 17.1732 12.041 17.2583 11.6272 17.673L8.1426 21.0544V17.9707ZM8.4426 20.3452V17.9707C8.4426 17.6545 8.38158 17.3541 8.16435 17.142C7.94896 16.9317 7.64601 16.8732 7.3259 16.8732H5.98652C4.93262 16.8732 4.21395 16.611 3.75661 16.1542C3.29933 15.6974 3.0524 14.9952 3.0524 14.0045V5.87018C3.0524 4.87953 3.29932 4.18037 3.75608 3.72639C4.21319 3.27206 4.93188 3.01213 5.98652 3.01213H20.0119C21.0607 3.01213 21.7798 3.27187 22.2386 3.72666C22.6968 4.18096 22.9461 4.88032 22.9461 5.87018V14.0045C22.9461 14.9944 22.6968 15.6968 22.238 16.1539C21.7791 16.6112 21.06 16.8732 20.0119 16.8732H12.9557C12.641 16.8732 12.3705 16.8943 12.1168 16.9852C11.8581 17.0778 11.6424 17.2334 11.4165 17.4594L8.4426 20.3452ZM9.53154 9.94271C9.53154 10.955 8.69352 11.7632 7.67436 11.7632C6.6552 11.7632 5.81719 10.955 5.81719 9.94271C5.81719 8.9303 6.65519 8.12214 7.67436 8.12214C8.69354 8.12214 9.53154 8.9303 9.53154 9.94271ZM14.8673 9.94271C14.8673 10.9564 14.017 11.7632 13.0101 11.7632C11.9937 11.7632 11.1421 10.9577 11.1421 9.94271C11.1421 8.92762 11.9937 8.12214 13.0101 8.12214C14.017 8.12214 14.8673 8.92894 14.8673 9.94271ZM20.1921 9.94271C20.1921 10.955 19.3541 11.7632 18.3349 11.7632C17.3158 11.7632 16.4778 10.955 16.4778 9.94271C16.4778 8.93031 17.3158 8.12214 18.3349 8.12214C19.3541 8.12214 20.1921 8.93029 20.1921 9.94271ZM9.23154 9.94271C9.23154 10.7827 8.53462 11.4632 7.67436 11.4632C6.8141 11.4632 6.11719 10.7827 6.11719 9.94271C6.11719 9.10267 6.8141 8.42214 7.67436 8.42214C8.53462 8.42214 9.23154 9.10267 9.23154 9.94271ZM14.5673 9.94271C14.5673 10.7827 13.8594 11.4632 13.0101 11.4632C12.1499 11.4632 11.4421 10.7827 11.4421 9.94271C11.4421 9.10267 12.1499 8.42214 13.0101 8.42214C13.8594 8.42214 14.5673 9.10267 14.5673 9.94271ZM19.8921 9.94271C19.8921 10.7827 19.1952 11.4632 18.3349 11.4632C17.4748 11.4632 16.7778 10.7827 16.7778 9.94271C16.7778 9.10267 17.4748 8.42214 18.3349 8.42214C19.1952 8.42214 19.8921 9.10267 19.8921 9.94271Z" fill="#0C244E"/>
</g>
</svg>
