<svg width="24" height="24" viewBox="0 0 24 24" fill="none" xmlns="http://www.w3.org/2000/svg">
<g id="ic-calendar-yes">
<path id="Caminho 63376 (Stroke)" fill-rule="evenodd" clip-rule="evenodd" d="M4.22209 4.2002C3.89474 4.2002 3.58281 4.32903 3.35438 4.55517C3.12629 4.78098 3 5.0851 3 5.40006V20.8003C3 21.1153 3.12629 21.4194 3.35438 21.6452C3.58281 21.8713 3.89474 22.0002 4.22209 22.0002H19.7779C20.1053 22.0002 20.4172 21.8713 20.6456 21.6452C20.8737 21.4194 21 21.1153 21 20.8003V5.40006C21 5.0851 20.8737 4.78098 20.6456 4.55517C20.4172 4.32903 20.1053 4.2002 19.7779 4.2002H4.22209ZM1.94729 3.13387C2.5523 2.53491 3.37076 2.2002 4.22209 2.2002H19.7779C20.6292 2.2002 21.4477 2.53491 22.0527 3.13387C22.6581 3.73317 23 4.54814 23 5.40006V20.8003C23 21.6522 22.6581 22.4672 22.0527 23.0665C21.4477 23.6654 20.6292 24.0002 19.7779 24.0002H4.22209C3.37076 24.0002 2.5523 23.6654 1.94729 23.0665C1.34194 22.4672 1 21.6522 1 20.8003V5.40006C1 4.54814 1.34194 3.73317 1.94729 3.13387Z" fill="#0C244E"/>
<path id="Caminho 63377 (Stroke)" fill-rule="evenodd" clip-rule="evenodd" d="M16.4414 0C16.9937 0 17.4414 0.447715 17.4414 1V5.39972C17.4414 5.95201 16.9937 6.39972 16.4414 6.39972C15.8891 6.39972 15.4414 5.95201 15.4414 5.39972V1C15.4414 0.447715 15.8891 0 16.4414 0Z" fill="#0C244E"/>
<path id="Caminho 63378 (Stroke)" fill-rule="evenodd" clip-rule="evenodd" d="M7.55469 0C8.10697 0 8.55469 0.447715 8.55469 1V5.39972C8.55469 5.95201 8.10697 6.39972 7.55469 6.39972C7.0024 6.39972 6.55469 5.95201 6.55469 5.39972V1C6.55469 0.447715 7.0024 0 7.55469 0Z" fill="#0C244E"/>
<path id="Caminho 63379 (Stroke)" fill-rule="evenodd" clip-rule="evenodd" d="M1 9.7998C1 9.24752 1.44772 8.7998 2 8.7998H22C22.5523 8.7998 23 9.24752 23 9.7998C23 10.3521 22.5523 10.7998 22 10.7998H2C1.44772 10.7998 1 10.3521 1 9.7998Z" fill="#0C244E"/>
<path id="Linha 10 (Stroke)" fill-rule="evenodd" clip-rule="evenodd" d="M16.6967 13.5416C17.0853 13.9341 17.0821 14.5672 16.6896 14.9558L11.8246 19.7721C11.4322 20.1607 10.799 20.1575 10.4104 19.765C10.0219 19.3725 10.0251 18.7394 10.4175 18.3508L15.2825 13.5345C15.675 13.1459 16.3082 13.1491 16.6967 13.5416Z" fill="#0C244E"/>
<path id="Linha 11 (Stroke)" fill-rule="evenodd" clip-rule="evenodd" d="M7.98075 15.9498C8.36931 15.5573 9.00247 15.5541 9.39495 15.9427L11.8274 18.3508C12.2199 18.7394 12.2231 19.3726 11.8346 19.765C11.446 20.1575 10.8128 20.1607 10.4204 19.7721L7.98786 17.364C7.59538 16.9754 7.5922 16.3423 7.98075 15.9498Z" fill="#0C244E"/>
</g>
</svg>
