<svg width="24" height="24" viewBox="0 0 24 24" fill="none" xmlns="http://www.w3.org/2000/svg">
<g id="ic-crown-fill">
<path id="Caminho 63013" d="M4.46658 18.4259C4.91917 18.8502 5.51262 19.092 6.13272 19.1049L18.0266 19.1009C18.5741 19.0963 19.1082 18.9311 19.5628 18.6259C19.6032 18.5992 19.6407 18.5683 19.6747 18.5339C20.0846 18.1146 20.353 17.5775 20.4423 16.9979L21.9955 0.824865C22.0139 0.65684 21.9753 0.487512 21.8859 0.344065C21.7966 0.200618 21.6616 0.0913725 21.5028 0.0338651C21.3458 -0.0168443 21.176 -0.0104367 21.0233 0.0519567C20.8706 0.11435 20.7448 0.228717 20.6682 0.374865L16.2075 8.56586L12.6224 0.536865C12.5689 0.411241 12.4803 0.303787 12.3671 0.227481C12.254 0.151176 12.1211 0.109284 11.9847 0.106865C11.8493 0.108635 11.7172 0.149242 11.6042 0.223867C11.4912 0.298492 11.4019 0.404 11.347 0.527865L7.68892 8.46386L3.32417 0.607865C3.2462 0.462725 3.11956 0.349755 2.96654 0.288843C2.81351 0.227931 2.64392 0.222981 2.4876 0.274865C2.32924 0.334805 2.19563 0.446289 2.10825 0.59139C2.02087 0.736491 1.98481 0.906777 2.00585 1.07487L3.60303 16.5259C3.71886 17.1777 3.98398 17.7938 4.37763 18.3259C4.40465 18.3615 4.43439 18.3949 4.46658 18.4259Z" fill="#0C244E"/>
<path id="Caminho 63014" d="M19.4788 23.9978H4.51649C4.32383 23.99 4.14209 23.9062 4.01099 23.7647C3.87989 23.6232 3.81009 23.4356 3.81686 23.2428C3.81036 23.0501 3.88028 22.8627 4.01135 22.7215C4.14242 22.5802 4.32401 22.4966 4.51649 22.4888H19.4788C19.6713 22.4966 19.8528 22.5802 19.9839 22.7215C20.115 22.8627 20.1849 23.0501 20.1784 23.2428C20.1849 23.4354 20.115 23.6228 19.9839 23.764C19.8528 23.9053 19.6713 23.989 19.4788 23.9968" fill="#0C244E"/>
</g>
</svg>
