<svg width="24" height="24" viewBox="0 0 24 24" fill="none" xmlns="http://www.w3.org/2000/svg">
<g id="ic-crown">
<path id="Caminho 63013" d="M6.13272 19.1049C5.51262 19.092 4.91917 18.8502 4.46658 18.4259C4.43439 18.3949 4.40465 18.3615 4.37763 18.3259C3.98398 17.7938 3.71886 17.1777 3.60303 16.5259L2.00585 1.07487C1.98481 0.906777 2.02087 0.736491 2.10825 0.59139C2.19563 0.446289 2.32924 0.334805 2.4876 0.274865C2.64392 0.222981 2.81351 0.227931 2.96654 0.288843C3.11956 0.349755 3.2462 0.462725 3.32417 0.607865L7.68892 8.46386L11.347 0.527865C11.4019 0.404 11.4912 0.298492 11.6042 0.223867C11.7172 0.149242 11.8493 0.108635 11.9847 0.106865C12.1211 0.109284 12.254 0.151176 12.3671 0.227481C12.4803 0.303787 12.5689 0.411241 12.6224 0.536865L16.2075 8.56586L20.6682 0.374865C20.7448 0.228717 20.8706 0.11435 21.0233 0.0519567C21.176 -0.0104367 21.3458 -0.0168443 21.5028 0.0338651C21.6616 0.0913725 21.7966 0.200618 21.8859 0.344065C21.9753 0.487512 22.0139 0.65684 21.9955 0.824865L20.4423 16.9979C20.353 17.5775 20.0846 18.1146 19.6747 18.5339C19.6407 18.5683 19.6032 18.5992 19.5628 18.6259C19.1082 18.9311 18.5741 19.0963 18.0266 19.1009L6.13272 19.1049ZM5.45207 17.3379C5.64665 17.5019 5.89133 17.5947 6.14572 17.6009H18.0226C18.2768 17.599 18.5261 17.53 18.7452 17.4009C18.8974 17.2268 18.9993 17.0145 19.0401 16.7869L20.2444 4.16987L16.7672 10.5619C16.7093 10.6813 16.6171 10.7808 16.5025 10.8477C16.3879 10.9147 16.256 10.9461 16.1236 10.9379C15.9914 10.9308 15.8639 10.8869 15.7555 10.8111C15.647 10.7352 15.5619 10.6306 15.5099 10.5089L11.9757 2.59787L8.38556 10.3819C8.33261 10.5016 8.24748 10.6042 8.13966 10.6784C8.03183 10.7525 7.90555 10.7953 7.77487 10.8019C7.64363 10.8096 7.513 10.7787 7.39914 10.7129C7.28528 10.6471 7.19317 10.5494 7.13421 10.4319L3.77994 4.39787L5.0043 16.3059C5.08009 16.6773 5.23186 17.029 5.45007 17.3389" fill="#0C244E"/>
<path id="Caminho 63014" d="M19.4788 23.9978H4.51649C4.32383 23.99 4.14209 23.9062 4.01099 23.7647C3.87989 23.6232 3.81009 23.4356 3.81686 23.2428C3.81036 23.0501 3.88028 22.8627 4.01135 22.7215C4.14242 22.5802 4.32401 22.4966 4.51649 22.4888H19.4788C19.6713 22.4966 19.8528 22.5802 19.9839 22.7215C20.115 22.8627 20.1849 23.0501 20.1784 23.2428C20.1849 23.4354 20.115 23.6228 19.9839 23.764C19.8528 23.9053 19.6713 23.989 19.4788 23.9968" fill="#0C244E"/>
</g>
</svg>
