<svg width="35" height="31" viewBox="0 0 35 31" fill="none" xmlns="http://www.w3.org/2000/svg">
<g id="Grupo 30494">
<path id="Caminho 63419" d="M35 29.7583C34.9025 29.8713 34.7777 29.9595 34.6365 30.0155C34.4953 30.0714 34.3419 30.0932 34.1899 30.0791C32.4578 30.0791 30.7273 30.0791 28.9952 30.0791C28.8477 30.0815 28.7008 30.0626 28.5592 30.023C28.4438 29.9965 28.3428 29.9295 28.2763 29.835C28.2099 29.7406 28.1827 29.6257 28.2001 29.5129C28.2044 29.3988 28.2516 29.2901 28.333 29.207C28.4144 29.1238 28.5245 29.0718 28.6427 29.0606C28.7668 29.046 28.892 29.0417 29.0169 29.0478C30.5085 29.0478 32.0018 29.0397 33.4934 29.0478C33.8157 29.0478 33.9076 28.9531 33.8976 28.6692C33.8775 28.1142 33.8809 27.5577 33.8976 27.0011C33.8976 26.7492 33.7974 26.6803 33.5368 26.6803C32.558 26.6899 31.5775 26.6803 30.5987 26.6803L1.68536 26.6803C1.09907 26.6803 1.09907 26.6803 1.09907 27.2337C1.09907 27.7373 1.09907 28.241 1.09907 28.7446C1.09907 28.9547 1.1709 29.0654 1.41477 29.0413C1.51666 29.0317 1.62022 29.0413 1.72211 29.0413L30.5436 29.0413C30.6805 29.0413 30.8175 29.0413 30.9528 29.0413C31.0227 29.034 31.0934 29.0404 31.1608 29.0599C31.2281 29.0795 31.2906 29.1119 31.3445 29.1552C31.3985 29.1985 31.4428 29.2518 31.4748 29.3119C31.5069 29.3721 31.5259 29.4378 31.5308 29.5051C31.5358 29.5725 31.5265 29.6401 31.5036 29.704C31.4807 29.7678 31.4446 29.8266 31.3975 29.8767C31.3504 29.9269 31.2933 29.9674 31.2295 29.9958C31.1657 30.0243 31.0966 30.04 31.0263 30.0422C30.9034 30.0633 30.7786 30.073 30.6538 30.0711L0.87358 30.0711C0.711433 30.0966 0.545139 30.0804 0.391667 30.024C0.238196 29.9677 0.103043 29.8732 0 29.7503L0 25.7227C0.15367 24.7378 0.310681 23.7546 0.459339 22.7681C0.756657 20.8033 1.04896 18.8255 1.34795 16.8607C1.40641 16.4709 1.65529 16.2752 1.99604 16.3201C2.0758 16.3326 2.15191 16.3611 2.21942 16.4037C2.28693 16.4464 2.34431 16.5022 2.38782 16.5676C2.43132 16.633 2.45998 16.7065 2.47191 16.7832C2.48384 16.86 2.47877 16.9383 2.45705 17.013C2.04392 19.7933 1.62523 22.5735 1.20096 25.3538C1.16589 25.5864 1.25274 25.6537 1.48993 25.6489C1.95595 25.6393 2.42364 25.6489 2.89133 25.6489H23.6685C24.1696 25.6489 24.1897 25.6489 24.2247 25.203C24.2942 24.2904 24.5018 23.3923 24.8411 22.5372C24.9046 22.3768 24.8511 22.3142 24.674 22.2757C23.6234 22.0463 22.6054 21.6957 21.6424 21.2315C21.6109 21.2092 21.5749 21.1934 21.5367 21.1853C21.4985 21.1771 21.4589 21.1767 21.4205 21.1841C21.3821 21.1915 21.3458 21.2066 21.3138 21.2283C21.2818 21.25 21.2549 21.2778 21.2348 21.3101C21.1601 21.4038 21.0738 21.4884 20.9776 21.5619C20.8839 21.6513 20.7588 21.7038 20.6268 21.7092C20.4949 21.7145 20.3656 21.6723 20.2644 21.5908C20.208 21.5558 20.1602 21.5096 20.1239 21.4553C20.0877 21.401 20.0639 21.34 20.0543 21.2762C20.0447 21.2124 20.0493 21.1473 20.068 21.0854C20.0866 21.0235 20.1189 20.9661 20.1625 20.9171C20.4481 20.6188 20.2861 20.4953 20.0122 20.3349C19.413 19.9749 18.8464 19.5671 18.3185 19.1159C17.8825 18.7534 17.9978 18.8127 17.5768 19.1046C17.5154 19.1519 17.4513 19.1958 17.3847 19.2362C17.2692 19.3077 17.1301 19.3353 16.9946 19.3136C16.859 19.292 16.7367 19.2226 16.6515 19.1191C16.5675 19.0256 16.5241 18.9047 16.5304 18.7814C16.5366 18.6581 16.5919 18.5419 16.6849 18.4566C16.8118 18.3059 17.1359 18.2561 17.0741 18.03C17.0256 17.8567 16.8218 17.7092 16.6782 17.568C16.2581 17.1273 15.8644 16.6641 15.499 16.1806C15.3536 15.9929 15.2233 15.9319 14.9979 16.0587C14.8634 16.1449 14.6991 16.1772 14.5402 16.1485C14.4343 16.132 14.3362 16.0847 14.2591 16.013C14.182 15.9413 14.1297 15.8486 14.1092 15.7475C14.0804 15.6427 14.0917 15.5315 14.1411 15.4341C14.1904 15.3367 14.2745 15.2595 14.3782 15.2166C14.6571 15.0899 14.6187 14.968 14.4834 14.7594C14.1393 14.2285 13.8153 13.6848 13.5029 13.1378C13.3927 12.9453 13.2908 12.8812 13.0536 12.9774C12.9884 13.0164 12.9158 13.0424 12.8399 13.0537C12.764 13.0651 12.6866 13.0616 12.6121 13.0435C12.5377 13.0253 12.4679 12.9929 12.4068 12.9482C12.3458 12.9035 12.2948 12.8474 12.2568 12.7833C12.2206 12.7166 12.2004 12.6429 12.1975 12.5677C12.1946 12.4925 12.2092 12.4176 12.2403 12.3485C12.2713 12.2794 12.318 12.2177 12.3769 12.1681C12.4358 12.1185 12.5055 12.0821 12.5809 12.0615C12.8314 11.9476 12.8431 11.8257 12.7379 11.6156C12.5734 11.2936 12.43 10.962 12.3086 10.6227C12.2151 10.3485 12.0932 10.3164 11.8176 10.4399C10.1376 11.1852 8.3664 11.7241 6.54601 12.0439C5.52941 12.2309 4.50001 12.3467 3.46593 12.3903C3.2087 12.4 3.11349 12.4818 3.08342 12.7192C2.98654 13.4891 2.55226 16.3795 2.437 17.1478C2.4352 17.2257 2.41686 17.3025 2.38313 17.3735C2.3494 17.4444 2.30096 17.508 2.24079 17.5604C2.18061 17.6128 2.10996 17.6529 2.03313 17.6782C1.9563 17.7035 1.87492 17.7135 1.79393 17.7076C1.7134 17.6973 1.63609 17.6706 1.56722 17.6292C1.49835 17.5879 1.43953 17.5328 1.39473 17.4677C1.34992 17.4026 1.32018 17.3291 1.3075 17.252C1.29482 17.175 1.2995 17.0962 1.32123 17.0211C1.45485 16.0587 1.62857 14.4547 1.98936 12.7833C2.22153 10.0325 1.91586 6.95603 2.17142 4.95425C2.42698 2.95247 5.84614 2.52421 7.30767 2.19379C9.14503 1.78156 11.9328 0.953903 11.9328 0.953903C11.9328 0.953903 13.9155 0.599422 14.3782 2.0767C14.8408 3.55397 13.999 6.35132 14.9862 9.23048C15.1866 9.66516 15.3653 10.1063 15.5491 10.5474C15.6125 10.6981 15.6827 10.7847 15.8965 10.7591C16.0041 10.747 16.1129 10.7688 16.2066 10.8212C16.3002 10.8735 16.3737 10.9536 16.416 11.0494C16.4701 11.1372 16.4903 11.2405 16.4729 11.3412C16.4554 11.4418 16.4016 11.5333 16.3207 11.5996C16.2916 11.6179 16.2667 11.6419 16.2478 11.67C16.2289 11.6982 16.2162 11.7297 16.2107 11.7628C16.2052 11.7959 16.207 11.8297 16.2158 11.8621C16.2247 11.8944 16.2405 11.9247 16.2623 11.9508C16.5813 12.4962 16.902 13.0384 17.2478 13.5693C17.3564 13.7297 17.4582 13.8179 17.6787 13.7393C17.7861 13.7006 17.9042 13.6995 18.0124 13.7362C18.1205 13.7729 18.2117 13.845 18.27 13.9398C18.3466 14.026 18.385 14.1376 18.3768 14.2507C18.3687 14.3637 18.3148 14.4692 18.2266 14.5445C18.1972 14.5625 18.1726 14.5869 18.1548 14.6157C18.1371 14.6446 18.1266 14.677 18.1244 14.7104C18.1221 14.7439 18.128 14.7773 18.1417 14.8081C18.1554 14.8389 18.1765 14.8662 18.2032 14.8878C18.559 15.324 18.9248 15.7523 19.3123 16.1709C19.331 16.2003 19.3561 16.2253 19.3859 16.2445C19.4157 16.2636 19.4494 16.2764 19.4848 16.2819C19.5201 16.2873 19.5563 16.2854 19.5908 16.2763C19.6253 16.2671 19.6574 16.2509 19.6848 16.2287C19.7923 16.1541 19.9244 16.1194 20.0565 16.1312C20.1885 16.143 20.3117 16.2005 20.403 16.2928C20.451 16.3337 20.4899 16.3835 20.5174 16.4393C20.5448 16.495 20.5603 16.5554 20.5627 16.617C20.5652 16.6786 20.5548 16.74 20.5319 16.7976C20.509 16.8552 20.4743 16.9077 20.4298 16.9521C20.3028 17.0997 20.3596 17.1863 20.4815 17.2953C20.9561 17.705 21.4523 18.091 21.9681 18.4518C22.1352 18.5753 22.2621 18.601 22.4291 18.4374C22.5131 18.3452 22.6305 18.2873 22.7575 18.2753C22.8844 18.2634 23.0113 18.2984 23.1123 18.3732C23.1698 18.4012 23.2206 18.4402 23.2617 18.4879C23.3027 18.5356 23.333 18.5909 23.3508 18.6504C23.3685 18.7099 23.3732 18.7723 23.3647 18.8336C23.3561 18.8949 23.3344 18.9539 23.301 19.0068C23.1925 19.1945 23.3111 19.2378 23.4497 19.3099C24.8118 20.0107 26.2922 20.4744 27.8226 20.6798C28.9417 20.7928 30.054 20.9614 31.1549 21.185C32.3484 21.4079 33.4225 22.0261 34.1899 22.9318C34.5965 23.5121 34.8719 24.1677 34.9983 24.8565L35 29.7583ZM29.5648 25.6473C30.886 25.6473 32.2072 25.6473 33.5268 25.6473C33.8074 25.6473 33.9126 25.5703 33.8959 25.3057C33.8812 24.615 33.6325 23.9478 33.1877 23.4049C32.554 22.7486 31.7128 22.3112 30.7941 22.1602C29.5464 21.8667 28.2502 21.825 26.9925 21.5812C26.8893 21.5456 26.776 21.5487 26.6751 21.5897C26.5742 21.6307 26.4931 21.7067 26.4479 21.8025C25.7877 22.9005 25.4007 24.1302 25.3171 25.3955C25.2904 25.6633 25.4842 25.6441 25.6696 25.6441L29.5648 25.6441M16.3692 14.2397C16.3441 14.1884 16.3274 14.1499 16.3057 14.113C15.9449 13.5196 15.5808 12.9277 15.2233 12.3326C15.1499 12.2107 15.0713 12.1594 14.926 12.2251C14.7807 12.2909 14.6805 12.3358 14.5535 12.3855C14.4266 12.4353 14.4049 12.5042 14.4617 12.6069C14.8191 13.2389 15.1849 13.8644 15.6042 14.4643C15.6184 14.4878 15.6378 14.5082 15.6609 14.5239C15.684 14.5397 15.7104 14.5505 15.7383 14.5557C15.7661 14.5609 15.7948 14.5602 15.8224 14.5539C15.8499 14.5475 15.8758 14.5356 15.8982 14.5188C16.0652 14.4322 16.2656 14.4114 16.3675 14.2429M16.9505 15.2053C16.8669 15.2406 16.7684 15.292 16.6615 15.3272C16.3892 15.4187 16.3525 15.5309 16.5396 15.7571C16.9655 16.2736 17.4148 16.7708 17.8758 17.2633C18.1013 17.5055 18.2266 17.2889 18.3769 17.1927C18.5273 17.0964 18.6191 16.9922 18.4487 16.8157C18.0013 16.345 17.5788 15.853 17.1826 15.3417C17.1309 15.2759 17.0874 15.1941 16.9521 15.2037M21.447 19.4559C21.457 19.3789 21.4086 19.3484 21.3651 19.3164C20.7137 18.8624 20.104 18.3636 19.4927 17.8632C19.2538 17.6675 19.1386 17.9851 18.9782 18.0765C18.8179 18.1679 18.9498 18.2561 19.035 18.3267C19.6326 18.8277 20.2736 19.279 20.9509 19.6757C20.9983 19.6974 21.0501 19.7089 21.1026 19.7093C21.1551 19.7098 21.2071 19.6991 21.2549 19.6782C21.3027 19.6572 21.3451 19.6265 21.3791 19.5881C21.4132 19.5497 21.4381 19.5045 21.452 19.4559M13.7919 9.49193C13.7125 9.49629 13.635 9.51724 13.5649 9.55333C13.4948 9.58942 13.4338 9.63978 13.386 9.70088C13.3383 9.76199 13.3051 9.83237 13.2886 9.9071C13.2722 9.98183 13.2729 10.0591 13.2908 10.1335C13.4578 10.5249 13.6349 10.9099 13.7919 11.3012C13.8721 11.4969 14.0107 11.5081 14.1627 11.4071C14.3147 11.306 14.6838 11.3526 14.5368 11.0093C14.3409 10.5516 14.1426 10.0945 13.9422 9.6379C13.9138 9.57374 13.9071 9.48552 13.7752 9.49354M25.4457 21.2476C25.0682 21.1128 24.6907 20.9813 24.3133 20.845C23.7446 20.633 23.1934 20.3799 22.6646 20.0879C22.4559 19.9756 22.3306 20.0783 22.2471 20.221C22.1402 20.3958 22.3456 20.3975 22.4358 20.4408C23.1615 20.7744 23.9218 21.0336 24.7041 21.2139C24.9389 21.3109 25.2022 21.3235 25.4457 21.2492" fill="#E7EEF7"/>
<path id="Caminho 63420" d="M7.35484 15.2342C6.8709 15.2505 6.40262 15.403 6.00813 15.6727C5.61365 15.9424 5.31033 16.3174 5.13582 16.7511C4.96132 17.1849 4.92332 17.6583 5.02655 18.1127C5.12977 18.567 5.36966 18.9822 5.71646 19.3067C6.06325 19.6313 6.50167 19.8509 6.97728 19.9382C7.45289 20.0256 7.94476 19.9769 8.39181 19.7982C8.83887 19.6195 9.22143 19.3187 9.492 18.933C9.76256 18.5474 9.90922 18.0939 9.91378 17.6289C9.9123 17.3096 9.84462 16.9937 9.71469 16.6997C9.58475 16.4057 9.39516 16.1395 9.15697 15.9166C8.91878 15.6936 8.63677 15.5185 8.32736 15.4014C8.01795 15.2842 7.68736 15.2274 7.35484 15.2342Z" fill="#E7EEF7"/>
<path id="Caminho 63421" d="M25.0235 21.868L22.8822 21.0194L20.6005 20.0394L18.2721 18.4739L16.6886 16.7095L14.9198 14.1993L13.2745 11.8206L12.6849 10.1877L12.1253 9.97278L11.0346 10.1444L9.0068 10.9913L5.42228 11.7644L2.62783 12.1895L1.79266 17.7008L0.671875 26.165L24.7897 25.9084L24.8365 24.4472L25.3175 22.6427L25.0235 21.868ZM7.37656 21.0194C6.67899 21.0002 6.00272 20.7843 5.432 20.3987C4.86129 20.013 4.42136 19.4746 4.16702 18.8505C3.91268 18.2265 3.85517 17.5444 4.00165 16.8891C4.14814 16.2339 4.49215 15.6346 4.99082 15.1658C5.48949 14.697 6.12079 14.3794 6.80606 14.2527C7.49133 14.126 8.20028 14.1956 8.8446 14.4531C9.48892 14.7105 10.0401 15.1443 10.4295 15.7004C10.819 16.2565 11.0294 16.9104 11.0346 17.5805C11.0201 18.501 10.6276 19.3788 9.94251 20.0228C9.25745 20.6669 8.33525 21.025 7.37656 21.0194Z" fill="#E7EEF7"/>
</g>
</svg>
