<svg width="24" height="24" viewBox="0 0 24 24" fill="none" xmlns="http://www.w3.org/2000/svg">
<g id="ic--pet">
<g id="Group 5">
<path id="Caminho 63403" d="M11.5236 4.45311C11.5236 4.93828 11.384 5.41257 11.1224 5.81598C10.8607 6.21939 10.4889 6.53381 10.0538 6.71948C9.61876 6.90515 9.14003 6.95373 8.67817 6.85908C8.21631 6.76442 7.79207 6.53079 7.45908 6.18771C7.1261 5.84464 6.89934 5.40754 6.80747 4.93168C6.7156 4.45583 6.76275 3.96259 6.94296 3.51434C7.12317 3.0661 7.42834 2.68297 7.81989 2.41342C8.21143 2.14387 8.67176 2 9.14267 2C9.77414 2 10.3797 2.25845 10.8263 2.7185C11.2728 3.17854 11.5236 3.8025 11.5236 4.45311Z" fill="#0C244E"/>
<path id="Caminho 63408" d="M6.7619 9.45311C6.7619 9.93828 6.62226 10.4126 6.36064 10.816C6.09902 11.2194 5.72717 11.5338 5.2921 11.7195C4.85704 11.9051 4.37831 11.9537 3.91645 11.8591C3.45459 11.7644 3.03035 11.5308 2.69737 11.1877C2.36438 10.8446 2.13762 10.4075 2.04575 9.93168C1.95388 9.45583 2.00103 8.96259 2.18124 8.51434C2.36145 8.0661 2.66662 7.68297 3.05817 7.41342C3.44971 7.14387 3.91004 7 4.38095 7C5.01242 7 5.61803 7.25845 6.06454 7.7185C6.51106 8.17854 6.7619 8.8025 6.7619 9.45311Z" fill="#0C244E"/>
<path id="Caminho 63409" d="M22.0002 9.45311C22.0002 9.93828 21.8605 10.4126 21.5989 10.816C21.3373 11.2194 20.9654 11.5338 20.5304 11.7195C20.0953 11.9051 19.6166 11.9537 19.1547 11.8591C18.6929 11.7644 18.2686 11.5308 17.9356 11.1877C17.6027 10.8446 17.3759 10.4075 17.284 9.93168C17.1922 9.45583 17.2393 8.96259 17.4195 8.51434C17.5997 8.0661 17.9049 7.68297 18.2964 7.41342C18.688 7.14387 19.1483 7 19.6192 7C20.2507 7 20.8563 7.25845 21.3028 7.7185C21.7493 8.17854 22.0002 8.8025 22.0002 9.45311Z" fill="#0C244E"/>
<path id="Caminho 63407" d="M17.2385 4.45311C17.2385 4.93828 17.0988 5.41257 16.8372 5.81598C16.5756 6.21939 16.2037 6.53381 15.7687 6.71948C15.3336 6.90515 14.8549 6.95373 14.393 6.85908C13.9312 6.76442 13.5069 6.53079 13.1739 6.18771C12.8409 5.84464 12.6142 5.40754 12.5223 4.93168C12.4304 4.45583 12.4776 3.96259 12.6578 3.51434C12.838 3.0661 13.1432 2.68297 13.5347 2.41342C13.9263 2.14387 14.3866 2 14.8575 2C15.489 2 16.0946 2.25845 16.5411 2.7185C16.9876 3.17854 17.2385 3.8025 17.2385 4.45311Z" fill="#0C244E"/>
<path id="Caminho 63406" d="M17.5685 14.9403C16.7418 13.9336 16.0439 13.0738 15.2066 12.0705C14.78 11.4997 14.2044 11.05 13.5392 10.7676C13.4374 10.7291 13.3323 10.6995 13.2251 10.6792C12.979 10.6463 12.7306 10.6333 12.4823 10.6402C12.2305 10.6321 11.9784 10.6486 11.73 10.6896C11.6228 10.7099 11.5177 10.7395 11.4159 10.7779C10.7523 11.0628 10.1773 11.5121 9.74848 12.0808C8.92185 13.0876 8.22393 13.9473 7.38666 14.9506C6.13844 16.2443 4.60444 17.6758 4.89022 19.68C5.0063 20.2246 5.27514 20.7273 5.66698 21.1325C6.05882 21.5377 6.55837 21.8296 7.11033 21.9759C7.80589 22.1239 10.0248 21.5408 12.3878 21.5408H12.559C14.9209 21.5408 17.141 22.1147 17.8365 21.9759C18.3877 21.8282 18.8865 21.5358 19.2781 21.1309C19.6697 20.7259 19.9391 20.2239 20.0566 19.68C20.3519 17.6654 18.8179 16.2363 17.5708 14.9403H17.5685Z" fill="#0C244E"/>
</g>
</g>
</svg>
