<svg width="31" height="31" viewBox="0 0 31 31" fill="none" xmlns="http://www.w3.org/2000/svg">
<g id="Group 24">
<path id="Caminho 70647" d="M0.916992 18.9756C0.916992 20.8996 3.66895 21.9168 6.38574 21.9168C9.10254 21.9168 11.8545 20.9069 11.8545 18.9785C11.8545 15.119 0.916992 15.119 0.916992 18.9756Z" fill="#E7EEF7"/>
<path id="Caminho 70648" d="M6.38574 22.5631C4.4614 22.6669 2.55818 22.0335 0.937277 20.7498C0.937277 20.7931 0.916992 20.8315 0.916992 20.8766C0.916992 23.0903 3.66895 24.2498 6.38574 24.2498C9.10254 24.2498 11.8545 23.0903 11.8545 20.8766C11.8545 20.8315 11.8369 20.7931 11.8342 20.7498C10.2133 22.0335 8.31009 22.6669 6.38574 22.5631Z" fill="#E7EEF7"/>
<path id="Caminho 70649" d="M6.38574 25.4587C4.4614 25.5279 2.55818 25.1056 0.937277 24.2498C0.937277 24.2798 0.916992 24.3043 0.916992 24.3343C0.916992 25.8112 3.66895 26.5831 6.38574 26.5831C9.10254 26.5831 11.8545 25.8101 11.8545 24.3343C11.8545 24.3043 11.8369 24.2787 11.8342 24.2498C10.2133 25.1056 8.31009 25.5279 6.38574 25.4587Z" fill="#E7EEF7"/>
<path id="Caminho 70650" d="M6.38574 28.3969C4.4614 28.5006 2.55818 27.8672 0.937277 26.5835C0.937277 26.6269 0.916992 26.6653 0.916992 26.7103C0.916992 28.9257 3.66895 30.0835 6.38574 30.0835C9.10254 30.0835 11.8545 28.9241 11.8545 26.7103C11.8545 26.6653 11.8369 26.6269 11.8342 26.5835C10.2133 27.8672 8.31009 28.5006 6.38574 28.3969Z" fill="#E7EEF7"/>
<path id="Caminho 70651" d="M16.1527 5.58329L23.3675 5.58329L25.1415 2.04444C25.2014 1.92566 25.2297 1.79358 25.2238 1.6608C25.218 1.52801 25.178 1.39894 25.1078 1.28588C25.0377 1.17281 24.9396 1.07952 24.8229 1.01489C24.7063 0.95025 24.575 0.916423 24.4415 0.916627L15.0679 0.916627C14.9348 0.916817 14.8038 0.950857 14.6876 1.01552C14.5714 1.08018 14.4737 1.17333 14.4037 1.28613C14.3338 1.39893 14.2939 1.52765 14.2879 1.66008C14.2819 1.79252 14.3099 1.92429 14.3694 2.0429L16.1527 5.58329Z" fill="#E7EEF7"/>
<path id="Caminho 70652" d="M24.0863 6.74976L15.0956 6.74976C13.6517 7.59575 12.4018 8.72837 11.4251 10.0758C10.4485 11.4232 9.76628 12.9561 9.42188 14.5771C11.9993 15.2305 13.5971 16.6688 13.5971 18.572V27.4386C13.6 27.9507 13.4828 28.4564 13.2547 28.9164H24.8363C26.2267 28.9149 27.5597 28.3696 28.543 27.4001C29.5263 26.4306 30.0796 25.1161 30.0816 23.7449V17.0942C30.0646 15.0079 29.5043 12.9608 28.4544 11.1495C27.4046 9.33806 25.9005 7.82307 24.0863 6.74976ZM18.8424 17.0942H20.3409C20.6409 17.0866 20.9394 17.1383 21.2189 17.2463C21.4983 17.3543 21.753 17.5163 21.9679 17.7229C22.1829 17.9295 22.3537 18.1764 22.4703 18.4492C22.587 18.7219 22.647 19.0149 22.647 19.3109C22.647 19.6068 22.587 19.8998 22.4703 20.1726C22.3537 20.4453 22.1829 20.6922 21.9679 20.8988C21.753 21.1054 21.4983 21.2674 21.2189 21.3754C20.9394 21.4834 20.6409 21.5351 20.3409 21.5275V22.2657C20.3409 22.4617 20.262 22.6496 20.1214 22.7882C19.9809 22.9267 19.7904 23.0046 19.5917 23.0046C19.393 23.0046 19.2024 22.9267 19.0619 22.7882C18.9214 22.6496 18.8424 22.4617 18.8424 22.2657V21.5275H17.3425C17.1496 21.5191 16.9674 21.4375 16.8339 21.2999C16.7004 21.1622 16.6259 20.9791 16.6259 20.7886C16.6259 20.5982 16.7004 20.415 16.8339 20.2774C16.9674 20.1398 17.1496 20.0582 17.3425 20.0498H20.3394C20.5381 20.0498 20.7287 19.9719 20.8692 19.8333C21.0097 19.6948 21.0886 19.5068 21.0886 19.3109C21.0886 19.1149 21.0097 18.927 20.8692 18.7884C20.7287 18.6498 20.5381 18.572 20.3394 18.572H18.841C18.2548 18.5571 17.6978 18.3171 17.2885 17.903C16.8793 17.4889 16.6503 16.9335 16.6503 16.3553C16.6503 15.7771 16.8793 15.2217 17.2885 14.8076C17.6978 14.3935 18.2548 14.1535 18.841 14.1386V13.399C18.841 13.2031 18.9199 13.0151 19.0604 12.8766C19.2009 12.738 19.3915 12.6601 19.5902 12.6601C19.7889 12.6601 19.9795 12.738 20.12 12.8766C20.2605 13.0151 20.3394 13.2031 20.3394 13.399V14.1386H21.8379C22.0366 14.1386 22.2271 14.2165 22.3677 14.3551C22.5082 14.4936 22.5871 14.6816 22.5871 14.8775C22.5871 15.0735 22.5082 15.2614 22.3677 15.4C22.2271 15.5386 22.0366 15.6164 21.8379 15.6164H18.841C18.648 15.6249 18.4658 15.7064 18.3323 15.8441C18.1988 15.9817 18.1243 16.1648 18.1243 16.3553C18.1243 16.5458 18.1988 16.7289 18.3323 16.8665C18.4658 17.0042 18.6495 17.0857 18.8424 17.0942Z" fill="#E7EEF7"/>
</g>
</svg>
