<svg width="24" height="24" viewBox="0 0 24 24" fill="none" xmlns="http://www.w3.org/2000/svg">
<g id="ic-baby">
<path id="path3983" d="M2.49025 9.63538H1.97436C1.45073 9.63538 0.94854 9.85792 0.578276 10.254C0.208012 10.6501 0 11.1872 0 11.7474C0 12.3075 0.208012 12.8447 0.578276 13.2407C0.94854 13.6368 1.45073 13.8593 1.97436 13.8593H2.39188C2.86731 16.1917 4.08222 18.2764 5.83059 19.7599C7.57896 21.2434 9.75318 22.0344 11.9846 21.9988C14.2158 22.0339 16.3898 21.2425 18.1379 19.7588C19.886 18.2751 21.1007 16.1904 21.5761 13.8581H22.0256C22.5493 13.8581 23.0515 13.6356 23.4217 13.2395C23.792 12.8434 24 12.3063 24 11.7461C24 11.186 23.792 10.6488 23.4217 10.2528C23.0515 9.85668 22.5493 9.63415 22.0256 9.63415H21.4754C20.9679 7.62091 19.9023 5.81931 18.4188 4.46662C16.9354 3.11393 15.1037 2.27359 13.1651 2.05627C13.4143 2.42539 13.5495 2.86862 13.5517 3.32396V5.45917C13.5392 6.0171 13.3232 6.5477 12.9499 6.93758C12.5766 7.32745 12.0756 7.54569 11.5539 7.54569C11.0322 7.54569 10.5311 7.32745 10.1578 6.93758C9.78452 6.5477 9.56856 6.0171 9.55608 5.45917L9.56179 4.17069C9.5665 3.9087 9.66569 3.65883 9.83862 3.47325C10.0454 3.21185 10.3407 3.04897 10.6597 3.02052C10.9787 2.99206 11.2952 3.10033 11.5396 3.32149C11.784 3.54266 11.9362 3.85862 11.9628 4.19985C11.9894 4.54108 11.8882 4.87961 11.6814 5.14102C11.6129 5.22783 11.5149 5.28194 11.409 5.29147C11.3031 5.30099 11.1981 5.26514 11.1169 5.1918C11.0358 5.11846 10.9852 5.01363 10.9763 4.90039C10.9674 4.78714 11.0009 4.67476 11.0694 4.58795C11.1046 4.54482 11.1313 4.49462 11.148 4.44026C11.1648 4.3859 11.1711 4.32851 11.1667 4.27147C11.1624 4.21444 11.1474 4.1589 11.1226 4.10818C11.0978 4.05745 11.0638 4.01256 11.0225 3.97614C10.9375 3.91465 10.8366 3.88326 10.734 3.88633C10.6314 3.8894 10.5323 3.9268 10.4506 3.99328C10.4225 4.01093 10.3996 4.03674 10.3847 4.0677C10.3697 4.09866 10.3632 4.13352 10.366 4.16826V5.46406C10.366 5.80384 10.4921 6.12972 10.7167 6.36998C10.9413 6.61024 11.246 6.74519 11.5636 6.74519C11.8812 6.74519 12.1859 6.61024 12.4105 6.36998C12.6351 6.12972 12.7613 5.80384 12.7613 5.46406V3.32885C12.7635 3.15655 12.734 2.98545 12.6744 2.82537C12.6148 2.66528 12.5262 2.51933 12.4138 2.3959C12.3014 2.27247 12.1673 2.17399 12.0193 2.10605C11.8712 2.03811 11.7121 2.00207 11.551 2C9.47473 2.06414 7.47282 2.84111 5.84115 4.21609C4.20948 5.59108 3.03464 7.49111 2.49025 9.63538ZM7.98094 9.18631C8.22015 9.18703 8.4538 9.2636 8.65237 9.40629C8.85094 9.54898 9.00553 9.75142 9.0966 9.98804C9.18767 10.2247 9.21115 10.4848 9.16407 10.7357C9.11698 10.9866 9.00145 11.2169 8.83206 11.3976C8.66267 11.5783 8.44702 11.7012 8.21235 11.7509C7.97768 11.8005 7.73452 11.7747 7.51358 11.6766C7.29263 11.5785 7.10382 11.4126 6.97099 11.1997C6.83816 10.9869 6.76727 10.7368 6.76727 10.4809C6.76878 10.1374 6.89724 9.80854 7.12462 9.566C7.35199 9.32346 7.65983 9.18695 7.98094 9.18631ZM15.9813 9.18631C16.2206 9.18655 16.4545 9.26269 16.6534 9.40509C16.8522 9.54749 17.0072 9.74974 17.0986 9.98632C17.19 10.2229 17.2138 10.4832 17.167 10.7342C17.1202 10.9853 17.0048 11.2158 16.8355 11.3968C16.6662 11.5777 16.4506 11.7009 16.2159 11.7507C15.9811 11.8006 15.7378 11.7748 15.5168 11.6768C15.2957 11.5788 15.1068 11.4129 14.9738 11.2C14.8409 10.9871 14.7699 10.7369 14.7699 10.4809C14.7714 10.1366 14.9005 9.80692 15.1289 9.56424C15.3573 9.32157 15.6663 9.18566 15.9882 9.18631H15.9813ZM8.3527 15.198H15.5878C15.6934 15.1986 15.7945 15.2438 15.869 15.3238C15.9436 15.4038 15.9856 15.5121 15.9859 15.625C15.9463 16.1185 15.7809 16.5909 15.5075 16.9907C15.2342 17.3906 14.8636 17.7024 14.4359 17.8924C13.679 18.3243 12.8387 18.5622 11.9811 18.5874C11.124 18.5621 10.284 18.3242 9.52748 17.8924C9.09942 17.7026 8.72824 17.3909 8.45434 16.9911C8.18044 16.5913 8.01432 16.1188 7.97407 15.625C7.97481 15.5151 8.01479 15.4097 8.08581 15.3303C8.15684 15.2509 8.25354 15.2036 8.35613 15.198H8.3527Z" fill="#0C244E"/>
</g>
</svg>
