<svg width="25" height="21" viewBox="0 0 25 21" fill="none" xmlns="http://www.w3.org/2000/svg">
<path id="ic-share" d="M23.1541 9.32195L14.9411 1.63995C14.9003 1.59424 14.8499 1.55802 14.7936 1.53384C14.7373 1.50965 14.6764 1.49809 14.6151 1.49995C14.3591 1.51195 14.0331 1.69195 14.0331 1.96595V5.81895C14.0315 5.87703 14.0096 5.93272 13.9713 5.97636C13.9329 6.02001 13.8805 6.04887 13.8231 6.05795C7.72312 6.99295 4.26112 10.639 2.29712 15.299C1.71384 16.7395 1.27828 18.2355 0.997117 19.764C0.950117 20.014 1.28812 20.247 1.44512 20.049C2.34805 18.8973 3.37414 17.8477 4.50512 16.919C7.13046 14.8125 10.4184 13.7064 13.7831 13.798C13.8501 13.8083 13.9113 13.8419 13.956 13.893C14.0006 13.944 14.0258 14.0092 14.0271 14.077V17.86C14.0369 17.9531 14.0726 18.0416 14.1302 18.1154C14.1878 18.1892 14.265 18.2453 14.353 18.2774C14.4409 18.3095 14.5361 18.3163 14.6277 18.2969C14.7193 18.2776 14.8037 18.2329 14.8711 18.1679L23.1411 10.352C23.2072 10.2893 23.2592 10.2132 23.2937 10.1289C23.3281 10.0446 23.3443 9.95397 23.3411 9.86295C23.3496 9.66544 23.2828 9.47207 23.1541 9.32195Z" stroke="white" stroke-width="1.5"/>
</svg>
