<svg width="24" height="24" viewBox="0 0 24 24" fill="none" xmlns="http://www.w3.org/2000/svg">
<path fill-rule="evenodd" clip-rule="evenodd" d="M12 22C17.5228 22 22 17.5228 22 12C22 6.47715 17.5228 2 12 2C6.47715 2 2 6.47715 2 12C2 17.5228 6.47715 22 12 22ZM12 24C18.6274 24 24 18.6274 24 12C24 5.37258 18.6274 0 12 0C5.37258 0 0 5.37258 0 12C0 18.6274 5.37258 24 12 24Z" fill="black"/>
<path d="M14.5474 10.3231L14.0552 11.4119H7.4082L7.8109 10.3231H14.5474ZM13.5978 12.4062L13.0559 13.5199H7.4082L7.8109 12.4062H13.5978ZM15.84 7.60369L15.0446 9.30397C14.912 9.21117 14.7512 9.11008 14.5623 9.0007C14.3767 8.88801 14.1629 8.79355 13.921 8.71732C13.6824 8.63778 13.4172 8.598 13.1255 8.598C12.6648 8.598 12.2638 8.71401 11.9224 8.94602C11.581 9.17802 11.3159 9.53929 11.127 10.0298C10.9413 10.5204 10.8485 11.1501 10.8485 11.919C10.8485 12.6946 10.9413 13.326 11.127 13.8132C11.3159 14.2971 11.581 14.6534 11.9224 14.8821C12.2638 15.1075 12.6648 15.2202 13.1255 15.2202C13.4172 15.2202 13.6824 15.182 13.921 15.1058C14.1596 15.0296 14.3684 14.9384 14.5474 14.8324C14.7297 14.7263 14.8822 14.6285 15.0048 14.5391L15.8102 16.2393C15.4489 16.5376 15.0396 16.763 14.5822 16.9155C14.1248 17.0646 13.6393 17.1392 13.1255 17.1392C12.2572 17.1392 11.4882 16.9337 10.8187 16.5227C10.1525 16.1084 9.6305 15.5135 9.25266 14.7379C8.87482 13.959 8.6859 13.0194 8.6859 11.919C8.6859 10.822 8.87482 9.88233 9.25266 9.10014C9.6305 8.31794 10.1525 7.71969 10.8187 7.30539C11.4882 6.88778 12.2572 6.67897 13.1255 6.67897C13.6592 6.67897 14.153 6.75852 14.6071 6.91761C15.0611 7.0767 15.4721 7.30539 15.84 7.60369Z" fill="black"/>
</svg>
