<svg width="24" height="24" viewBox="0 0 24 24" fill="none" xmlns="http://www.w3.org/2000/svg">
<path fill-rule="evenodd" clip-rule="evenodd" d="M12 22C17.5228 22 22 17.5228 22 12C22 6.47715 17.5228 2 12 2C6.47715 2 2 6.47715 2 12C2 17.5228 6.47715 22 12 22ZM12 24C18.6274 24 24 18.6274 24 12C24 5.37258 18.6274 0 12 0C5.37258 0 0 5.37258 0 12C0 18.6274 5.37258 24 12 24Z" fill="black"/>
<path d="M8 12.0031C8.0174 12.0019 11.9504 14.4808 12.0019 14.5019C12.0135 14.4948 15.9811 11.9975 16 12C15.9904 12.015 12.0046 18 12.0019 18C11.9992 18 8 12.0031 8 12.0031Z" fill="black"/>
<path d="M12 5L16 10.9077L12 13L8 10.9077L12 5Z" fill="black"/>
</svg>
