<svg width="24" height="24" viewBox="0 0 24 24" fill="none" xmlns="http://www.w3.org/2000/svg">
<g id="ic-erase" clip-path="url(#clip0_175_23585)">
<path id="Vector" d="M10.1374 19.509H15.5479C15.9222 19.509 16.2284 19.2022 16.2284 18.8273C16.2284 18.4524 15.9222 18.1372 15.5479 18.1372H11.5156L10.1374 19.509ZM18.083 19.509H22.3194C22.6937 19.509 23 19.2022 23 18.8273C23 18.4524 22.6937 18.1372 22.3194 18.1372H18.083C17.7086 18.1372 17.4024 18.4524 17.4024 18.8273C17.4024 19.2022 17.7086 19.509 18.083 19.509ZM1.9877 15.7173L5.27991 19.0063C6.56447 20.2843 8.00215 20.3355 9.21014 19.1256L17.4109 10.9031C18.1681 10.1533 18.1595 9.07114 17.3854 8.29576L12.681 3.59235C11.9069 2.81697 10.835 2.79992 10.0778 3.55826L1.87711 11.7722C0.669112 12.9907 0.711647 14.4306 1.9877 15.7173ZM2.9575 14.7459C2.30246 14.0813 2.26843 13.323 2.88944 12.6924L10.9881 4.58075C11.2093 4.35921 11.5156 4.35921 11.7282 4.57222L16.4071 9.25859C16.6197 9.47161 16.6112 9.76984 16.3986 9.98286L8.2914 18.1031C7.67038 18.7336 6.91325 18.6995 6.24971 18.0349L2.9575 14.7459ZM3.22972 11.3547L9.62697 17.7708L10.4777 16.9187L4.09743 10.5281L3.22972 11.3547Z" fill="#0C244E"/>
<path id="Vector (Stroke)" fill-rule="evenodd" clip-rule="evenodd" d="M9.41005 19.8092L11.3909 17.8373H15.5471C16.0923 17.8373 16.5277 18.2922 16.5277 18.8275C16.5277 19.3676 16.0875 19.8092 15.5471 19.8092H9.41005ZM1.77391 15.9287C1.09894 15.2482 0.722126 14.498 0.700229 13.7279C0.678239 12.9545 1.0157 12.2144 1.66328 11.5612L1.66403 11.5604L9.86476 3.3465C10.2959 2.91465 10.8296 2.69278 11.3765 2.70038C11.9225 2.70798 12.4565 2.94381 12.8926 3.38058L17.5967 8.0838C18.0337 8.52149 18.2665 9.05919 18.2716 9.60643C18.2766 10.154 18.0535 10.688 17.622 11.1157C17.6218 11.116 17.6215 11.1162 17.6212 11.1165L9.42177 19.3376C8.77331 19.9871 8.03542 20.3235 7.26344 20.2989C6.49537 20.2746 5.74658 19.8947 5.06754 19.2191L1.77391 15.9287ZM1.87633 11.7724L10.0766 3.55804C10.8338 2.7997 11.9061 2.81716 12.6803 3.59254L17.3846 8.29595C18.1587 9.07134 18.1673 10.1535 17.4101 10.9033L9.20936 19.1258C8.00138 20.3357 6.56369 20.2845 5.27913 19.0064L1.98692 15.7175C0.71087 14.4308 0.668335 12.9909 1.87633 11.7724ZM2.88866 12.6926C2.26765 13.3232 2.30168 14.0815 2.95672 14.7461L6.24893 18.0351C6.91248 18.6997 7.6696 18.7338 8.29062 18.1032L9.12462 17.2679L3.72626 11.8537L2.88866 12.6926ZM4.57306 11.0055L10.9873 4.58094C11.2085 4.3594 11.5148 4.3594 11.7275 4.57242L16.4063 9.25879C16.6189 9.47181 16.6104 9.77003 16.3978 9.98305L9.97501 16.4162L4.57306 11.0055ZM9.97501 15.9916L4.99698 11.0055L11.1996 4.7929C11.2601 4.7323 11.3186 4.71407 11.363 4.71371C11.4072 4.71335 11.4612 4.73036 11.5152 4.78439L16.194 9.47073C16.2475 9.52431 16.2623 9.57551 16.2616 9.61594C16.2609 9.65768 16.2431 9.71342 16.1855 9.77109C16.1855 9.7711 16.1855 9.77108 16.1855 9.77109L9.97501 15.9916ZM3.72611 12.2784L3.1024 12.9031C3.10217 12.9034 3.10193 12.9036 3.1017 12.9039C2.83718 13.1727 2.73481 13.4432 2.74397 13.6957C2.75329 13.9523 2.87961 14.2402 3.16958 14.5347C3.16985 14.535 3.17011 14.5352 3.17038 14.5355L6.46096 17.8229C6.75576 18.1181 7.04326 18.2458 7.29668 18.255C7.54552 18.2641 7.81242 18.1613 8.07688 17.8927L8.07832 17.8913L8.70083 17.2678L3.72611 12.2784ZM11.5148 18.1373H15.5471C15.9214 18.1373 16.2277 18.4526 16.2277 18.8275C16.2277 19.2024 15.9214 19.5092 15.5471 19.5092H10.1367L11.5148 18.1373ZM22.3187 19.8092H18.0822C17.5417 19.8092 17.1016 19.3676 17.1016 18.8275C17.1016 18.2923 17.5369 17.8373 18.0822 17.8373H22.3187C22.8639 17.8373 23.2992 18.2922 23.2992 18.8275C23.2992 19.3676 22.8591 19.8092 22.3187 19.8092ZM22.3187 19.5092H18.0822C17.7078 19.5092 17.4016 19.2024 17.4016 18.8275C17.4016 18.4526 17.7078 18.1373 18.0822 18.1373H22.3187C22.693 18.1373 22.9992 18.4526 22.9992 18.8275C22.9992 19.2024 22.693 19.5092 22.3187 19.5092Z" fill="#0C244E"/>
</g>
<defs>
<clipPath id="clip0_175_23585">
<rect width="24" height="24" fill="white"/>
</clipPath>
</defs>
</svg>
