<svg width="24" height="24" viewBox="0 0 24 24" fill="none" xmlns="http://www.w3.org/2000/svg">
<g id="person.crop.circle.dashed" clip-path="url(#clip0_3755_343)">
<g id="Group">
<path id="Vector" d="M2.00391 11.9531C2.00391 10.8867 2.16797 9.85547 2.47266 8.90625L0.632812 8.13281C0.234375 9.33984 0 10.6172 0 11.9531C0 13.2773 0.234375 14.5664 0.644531 15.7734L2.47266 15C2.16797 14.0508 2.00391 13.0195 2.00391 11.9531ZM7.39453 3.07031L6.64453 1.26562C4.32422 2.42578 2.41406 4.33594 1.25391 6.65625L3.08203 7.41797C4.01953 5.55469 5.54297 4.03125 7.39453 3.07031ZM11.9414 1.99219C13.0078 1.99219 14.0391 2.15625 15.0117 2.47266L15.7617 0.644531C14.5547 0.234375 13.2656 0 11.9414 0C10.6172 0 9.31641 0.234375 8.10938 0.644531L8.88281 2.47266C9.84375 2.15625 10.875 1.99219 11.9414 1.99219ZM20.8242 7.40625L22.6406 6.65625C21.4688 4.33594 19.5586 2.42578 17.2383 1.25391L16.4883 3.07031C18.3398 4.01953 19.875 5.54297 20.8242 7.40625ZM21.9141 11.9531C21.9141 13.0195 21.75 14.0508 21.4453 15.0117L23.2617 15.7852C23.6719 14.5781 23.9062 13.2773 23.9062 11.9531C23.9062 10.6172 23.6719 9.32812 23.2617 8.12109L21.4336 8.89453C21.75 9.85547 21.9141 10.8867 21.9141 11.9531ZM11.9531 23.9062C16.5469 23.9062 20.6484 21.1992 22.6406 17.25L20.8242 16.5C20.4141 17.2734 19.9336 17.9883 19.3594 18.6211C18.1875 17.2383 15.4922 15.9375 11.9531 15.9375C8.41406 15.9375 5.71875 17.2383 4.54688 18.6211C3.98438 17.9766 3.48047 17.2734 3.08203 16.5L1.26562 17.25C3.25781 21.1992 7.35938 23.9062 11.9531 23.9062ZM11.9531 13.9453C14.2031 13.9688 15.9727 12.0469 15.9727 9.52734C15.9727 7.16016 14.2031 5.20312 11.9531 5.20312C9.70312 5.20312 7.92188 7.16016 7.93359 9.52734C7.94531 12.0469 9.70312 13.9219 11.9531 13.9453Z" fill="#0C244E"/>
</g>
</g>
<defs>
<clipPath id="clip0_3755_343">
<rect width="23.9062" height="23.918" fill="white"/>
</clipPath>
</defs>
</svg>
