<svg width="60" height="60" viewBox="0 0 60 60" fill="none" xmlns="http://www.w3.org/2000/svg">
<rect x="1" y="1" width="58" height="58" rx="14" stroke="#0C244E" stroke-width="2" stroke-dasharray="10 10"/>
<path d="M22.5311 19.2096L18.4112 23.9954C17.7095 24.7886 17.8336 26.2346 19.3488 26.2346H21.5776V40.6362C21.619 41.3901 22.3825 42 23.3837 42H25.6164C26.6163 42 27.3799 41.3901 27.4212 40.6362V26.2346H29.65C31.1668 26.2346 31.291 24.7886 30.5876 23.9954L26.47 19.2096C25.7286 18.3732 25.1167 17.995 24.4895 18.0001C23.8596 18.0064 23.2566 18.3884 22.5311 19.2096Z" fill="#0C244E"/>
<path d="M33.5299 40.7904L29.412 36.0041C28.7087 35.2108 28.8341 33.7648 30.3496 33.7648H32.5781V19.3635C32.6194 18.6099 33.3833 18 34.3829 18H36.6169C37.6168 18 38.3803 18.6099 38.4217 19.3635V33.7648H40.6504C42.1656 33.7648 42.2914 35.2108 41.5881 36.0041L37.4705 40.7904C36.7294 41.6265 36.1175 42.005 35.4883 42C34.8608 41.993 34.2574 41.6116 33.5299 40.7904Z" fill="#0C244E"/>
</svg>
