<svg width="20" height="24" viewBox="0 0 20 24" fill="none" xmlns="http://www.w3.org/2000/svg">
<g id="vector">
<path id="Vector" d="M9.99752 19.7252C10.4008 19.7252 10.7712 19.5567 11.0593 19.2551C11.3391 18.9536 11.4955 18.5456 11.4955 18.111C11.4955 17.6764 11.3391 17.2773 11.0593 16.9669C10.7794 16.6653 10.4008 16.4968 10.0058 16.4968C9.18271 16.4968 8.50781 17.2241 8.50781 18.111C8.50781 18.9979 9.17448 19.7252 10.0058 19.7252H9.99752Z" fill="#0C244E"/>
<path id="Vector_2" d="M15.0998 11.5743C15.0998 11.5743 15.0751 11.5743 15.0669 11.5743C14.2438 11.592 13.5854 12.3282 13.6019 13.224V18.1907C13.6101 18.6253 13.7747 19.0244 14.0628 19.3171C14.3508 19.6186 14.7294 19.7517 15.1245 19.7606C15.5278 19.7517 15.8982 19.5743 16.1698 19.2639C16.4414 18.9535 16.5895 18.5455 16.5813 18.1109V13.1441C16.5648 12.2661 15.8982 11.5654 15.0833 11.5654L15.0998 11.5743Z" fill="#0C244E"/>
<path id="Vector_3" d="M9.99794 11.6194C9.1749 11.6194 8.5 12.3378 8.5 13.2336C8.5 14.1294 9.16667 14.8478 9.99794 14.8478C10.8292 14.8478 11.4959 14.1205 11.4959 13.2336C11.4959 12.3467 10.821 11.6194 9.99794 11.6194Z" fill="#0C244E"/>
<path id="Vector_4" d="M4.89638 11.6194C4.07333 11.6194 3.39844 12.3378 3.39844 13.2336C3.39844 14.1294 4.07333 14.8478 4.89638 14.8478C5.71942 14.8478 6.39432 14.1205 6.39432 13.2336C6.39432 12.3467 5.72766 11.6194 4.89638 11.6194Z" fill="#0C244E"/>
<path id="Vector_5" d="M4.89638 19.7252C5.71942 19.7252 6.39432 19.0068 6.39432 18.111C6.39432 17.2241 5.71942 16.4968 4.89638 16.4968C4.07333 16.4968 3.39844 17.2241 3.39844 18.111C3.39844 18.9979 4.07333 19.7252 4.89638 19.7252Z" fill="#0C244E"/>
<path id="Vector_6" d="M20 3.45011C20 2.52772 19.6626 1.66741 19.0617 1.01109C18.4609 0.354767 17.6543 0 16.8066 0H3.19342C1.4321 0.00886918 0 1.55211 0 3.45011V20.5588C0 22.4568 1.4321 24 3.19342 24H16.7984C18.5597 24 19.9918 22.4568 19.9918 20.5588V3.45011H20ZM18.1399 20.5588C18.1399 21.357 17.5391 22.0044 16.7984 22.0044H3.19342C2.45268 22.0044 1.85185 21.357 1.85185 20.5588V9.33925H18.1399V20.5588ZM18.1399 7.33481H1.85185V3.45011C1.85185 2.65188 2.45268 2.00443 3.19342 2.00443H16.7984C17.5391 2.00443 18.1399 2.65188 18.1399 3.45011V7.33481Z" fill="#0C244E"/>
</g>
</svg>
