<svg width="24" height="24" viewBox="0 0 24 24" fill="none" xmlns="http://www.w3.org/2000/svg">
<g id="ic-share">
<path id="ic-share_2" d="M6.18422 24H17.8158C19.9352 24 21 22.8942 21 20.7036V10.0913C21 7.90076 19.9352 6.79486 17.8158 6.79486H14.9865V8.50687H17.7853C18.7893 8.50687 19.3673 9.08108 19.3673 10.187V20.6079C19.3673 21.7138 18.7893 22.288 17.7853 22.288H6.2045C5.19042 22.288 4.63268 21.7138 4.63268 20.6079V10.187C4.63268 9.08108 5.19042 8.50687 6.2045 8.50687H9.01352V6.79486H6.18422C4.06479 6.79486 3 7.90076 3 10.0913V20.7036C3 22.8942 4.06479 24 6.18422 24ZM11.9949 15.6739C12.4309 15.6739 12.8062 15.2911 12.8062 14.8445V3.9238L12.7453 2.32876L13.4248 3.08374L14.9662 4.80639C15.1082 4.97653 15.311 5.06159 15.5138 5.06159C15.9296 5.06159 16.2541 4.74258 16.2541 4.3066C16.2541 4.0833 16.1628 3.91316 16.0107 3.75366L12.5831 0.287107C12.3802 0.0744351 12.2079 0 11.9949 0C11.7921 0 11.6197 0.0744351 11.4067 0.287107L7.97915 3.75366C7.82703 3.91316 7.74592 4.0833 7.74592 4.3066C7.74592 4.74258 8.05014 5.06159 8.47605 5.06159C8.66873 5.06159 8.89182 4.97653 9.0338 4.80639L10.5651 3.08374L11.2546 2.32876L11.1938 3.9238V14.8445C11.1938 15.2911 11.5589 15.6739 11.9949 15.6739Z" fill="#0C244E"/>
</g>
</svg>
