<svg width="22" height="24" viewBox="0 0 22 24" fill="none" xmlns="http://www.w3.org/2000/svg">
<g id="Group 33">
<path id="Linha 110" d="M3.34866 4.34412H13.1228" stroke="#0C244E" stroke-width="1.7" stroke-linecap="round"/>
<path id="Linha 111" d="M3.34866 7.60205H12.0367" stroke="#0C244E" stroke-width="1.7" stroke-linecap="round"/>
<path id="Linha 112" d="M3.34866 10.8605H6.60669" stroke="#0C244E" stroke-width="1.7" stroke-linecap="round"/>
<path id="Subtract" fill-rule="evenodd" clip-rule="evenodd" d="M2.09375 1.7H15.4699C15.6356 1.7 15.7699 1.83431 15.7699 2V10.8804C16.3621 10.9271 16.9323 11.0524 17.4699 11.2457V2C17.4699 0.895431 16.5745 0 15.4699 0H2.09375C0.989181 0 0.09375 0.895428 0.09375 2V18.6342C0.09375 19.7388 0.98918 20.6342 2.09375 20.6342H9.50856C9.21407 20.108 8.98988 19.5371 8.84871 18.9342H2.09375C1.92806 18.9342 1.79375 18.7999 1.79375 18.6342V2C1.79375 1.83431 1.92806 1.7 2.09375 1.7Z" fill="#0C244E"/>
<path id="Vector" d="M15.2459 23.1651C18.4127 23.1651 20.98 20.5978 20.98 17.4309C20.98 14.264 18.4127 11.6968 15.2459 11.6968C12.079 11.6968 9.51172 14.264 9.51172 17.4309C9.51172 20.5978 12.079 23.1651 15.2459 23.1651Z" stroke="#0C244E" stroke-width="1.7"/>
<path id="Caminho 70549" d="M12.7945 17.4029L15.0581 18.9296L17.3329 15.5582" stroke="#0C244E" stroke-width="1.7" stroke-linecap="round" stroke-linejoin="round"/>
</g>
</svg>
