<svg width="24" height="24" viewBox="0 0 24 24" fill="none" xmlns="http://www.w3.org/2000/svg">
<g id="ic-update">
<path id="ic-update_2" d="M1 13.04C1 19.0357 5.99315 24 12 24C18.0177 24 23 19.0357 23 13.04C23 9.42962 21.1667 6.18464 18.3951 4.17531C17.9206 3.80997 17.3275 3.92817 17.0579 4.36872C16.7882 4.82001 16.9285 5.32503 17.3707 5.65813C19.6677 7.29138 21.1559 9.98839 21.1667 13.04C21.1775 18.1117 17.0903 22.1733 12 22.1733C6.90982 22.1733 2.84413 18.1117 2.84413 13.04C2.84413 8.68823 5.84217 5.07789 9.91865 4.15381V5.69036C9.91865 6.45326 10.4471 6.65742 11.0403 6.23836L14.4804 3.83146C14.9657 3.49837 14.9765 2.98261 14.4804 2.62802L11.051 0.221122C10.4471 -0.20868 9.91865 -0.00452439 9.91865 0.769121V2.28418C4.87158 3.27272 1 7.75341 1 13.04Z" fill="#0C244E"/>
</g>
</svg>
