<svg xmlns="http://www.w3.org/2000/svg" width="25.575" height="24" viewBox="0 0 25.575 24">
  <g id="ziyon-discord" transform="translate(0.25)">
    <rect id="Retângulo_1200" data-name="Retângulo 1200" width="24" height="24" transform="translate(0)" fill="none"/>
    <g id="discordia" transform="translate(0 2.781)">
      <path id="Caminho_70539" data-name="Caminho 70539" d="M133.411,203.143a2.191,2.191,0,1,0,1.979,2.181A2.09,2.09,0,0,0,133.411,203.143Zm0,3.255a1.1,1.1,0,1,1,.874-1.075A.991.991,0,0,1,133.411,206.4Z" transform="translate(-124.573 -195.708)" fill="#0c2143" stroke="#0c2143" stroke-width="0.5"/>
      <path id="Caminho_70540" data-name="Caminho 70540" d="M275.155,203.143a2.191,2.191,0,1,0,1.979,2.181A2.09,2.09,0,0,0,275.155,203.143Zm0,3.255a1.1,1.1,0,1,1,.874-1.075A.991.991,0,0,1,275.155,206.4Z" transform="translate(-258.919 -195.708)" fill="#0c2143" stroke="#0c2143" stroke-width="0.5"/>
      <path id="Caminho_70541" data-name="Caminho 70541" d="M25.073,81.163c-.017-.311-.457-7.657-3.247-12.052a.735.735,0,0,0-.222-.224c-3.45-2.221-5.8-2.215-5.9-2.215a.735.735,0,0,0-.649.409l-1.185,2.271q-.662-.043-1.335-.044t-1.335.044l-1.184-2.268a.735.735,0,0,0-.65-.412c-.1,0-2.448-.006-5.9,2.215a.735.735,0,0,0-.222.224C.457,73.505.018,80.852,0,81.163a.735.735,0,0,0,.186.531c.129.144,3.2,3.522,7.451,3.522H7.7a.735.735,0,0,0,.572-.28l1.96-2.487a20.471,20.471,0,0,0,4.619,0l1.96,2.487a.735.735,0,0,0,.572.28h.058c4.248,0,7.322-3.377,7.451-3.522a.735.735,0,0,0,.186-.531Zm-7.339,2.577-1.225-1.555a13.724,13.724,0,0,0,4.845-1.913.735.735,0,1,0-.818-1.22,14.774,14.774,0,0,1-8,2.059,14.776,14.776,0,0,1-8-2.058.735.735,0,0,0-.818,1.22,13.728,13.728,0,0,0,4.845,1.913L7.34,83.739a9.7,9.7,0,0,1-5.849-2.812C1.6,79.5,2.2,73.633,4.4,70.034a11.955,11.955,0,0,1,4.531-1.853l.7,1.336a16.064,16.064,0,0,0-4.482,1.295.735.735,0,0,0,.626,1.329,16.243,16.243,0,0,1,6.762-1.364A16.241,16.241,0,0,1,19.3,72.14a.735.735,0,1,0,.626-1.329,16.062,16.062,0,0,0-4.482-1.295l.7-1.336a11.956,11.956,0,0,1,4.531,1.853c2.2,3.595,2.8,9.472,2.912,10.894a9.643,9.643,0,0,1-5.849,2.811Z" transform="translate(0 -66.671)" fill="#0c2143" stroke="#0c2143" stroke-width="0.5"/>
    </g>
  </g>
</svg>
