<svg width="24" height="24" viewBox="0 0 24 24" fill="none" xmlns="http://www.w3.org/2000/svg">
<g id="ic-yes">
<path id="Linha 106 (Stroke)" fill-rule="evenodd" clip-rule="evenodd" d="M21.6736 3.20626C22.1132 3.5419 22.1981 4.16931 21.8634 4.60763L10.4942 19.4942C10.1594 19.9325 9.53174 20.0158 9.0922 19.6801C8.65266 19.3445 8.56771 18.7171 8.90246 18.2787L20.2716 3.39218C20.6064 2.95386 21.2341 2.87062 21.6736 3.20626Z" fill="#0C244E"/>
<path id="Linha 107 (Stroke)" fill-rule="evenodd" clip-rule="evenodd" d="M0.188275 12.0214C0.510873 11.5741 1.13601 11.4737 1.58455 11.7972L10.2898 18.0759C10.7384 18.3995 10.8405 19.0244 10.5179 19.4717C10.1953 19.9191 9.57014 20.0194 9.1216 19.6959L0.416317 13.4172C-0.0322258 13.0937 -0.134324 12.4688 0.188275 12.0214Z" fill="#0C244E"/>
</g>
</svg>
