<svg width="35" height="35" viewBox="0 0 35 35" fill="none" xmlns="http://www.w3.org/2000/svg">
<g id="ic-shopping">
<path id="ic-market" d="M11.665 26.2428C11.1122 26.2627 10.5772 26.4508 10.1268 26.7836C9.67642 27.1164 9.33047 27.5793 9.13209 28.1145C8.9337 28.6497 8.89166 29.2336 9.0112 29.7934C9.13073 30.3532 9.40656 30.8642 9.80431 31.2626C10.2021 31.6611 10.7041 31.9294 11.248 32.0341C11.7918 32.1389 12.3534 32.0754 12.8627 31.8516C13.3719 31.6279 13.8064 31.2537 14.112 30.7758C14.4175 30.2978 14.5807 29.7373 14.581 29.1639C14.5754 28.7734 14.4954 28.3879 14.3457 28.0295C14.1959 27.6711 13.9794 27.3468 13.7084 27.0754C13.4375 26.804 13.1175 26.5907 12.7668 26.4478C12.4162 26.305 12.0417 26.2353 11.665 26.2428ZM2.91699 2.91663V5.83776H5.83299L11.0815 16.902L9.1137 20.4692C8.87366 20.8933 8.74771 21.3763 8.74899 21.8679C8.76381 22.6555 9.07889 23.4049 9.62534 23.9523C10.1718 24.4997 10.9051 24.8006 11.665 24.7891H29.1626V21.8679H12.2784C12.2312 21.8693 12.1843 21.8609 12.1403 21.8433C12.0963 21.8256 12.0562 21.7991 12.0222 21.7652C11.9883 21.7312 11.9612 21.6906 11.9425 21.6457C11.9239 21.6008 11.9141 21.5525 11.9137 21.5037L11.9568 21.3318L13.2697 18.9554H24.1363C24.6516 18.9606 25.159 18.8244 25.6071 18.5606C26.0551 18.2968 26.4279 17.9149 26.6876 17.4536L31.9079 7.99253C32.0251 7.77964 32.0858 7.53831 32.0836 7.29318C32.0753 6.89985 31.9173 6.52589 31.644 6.2529C31.3707 5.9799 31.0043 5.83005 30.6248 5.83605L9.0507 5.83605L7.68471 2.91663L2.91699 2.91663ZM26.2466 26.2428C25.6938 26.2627 25.1589 26.4508 24.7085 26.7836C24.2581 27.1164 23.9121 27.5793 23.7137 28.1145C23.5154 28.6497 23.4733 29.2336 23.5928 29.7934C23.7124 30.3532 23.9882 30.8642 24.386 31.2626C24.7837 31.6611 25.2858 31.9294 25.8296 32.0341C26.3735 32.1389 26.935 32.0754 27.4443 31.8516C27.9536 31.6279 28.3881 31.2537 28.6936 30.7758C28.9992 30.2978 29.1623 29.7373 29.1626 29.1639C29.157 28.7734 29.0771 28.3879 28.9273 28.0295C28.7776 27.6711 28.561 27.3468 28.2901 27.0754C28.0192 26.804 27.6992 26.5907 27.3485 26.4478C26.9978 26.305 26.6234 26.2353 26.2466 26.2428Z" fill="#E7EEF7"/>
</g>
</svg>
