<svg width="24" height="24" viewBox="0 0 24 24" fill="none" xmlns="http://www.w3.org/2000/svg">
<g id="ic-card">
<path id="Rectangle 1 (Stroke)" fill-rule="evenodd" clip-rule="evenodd" d="M21 5H3C2.44772 5 2 5.44772 2 6V18C2 18.5523 2.44772 19 3 19H21C21.5523 19 22 18.5523 22 18V6C22 5.44772 21.5523 5 21 5ZM3 3C1.34315 3 0 4.34315 0 6V18C0 19.6569 1.34315 21 3 21H21C22.6569 21 24 19.6569 24 18V6C24 4.34315 22.6569 3 21 3H3Z" fill="#0C244E"/>
<path id="Caminho 70634 (Stroke)" fill-rule="evenodd" clip-rule="evenodd" d="M13 16C13 16.5523 12.5523 17 12 17H5C4.44772 17 4 16.5523 4 16C4 15.4477 4.44772 15 5 15H12C12.5523 15 13 15.4477 13 16Z" fill="#0C244E"/>
<path id="Caminho 70638 (Stroke)" fill-rule="evenodd" clip-rule="evenodd" d="M24 10C24 10.5523 23.5523 11 23 11L1 11C0.447716 11 0 10.5523 0 10C0 9.44772 0.447716 9 1 9L23 9C23.5523 9 24 9.44772 24 10Z" fill="#0C244E"/>
</g>
</svg>
