<svg width="24" height="24" viewBox="0 0 24 24" fill="none" xmlns="http://www.w3.org/2000/svg">
<g id="ic-palette">
<g id="Ret&#195;&#162;ngulo 1206">
<path id="Vector (Stroke)" fill-rule="evenodd" clip-rule="evenodd" d="M2.91797 2.9165V17.9582C2.91797 18.787 3.2472 19.5818 3.83323 20.1679C4.41925 20.7539 5.21406 21.0832 6.04281 21.0832C6.45317 21.0832 6.8595 21.0023 7.23862 20.8453C7.61774 20.6883 7.96222 20.4581 8.25239 20.1679C8.54256 19.8777 8.77274 19.5332 8.92978 19.1541C9.08682 18.7749 9.16765 18.3686 9.16765 17.9582V2.9165H2.91797ZM1.44281 1.44138C1.77887 1.10531 2.23467 0.916504 2.70994 0.916504H9.37568C9.85095 0.916504 10.3068 1.10531 10.6428 1.44138C10.9789 1.77745 11.1677 2.23325 11.1677 2.7085V17.9582C11.1677 18.6312 11.0351 19.2976 10.7776 19.9194C10.52 20.5412 10.1425 21.1062 9.66663 21.5821C9.19075 22.058 8.62579 22.4355 8.00402 22.693C7.38224 22.9506 6.71582 23.0832 6.04281 23.0832C4.68361 23.0832 3.38008 22.5432 2.41899 21.5821C1.4579 20.621 0.917969 19.3174 0.917969 17.9582V2.7085C0.917969 2.23325 1.10676 1.77745 1.44281 1.44138Z" fill="#0C244E"/>
</g>
<g id="Subtra&#195;&#167;&#195;&#163;o 1">
<path id="Vector" d="M11.1028 16.4591L18.7569 8.53235L13.9461 3.88588L11.1028 6.83048V16.4591ZM9.26953 20.8812V6.08978L13.1815 2.03848C13.3786 1.83482 13.6433 1.72266 13.9267 1.72266C14.1963 1.72266 14.4517 1.82574 14.6459 2.01291L20.6046 7.76811C20.8033 7.96004 20.9154 8.21806 20.9202 8.49462C20.9251 8.77121 20.8221 9.03296 20.6302 9.23166L9.96085 20.2809C9.74881 20.5004 9.5167 20.7021 9.27099 20.8802L9.26953 20.8812Z" fill="#0C244E"/>
</g>
<path id="Subtra&#195;&#167;&#195;&#163;o 2" d="M21.369 22.9999H6.04297L15.6704 12.5371H21.369C21.8159 12.5531 22.2382 12.7453 22.5439 13.0716C22.8496 13.3979 23.0138 13.8318 23.0007 14.2788V21.2546C23.0148 21.7022 22.851 22.1371 22.5452 22.4642C22.2394 22.7913 21.8165 22.9839 21.369 22.9999ZM10.1348 21.1666H21.2866V14.3704H16.3881L10.1348 21.1666Z" fill="#0C244E"/>
<g id="Elipse 288">
<path id="Vector (Stroke)_2" fill-rule="evenodd" clip-rule="evenodd" d="M6.04425 18.5C6.34345 18.5 6.58594 18.2575 6.58594 17.9583C6.58594 17.6592 6.34345 17.4167 6.04425 17.4167C5.74505 17.4167 5.50257 17.6592 5.50257 17.9583C5.50257 18.2575 5.74505 18.5 6.04425 18.5ZM4.58594 17.9583C4.58594 17.153 5.23881 16.5 6.04425 16.5C6.84969 16.5 7.50257 17.153 7.50257 17.9583C7.50257 18.7637 6.84969 19.4167 6.04425 19.4167C5.23881 19.4167 4.58594 18.7637 4.58594 17.9583Z" fill="#0C244E"/>
</g>
</g>
</svg>
