<svg id="ziyon-security" xmlns="http://www.w3.org/2000/svg" width="24" height="24" viewBox="0 0 24 24">
  <rect id="Retângulo_1200" data-name="Retângulo 1200" width="24" height="24" fill="none"/>
  <g id="Grupo_30492" data-name="Grupo 30492" transform="translate(-181.205 -1534.719)">
    <g id="Layer_2" data-name="Layer 2" transform="translate(182.727 1535.041)">
      <path id="Caminho_70546" data-name="Caminho 70546" d="M12.727,24.339a2.42,2.42,0,0,1-1.081-.253l-4.2-2.1a9.351,9.351,0,0,1-5.2-8.41V7.459A2.945,2.945,0,0,1,4.615,4.566a14.222,14.222,0,0,0,2.954-.922,14.18,14.18,0,0,0,3.323-2.038,2.9,2.9,0,0,1,3.669,0,14.217,14.217,0,0,0,3.325,2.039,14.222,14.222,0,0,0,2.954.922A2.946,2.946,0,0,1,23.2,7.459v6.118a9.352,9.352,0,0,1-5.2,8.41l-4.2,2.1a2.419,2.419,0,0,1-1.081.253Zm0-21.777a1.279,1.279,0,0,0-.812.29,15.806,15.806,0,0,1-3.7,2.269,15.819,15.819,0,0,1-3.29,1.027A1.331,1.331,0,0,0,3.862,7.459v6.118a7.747,7.747,0,0,0,4.307,6.968l4.2,2.1a.815.815,0,0,0,.721,0l4.2-2.1a7.748,7.748,0,0,0,4.306-6.968V7.459A1.331,1.331,0,0,0,20.53,6.148a15.84,15.84,0,0,1-3.289-1.026,15.822,15.822,0,0,1-3.7-2.27,1.276,1.276,0,0,0-.812-.29Z" transform="translate(-2.25 -0.951)" fill="#0c2143" stroke="#0c2143" stroke-width="0.2"/>
    </g>
    <path id="Icon_material-lock-outline" data-name="Icon material-lock-outline" d="M11.729,4.365H11.32V3.546a2.046,2.046,0,0,0-4.092,0v.818H6.818A.821.821,0,0,0,6,5.183V9.276a.821.821,0,0,0,.818.818h4.911a.821.821,0,0,0,.818-.818V5.183A.821.821,0,0,0,11.729,4.365ZM8.005,3.546a1.269,1.269,0,0,1,2.537,0v.818H8.005Zm3.724,5.729H6.818V5.183h4.911Z" transform="translate(183.931 1540.938)" fill="#0c2143" stroke="#0c2143" stroke-width="0.5"/>
  </g>
</svg>
