<svg width="24" height="24" viewBox="0 0 24 24" fill="none" xmlns="http://www.w3.org/2000/svg">
<g id="ic-food">
<g id="Group 22">
<path id="Caminho 70656" fill-rule="evenodd" clip-rule="evenodd" d="M9.50006 19.0391C9.49808 18.6752 9.62206 18.3219 9.85076 18.0398C9.9718 17.8894 10.1246 17.7679 10.2981 17.6842C10.4716 17.6005 10.6614 17.5566 10.8539 17.5557H20.6461C20.8386 17.5566 21.0284 17.6005 21.2019 17.6842C21.3754 17.7679 21.5282 17.8894 21.6492 18.0398C21.8779 18.3219 22.0019 18.6752 21.9999 19.0391V19.7773C22.0037 20.3312 21.8162 20.8692 21.4693 21.2996C21.2967 21.5158 21.0784 21.6908 20.8303 21.8119C20.5822 21.933 20.3105 21.9973 20.0347 22.0001H11.4653C11.1895 21.9973 10.9178 21.933 10.6697 21.8119C10.4216 21.6908 10.2033 21.5158 10.0307 21.2996C9.6838 20.8692 9.49627 20.3312 9.50006 19.7773V19.0391Z" fill="#0C244E"/>
<path id="Caminho 70657" fill-rule="evenodd" clip-rule="evenodd" d="M9.5 15.4664V15.0521C9.5007 14.647 9.61701 14.2461 9.84192 13.8737C10.0668 13.5013 10.3957 13.1651 10.8086 12.8854C11.6496 12.3154 12.7685 11.9983 13.9312 12.0005H17.5688C18.7315 11.9984 19.8503 12.3154 20.6914 12.8854C21.1042 13.1652 21.4329 13.5014 21.6578 13.8738C21.8827 14.2461 21.9991 14.647 22 15.0521V15.4664C21.9997 15.5972 21.9622 15.7266 21.8896 15.8468C21.817 15.967 21.7109 16.0755 21.5776 16.1659C21.3148 16.3446 20.965 16.4446 20.6011 16.4449H10.9038C10.5399 16.4445 10.1902 16.3445 9.92725 16.1659C9.79306 16.0759 9.68601 15.9675 9.61257 15.8473C9.53913 15.727 9.50083 15.5975 9.5 15.4664Z" fill="#0C244E"/>
<path id="Caminho 70658" fill-rule="evenodd" clip-rule="evenodd" d="M8.25 6.83265C8.23996 7.02798 8.16102 7.21175 8.0294 7.34619C7.89777 7.48064 7.72346 7.55556 7.54226 7.55556C7.36107 7.55556 7.18675 7.48064 7.05513 7.34619C6.92351 7.21175 6.84456 7.02798 6.83453 6.83265V4.4615C6.83424 4.41087 6.82001 4.36148 6.79364 4.31961C6.76727 4.27774 6.72995 4.24529 6.68644 4.22639L4.91601 3.46226C4.74997 3.38094 4.61934 3.23367 4.55126 3.05105C4.48319 2.86844 4.4829 2.66452 4.55047 2.48169C4.61804 2.29885 4.74826 2.15116 4.91408 2.0693C5.07989 1.98745 5.26855 1.97772 5.44083 2.04215L7.21017 2.80628C7.51713 2.93898 7.78025 3.16792 7.96558 3.46357C8.15092 3.75922 8.24998 4.10803 8.25 4.46503V6.83265Z" fill="#0C244E"/>
<path id="Caminho 70660" fill-rule="evenodd" clip-rule="evenodd" d="M9.38224 22.0002H5.57689C4.9161 21.9811 4.28716 21.7303 3.81505 21.2976C3.34293 20.8649 3.0622 20.2819 3.02865 19.6645L2.01076 8.12096C1.94621 7.42569 2.17377 6.73424 2.64519 6.1932C2.87641 5.92655 3.16798 5.71114 3.4989 5.56249C3.82983 5.41383 4.19188 5.33563 4.559 5.3335H13.1911C13.558 5.33579 13.9199 5.41407 14.2506 5.56272C14.5813 5.71137 14.8727 5.92669 15.1038 6.1932C15.5756 6.73408 15.8036 7.42554 15.7393 8.12096L15.5236 10.5718H14.2547C12.8743 10.5695 11.5464 11.0665 10.5491 11.9589C9.65455 12.7586 9.10254 13.8358 8.99643 14.9887C8.73173 15.1334 8.51139 15.3394 8.35671 15.5869C8.20202 15.8344 8.11821 16.115 8.11337 16.4016C8.10854 16.6882 8.18285 16.9712 8.32911 17.2231C8.47538 17.4751 8.68866 17.6875 8.94835 17.8398C8.6836 18.2341 8.54261 18.6901 8.54143 19.1557V19.863C8.53789 20.6192 8.81658 21.3529 9.32947 21.9377L9.38693 21.9991L9.38224 22.0002Z" fill="#0C244E"/>
</g>
</g>
</svg>
