<svg width="24" height="24" viewBox="0 0 24 24" fill="none" xmlns="http://www.w3.org/2000/svg">
<path fill-rule="evenodd" clip-rule="evenodd" d="M12 22C17.5228 22 22 17.5228 22 12C22 6.47715 17.5228 2 12 2C6.47715 2 2 6.47715 2 12C2 17.5228 6.47715 22 12 22ZM12 24C18.6274 24 24 18.6274 24 12C24 5.37258 18.6274 0 12 0C5.37258 0 0 5.37258 0 12C0 18.6274 5.37258 24 12 24Z" fill="black"/>
<path d="M5 16V8H8.3251C8.96159 8 9.5048 8.10807 9.95473 8.32422C10.4074 8.53776 10.7517 8.84115 10.9877 9.23438C11.2263 9.625 11.3457 10.0846 11.3457 10.6133C11.3457 11.1445 11.225 11.6016 10.9835 11.9844C10.7421 12.3646 10.3923 12.6563 9.93416 12.8594C9.47874 13.0625 8.9273 13.1641 8.27984 13.1641H6.0535V11.8047H7.99177C8.33196 11.8047 8.61454 11.7604 8.83951 11.6719C9.06447 11.5833 9.23182 11.4505 9.34156 11.2734C9.45405 11.0964 9.51029 10.8763 9.51029 10.6133C9.51029 10.3477 9.45405 10.1237 9.34156 9.94141C9.23182 9.75911 9.0631 9.62109 8.83539 9.52734C8.61043 9.43099 8.32647 9.38281 7.98354 9.38281H6.78189V16H5ZM9.55144 12.3594L11.6461 16H9.67901L7.62963 12.3594H9.55144Z" fill="black"/>
<path d="M15.3868 17V7H16.0617V17H15.3868ZM17.177 10.3008C17.144 9.98568 17.0027 9.74089 16.7531 9.56641C16.5034 9.39193 16.1646 9.30469 15.7366 9.30469C15.4458 9.30469 15.2003 9.34375 15 9.42188C14.7997 9.4974 14.6461 9.60287 14.5391 9.73828C14.4348 9.8737 14.3827 10.0273 14.3827 10.1992C14.3772 10.3424 14.4088 10.4674 14.4774 10.5742C14.5487 10.681 14.6461 10.7734 14.7695 10.8516C14.893 10.9271 15.0357 10.9935 15.1975 11.0508C15.3594 11.1055 15.5322 11.1523 15.716 11.1914L16.4733 11.3633C16.8409 11.4414 17.1783 11.5456 17.4856 11.6758C17.7929 11.806 18.059 11.9661 18.284 12.1562C18.5089 12.3464 18.6831 12.5703 18.8066 12.8281C18.9328 13.0859 18.9973 13.3815 19 13.7148C18.9973 14.2044 18.8656 14.6289 18.6049 14.9883C18.3471 15.3451 17.9739 15.6224 17.4856 15.8203C17 16.0156 16.4143 16.1133 15.7284 16.1133C15.048 16.1133 14.4554 16.0143 13.9506 15.8164C13.4486 15.6185 13.0562 15.3255 12.7737 14.9375C12.4938 14.5469 12.3471 14.0638 12.3333 13.4883H14.0576C14.0768 13.7565 14.1578 13.9805 14.3004 14.1602C14.4458 14.3372 14.6392 14.4714 14.8807 14.5625C15.1248 14.651 15.4005 14.6953 15.7078 14.6953C16.0096 14.6953 16.2716 14.6536 16.4938 14.5703C16.7188 14.487 16.893 14.3711 17.0165 14.2227C17.1399 14.0742 17.2016 13.9036 17.2016 13.7109C17.2016 13.5313 17.1454 13.3802 17.0329 13.2578C16.9232 13.1354 16.7613 13.0313 16.5473 12.9453C16.3361 12.8594 16.0768 12.7812 15.7695 12.7109L14.8519 12.4922C14.1413 12.3281 13.5802 12.0716 13.1687 11.7227C12.7572 11.3737 12.5528 10.9036 12.5556 10.3125C12.5528 9.82812 12.6886 9.40495 12.963 9.04297C13.2401 8.68099 13.62 8.39844 14.1029 8.19531C14.5857 7.99219 15.1344 7.89063 15.749 7.89063C16.3745 7.89063 16.9204 7.99219 17.3868 8.19531C17.856 8.39844 18.2209 8.68099 18.4815 9.04297C18.7421 9.40495 18.8765 9.82422 18.8848 10.3008H17.177Z" fill="black"/>
</svg>
