<svg id="ziyon-category" xmlns="http://www.w3.org/2000/svg" width="24" height="24" viewBox="0 0 24 24">
  <rect id="Retângulo_1199" data-name="Retângulo 1199" width="24" height="24" fill="none"/>
  <g id="Layer_2" data-name="Layer 2" transform="translate(-2.769 -2.768)">
    <path id="Caminho_66841" data-name="Caminho 66841" d="M11.179,17H6.692A2.692,2.692,0,0,0,4,19.692v4.487a2.692,2.692,0,0,0,2.692,2.692h4.487a2.692,2.692,0,0,0,2.692-2.692V19.692A2.692,2.692,0,0,0,11.179,17Zm.9,7.179a.9.9,0,0,1-.9.9H6.692a.9.9,0,0,1-.9-.9V19.692a.9.9,0,0,1,.9-.9h4.487a.9.9,0,0,1,.9.9Z" transform="translate(0 -1.334)" fill="#014fe0"/>
    <path id="Caminho_66842" data-name="Caminho 66842" d="M24.179,17H19.692A2.692,2.692,0,0,0,17,19.692v4.487a2.692,2.692,0,0,0,2.692,2.692h4.487a2.692,2.692,0,0,0,2.692-2.692V19.692A2.692,2.692,0,0,0,24.179,17Zm.9,7.179a.9.9,0,0,1-.9.9H19.692a.9.9,0,0,1-.9-.9V19.692a.9.9,0,0,1,.9-.9h4.487a.9.9,0,0,1,.9.9Z" transform="translate(-1.334 -1.334)" fill="#014fe0"/>
    <path id="Caminho_66843" data-name="Caminho 66843" d="M11.179,4H6.692A2.692,2.692,0,0,0,4,6.692v4.487a2.692,2.692,0,0,0,2.692,2.692h4.487a2.692,2.692,0,0,0,2.692-2.692V6.692A2.692,2.692,0,0,0,11.179,4Zm.9,7.179a.9.9,0,0,1-.9.9H6.692a.9.9,0,0,1-.9-.9V6.692a.9.9,0,0,1,.9-.9h4.487a.9.9,0,0,1,.9.9Z" fill="#014fe0"/>
    <path id="Caminho_66844" data-name="Caminho 66844" d="M17.9,9.833h3.141v3.141a.9.9,0,1,0,1.795,0V9.833h3.141a.9.9,0,0,0,0-1.795H22.833V4.9a.9.9,0,1,0-1.795,0V8.038H17.9a.9.9,0,1,0,0,1.795Z" transform="translate(-1.334)" fill="#014fe0"/>
  </g>
</svg>
