<svg width="25" height="31" viewBox="0 0 25 31" fill="none" xmlns="http://www.w3.org/2000/svg">
<g id="Group 21">
<g id="Grupo 15403">
<g id="Clip path group">
<mask id="mask0_4560_2428" style="mask-type:luminance" maskUnits="userSpaceOnUse" x="0" y="0" width="15" height="31">
<g id="clip-path">
<path id="Ret&#195;&#162;ngulo 1036" d="M14.364 0.916626L0.833008 0.916626L0.833008 30.081H14.364L14.364 0.916626Z" fill="white"/>
</g>
</mask>
<g mask="url(#mask0_4560_2428)">
<g id="Grupo 15402">
<path id="Caminho 63417" d="M0.834185 20.3396C0.834185 17.8071 0.834185 15.2731 0.834185 12.7342C0.820777 12.1876 0.922041 11.6446 1.13108 11.1419C1.34012 10.6393 1.65202 10.1889 2.04554 9.82145C2.65655 9.21359 3.46891 8.86664 4.31881 8.85055C6.24911 8.81009 8.18099 8.84084 10.1113 8.83275C10.7335 8.80871 11.3514 8.94852 11.9063 9.23892C12.447 9.52951 12.9112 9.95054 13.2592 10.466C13.6071 10.9814 13.8285 11.5759 13.9043 12.1985C13.9413 12.4871 13.9566 12.7782 13.9499 13.0691C13.9499 15.9182 13.9499 18.7673 13.9499 21.6163C13.9499 23.7329 13.9499 25.8495 13.9499 27.966C13.9716 28.3237 13.8993 28.6808 13.7403 28.9998C13.5814 29.3187 13.3419 29.5877 13.0469 29.7784C12.7336 29.9777 12.3705 30.0784 12.0023 30.068H5.57107C4.60985 30.068 3.6502 30.068 2.68898 30.068C2.29614 30.0697 1.91315 29.9417 1.59628 29.7029C1.27941 29.464 1.04538 29.1269 0.928577 28.7411C0.860768 28.4999 0.828942 28.2495 0.834185 27.9984C0.834185 25.4417 0.834185 22.8887 0.834185 20.3396Z" fill="#E7EEF7"/>
<path id="Caminho 63418" d="M6.24129 0.916743C7.5376 0.916743 8.83549 0.916743 10.1318 0.916743C10.3853 0.908785 10.6375 0.956808 10.8714 1.05758C11.1054 1.15834 11.3156 1.30951 11.4879 1.5009C12.339 2.40546 13.2058 3.29384 14.0648 4.19193C14.2306 4.33378 14.3349 4.53757 14.3546 4.75849C14.3744 4.97941 14.3081 5.19935 14.1702 5.36996C14.1056 5.46169 14.0235 5.53896 13.9289 5.59709C13.8344 5.65522 13.7294 5.693 13.6202 5.70813C13.5111 5.72326 13.4001 5.71543 13.294 5.68512C13.1878 5.6548 13.0888 5.60263 13.0029 5.53177C12.8883 5.43103 12.7801 5.32294 12.6788 5.20814C11.888 4.39042 11.0962 3.57378 10.3033 2.75822C10.2792 2.73382 10.2503 2.71499 10.2186 2.70299C10.1868 2.69099 10.1529 2.6861 10.1192 2.68864C9.67085 2.68864 9.22249 2.68864 8.77413 2.68864C8.65929 2.68864 8.61682 2.73072 8.61682 2.85046C8.58063 3.78253 8.60738 4.71621 8.60108 5.64828C8.61155 5.73252 8.61628 5.81742 8.61524 5.90234C8.59164 6.06415 8.66558 6.08519 8.79616 6.08357C9.05406 6.06193 9.31365 6.08214 9.56545 6.14344C9.86305 6.23987 10.124 6.4293 10.3121 6.68538C10.5002 6.94147 10.606 7.25148 10.6148 7.57229C10.6148 7.69204 10.6148 7.8134 10.6148 7.93314C10.6148 8.05289 10.5691 8.09496 10.4669 8.08525C10.3929 8.08525 10.3206 8.08525 10.2466 8.08525H4.35818C4.30001 8.0883 4.24173 8.0883 4.18356 8.08525C4.17001 8.0857 4.15652 8.08329 4.14392 8.07816C4.13131 8.07304 4.11986 8.06531 4.11028 8.05545C4.1007 8.04559 4.09318 8.03381 4.08819 8.02085C4.08321 8.00788 4.08086 7.99401 4.0813 7.98007C4.04091 7.69069 4.07254 7.39551 4.17324 7.12213C4.27394 6.84874 4.44041 6.60611 4.65709 6.41692C4.90185 6.21412 5.20498 6.10032 5.5192 6.09328C5.65607 6.09328 5.79293 6.09328 5.92823 6.09328C6.06352 6.09328 6.09813 6.05121 6.09656 5.92014C6.09656 5.35378 6.09656 4.78741 6.09656 4.21944C6.09656 3.77282 6.09656 3.3262 6.09656 2.87959C6.09656 2.72586 6.03993 2.69835 5.9062 2.69997C4.68751 2.69997 3.46828 2.69997 2.24853 2.69997C2.10594 2.71049 1.96288 2.68755 1.83016 2.63289C1.69744 2.57822 1.57852 2.49327 1.48239 2.38443C1.36931 2.26041 1.29518 2.10423 1.26964 1.93624C1.24411 1.76826 1.26836 1.59626 1.33923 1.44265C1.40338 1.28582 1.512 1.15253 1.65092 1.06016C1.78983 0.967784 1.95259 0.920625 2.11796 0.924834C2.38068 0.911889 2.64498 0.924834 2.90455 0.924834L6.23972 0.924834" fill="#E7EEF7"/>
</g>
</g>
</g>
</g>
<g id="Grupo 15404">
<g id="Clip path group_2">
<mask id="mask1_4560_2428" style="mask-type:luminance" maskUnits="userSpaceOnUse" x="15" y="11" width="10" height="20">
<g id="clip-path-2">
<path id="Ret&#195;&#162;ngulo 1036_2" d="M24.1721 11.0061H15.3213L15.3213 30.0827H24.1721V11.0061Z" fill="white"/>
</g>
</mask>
<g mask="url(#mask1_4560_2428)">
<g id="Grupo 15402_2">
<path id="Caminho 63417_2" d="M24.1695 23.7097C24.1695 22.0527 24.1695 20.3957 24.1695 18.7387C24.1789 18.3818 24.1135 18.027 23.9778 17.6983C23.8421 17.3697 23.6392 17.075 23.3829 16.8341C22.9824 16.4385 22.4515 16.2131 21.8963 16.203C20.6377 16.1771 19.3697 16.203 18.108 16.1917C17.6987 16.1764 17.2924 16.2694 16.9281 16.4619C16.5734 16.6522 16.269 16.9284 16.0412 17.2667C15.8135 17.605 15.6692 17.9952 15.6208 18.4037C15.5966 18.5887 15.5861 18.7754 15.5894 18.962C15.5894 20.8261 15.5894 22.6897 15.5894 24.5528C15.5894 25.9369 15.5894 27.321 15.5894 28.705C15.5752 28.9388 15.6226 29.1721 15.7264 29.3805C15.8302 29.5889 15.9866 29.7648 16.1793 29.8895C16.384 30.0199 16.6214 30.0857 16.8621 30.0789H21.0735C21.7028 30.0789 22.3321 30.0789 22.9613 30.0789C23.2188 30.0798 23.4698 29.9955 23.6772 29.8384C23.8845 29.6814 24.0373 29.4599 24.1129 29.2067C24.1566 29.0489 24.1768 28.8852 24.1727 28.7212C24.1727 27.0513 24.1727 25.3791 24.1727 23.7049" fill="#E7EEF7"/>
<path id="Caminho 63418_2" d="M20.6309 11.0062C19.7829 11.0062 18.935 11.0062 18.0854 11.0062C17.9196 11.0009 17.7546 11.0323 17.6015 11.0982C17.4485 11.164 17.3109 11.2629 17.1981 11.3881C16.6412 11.9771 16.0749 12.5612 15.5133 13.1486C15.4595 13.1945 15.4151 13.2509 15.3826 13.3144C15.35 13.378 15.33 13.4475 15.3235 13.519C15.3171 13.5905 15.3245 13.6627 15.3451 13.7313C15.3658 13.7999 15.3994 13.8636 15.444 13.9189C15.4867 13.9784 15.5406 14.0285 15.6026 14.0659C15.6646 14.1034 15.7333 14.1276 15.8047 14.1369C15.876 14.1463 15.9484 14.1407 16.0176 14.1205C16.0867 14.1003 16.1512 14.0658 16.207 14.0192C16.2821 13.9532 16.353 13.8824 16.4194 13.8072C16.9365 13.2678 17.4546 12.7339 17.9737 12.2052C17.9895 12.189 18.0085 12.1765 18.0294 12.1684C18.0503 12.1603 18.0726 12.1569 18.0949 12.1583C18.3891 12.1583 18.6817 12.1583 18.9759 12.1583C19.0514 12.1583 19.0734 12.1858 19.0765 12.2619C19.1001 12.8719 19.0765 13.482 19.0875 14.092C19.0808 14.1457 19.0777 14.1998 19.0781 14.2539C19.0938 14.359 19.0451 14.3736 18.9601 14.372C18.7914 14.3577 18.6215 14.3708 18.4567 14.4108C18.2623 14.4739 18.0917 14.5977 17.9688 14.765C17.8459 14.9323 17.7767 15.1349 17.7708 15.3445C17.7708 15.4238 17.7708 15.5063 17.7708 15.5808C17.7708 15.6552 17.8007 15.6811 17.8668 15.6795H21.8642C21.9025 15.6815 21.9408 15.6815 21.9791 15.6795C21.9879 15.6799 21.9968 15.6785 22.0051 15.6752C22.0134 15.672 22.021 15.667 22.0273 15.6607C22.0337 15.6543 22.0387 15.6466 22.042 15.6382C22.0453 15.6297 22.047 15.6206 22.0467 15.6115C22.073 15.4223 22.0524 15.2292 21.9866 15.0504C21.9209 14.8716 21.8122 14.7128 21.6707 14.5888C21.5104 14.4559 21.3118 14.3813 21.106 14.3768C21.0163 14.3768 20.9266 14.3768 20.8385 14.3768C20.7504 14.3768 20.7268 14.3493 20.7284 14.2636C20.7284 13.893 20.7284 13.5224 20.7284 13.1519C20.7284 12.8606 20.7284 12.5677 20.7284 12.2764C20.7284 12.1761 20.7661 12.1583 20.8527 12.1583C21.6498 12.1583 22.4474 12.1583 23.2455 12.1583C23.3373 12.1664 23.4297 12.1533 23.516 12.12C23.6023 12.0866 23.6802 12.034 23.7442 11.9658C23.8183 11.885 23.8671 11.7832 23.8843 11.6735C23.9014 11.5638 23.886 11.4514 23.8402 11.3509C23.799 11.2468 23.7281 11.1581 23.6367 11.0966C23.5454 11.035 23.438 11.0035 23.3289 11.0062C23.1574 11.0062 22.9843 11.0062 22.8129 11.0062H20.6309Z" fill="#E7EEF7"/>
</g>
</g>
</g>
</g>
</g>
</svg>
