<svg width="24" height="24" viewBox="0 0 24 24" fill="none" xmlns="http://www.w3.org/2000/svg">
<g id="ic-trash">
<path id="Caminho 63387 (Stroke)" fill-rule="evenodd" clip-rule="evenodd" d="M2 6C2 5.44772 2.44772 5 3 5L21 5C21.5523 5 22 5.44772 22 6C22 6.55228 21.5523 7 21 7L3 7C2.44772 7 2 6.55228 2 6Z" fill="#0C244E"/>
<path id="Caminho 63388 (Stroke)" fill-rule="evenodd" clip-rule="evenodd" d="M9.99993 3C9.73487 3 9.48064 3.10531 9.29318 3.29279C9.10571 3.48028 9.00037 3.73459 9.00037 3.99979V6.00062C9.00037 6.55291 8.55266 7.00062 8.00037 7.00062C7.44809 7.00062 7.00037 6.55291 7.00037 6.00062V3.99979C7.00037 3.20424 7.31637 2.44124 7.87888 1.87866C8.44139 1.31608 9.20436 1 9.99993 1L14.0001 1C14.7956 1 15.5586 1.31608 16.1211 1.87866C16.6836 2.44124 16.9996 3.20424 16.9996 3.99979V6.00062C16.9996 6.55291 16.5519 7.00062 15.9996 7.00062C15.4473 7.00062 14.9996 6.55291 14.9996 6.00062V3.99979C14.9996 3.73459 14.8943 3.48028 14.7068 3.29279C14.5194 3.10531 14.2651 3 14.0001 3H9.99993ZM5 5.00062C5.55228 5.00062 6 5.44834 6 6.00062L6 20.0002C6 20.1315 6.02586 20.2615 6.0761 20.3828C6.12635 20.5042 6.19998 20.6144 6.2928 20.7072C6.38563 20.8 6.49582 20.8737 6.61708 20.9239C6.73834 20.9741 6.86831 21 6.99955 21H17.0004C17.1317 21 17.2617 20.9741 17.3829 20.9239C17.5042 20.8737 17.6144 20.8 17.7072 20.7072C17.8 20.6144 17.8737 20.5042 17.9239 20.3828C17.9741 20.2615 18 20.1315 18 20.0002V6.00062C18 5.44834 18.4477 5.00062 19 5.00062C19.5523 5.00062 20 5.44834 20 6.00062V20.0002C20 20.3941 19.9224 20.7842 19.7717 21.1481C19.621 21.5121 19.4 21.8428 19.1215 22.1213C18.843 22.3999 18.5123 22.6209 18.1484 22.7716C17.7844 22.9224 17.3944 23 17.0004 23H6.99955C6.60563 23 6.21557 22.9224 5.85164 22.7716C5.4877 22.6209 5.15704 22.3999 4.87851 22.1213C4.59998 21.8428 4.37904 21.5121 4.22831 21.1481C4.07758 20.7842 4 20.3941 4 20.0002L4 6.00062C4 5.44834 4.44772 5.00062 5 5.00062Z" fill="#0C244E"/>
<path id="Caminho 63389 (Stroke)" fill-rule="evenodd" clip-rule="evenodd" d="M10 10C10.5523 10 11 10.4477 11 11V17C11 17.5523 10.5523 18 10 18C9.44772 18 9 17.5523 9 17V11C9 10.4477 9.44772 10 10 10Z" fill="#0C244E"/>
<path id="Caminho 63390 (Stroke)" fill-rule="evenodd" clip-rule="evenodd" d="M14 10C14.5523 10 15 10.4477 15 11V17C15 17.5523 14.5523 18 14 18C13.4477 18 13 17.5523 13 17V11C13 10.4477 13.4477 10 14 10Z" fill="#0C244E"/>
</g>
</svg>
