<svg width="25" height="24" viewBox="0 0 25 24" fill="none" xmlns="http://www.w3.org/2000/svg">
<g id="ic-more-fill">
<g id="line">
<g id="Grupo 4">
<path id="Caminho 3 (Stroke)" fill-rule="evenodd" clip-rule="evenodd" d="M1.00311 11.9608C1.00139 11.466 1.40211 11.0663 1.89815 11.068L22.151 11.1379C22.647 11.1396 23.0505 11.5421 23.0522 12.0369C23.0539 12.5317 22.6532 12.9314 22.1572 12.9297L1.90436 12.8598C1.40833 12.8581 1.00482 12.4556 1.00311 11.9608Z" fill="#0C244E"/>
<path id="Caminho 3 (Stroke) (Stroke)" fill-rule="evenodd" clip-rule="evenodd" d="M0.00266647 11.9574C-0.000971721 10.908 0.848282 10.0645 1.89423 10.0681L22.147 10.1379C23.193 10.1415 24.0481 10.9909 24.0518 12.0404C24.0554 13.0898 23.2061 13.9333 22.1602 13.9297L1.90738 13.8599C0.861427 13.8563 0.00630466 13.0069 0.00266647 11.9574ZM1.8977 11.0681C1.40167 11.0664 1.00095 11.4661 1.00266 11.9609C1.00438 12.4557 1.40788 12.8582 1.90391 12.8599L22.1567 12.9297C22.6528 12.9314 23.0535 12.5317 23.0518 12.0369C23.0501 11.5421 22.6465 11.1396 22.1505 11.1379L1.8977 11.0681Z" fill="#0C244E"/>
</g>
</g>
<g id="line_2">
<g id="Grupo 4_2">
<path id="Caminho 3 (Stroke)_2" fill-rule="evenodd" clip-rule="evenodd" d="M12.0661 22.9966C11.5701 22.995 11.1666 22.5925 11.165 22.0978L11.0973 1.89558C11.0956 1.40079 11.4964 1.00103 11.9924 1.00268C12.4884 1.00433 12.8919 1.40678 12.8936 1.90157L12.9613 22.1037C12.9629 22.5985 12.5621 22.9983 12.0661 22.9966Z" fill="#0C244E"/>
<path id="Caminho 3 (Stroke) (Stroke)_2" fill-rule="evenodd" clip-rule="evenodd" d="M12.07 23.9966C11.0241 23.9931 10.169 23.1438 10.1655 22.0943L10.0978 1.89217C10.0943 0.842741 10.9437 -0.000880476 11.9896 0.00260741C13.0356 0.00609529 13.8906 0.8554 13.8941 1.90483L13.9618 22.107C13.9653 23.1564 13.116 24.0001 12.07 23.9966ZM11.1655 22.0977C11.1672 22.5925 11.5706 22.9949 12.0667 22.9966C12.5627 22.9982 12.9635 22.5985 12.9618 22.1037L12.8941 1.9015C12.8924 1.40671 12.489 1.00426 11.993 1.0026C11.4969 1.00095 11.0962 1.40072 11.0978 1.89551L11.1655 22.0977Z" fill="#0C244E"/>
</g>
</g>
</g>
</svg>
