<svg width="24" height="24" viewBox="0 0 24 24" fill="none" xmlns="http://www.w3.org/2000/svg">
<g id="ic-crypto">
<g id="Vector">
<path d="M12.6006 21.7779H11.3761C11.3336 21.7679 11.2928 21.7537 11.2487 21.7471C10.8022 21.6821 10.3516 21.6388 9.91091 21.5505C8.02002 21.1389 6.29373 20.1756 4.95059 18.7823C3.60746 17.389 2.70787 15.6285 2.36572 13.7236C2.30574 13.3545 2.26409 12.983 2.21328 12.6114V11.3901C2.22411 11.3343 2.23744 11.2801 2.24577 11.2235C2.32324 10.7236 2.36572 10.2238 2.48234 9.73807C2.88919 8.01964 3.7537 6.44346 4.98409 5.17683C6.21448 3.91021 7.76483 3.00042 9.47057 2.54404C11.1763 2.08766 12.9738 2.10172 14.6722 2.58474C16.3706 3.06775 17.9065 4.00169 19.1169 5.28741C20.3274 6.57313 21.1671 8.16265 21.547 9.88723C21.927 11.6118 21.8329 13.4071 21.2748 15.0825C20.7167 16.7579 19.7154 18.251 18.3772 19.4031C17.039 20.5552 15.4139 21.3235 13.6743 21.6263C13.3187 21.6863 12.9588 21.7254 12.6006 21.7721M11.9967 20.6266C13.7034 20.6247 15.3712 20.1169 16.7893 19.1671C18.2074 18.2173 19.3121 16.8684 19.9636 15.2907C20.6152 13.7131 20.7844 11.9777 20.4498 10.3039C20.1153 8.6301 19.292 7.09311 18.0841 5.88725C16.8762 4.68139 15.3379 3.86082 13.6637 3.52929C11.9895 3.19777 10.2546 3.37017 8.67835 4.02471C7.10212 4.67924 5.75534 5.78652 4.8083 7.20653C3.86126 8.62653 3.35649 10.2955 3.3578 12.0024C3.35868 13.136 3.58284 14.2584 4.01749 15.3054C4.45214 16.3523 5.08876 17.3034 5.89099 18.1042C6.69322 18.9051 7.64534 19.5401 8.69297 19.9728C9.7406 20.4056 10.8632 20.6278 11.9967 20.6266Z" fill="#0C244E"/>
<path fill-rule="evenodd" clip-rule="evenodd" d="M11.3065 22.3779L11.2387 22.3619C11.2186 22.3572 11.2008 22.3525 11.1878 22.349L11.1703 22.3442L11.1581 22.3409C11.1557 22.3402 11.1523 22.3394 11.1523 22.3394C11.0302 22.3217 10.8993 22.3047 10.7636 22.2871C10.4504 22.2465 10.1112 22.2025 9.79301 22.1388L9.7833 22.1368C7.77637 21.7 5.94417 20.6775 4.51863 19.1987C3.09308 17.7199 2.13831 15.8514 1.77517 13.8296L1.77341 13.8198C1.73163 13.5627 1.69742 13.2964 1.66465 13.0418C1.64925 12.9221 1.63417 12.805 1.61881 12.6927L1.61328 12.6522V11.3324L1.62426 11.2758C1.63321 11.2297 1.63857 11.2053 1.64239 11.1878C1.64661 11.1686 1.64895 11.158 1.65215 11.1362L1.65283 11.1316C1.67308 11.0009 1.69203 10.8589 1.71183 10.7103C1.75918 10.355 1.81151 9.96233 1.8987 9.59891C2.3306 7.77543 3.24805 6.10288 4.55371 4.75877C5.85959 3.41443 7.50508 2.44881 9.3155 1.96443C11.1259 1.48004 13.0337 1.49497 14.8363 2.00762C16.6389 2.52028 18.2691 3.51152 19.5538 4.87613C20.8385 6.24073 21.7298 7.92777 22.133 9.75815C22.5362 11.5885 22.4364 13.4939 21.844 15.2721C21.2517 17.0503 20.189 18.635 18.7687 19.8578C17.3484 21.0806 15.6236 21.896 13.7772 22.2174L13.7741 22.2179C13.4989 22.2643 13.2161 22.2995 12.9489 22.3328C12.8564 22.3443 12.6884 22.3665 12.6006 22.3779L12.6006 21.7721C12.6956 21.7597 12.7908 21.7478 12.8859 21.736C13.1494 21.7032 13.413 21.6703 13.6743 21.6263C15.4139 21.3235 17.039 20.5552 18.3772 19.4031C19.7154 18.251 20.7167 16.7579 21.2748 15.0825C21.8329 13.4071 21.927 11.6118 21.547 9.88723C21.1671 8.16265 20.3274 6.57313 19.1169 5.28741C17.9065 4.00169 16.3706 3.06775 14.6722 2.58474C12.9738 2.10172 11.1763 2.08766 9.47057 2.54404C7.76483 3.00042 6.21448 3.91021 4.98409 5.17683C3.7537 6.44346 2.88919 8.01964 2.48234 9.73807C2.40247 10.0707 2.35738 10.4099 2.31201 10.7513C2.29112 10.9084 2.27018 11.0659 2.24577 11.2235C2.24027 11.2608 2.2326 11.2971 2.22491 11.3335C2.22094 11.3523 2.21697 11.3711 2.21328 11.3901V12.6114C2.23002 12.7338 2.24577 12.8562 2.26151 12.9786C2.29353 13.2275 2.3255 13.4761 2.36572 13.7236C2.70787 15.6285 3.60746 17.389 4.95059 18.7823C6.29373 20.1756 8.02002 21.1389 9.91091 21.5505C10.2087 21.6101 10.5111 21.6493 10.8136 21.6884C10.9588 21.7072 11.1039 21.726 11.2487 21.7471C11.2772 21.7514 11.3043 21.7588 11.3313 21.7662C11.3462 21.7703 11.3611 21.7743 11.3761 21.7779H12.6006L12.6006 22.3779H11.3065ZM11.9961 20.0266C13.5841 20.0249 15.1359 19.5523 16.4554 18.6686C17.7749 17.7848 18.8028 16.5296 19.4091 15.0617C20.0153 13.5937 20.1728 11.9789 19.8615 10.4215C19.5502 8.86405 18.7841 7.4339 17.6602 6.31188C16.5362 5.18985 15.1049 4.42634 13.5471 4.11787C11.9893 3.80939 10.3751 3.96981 8.90845 4.57883C7.44183 5.18786 6.18868 6.21814 5.30747 7.53944C4.42627 8.86073 3.95658 10.4137 3.9578 12.0019C3.95862 13.0568 4.1672 14.1011 4.57164 15.0753C4.97607 16.0495 5.56844 16.9344 6.31489 17.6796C7.06135 18.4248 7.94727 19.0156 8.92206 19.4183C9.89684 19.821 10.9414 20.0277 11.9961 20.0266ZM16.7893 19.1671C15.3712 20.1169 13.7034 20.6247 11.9967 20.6266C10.8632 20.6278 9.7406 20.4056 8.69297 19.9728C7.64534 19.5401 6.69322 18.9051 5.89099 18.1042C5.08876 17.3034 4.45214 16.3523 4.01749 15.3054C3.58284 14.2584 3.35868 13.136 3.3578 12.0024C3.35649 10.2955 3.86126 8.62653 4.8083 7.20653C5.75534 5.78652 7.10212 4.67924 8.67835 4.02471C10.2546 3.37017 11.9895 3.19777 13.6637 3.52929C15.3379 3.86082 16.8762 4.68139 18.0841 5.88725C19.292 7.09311 20.1153 8.6301 20.4498 10.3039C20.7844 11.9777 20.6152 13.7131 19.9636 15.2907C19.3121 16.8684 18.2074 18.2173 16.7893 19.1671Z" fill="#0C244E"/>
<path d="M12.6057 21.9962L11.2821 21.9779C11.2628 21.9713 11.243 21.9663 11.2229 21.9629C11.0805 21.9421 10.938 21.9246 10.7948 21.9054C10.4866 21.8654 10.1784 21.8221 9.87349 21.7646C7.93763 21.3484 6.16961 20.3649 4.79492 18.9396C3.42024 17.5143 2.5012 15.7118 2.15504 13.7619C2.11256 13.5037 2.08174 13.2429 2.04592 12.9888L1.99844 12.6414V11.3918L2.03426 11.1902C2.05758 11.0369 2.0784 10.882 2.09923 10.7253C2.1394 10.3766 2.19751 10.0301 2.27332 9.6873C2.69024 7.93133 3.57469 6.321 4.83281 5.02716C6.09093 3.73331 7.6758 2.80424 9.41926 2.3385C11.1627 1.87276 12.9997 1.88774 14.7353 2.38185C16.471 2.87596 18.0405 3.83076 19.2773 5.14495C20.5142 6.45914 21.3723 8.08368 21.7605 9.84622C22.1487 11.6088 22.0526 13.4435 21.4824 15.1559C20.9122 16.8682 19.8892 18.3942 18.5218 19.572C17.1545 20.7498 15.4938 21.5354 13.7161 21.8454C13.4437 21.8912 13.1696 21.9287 12.8972 21.9596L12.6332 21.9929L12.6057 21.7754V21.9962ZM12.0009 2.43359C9.84988 2.43705 7.76259 3.16449 6.07521 4.49875C4.38784 5.83302 3.19858 7.69644 2.69898 9.78894C2.62659 10.1166 2.57098 10.4478 2.53238 10.7812C2.51156 10.9403 2.49073 11.0994 2.46574 11.2577L2.43242 11.431V12.6115L2.47657 12.9305C2.50906 13.1805 2.54238 13.437 2.58319 13.6886C2.91471 15.552 3.79342 17.2744 5.10735 18.6364C6.42128 19.9984 8.11092 20.9384 9.96096 21.3364C10.2517 21.3947 10.549 21.433 10.8481 21.4714C10.993 21.4905 11.138 21.5089 11.2837 21.5297C11.3212 21.536 11.3582 21.5447 11.3945 21.5555H12.5749L12.8406 21.5222C13.1071 21.4889 13.3745 21.4555 13.6394 21.4106C15.9919 20.995 18.1036 19.7136 19.5587 17.8187C21.0137 15.9238 21.7067 13.5527 21.5012 11.1724C21.2957 8.792 20.2065 6.57484 18.4482 4.95747C16.6899 3.34009 14.3899 2.4397 12.0009 2.43359ZM12.0009 20.8507C9.65387 20.8531 7.40196 19.923 5.74061 18.2649C4.07926 16.6068 3.14456 14.3565 3.14213 12.0091C3.1397 9.66176 4.06974 7.40957 5.72765 5.74802C7.38556 4.08646 9.63554 3.15164 11.9826 3.14921H11.9943C13.7435 3.14924 15.4535 3.66779 16.9083 4.63935C18.363 5.61091 19.4971 6.99188 20.1675 8.60781C20.8378 10.2237 21.0142 12.0021 20.6744 13.7183C20.3346 15.4344 19.4938 17.0113 18.2583 18.2498C17.4395 19.0751 16.4652 19.7297 15.3916 20.1757C14.3181 20.6217 13.1667 20.8503 12.0043 20.8482L12.0009 20.8507ZM11.9943 3.58658H11.9859C9.75463 3.58901 7.61568 4.47784 6.03962 6.05753C4.46357 7.63722 3.57951 9.77837 3.58194 12.01C3.58437 14.2415 4.47309 16.3808 6.05258 17.957C7.63207 19.5333 9.77296 20.4174 12.0043 20.415C13.6678 20.4123 15.2932 19.9164 16.675 18.99C18.0568 18.0637 19.1329 16.7484 19.7675 15.2105C20.4021 13.6726 20.5665 11.981 20.2401 10.3496C19.9136 8.71825 19.1109 7.22027 17.9335 6.04503C17.1548 5.26344 16.229 4.6438 15.2097 4.22184C14.1903 3.79989 13.0975 3.58399 11.9943 3.58658Z" fill="#0C244E"/>
<path d="M14.1354 11.9945C14.5283 12.3676 14.8056 12.8676 14.9281 13.4243C15.0507 13.9809 15.0123 14.566 14.8185 15.0973C14.6198 15.7062 14.2375 16.2207 13.736 16.5541C13.2345 16.8875 12.6444 17.0194 12.0652 16.9276V17.996H10.8144V16.9276H8.01933V15.5516H9.03671V8.44846H7.99844V7.06543H10.7971V5.996H12.0516V7.06242C12.6424 6.96727 13.2446 7.10462 13.7533 7.4505C14.2619 7.79638 14.6447 8.32884 14.8349 8.95504C15.0137 9.48043 15.0421 10.054 14.9159 10.5979C14.7898 11.1417 14.5154 11.6293 14.13 11.9945M10.303 11.2849C10.3236 11.2931 10.3449 11.2991 10.3666 11.303C11.046 11.303 11.7291 11.308 12.405 11.303C12.5754 11.3095 12.7454 11.2785 12.905 11.2119C13.0646 11.1453 13.2107 11.0444 13.3348 10.9149C13.4589 10.7854 13.5586 10.63 13.6282 10.4577C13.6977 10.2853 13.7357 10.0994 13.7399 9.91074C13.7441 9.72205 13.7144 9.53432 13.6527 9.35838C13.5909 9.18244 13.4982 9.0218 13.38 8.88573C13.2618 8.74966 13.1204 8.64087 12.9639 8.56564C12.8075 8.49042 12.6391 8.45025 12.4685 8.44746H10.4701C10.4165 8.44746 10.3638 8.4565 10.303 8.46253V11.2849ZM10.3121 12.692V15.5385C11.0751 15.5385 11.8218 15.5666 12.5721 15.5295C12.89 15.4956 13.1851 15.3319 13.3998 15.0704C13.6145 14.8088 13.7335 14.4681 13.7335 14.1148C13.7335 13.7614 13.6145 13.4207 13.3998 13.1591C13.1851 12.8976 12.89 12.7339 12.5721 12.7001C11.8245 12.6639 11.076 12.692 10.3121 12.692Z" fill="#0C244E"/>
<path d="M12.8583 17.996H11.0115V16.9716H8.02079V15.1491H9.1094V8.85158H7.99844V7.02231H10.994V5.996H12.8466V6.99247C13.4951 6.95873 14.1368 7.13728 14.6727 7.50058C15.2086 7.86387 15.609 8.39173 15.8121 9.00274C16.0026 9.5088 16.0454 10.0578 15.9355 10.5868C15.8257 11.1158 15.5676 11.6035 15.191 11.9941C15.5782 12.3941 15.8405 12.8964 15.9462 13.4406C16.0519 13.9848 15.9965 14.5477 15.7868 15.0615C15.5652 15.6476 15.1633 16.1499 14.6377 16.4973C14.1122 16.8448 13.4897 17.0198 12.8583 16.9976V17.996ZM11.5199 17.4905L11.9984 16.9999L12.348 16.4315L12.6396 16.4729C13.2011 16.5508 13.7726 16.4356 14.2587 16.1465C14.7448 15.8574 15.1161 15.4119 15.3105 14.8843C15.5002 14.4235 15.5388 13.9152 15.4209 13.4315C15.303 12.9477 15.0345 12.5129 14.6535 12.1886L14.428 11.996L14.6535 11.8034C15.0251 11.4865 14.6747 11.0574 14.7964 10.5868C14.9181 10.1163 15.5059 9.62703 15.3339 9.17218C15.1501 8.62683 14.7787 8.16275 14.2847 7.86097C13.7907 7.55918 13.2053 7.43887 12.6308 7.52103L12.3392 7.56339L11.9984 7.50058L11.5063 6.50434V7.5268H8.51358V8.34516H9.61968V15.6536H8.53108V16.4671H11.5208L11.5199 17.4905ZM12.1905 15.6516C11.9485 15.6516 11.7045 15.6516 11.4713 15.6468C11.238 15.642 10.9804 15.6468 10.7326 15.6468L9.99844 15.6536V12.1886L10.7326 12.41C10.9795 12.41 11.2254 12.41 11.4693 12.4052C12.0233 12.3984 13.2102 11.478 13.7729 11.5031C14.1799 11.5355 14.5189 11.6975 14.7964 11.9941C15.0739 12.2907 15.7851 13.7206 15.7868 14.125C15.7885 14.5293 15.0713 15.8476 14.7964 16.1465C14.5215 16.4454 13.2649 16.4577 12.8583 16.4935C12.5268 16.5079 12.5161 15.6516 12.1905 15.6516ZM10.9892 15.1423H11.4752C12.0467 15.1481 12.5871 15.1529 13.1372 15.1289C13.4302 15.0984 13.6994 14.9548 13.8862 14.7292C14.0731 14.5036 14.1626 14.2141 14.1354 13.9235C14.111 13.6662 13.9966 13.4255 13.812 13.2428C13.6275 13.0602 13.3843 12.9471 13.1246 12.9231C12.589 12.9 12.0476 12.9058 11.4722 12.9106H10.9863L10.9892 15.1423ZM12.2411 11.5916H10.7938C10.7432 11.5869 10.6934 11.5766 10.6451 11.5608L9.99844 11.5031V7.86097L10.7044 8.35864C10.7711 8.34988 10.8383 8.34474 10.9056 8.34324H13.0527C13.4859 8.35458 13.9262 7.18938 14.2247 7.50058C14.5232 7.81177 15.4963 8.34324 15.4862 9.99054C15.4745 10.4132 14.9591 11.8934 14.6535 12.1886C13.7729 11.8034 13.4348 11.5831 13.0079 11.5839L13.1372 11.996L12.2411 11.5839M10.9775 8.84677V11.0794H11.5189C12.0049 11.0794 12.485 11.0794 12.97 11.0794C13.2684 11.0825 13.5562 10.9706 13.7729 10.7675C13.9896 10.5643 14.1182 10.2858 14.1315 9.99054C14.1389 9.69525 14.0275 9.40917 13.8219 9.19522C13.6162 8.98127 13.3333 8.85697 13.0352 8.84966L10.9775 8.84677Z" fill="#0C244E"/>
</g>
</g>
</svg>
