<svg width="24" height="24" viewBox="0 0 24 24" fill="none" xmlns="http://www.w3.org/2000/svg">
<g id="ic-tax">
<g id="Group 24">
<path id="Caminho 70647" d="M2 14.3836C2 15.7029 3.88705 16.4004 5.75 16.4004C7.61295 16.4004 9.5 15.7079 9.5 14.3856C9.5 11.739 2 11.739 2 14.3836Z" fill="#0C244E"/>
<path id="Caminho 70648" d="M5.75 16.8431C4.43045 16.9142 3.12538 16.4799 2.01391 15.5996C2.01391 15.6294 2 15.6557 2 15.6866C2 17.2046 3.88705 17.9996 5.75 17.9996C7.61295 17.9996 9.5 17.2046 9.5 15.6866C9.5 15.6557 9.48794 15.6294 9.48609 15.5996C8.37462 16.4799 7.06955 16.9142 5.75 16.8431Z" fill="#0C244E"/>
<path id="Caminho 70649" d="M5.75 18.829C4.43045 18.8764 3.12538 18.5868 2.01391 18C2.01391 18.0206 2 18.0374 2 18.058C2 19.0707 3.88705 19.6 5.75 19.6C7.61295 19.6 9.5 19.07 9.5 18.058C9.5 18.0374 9.48794 18.0198 9.48609 18C8.37462 18.5868 7.06955 18.8764 5.75 18.829Z" fill="#0C244E"/>
<path id="Caminho 70650" d="M5.75 20.8436C4.43045 20.9147 3.12538 20.4804 2.01391 19.6001C2.01391 19.6298 2 19.6562 2 19.6871C2 21.2062 3.88705 22.0001 5.75 22.0001C7.61295 22.0001 9.5 21.2051 9.5 19.6871C9.5 19.6562 9.48794 19.6298 9.48609 19.6001C8.37462 20.4804 7.06955 20.9147 5.75 20.8436Z" fill="#0C244E"/>
<path id="Caminho 70651" d="M12.4472 5.2H17.3946L18.611 2.77336C18.652 2.69191 18.6715 2.60134 18.6674 2.51029C18.6634 2.41924 18.636 2.33073 18.5879 2.2532C18.5398 2.17567 18.4725 2.1117 18.3925 2.06738C18.3126 2.02306 18.2225 1.99986 18.131 2H11.7034C11.6121 2.00013 11.5223 2.02347 11.4426 2.06781C11.3629 2.11215 11.2959 2.17603 11.2479 2.25337C11.2 2.33072 11.1726 2.41899 11.1685 2.5098C11.1644 2.60061 11.1836 2.69097 11.2244 2.77231L12.4472 5.2Z" fill="#0C244E"/>
<path id="Caminho 70652" d="M17.8876 6H11.7226C10.7325 6.58011 9.87542 7.35676 9.2057 8.28071C8.53598 9.20466 8.06819 10.2557 7.83203 11.3674C9.59943 11.8154 10.695 12.8017 10.695 14.1067V20.1867C10.697 20.5378 10.6167 20.8846 10.4603 21.2H18.4019C19.3553 21.1989 20.2694 20.825 20.9437 20.1602C21.6179 19.4955 21.9974 18.5941 21.9987 17.6538V13.0933C21.987 11.6627 21.6028 10.259 20.8829 9.01693C20.1631 7.77484 19.1316 6.73598 17.8876 6ZM14.2918 13.0933H15.3194C15.5251 13.0881 15.7298 13.1236 15.9214 13.1976C16.113 13.2717 16.2877 13.3828 16.435 13.5245C16.5824 13.6661 16.6996 13.8354 16.7795 14.0225C16.8595 14.2095 16.9007 14.4104 16.9007 14.6133C16.9007 14.8163 16.8595 15.0172 16.7795 15.2042C16.6996 15.3912 16.5824 15.5605 16.435 15.7022C16.2877 15.8439 16.113 15.955 15.9214 16.029C15.7298 16.1031 15.5251 16.1385 15.3194 16.1333V16.6395C15.3194 16.7739 15.2652 16.9027 15.1689 16.9978C15.0725 17.0928 14.9419 17.1462 14.8056 17.1462C14.6694 17.1462 14.5387 17.0928 14.4423 16.9978C14.346 16.9027 14.2918 16.7739 14.2918 16.6395V16.1333H13.2633C13.131 16.1275 13.0061 16.0716 12.9145 15.9772C12.823 15.8828 12.7719 15.7573 12.7719 15.6267C12.7719 15.4961 12.823 15.3705 12.9145 15.2761C13.0061 15.1817 13.131 15.1258 13.2633 15.12H15.3183C15.4546 15.12 15.5853 15.0666 15.6816 14.9716C15.778 14.8766 15.8321 14.7477 15.8321 14.6133C15.8321 14.479 15.778 14.3501 15.6816 14.2551C15.5853 14.16 15.4546 14.1067 15.3183 14.1067H14.2908C13.8889 14.0965 13.5069 13.9319 13.2263 13.6479C12.9457 13.364 12.7886 12.9832 12.7886 12.5867C12.7886 12.1902 12.9457 11.8093 13.2263 11.5254C13.5069 11.2415 13.8889 11.0768 14.2908 11.0667V10.5595C14.2908 10.4251 14.345 10.2963 14.4413 10.2012C14.5377 10.1062 14.6683 10.0528 14.8046 10.0528C14.9408 10.0528 15.0715 10.1062 15.1679 10.2012C15.2642 10.2963 15.3183 10.4251 15.3183 10.5595V11.0667H16.3458C16.4821 11.0667 16.6128 11.12 16.7091 11.2151C16.8055 11.3101 16.8596 11.439 16.8596 11.5733C16.8596 11.7077 16.8055 11.8366 16.7091 11.9316C16.6128 12.0266 16.4821 12.08 16.3458 12.08H14.2908C14.1585 12.0858 14.0336 12.1417 13.9421 12.2361C13.8505 12.3305 13.7994 12.4561 13.7994 12.5867C13.7994 12.7173 13.8505 12.8428 13.9421 12.9372C14.0336 13.0316 14.1595 13.0875 14.2918 13.0933Z" fill="#0C244E"/>
</g>
</g>
</svg>
