<svg width="31" height="31" viewBox="0 0 31 31" fill="none" xmlns="http://www.w3.org/2000/svg">
<g id="Group 23">
<path id="Caminho 70653" d="M7.62891 22.7916C11.299 22.7916 14.285 19.358 14.285 15.2091C14.2862 13.2493 13.5942 11.353 12.3327 9.85977C12.5124 9.14336 12.6078 8.40821 12.6171 7.66941C12.6199 3.97684 10.3818 0.916626 7.62891 0.916626C4.87601 0.916626 2.58099 3.97684 2.58099 7.66941C2.59038 8.4082 2.68582 9.14334 2.86538 9.85977C1.59248 11.3438 0.900008 13.2432 0.917309 15.2033C0.917309 19.3566 3.95886 22.7916 7.62891 22.7916Z" fill="#E7EEF7"/>
<path id="Caminho 70654" d="M1.7714 30.0836H29.2293C29.4559 30.0836 29.6732 29.994 29.8334 29.8344C29.9936 29.6749 30.0837 29.4585 30.0837 29.2329C30.0837 29.0073 29.9936 28.7909 29.8334 28.6314C29.6732 28.4718 29.4559 28.3822 29.2293 28.3822H28.3748V26.6808H29.2293C29.4559 26.6808 29.6732 26.5912 29.8334 26.4317C29.9936 26.2721 30.0837 26.0557 30.0837 25.8301C30.0837 25.6045 29.9936 25.3881 29.8334 25.2286C29.6732 25.069 29.4559 24.9794 29.2293 24.9794H28.3748V22.4273C28.3748 22.3156 28.3527 22.205 28.3098 22.1018C28.2669 21.9986 28.2039 21.9048 28.1246 21.8258C28.0453 21.7468 27.9511 21.6842 27.8474 21.6414C27.7437 21.5987 27.6326 21.5767 27.5204 21.5767H22.3356C22.109 21.5767 21.8917 21.6663 21.7314 21.8258C21.5712 21.9853 21.4812 22.2017 21.4812 22.4273V24.9794H20.6341C20.4075 24.9794 20.1901 25.069 20.0299 25.2286C19.8697 25.3881 19.7797 25.6045 19.7797 25.8301C19.7797 26.0557 19.8697 26.2721 20.0299 26.4317C20.1901 26.5912 20.4075 26.6808 20.6341 26.6808H21.4885V28.3822H18.0708V24.7904C17.51 24.9159 16.9369 24.9793 16.362 24.9794C15.784 24.9767 15.2082 24.9079 14.6459 24.7744V28.3793H9.51948V24.7875C8.39425 25.0388 7.22708 25.0388 6.10185 24.7875V28.3793H1.7714C1.5448 28.3793 1.32747 28.4689 1.16724 28.6285C1.00701 28.788 0.916992 29.0044 0.916992 29.23C0.916992 29.4556 1.00701 29.672 1.16724 29.8315C1.32747 29.991 1.5448 30.0807 1.7714 30.0807V30.0836ZM23.1914 26.6808H26.666V28.3822H23.1914V26.6808Z" fill="#E7EEF7"/>
<path id="Caminho 70655" d="M14.3706 9.45855C15.5526 11.1339 16.1881 13.1419 16.1881 15.2013C16.207 17.7759 15.2183 20.2531 13.4385 22.0904C14.2841 22.5445 15.2255 22.7851 16.1825 22.7916C19.8275 22.7916 22.7932 19.3571 22.7932 15.2071C22.8092 13.2459 22.12 11.3459 20.8542 9.86211C21.0325 9.14549 21.1273 8.41016 21.1367 7.67117C21.1367 3.97764 18.9124 0.916626 16.1782 0.916626C15.5841 0.936175 15.0006 1.08179 14.4654 1.34406C13.9302 1.60633 13.4553 1.97943 13.0713 2.43926C14.3462 4.53779 14.8057 7.0416 14.3607 9.46428L14.3706 9.45855Z" fill="#E7EEF7"/>
</g>
</svg>
