<svg width="24" height="24" viewBox="0 0 24 24" fill="none" xmlns="http://www.w3.org/2000/svg">
<g id="ic-clothes">
<path id="ic-clothes_2" d="M23.9878 5.38252C24.0045 5.46968 24.004 5.5594 23.9865 5.64638C23.969 5.73336 23.9347 5.81585 23.8857 5.88897L21.0032 10.6061C20.9455 10.6931 20.8681 10.7644 20.7777 10.8136C20.6872 10.8629 20.5865 10.8886 20.4841 10.8886C20.3963 10.8873 20.3089 10.8775 20.2228 10.8593L17.9128 10.2354V21.4116C17.9182 21.4871 17.9084 21.5629 17.8839 21.6343C17.8595 21.7057 17.8209 21.7711 17.7707 21.8264C17.7205 21.8817 17.6597 21.9256 17.5922 21.9555C17.5246 21.9854 17.4518 22.0005 17.3783 22H6.14628C6.07278 22.0005 5.99997 21.9854 5.93243 21.9555C5.8649 21.9256 5.80411 21.8817 5.7539 21.8264C5.70368 21.7711 5.66513 21.7057 5.64068 21.6343C5.61623 21.5629 5.6064 21.4871 5.61181 21.4116V10.2354L3.53691 10.8642C3.42648 10.9031 3.30599 10.8988 3.19843 10.8521C3.09087 10.8054 3.00377 10.7196 2.95375 10.611L0.093779 5.90609C0.0496606 5.83406 0.0202703 5.75351 0.00740485 5.66937C-0.00546055 5.58524 -0.00153065 5.49928 0.0189542 5.41677C0.03784 5.33539 0.0740687 5.25937 0.125014 5.1942C0.175959 5.12903 0.240345 5.07635 0.313503 5.03999L6.14628 2.00006H8.81978C8.89343 1.99896 8.9665 2.01372 9.03428 2.04341C9.10207 2.07311 9.16308 2.11706 9.21341 2.17247C9.26373 2.22787 9.30226 2.2935 9.32651 2.36514C9.35076 2.43678 9.36021 2.51285 9.35424 2.58847C9.35424 3.80077 10.8982 4.65954 12.0016 4.65954C13.105 4.65954 14.7024 3.80322 14.7024 2.58847C14.697 2.51297 14.7068 2.43714 14.7313 2.36575C14.7558 2.29435 14.7943 2.22896 14.8445 2.17367C14.8947 2.11839 14.9555 2.07442 15.0231 2.04454C15.0906 2.01466 15.1634 1.99951 15.2369 2.00006H17.9104L23.685 4.97638C23.7604 5.01827 23.8264 5.07612 23.8785 5.14611C23.9307 5.2161 23.968 5.29666 23.9878 5.38252Z" fill="#0C244E"/>
</g>
</svg>
