<svg width="24" height="24" viewBox="0 0 24 24" fill="none" xmlns="http://www.w3.org/2000/svg">
<g id="ic-left">
<path id="ic-down" d="M6 12.0057C6 12.2936 6.12271 12.5814 6.35589 12.7772L16.0859 21.6891C16.2945 21.8848 16.5644 22 16.8712 22C17.5092 22 18 21.5509 18 20.9522C18 20.6643 17.8773 20.3995 17.681 20.2037L8.07365 11.384L8.07365 12.616L17.681 3.79619C17.8773 3.61197 18 3.34714 18 3.04779C18 2.44905 17.5092 2 16.8712 2C16.5644 2 16.2945 2.11514 16.0736 2.31088L6.35589 11.2228C6.12271 11.4416 6 11.7064 6 12.0057Z" fill="#0C244E"/>
</g>
</svg>
