<svg width="100" height="100" viewBox="0 0 100 100" fill="none" xmlns="http://www.w3.org/2000/svg">
<g clip-path="url(#clip0_1090_7160)">
<path d="M49.8774 98.9074C22.8331 98.9074 0.831055 76.8697 0.831055 49.7818C0.831055 22.6939 22.8331 0.65625 49.8774 0.65625C76.9216 0.65625 98.9237 22.6939 98.9237 49.7818C98.9237 76.8697 76.9216 98.9074 49.8774 98.9074ZM49.8774 1.17502C23.1189 1.17502 1.34899 22.9801 1.34899 49.7818C1.34899 76.5835 23.1189 98.3886 49.8774 98.3886C76.6358 98.3886 98.405 76.5835 98.405 49.7818C98.405 22.9801 76.6351 1.17502 49.8774 1.17502Z" fill="#0C244E"/>
<path d="M47.1548 99.9222C46.2667 99.8731 45.3854 99.8006 44.5116 99.7063C43.7999 99.6292 43.285 98.9889 43.3619 98.276C43.4396 97.5632 44.0842 97.0474 44.7898 97.1245C46.4726 97.3065 48.2035 97.4008 49.9066 97.4039C50.6364 97.3903 51.2026 97.9868 51.2011 98.7034C51.2011 99.4208 50.6191 100.002 49.9036 100C48.9936 99.9992 48.0686 99.9728 47.1548 99.9222ZM39.3881 98.8635C39.3195 98.8598 39.2501 98.8507 39.1815 98.8356C37.4257 98.4505 35.6736 97.9649 33.9743 97.3925C33.2957 97.1637 32.9308 96.4275 33.1593 95.7479C33.3877 95.069 34.122 94.702 34.8013 94.9316C36.4116 95.4745 38.0718 95.9344 39.7356 96.2999C40.4353 96.4532 40.8778 97.1449 40.7248 97.8456C40.5868 98.4769 40.0123 98.899 39.3881 98.8643V98.8635ZM55.0867 99.7206C54.464 99.6859 53.94 99.2041 53.8714 98.5622C53.7945 97.8494 54.3102 97.2098 55.0219 97.1335C56.7144 96.9515 58.4145 96.6752 60.0761 96.3104C60.778 96.1572 61.4671 96.6012 61.6193 97.3012C61.7724 98.0012 61.3298 98.6936 60.6302 98.8469C58.8774 99.2313 57.0831 99.5235 55.2978 99.7146C55.2262 99.7221 55.1561 99.7236 55.0867 99.7198V99.7206ZM29.4252 95.507C29.2661 95.4979 29.1063 95.4594 28.9532 95.3884C27.327 94.6341 25.7212 93.78 24.1795 92.8504C23.5665 92.4804 23.369 91.6823 23.7384 91.0684C24.1086 90.4552 24.9055 90.2566 25.5177 90.6266C26.9787 91.5086 28.5016 92.3181 30.0426 93.0332C30.6925 93.3345 30.9752 94.1062 30.6744 94.7564C30.4444 95.2533 29.9408 95.5364 29.4259 95.5078L29.4252 95.507ZM65.3527 97.4688C64.8385 97.4401 64.3696 97.1041 64.1954 96.5861C63.967 95.9064 64.3319 95.1702 65.0104 94.9414C66.6238 94.397 68.2243 93.7581 69.7676 93.0423C70.416 92.741 71.1872 93.0234 71.4888 93.6751C71.7896 94.326 71.5069 95.0977 70.857 95.399C69.2278 96.1541 67.539 96.8285 65.8375 97.4024C65.6769 97.4567 65.5125 97.4779 65.3527 97.4688ZM20.422 90.0716C20.1717 90.058 19.9236 89.9712 19.7095 89.8081C18.2831 88.7199 16.8982 87.5404 15.5939 86.302C15.0745 85.8081 15.0526 84.9865 15.5449 84.4663C16.038 83.946 16.8575 83.9233 17.3777 84.4172C18.6149 85.5922 19.9274 86.7105 21.2807 87.7428C21.8499 88.177 21.96 88.9918 21.5265 89.5619C21.2566 89.9175 20.8374 90.0942 20.4227 90.0716H20.422ZM74.8889 93.0475C74.475 93.0249 74.0792 92.8036 73.8493 92.4208C73.4798 91.8069 73.6774 91.0087 74.291 90.6394C75.7499 89.759 77.1763 88.7901 78.531 87.7601C79.1002 87.3267 79.9129 87.4369 80.3472 88.0086C80.7799 88.5795 80.6691 89.3935 80.0992 89.8277C78.6712 90.9135 77.1672 91.9352 75.6285 92.8633C75.397 93.003 75.14 93.0619 74.8889 93.0475ZM12.7954 82.8299C12.4532 82.811 12.1192 82.657 11.8794 82.3746C10.7192 81.007 9.61847 79.5587 8.60823 78.0703C8.20564 77.4776 8.35944 76.6696 8.95126 76.2671C9.54383 75.8631 10.3498 76.0179 10.7516 76.6107C11.7098 78.022 12.754 79.3956 13.8547 80.6929C14.3183 81.2396 14.252 82.0582 13.7062 82.5226C13.443 82.7468 13.1159 82.8473 12.7954 82.8292V82.8299ZM83.2558 86.6803C82.9361 86.6629 82.6225 86.527 82.3858 86.2756C81.8935 85.7545 81.9168 84.9329 82.437 84.4398C83.6742 83.2679 84.8616 82.0166 85.9653 80.7201C86.429 80.1741 87.247 80.1077 87.792 80.5743C88.3371 81.0395 88.402 81.8588 87.9376 82.4048C86.7743 83.7723 85.5228 85.0923 84.2178 86.3277C83.9486 86.5829 83.598 86.6992 83.2558 86.6803ZM6.89082 74.1248C6.4528 74.1006 6.03815 73.8545 5.81726 73.4376C4.97439 71.8511 4.20917 70.1997 3.54347 68.5308C3.27734 67.8648 3.60152 67.1089 4.26571 66.8431C4.93292 66.5766 5.68532 66.902 5.9507 67.5665C6.58247 69.1485 7.30773 70.7139 8.10612 72.2189C8.44237 72.8517 8.20263 73.6378 7.5701 73.9745C7.35372 74.0901 7.11926 74.1376 6.89082 74.1248ZM90.0711 78.6684C89.8434 78.6556 89.6173 78.5831 89.4145 78.4456C88.8226 78.0424 88.6696 77.2352 89.0722 76.6416C90.0327 75.2281 90.9238 73.7503 91.7214 72.2498C92.0584 71.6178 92.841 71.3777 93.475 71.7137C94.1068 72.0505 94.3465 72.8366 94.0103 73.4701C93.1689 75.0536 92.2288 76.6122 91.2163 78.1028C90.9509 78.4932 90.5106 78.6926 90.0719 78.6684H90.0711ZM2.99161 64.3527C2.45256 64.3225 1.9678 63.954 1.81475 63.4043C1.33527 61.675 0.943989 59.8967 0.65298 58.1191C0.537632 57.4116 1.01636 56.744 1.72278 56.6278C2.42768 56.513 3.09489 56.9917 3.21175 57.6993C3.48692 59.384 3.85709 61.0694 4.31245 62.708C4.50395 63.399 4.10061 64.1148 3.41078 64.3074C3.27055 64.3467 3.12882 64.361 2.99161 64.3535V64.3527ZM95.01 69.3751C94.8728 69.3675 94.7348 69.3373 94.6006 69.2837C93.9357 69.0179 93.6122 68.262 93.8783 67.596C94.5094 66.0147 95.0605 64.3791 95.5166 62.7352C95.7081 62.045 96.4205 61.6433 97.1126 61.8321C97.8025 62.0247 98.2058 62.7398 98.0143 63.4307C97.5325 65.1652 96.9513 66.8907 96.2856 68.5595C96.0737 69.0904 95.5505 69.4045 95.01 69.3743V69.3751ZM1.29305 53.9644C0.641671 53.9282 0.107904 53.4056 0.0717159 52.7381C-0.0240306 50.9462 -0.0240306 49.1263 0.0724698 47.3284C0.110919 46.6125 0.721585 46.0628 1.43629 46.102C2.13818 46.1866 2.69909 46.7514 2.66064 47.4681C2.56942 49.1731 2.56866 50.8994 2.66064 52.5984C2.69909 53.315 2.15024 53.9259 1.43554 53.9644C1.38729 53.9667 1.33979 53.9667 1.29229 53.9644H1.29305ZM1.85697 43.4553C1.81174 43.453 1.7665 43.4485 1.71976 43.4402C1.01335 43.3254 0.533108 42.6587 0.647702 41.9511C0.934942 40.1773 1.3217 38.3982 1.79817 36.6652C1.98891 35.975 2.7006 35.5657 3.39193 35.7583C4.08251 35.9486 4.48736 36.6637 4.29738 37.3546C3.84578 38.9978 3.47863 40.684 3.20722 42.3664C3.10017 43.0279 2.51137 43.4916 1.85697 43.4553ZM4.64945 33.3079C4.51375 33.3004 4.37654 33.2709 4.24234 33.2181C3.57664 32.9538 3.25246 32.1986 3.51633 31.5319C4.17901 29.8623 4.94121 28.2085 5.78258 26.6167C6.11807 25.9839 6.90062 25.7415 7.53466 26.0768C8.16719 26.4121 8.40844 27.1982 8.07371 27.8317C7.27607 29.3397 6.55383 30.9074 5.92657 32.4901C5.71548 33.0225 5.19151 33.3374 4.65021 33.3079H4.64945ZM96.6776 38.1445C96.1393 38.1143 95.6553 37.7473 95.5015 37.1983C95.0424 35.5574 94.4875 33.9241 93.8527 32.3421C93.5858 31.6768 93.9085 30.9202 94.572 30.6529C95.2384 30.3863 95.9916 30.7088 96.2584 31.3733C96.9279 33.0421 97.5137 34.7661 97.9977 36.4968C98.1907 37.187 97.7889 37.9036 97.0998 38.0977C96.9588 38.137 96.8163 38.1521 96.6776 38.1445ZM9.56795 24.0032C9.34103 23.9904 9.11485 23.9187 8.91356 23.7812C8.32099 23.3787 8.16644 22.5723 8.56827 21.978C9.57399 20.4919 10.6739 19.042 11.8372 17.6692C12.3009 17.1233 13.1174 17.0546 13.6647 17.5197C14.2105 17.9841 14.2769 18.8034 13.8147 19.3501C12.7118 20.652 11.6683 22.0263 10.7146 23.4361C10.4493 23.828 10.0082 24.0282 9.56871 24.004L9.56795 24.0032ZM92.7603 28.3799C92.3238 28.3558 91.9091 28.1104 91.6875 27.6958C90.8861 26.1931 89.9935 24.7168 89.0337 23.3085C88.6296 22.7165 88.7819 21.9085 89.3737 21.5045C89.9656 21.0998 90.7715 21.2531 91.1748 21.8451C92.1866 23.3304 93.129 24.8875 93.9741 26.4717C94.3111 27.1045 94.0729 27.8906 93.4418 28.2289C93.2247 28.3445 92.9887 28.3928 92.7603 28.3799ZM16.3697 15.977C16.0508 15.9589 15.7379 15.8245 15.5012 15.5745C15.0089 15.0542 15.0308 14.2326 15.5495 13.7388C16.8515 12.5019 18.2349 11.3216 19.6613 10.2312C20.2297 9.79703 21.0447 9.90501 21.4782 10.4759C21.9125 11.046 21.8031 11.8608 21.2339 12.2957C19.8814 13.3295 18.5696 14.4494 17.334 15.6228C17.0648 15.8788 16.7143 15.9959 16.3705 15.977H16.3697ZM86.8361 19.6862C86.4946 19.6673 86.1613 19.5132 85.9216 19.2323C84.8186 17.9365 83.6305 16.6861 82.3918 15.5141C81.8716 15.0218 81.8482 14.2002 82.339 13.6784C82.8298 13.1573 83.6501 13.1332 84.1718 13.6255C85.4783 14.8609 86.7298 16.1801 87.8946 17.5461C88.359 18.0913 88.2942 18.9114 87.7498 19.3766C87.486 19.6016 87.158 19.7028 86.8368 19.6847L86.8361 19.6862ZM24.726 9.59389C24.3129 9.57124 23.9179 9.35074 23.6879 8.96941C23.3177 8.35624 23.5138 7.55807 24.1267 7.18655C25.6639 6.25472 27.2682 5.39916 28.8929 4.64177C29.5413 4.33896 30.3133 4.62138 30.6148 5.27155C30.9164 5.92171 30.6352 6.69421 29.9861 6.99626C28.4451 7.71363 26.9252 8.52539 25.4671 9.40889C25.2357 9.54934 24.9771 9.60824 24.7253 9.59389H24.726ZM79.1937 12.4596C78.9442 12.446 78.6969 12.3599 78.4828 12.1976C77.1257 11.1668 75.6986 10.1995 74.2398 9.3228C73.6261 8.9543 73.4263 8.15613 73.795 7.54146C74.1636 6.92528 74.9613 6.72894 75.5734 7.09593C77.1122 8.02021 78.6185 9.04114 80.0502 10.1285C80.6209 10.5612 80.7324 11.376 80.2997 11.9476C80.0298 12.3048 79.6099 12.4823 79.1945 12.4588L79.1937 12.4596ZM34.2509 5.15601C33.7383 5.12732 33.2693 4.7928 33.0944 4.27629C32.8645 3.59743 33.2279 2.85967 33.9056 2.63011C35.6042 2.05319 37.3555 1.56312 39.1099 1.17423C39.811 1.0164 40.5008 1.46117 40.6554 2.16118C40.8099 2.86118 40.3689 3.55439 39.67 3.70919C38.0069 4.07769 36.3476 4.54209 34.7372 5.08805C34.5751 5.14317 34.4108 5.16432 34.2494 5.15526L34.2509 5.15601ZM70.1807 7.04459C70.0232 7.03552 69.8641 6.99777 69.7111 6.92679C68.164 6.21319 66.5612 5.57813 64.9479 5.03746C64.2686 4.81016 63.9029 4.07467 64.1299 3.3943C64.3568 2.71544 65.0903 2.34769 65.7704 2.57499C67.4727 3.14511 69.163 3.81566 70.7952 4.56777C71.4458 4.86755 71.73 5.63854 71.4307 6.29021C71.2015 6.7886 70.6972 7.07253 70.1807 7.04383V7.04459ZM44.5086 2.88308C43.8867 2.84834 43.3634 2.36808 43.2933 1.72773C43.2157 1.01565 43.7298 0.374546 44.4415 0.296013C46.2223 0.100435 48.0369 0.00151319 49.8342 2.93161e-06C50.5429 -0.00150732 51.131 0.580696 51.131 1.29807C51.131 2.01468 50.5512 2.59689 49.8358 2.59689C48.1327 2.59764 46.4115 2.69203 44.722 2.87704C44.6504 2.88459 44.5787 2.8861 44.5079 2.88232L44.5086 2.88308ZM60.2148 3.70768C60.147 3.7039 60.0791 3.69484 60.0105 3.67974C58.3512 3.31954 56.6496 3.04543 54.9533 2.86571C54.2416 2.7902 53.7259 2.15061 53.8013 1.43701C53.8767 0.72417 54.4964 0.210683 55.2277 0.283176C57.016 0.473468 58.8095 0.761926 60.5601 1.14251C61.2597 1.29429 61.7038 1.98599 61.5522 2.68675C61.415 3.31879 60.8398 3.74241 60.2156 3.70768H60.2148ZM98.1364 58.9951C98.0007 59.0162 97.8597 59.0147 97.7173 58.9898C97.0124 58.8667 96.5404 58.1939 96.6633 57.4878C96.9551 55.8107 97.1586 54.0966 97.2664 52.393C97.3124 51.6779 97.9261 51.1387 98.6423 51.1795C99.357 51.2256 99.8991 51.8425 99.8538 52.5584C99.7392 54.3556 99.5251 56.1641 99.2168 57.9341C99.1188 58.4975 98.671 58.9128 98.1364 58.9943V58.9951ZM99.2228 48.347C99.0969 48.4022 98.9605 48.4369 98.8165 48.4497C98.1033 48.5116 97.4753 47.9823 97.4134 47.268C97.2664 45.5719 97.0252 43.8623 96.6935 42.189C96.5547 41.4859 97.0101 40.8071 97.7135 40.6629C98.4161 40.5239 99.0977 40.9815 99.2371 41.6845C99.5862 43.4508 99.8418 45.254 99.9963 47.0444C100.045 47.6146 99.7196 48.1303 99.2236 48.347H99.2228Z" fill="#0C244E"/>
<path fill-rule="evenodd" clip-rule="evenodd" d="M50 74.1667C63.3469 74.1667 74.1667 63.3469 74.1667 50C74.1667 36.6531 63.3469 25.8333 50 25.8333C36.6531 25.8333 25.8333 36.6531 25.8333 50C25.8333 63.3469 36.6531 74.1667 50 74.1667ZM50 79C66.0163 79 79 66.0163 79 50C79 33.9837 66.0163 21 50 21C33.9837 21 21 33.9837 21 50C21 66.0163 33.9837 79 50 79Z" fill="#0C244E"/>
<path d="M50.3144 62.4216C47.5626 62.4216 45.4988 61.8126 44.1229 60.5946C42.7695 59.3766 42.0929 57.6962 42.0929 55.5534C42.0929 54.8767 42.1718 54.2677 42.3297 53.7264H40.6719V51.2227H43.6154C44.0214 50.7491 44.5063 50.3092 45.0702 49.9032C45.6341 49.4972 46.2657 49.1251 46.9649 48.7867H40.6719V46.2831H51.9722C52.5587 45.7417 52.8519 45.0312 52.8519 44.1516C52.8519 43.4298 52.5812 42.8659 52.0399 42.4599C51.5211 42.0539 50.7655 41.8509 49.773 41.8509C48.8483 41.8509 47.9348 41.9749 47.0325 42.2231C46.1303 42.4712 45.1153 42.8208 43.9875 43.2719L42.465 39.2796C43.6379 38.7608 44.8559 38.3548 46.119 38.0616C47.4047 37.7458 48.758 37.5879 50.179 37.5879C52.5248 37.5879 54.3857 38.1631 55.7615 39.3134C57.16 40.4412 57.8592 42.0877 57.8592 44.2531C57.8592 44.9523 57.769 45.6289 57.5885 46.2831H59.314V48.7867H56.1675C55.6713 49.3506 55.0849 49.8243 54.4082 50.2077C53.7315 50.5686 53.0323 50.9069 52.3105 51.2227H59.314V53.7264H47.743C47.3145 54.2226 47.1002 54.8316 47.1002 55.5534C47.1002 56.3879 47.3934 57.0421 47.9799 57.5157C48.5663 57.9668 49.446 58.1924 50.6189 58.1924C51.8369 58.1924 53.0323 58.0571 54.2052 57.7864C55.3781 57.4932 56.551 57.1097 57.7239 56.6361V60.8991C56.7314 61.3727 55.6037 61.7449 54.3405 62.0156C53.1 62.2862 51.7579 62.4216 50.3144 62.4216Z" fill="#0C244E"/>
<g opacity="0.5">
<path d="M98.7366 49.0342H83.6931L81.5738 47.0905L81.5655 46.9893C80.2756 32.1782 69.1215 20.362 54.4414 18.2559L54.5153 17.7417C69.4012 19.878 80.7197 31.8377 82.0722 46.8436L83.8936 48.5146H98.7358V49.0342H98.7366Z" fill="#0C244E"/>
<path d="M23.5008 42.9577H21.0597L19.0068 40.1486L19.046 40.0233C22.1182 30.27 29.7274 22.465 39.3993 19.1455L39.5674 19.6363C30.0916 22.8894 22.6286 30.5155 19.5806 40.0542L21.3228 42.4382H23.5L23.5008 42.9577Z" fill="#0C244E"/>
<path d="M49.8772 94.665C25.1679 94.665 5.06641 74.5302 5.06641 49.7817C5.06641 25.0332 25.1679 4.89844 49.8772 4.89844C68.9527 4.89844 85.9661 17.0273 92.2145 35.0779L92.3336 35.423H89.9045L89.8427 35.2523C83.7624 18.4764 67.7012 7.2046 49.8765 7.2046C26.4375 7.2046 7.36809 26.3048 7.36809 49.7817C7.36809 73.2586 26.4375 92.3588 49.8765 92.3588C67.4041 92.3588 83.3704 81.3332 89.6083 64.9228L89.6716 64.7551H92.1316L92.0049 65.1032C85.5937 82.7845 68.6632 94.6642 49.8765 94.6642L49.8772 94.665ZM49.8772 5.41796C25.4544 5.41796 5.58434 25.3193 5.58434 49.7817C5.58434 74.244 25.4536 94.1454 49.8772 94.1454C68.3239 94.1454 84.9589 82.5588 91.3905 65.2746H90.0289C83.6712 81.7923 67.5579 92.8776 49.8772 92.8776C26.1517 92.8776 6.85016 73.544 6.85016 49.7809C6.85016 26.0178 26.1517 6.68507 49.8772 6.68507C67.8587 6.68507 84.067 18.0173 90.2679 34.9034H91.6039C85.3313 17.2523 68.6096 5.41796 49.8772 5.41796Z" fill="#0C244E"/>
<path d="M80.4118 49.0341H76.9989L75 45L74.4813 44.7848H75L75.5187 44.7848L77.2138 48.5146H79.8758C79.2855 34.1762 68.6282 22.2293 54.4404 20.0523L54.5196 19.5388C69.0414 21.7664 79.9278 34.0584 80.4043 48.7653L80.4126 49.0333L80.4118 49.0341Z" fill="#0C244E"/>
<path d="M25 40.9331H23.6968L21.7178 37.9262L21.7728 37.7978C25.0749 30.0396 31.4982 23.9352 39.3954 21.0483L39.5734 21.5362C31.8533 24.3581 25.5665 30.3085 22.3043 37.8733L23.9765 40.4136H25.0008L25 40.9331Z" fill="#0C244E"/>
<path d="M49.8751 80.3704C47.8999 80.3704 45.9329 80.1839 44.0293 79.8154L44.1273 79.3049C45.9985 79.6674 47.9323 79.8509 49.8744 79.8509V80.3704H49.8751Z" fill="#0C244E"/>
<path d="M54.5185 80.014L54.4808 79.7625L54.2207 79.7678V79.5345L54.4408 79.5012C68.6287 77.3348 79.2852 65.3924 79.8762 51.0496L75 51.0496V50.53L80.413 50.53L80.4047 50.7981C79.9282 65.5087 69.041 77.7962 54.5185 80.014Z" fill="#0C244E"/>
<path d="M39.3954 78.5159C31.4982 75.629 25.0749 69.5238 21.7728 61.7664L21.7178 61.638L23.6968 58.6311H25.5V59.1506H23.9757L22.3036 61.6909C25.5657 69.2557 31.8526 75.2062 39.5726 78.0281L39.3954 78.5159Z" fill="#0C244E"/>
<path d="M39.3899 76.603C33.2908 74.2176 28.1326 69.7464 24.8659 64.0158L24.792 63.8859L26.6632 60.657H27.5V61.1765H26.9625L25.3906 63.8874C28.603 69.4542 33.6361 73.7947 39.5784 76.1197L39.3899 76.603Z" fill="#0C244E"/>
<path d="M49.8752 78.5838C47.9196 78.5838 45.9519 78.3822 44.0264 77.9865L44.1304 77.4775C46.0212 77.8672 47.9542 78.065 49.8744 78.065V78.5846L49.8752 78.5838Z" fill="#0C244E"/>
<path d="M77.9678 46.8895C76.6793 34.1973 67.0029 23.9087 54.4375 21.8699L54.5204 21.3579C67.3173 23.4338 77.1716 33.9111 78.4834 46.8374L77.9678 46.8903V46.8895Z" fill="#0C244E"/>
<path d="M28 38.9072H26.6632L24.792 35.6783L24.8659 35.5484C28.1326 29.817 33.2908 25.3466 39.3899 22.9612L39.5784 23.4452C33.6353 25.7703 28.6022 30.1107 25.3906 35.6775L26.9625 38.3884H28V38.9072Z" fill="#0C244E"/>
<path d="M97.9061 58.6311H96.3613V59.1506H97.9061V58.6311Z" fill="#0C244E"/>
<path d="M49.8745 89.3027C28.1175 89.3027 10.418 71.5738 10.418 49.7816C10.418 27.9894 28.1182 10.2612 49.8745 10.2612C67.4987 10.2612 83.1091 22.1009 87.867 39.0648L89.6365 40.4127H97.9068V40.9322H89.4616L87.4147 39.3721L87.3913 39.2876C82.7231 22.5026 67.2959 10.78 49.8745 10.78C28.404 10.78 10.9367 28.2755 10.9367 49.7808C10.9367 71.2861 28.404 88.7824 49.8745 88.7824C67.2959 88.7824 82.7231 77.0598 87.3913 60.2741L87.4139 60.194L88.1822 59.5718L88.5086 59.9758L87.8686 60.4938C83.1114 77.4593 67.5002 89.3019 49.8745 89.3019V89.3027Z" fill="#0C244E"/>
<path d="M39.4003 80.4179C29.7284 77.0976 22.1199 69.2926 19.047 59.5401L19.0078 59.4148L21.0607 56.6057H25V57.1252H21.3246L19.5823 59.5092C22.6303 69.0472 30.0933 76.674 39.5692 79.9271L39.4003 80.4179Z" fill="#0C244E"/>
<path d="M54.5153 81.8217L54.4414 81.3075C69.1223 79.1992 80.2764 67.3882 81.5655 52.5847L81.5738 52.4843L83.6931 50.5406L98.7366 50.5308V51.0503L83.8944 51.0601L82.0729 52.7312C80.7204 67.7288 69.4027 79.6847 54.516 81.8225L54.5153 81.8217Z" fill="#0C244E"/>
<path d="M49.8771 91.0917C27.1355 91.0917 8.63379 72.5601 8.63379 49.7817C8.63379 27.0032 27.1355 8.47241 49.8771 8.47241C67.8669 8.47241 83.6357 19.9768 89.143 37.1076L90.892 38.3883H97.482V38.9078H90.7232L88.7004 37.4278L88.6748 37.347C83.261 20.3868 67.6694 8.99194 49.8771 8.99194C27.4212 8.99194 9.15248 27.2902 9.15248 49.7824C9.15248 72.2746 27.4212 90.5729 49.8771 90.5729C67.6686 90.5729 83.2602 79.178 88.674 62.2178L88.6997 62.137L90.7232 60.657H97.482V61.1765H90.892L89.1422 62.4572C83.6357 79.588 67.8669 91.0924 49.8771 91.0924V91.0917Z" fill="#0C244E"/>
<path d="M23.5 44.9837L18.6723 44.9837L16.5771 42.3574L16.605 42.2358C19.249 30.5087 27.986 20.9397 39.4048 17.2645L39.7433 17.1558V28L39.2246 28V17.8701C28.1851 21.5559 19.7481 30.853 17.1381 42.2298L18.9211 44.4657L23.5 44.4657V44.9852V44.9837Z" fill="#0C244E"/>
<path d="M44.337 26.5H43.8184L43.8184 12.4944H47.168V13.0139H44.337L44.337 26.5Z" fill="#0C244E"/>
<path d="M23.5008 49.0341H14.4624L12.3281 46.7061L12.3379 46.5928C13.7289 29.9317 26.1292 16.023 42.4928 12.7707L42.8026 12.7087V24.5H42.2839V13.3423C26.3365 16.6558 14.2732 30.2466 12.8634 46.5226L14.6894 48.5154H23.5V49.0349L23.5008 49.0341Z" fill="#0C244E"/>
<path d="M24 47.0088H16.4895L14.3643 44.5328L14.3816 44.415C16.5167 30.1113 26.9425 18.5473 40.9441 14.9537L41.2675 14.8706V25.5H40.7488V15.5419C27.1506 19.1665 17.0384 30.4413 14.9116 44.3749L16.727 46.49H24V47.0088Z" fill="#0C244E"/>
<path d="M50.1339 12.3079H49.6152V24H50.1339V12.3079Z" fill="#0C244E"/>
<path d="M98.6651 47.0088H85.2637L83.1572 45.167L83.1444 45.0711C81.0825 30.3341 69.4218 18.6221 54.7394 16.4903V25H54.2207L54.2207 15.8945L54.5147 15.9346C69.5333 17.9772 81.4986 29.8833 83.6443 44.9027L85.4582 46.4885H98.6651V47.0088Z" fill="#0C244E"/>
<path d="M98.499 44.9835H86.7396L84.646 43.2543L84.6286 43.1621C81.7057 27.676 68.8048 15.9036 53.2034 14.4409L53.2033 26H52.6846L52.6847 13.8738L52.966 13.8979C68.893 15.2617 82.1023 27.2116 85.1194 42.9734L86.925 44.4647H98.4975V44.9843L98.499 44.9835Z" fill="#0C244E"/>
<path d="M98.2492 42.9576H88.1317L86.0615 41.319L86.0411 41.2306C82.2557 25.1177 68.1395 13.383 51.6591 12.6098L51.6689 24H51.1502L51.1396 12.0684L51.4095 12.0789C68.2089 12.745 82.6349 24.642 86.5251 41.0245L88.3126 42.4388H98.2499V42.9584L98.2492 42.9576Z" fill="#0C244E"/>
<path d="M54.2197 83.6687V75.5H54.7384V83.0729C69.4208 80.9412 81.0815 69.2299 83.1434 54.4921L83.1563 54.3962L85.2627 52.5544H88.2007V53.074H85.4572L83.6433 54.6597C81.4977 69.6792 69.5324 81.5853 54.5138 83.6279L54.2197 83.6687Z" fill="#0C244E"/>
<path d="M98.663 52.5544H96.3613V53.074H98.663V52.5544Z" fill="#0C244E"/>
<path d="M50.1339 75H49.6152V87.2563H50.1339V75Z" fill="#0C244E"/>
<path d="M98.2484 56.6057H96.3613V57.1252H98.2484V56.6057Z" fill="#0C244E"/>
<path d="M51.1504 87.5162V75.5H51.6691V86.9741C68.1503 86.1895 82.2665 74.4473 86.0519 58.3321L86.0722 58.2437L88.0407 56.6821L88.3626 57.0891L86.5351 58.539C82.6457 74.923 68.2189 86.8283 51.4203 87.5049L51.1504 87.5162Z" fill="#0C244E"/>
<path d="M98.4979 54.5806H96.3613V55.1001H98.4979V54.5806Z" fill="#0C244E"/>
<path d="M52.6846 85.6284V75H53.2033V85.0613C68.8107 83.5978 81.7116 71.8549 84.6284 56.4125L84.6458 56.3204L86.7386 54.5806H88.2012V55.1001H86.9264L85.1208 56.6013C82.1089 72.3193 68.8996 84.2397 52.9665 85.6042L52.6846 85.6284Z" fill="#0C244E"/>
<path d="M47.168 87.0699H43.8184L43.8184 75.5H44.337L44.3371 86.5503H47.168V87.0699Z" fill="#0C244E"/>
<path d="M39.7442 82.4093L39.4057 82.2998C27.9727 78.6087 19.2364 69.0405 16.6053 57.3277L16.5781 57.2061L18.6725 54.5806H24.5V55.1001H18.922L17.139 57.3353C19.7362 68.6977 28.1732 77.994 39.2255 81.6942V73.5H39.7442V82.4093Z" fill="#0C244E"/>
<path d="M41.2685 84.6927L40.945 84.6096C26.9442 81.0137 16.5176 69.4497 14.3826 55.1483L14.3652 55.0305L16.4905 52.5544H23.5V53.074H16.7287L14.9133 55.1891C17.0393 69.1197 27.1523 80.3937 40.7505 84.0214V74H41.2692V84.6919L41.2685 84.6927Z" fill="#0C244E"/>
<path d="M42.8036 86.8561L42.4938 86.7942C26.1309 83.5396 13.7306 69.6354 12.3389 52.9819L12.3291 52.8686L14.4634 50.5405L24.5 50.53V51.0496L14.6911 51.0601L12.8651 53.0521C14.2757 69.3205 26.339 82.9075 42.2857 86.2226L42.2857 75H42.8044L42.8044 86.8569L42.8036 86.8561Z" fill="#0C244E"/>
</g>
<path d="M47.1654 13.51H44.0781V14.0295H47.1654V13.51Z" fill="#0C244E"/>
<path d="M47.1654 15.1826H44.0781V15.7021H47.1654V15.1826Z" fill="#0C244E"/>
<path d="M47.1654 16.291H44.0781V16.8105H47.1654V16.291Z" fill="#0C244E"/>
<path d="M47.1654 85.3943H44.0781V85.9138H47.1654V85.3943Z" fill="#0C244E"/>
<path d="M47.1654 83.7739H44.0781V84.2935H47.1654V83.7739Z" fill="#0C244E"/>
<path d="M47.1654 82.6064H44.0781V83.126H47.1654V82.6064Z" fill="#0C244E"/>
<path d="M48.5086 12.2332H45.6709C45.3823 12.2332 45.1484 12.4674 45.1484 12.7565V13.6973C45.1484 13.9864 45.3823 14.2206 45.6709 14.2206H48.5086C48.7972 14.2206 49.0311 13.9864 49.0311 13.6973V12.7565C49.0311 12.4674 48.7972 12.2332 48.5086 12.2332Z" fill="#0C244E"/>
<path d="M95.242 48.541H91.1158C90.7444 48.541 90.4434 48.8426 90.4434 49.2146V50.126C90.4434 50.498 90.7444 50.7996 91.1158 50.7996H95.242C95.6134 50.7996 95.9145 50.498 95.9145 50.126V49.2146C95.9145 48.8426 95.6134 48.541 95.242 48.541Z" fill="#0C244E"/>
<path d="M95.2427 44.4905H91.1151C90.7441 44.4905 90.4434 44.7917 90.4434 45.1633V46.0762C90.4434 46.4478 90.7441 46.7491 91.1151 46.7491H95.2427C95.6137 46.7491 95.9145 46.4478 95.9145 46.0762V45.1633C95.9145 44.7917 95.6137 44.4905 95.2427 44.4905Z" fill="#0C244E"/>
<path d="M20.4498 44.6062H24.5767C24.9477 44.6062 25.2492 44.9075 25.2492 45.2798V46.192C25.2492 46.5635 24.9484 46.8655 24.5767 46.8655H20.4498C20.0789 46.8655 19.7773 46.5642 19.7773 46.192V45.2798C19.7773 44.9083 20.0782 44.6062 20.4498 44.6062Z" fill="#0C244E"/>
<path d="M24.576 48.6521H20.4498C20.0784 48.6521 19.7773 48.9537 19.7773 49.3257V50.2379C19.7773 50.6099 20.0784 50.9114 20.4498 50.9114H24.576C24.9474 50.9114 25.2485 50.6099 25.2485 50.2379V49.3257C25.2485 48.9537 24.9474 48.6521 24.576 48.6521Z" fill="#0C244E"/>
<path d="M24.576 52.6987H20.4498C20.0784 52.6987 19.7773 53.0003 19.7773 53.3723V54.2845C19.7773 54.6565 20.0784 54.9581 20.4498 54.9581H24.576C24.9474 54.9581 25.2485 54.6565 25.2485 54.2845V53.3723C25.2485 53.0003 24.9474 52.6987 24.576 52.6987Z" fill="#0C244E"/>
<path d="M48.5086 15.0247H45.6709C45.3823 15.0247 45.1484 15.2589 45.1484 15.548V16.4889C45.1484 16.7779 45.3823 17.0122 45.6709 17.0122H48.5086C48.7972 17.0122 49.0311 16.7779 49.0311 16.4889V15.548C49.0311 15.2589 48.7972 15.0247 48.5086 15.0247Z" fill="#0C244E"/>
<path d="M48.5086 85.2402H45.6709C45.3823 85.2402 45.1484 85.4745 45.1484 85.7635V86.7052C45.1484 86.9942 45.3823 87.2285 45.6709 87.2285H48.5086C48.7972 87.2285 49.0311 86.9942 49.0311 86.7052V85.7635C49.0311 85.4745 48.7972 85.2402 48.5086 85.2402Z" fill="#0C244E"/>
<path d="M48.5086 82.4658H45.6709C45.3823 82.4658 45.1484 82.7001 45.1484 82.9891V83.93C45.1484 84.219 45.3823 84.4533 45.6709 84.4533H48.5086C48.7972 84.4533 49.0311 84.219 49.0311 83.93V82.9891C49.0311 82.7001 48.7972 82.4658 48.5086 82.4658Z" fill="#0C244E"/>
<g opacity="0.5">
<path d="M96.6212 60.0334H87.9414V51.8176H96.6212V60.0334ZM88.4601 59.5139H96.1025V52.3364H88.4601V59.5139Z" fill="#0C244E"/>
<path d="M90.2164 51.8914L88.0166 54.0825L88.3823 54.4509L90.5821 52.2598L90.2164 51.8914Z" fill="#0C244E"/>
<path d="M96.1816 57.3943L93.9717 59.5955L94.3374 59.9638L96.5474 57.7626L96.1816 57.3943Z" fill="#0C244E"/>
<path d="M96.1787 55.0921L91.6885 59.5896L92.0552 59.957L96.5455 55.4595L96.1787 55.0921Z" fill="#0C244E"/>
<path d="M98.1973 53.1894V53.1785H98.716L98.1973 53.1894Z" fill="#0C244E"/>
<path d="M96.1805 52.8054L89.3984 59.5984L89.7652 59.9658L96.5472 53.1728L96.1805 52.8054Z" fill="#0C244E"/>
<path d="M94.7972 51.8925L88.0205 58.6802L88.3873 59.0475L95.164 52.2599L94.7972 51.8925Z" fill="#0C244E"/>
<path d="M88.384 56.7586L88.0176 56.3908L92.4973 51.894L92.8637 52.261L88.384 56.7586Z" fill="#0C244E"/>
</g>
</g>
<defs>
<clipPath id="clip0_1090_7160">
<rect width="100" height="100" fill="white"/>
</clipPath>
</defs>
</svg>
