<svg width="24" height="24" viewBox="0 0 24 24" fill="none" xmlns="http://www.w3.org/2000/svg">
<g id="ic-null">
<g id="Elipse 255">
<path id="Vector (Stroke)" fill-rule="evenodd" clip-rule="evenodd" d="M11.9992 2.2002C6.58683 2.2002 2.19922 6.5878 2.19922 12.0002C2.19922 17.4126 6.58683 21.8002 11.9992 21.8002C17.4116 21.8002 21.7992 17.4126 21.7992 12.0002C21.7992 6.5878 17.4116 2.2002 11.9992 2.2002ZM0.199219 12.0002C0.199219 5.48324 5.48226 0.200195 11.9992 0.200195C18.5162 0.200195 23.7992 5.48324 23.7992 12.0002C23.7992 18.5172 18.5162 23.8002 11.9992 23.8002C5.48226 23.8002 0.199219 18.5172 0.199219 12.0002Z" fill="#0C244E"/>
</g>
<path id="Caminho 66817 (Stroke)" fill-rule="evenodd" clip-rule="evenodd" d="M3.24744 4.34151C3.61112 3.92587 4.24288 3.88375 4.65852 4.24744L20.6585 18.2474C21.0742 18.6111 21.1163 19.2429 20.7526 19.6585C20.3889 20.0742 19.7571 20.1163 19.3415 19.7526L3.34151 5.75259C2.92587 5.38891 2.88375 4.75715 3.24744 4.34151Z" fill="#0C244E"/>
</g>
</svg>
