<svg width="24" height="24" viewBox="0 0 24 24" fill="none" xmlns="http://www.w3.org/2000/svg">
<g id="ic-calendar-data">
<path id="Caminho 63376 (Stroke)" fill-rule="evenodd" clip-rule="evenodd" d="M4.22209 4.2002C3.89474 4.2002 3.58281 4.32903 3.35438 4.55517C3.12629 4.78098 3 5.0851 3 5.40006V20.8003C3 21.1153 3.12629 21.4194 3.35438 21.6452C3.58281 21.8713 3.89474 22.0002 4.22209 22.0002H19.7779C20.1053 22.0002 20.4172 21.8713 20.6456 21.6452C20.8737 21.4194 21 21.1153 21 20.8003V5.40006C21 5.0851 20.8737 4.78098 20.6456 4.55517C20.4172 4.32903 20.1053 4.2002 19.7779 4.2002H4.22209ZM1.94729 3.13387C2.5523 2.53491 3.37076 2.2002 4.22209 2.2002H19.7779C20.6292 2.2002 21.4477 2.53491 22.0527 3.13387C22.6581 3.73317 23 4.54814 23 5.40006V20.8003C23 21.6522 22.6581 22.4672 22.0527 23.0665C21.4477 23.6654 20.6292 24.0002 19.7779 24.0002H4.22209C3.37076 24.0002 2.5523 23.6654 1.94729 23.0665C1.34194 22.4672 1 21.6522 1 20.8003V5.40006C1 4.54814 1.34194 3.73317 1.94729 3.13387Z" fill="#0C244E"/>
<path id="Caminho 63377 (Stroke)" fill-rule="evenodd" clip-rule="evenodd" d="M16.4414 0C16.9937 0 17.4414 0.447715 17.4414 1V5.39972C17.4414 5.95201 16.9937 6.39972 16.4414 6.39972C15.8891 6.39972 15.4414 5.95201 15.4414 5.39972V1C15.4414 0.447715 15.8891 0 16.4414 0Z" fill="#0C244E"/>
<path id="Caminho 63378 (Stroke)" fill-rule="evenodd" clip-rule="evenodd" d="M7.55469 0C8.10697 0 8.55469 0.447715 8.55469 1V5.39972C8.55469 5.95201 8.10697 6.39972 7.55469 6.39972C7.0024 6.39972 6.55469 5.95201 6.55469 5.39972V1C6.55469 0.447715 7.0024 0 7.55469 0Z" fill="#0C244E"/>
<path id="Caminho 63379 (Stroke)" fill-rule="evenodd" clip-rule="evenodd" d="M1 9.7998C1 9.24752 1.44772 8.7998 2 8.7998H22C22.5523 8.7998 23 9.24752 23 9.7998C23 10.3521 22.5523 10.7998 22 10.7998H2C1.44772 10.7998 1 10.3521 1 9.7998Z" fill="#0C244E"/>
<path id="Ret&#195;&#162;ngulo 1105" d="M8.08094 13.041H6.86469C6.19297 13.041 5.64844 13.5801 5.64844 14.2451V15.4492C5.64844 16.1142 6.19297 16.6533 6.86469 16.6533H8.08094C8.75265 16.6533 9.29718 16.1142 9.29718 15.4492V14.2451C9.29718 13.5801 8.75265 13.041 8.08094 13.041Z" fill="#0C244E"/>
<path id="Ret&#195;&#162;ngulo 1106" d="M8.08094 17.8574H6.86469C6.19297 17.8574 5.64844 18.3965 5.64844 19.0615C5.64844 19.7265 6.19297 20.2656 6.86469 20.2656H8.08094C8.75265 20.2656 9.29718 19.7265 9.29718 19.0615C9.29718 18.3965 8.75265 17.8574 8.08094 17.8574Z" fill="#0C244E"/>
<path id="Ret&#195;&#162;ngulo 1107" d="M12.9442 14.2451C12.9442 13.5801 12.3997 13.041 11.728 13.041C11.0563 13.041 10.5117 13.5801 10.5117 14.2451V15.4492C10.5117 16.1142 11.0563 16.6533 11.728 16.6533C12.3997 16.6533 12.9442 16.1142 12.9442 15.4492V14.2451Z" fill="#0C244E"/>
<path id="Ret&#195;&#162;ngulo 1108" d="M12.9442 19.0615C12.9442 18.3965 12.3997 17.8574 11.728 17.8574C11.0563 17.8574 10.5117 18.3965 10.5117 19.0615C10.5117 19.7265 11.0563 20.2656 11.728 20.2656C12.3997 20.2656 12.9442 19.7265 12.9442 19.0615Z" fill="#0C244E"/>
<path id="Ret&#195;&#162;ngulo 1109" d="M16.5966 13.041H15.3803C14.7086 13.041 14.1641 13.5801 14.1641 14.2451V15.4492C14.1641 16.1142 14.7086 16.6533 15.3803 16.6533H16.5966C17.2683 16.6533 17.8128 16.1142 17.8128 15.4492V14.2451C17.8128 13.5801 17.2683 13.041 16.5966 13.041Z" fill="#0C244E"/>
<path id="Ret&#195;&#162;ngulo 1110" d="M16.5966 17.8574H15.3803C14.7086 17.8574 14.1641 18.3965 14.1641 19.0615C14.1641 19.7265 14.7086 20.2656 15.3803 20.2656H16.5966C17.2683 20.2656 17.8128 19.7265 17.8128 19.0615C17.8128 18.3965 17.2683 17.8574 16.5966 17.8574Z" fill="#0C244E"/>
</g>
</svg>
