<svg width="35" height="35" viewBox="0 0 35 35" fill="none" xmlns="http://www.w3.org/2000/svg">
<g id="ic-card-fill">
<path id="Rectangle 1 (Stroke)" fill-rule="evenodd" clip-rule="evenodd" d="M30.625 7.29167L4.375 7.29167C3.56959 7.29167 2.91667 7.94458 2.91667 8.75L2.91667 26.25C2.91667 27.0554 3.56958 27.7083 4.375 27.7083L30.625 27.7083C31.4304 27.7083 32.0833 27.0554 32.0833 26.25V8.75C32.0833 7.94458 31.4304 7.29167 30.625 7.29167ZM4.375 4.375C1.95875 4.375 0 6.33375 0 8.75L0 26.25C0 28.6662 1.95875 30.625 4.375 30.625L30.625 30.625C33.0412 30.625 35 28.6662 35 26.25V8.75C35 6.33375 33.0412 4.375 30.625 4.375L4.375 4.375Z" fill="#014FE0"/>
<path id="Subtract" fill-rule="evenodd" clip-rule="evenodd" d="M32.0837 7.29163L2.91699 7.29163L2.91699 13.125L2.91699 23.3333L2.91699 27.7083L32.0837 27.7083V13.125V7.29163ZM2.91699 23.3333C2.91699 22.5279 3.46109 21.875 4.13227 21.875H8.99338C9.66456 21.875 10.2087 22.5279 10.2087 23.3333C10.2087 24.1387 9.66456 24.7916 8.99338 24.7916H4.13227C3.46109 24.7916 2.91699 24.1387 2.91699 23.3333ZM32.0837 13.125C32.0837 13.9304 31.5396 14.5833 30.8684 14.5833L4.13227 14.5833C3.46109 14.5833 2.91699 13.9304 2.91699 13.125C2.91699 12.3195 3.46109 11.6666 4.13227 11.6666L30.8684 11.6666C31.5396 11.6666 32.0837 12.3195 32.0837 13.125ZM23.3337 24.7916C24.2048 24.7916 24.9867 24.4097 25.5212 23.8042C26.0556 24.4097 26.8375 24.7916 27.7087 24.7916C29.3195 24.7916 30.6253 23.4858 30.6253 21.875C30.6253 20.2641 29.3195 18.9583 27.7087 18.9583C26.8375 18.9583 26.0556 19.3402 25.5212 19.9457C24.9867 19.3402 24.2048 18.9583 23.3337 18.9583C21.7228 18.9583 20.417 20.2641 20.417 21.875C20.417 23.4858 21.7228 24.7916 23.3337 24.7916ZM13.1253 21.875C12.3199 21.875 11.667 22.5279 11.667 23.3333C11.667 24.1387 12.3199 24.7916 13.1253 24.7916H16.042C16.8474 24.7916 17.5003 24.1387 17.5003 23.3333C17.5003 22.5279 16.8474 21.875 16.042 21.875H13.1253Z" fill="#014FE0"/>
</g>
</svg>
