<svg width="24" height="24" viewBox="0 0 24 24" fill="none" xmlns="http://www.w3.org/2000/svg">
<path fill-rule="evenodd" clip-rule="evenodd" d="M12 22C17.5228 22 22 17.5228 22 12C22 6.47715 17.5228 2 12 2C6.47715 2 2 6.47715 2 12C2 17.5228 6.47715 22 12 22ZM12 24C18.6274 24 24 18.6274 24 12C24 5.37258 18.6274 0 12 0C5.37258 0 0 5.37258 0 12C0 18.6274 5.37258 24 12 24Z" fill="black"/>
<path d="M13.0705 13.316H7.64648V11.5909H13.0108C13.4152 11.5909 13.7466 11.5312 14.0051 11.4119C14.2637 11.2926 14.4542 11.1236 14.5769 10.9048C14.6995 10.6861 14.7608 10.4276 14.7608 10.1293C14.7608 9.83759 14.6995 9.5741 14.5769 9.33877C14.4542 9.10345 14.267 8.91619 14.0151 8.77698C13.7632 8.63778 13.4483 8.56818 13.0705 8.56818H11.231V17H9.09322V6.81818H13.0705C13.8759 6.81818 14.5653 6.96235 15.1387 7.2507C15.7154 7.53574 16.1562 7.92684 16.4611 8.424C16.766 8.91784 16.9168 9.47798 16.9135 10.1044C16.9168 10.7606 16.7627 11.3291 16.4512 11.8097C16.1396 12.2902 15.6955 12.6615 15.1188 12.9233C14.5421 13.1851 13.8593 13.316 13.0705 13.316ZM13.4533 13.9723V15.6974H7.64648V13.9723H13.4533Z" fill="black"/>
</svg>
