<svg width="130" height="130" viewBox="0 0 130 130" fill="none" xmlns="http://www.w3.org/2000/svg">
<g id="ic-alert-info">
<g id="Group 4">
<g id="Group 3">
<g id="Elipse 257">
<path id="Vector (Stroke)" fill-rule="evenodd" clip-rule="evenodd" d="M64.9978 7.14258C33.0441 7.14258 7.14062 33.0461 7.14062 64.9997C7.14062 96.9533 33.0441 122.857 64.9978 122.857C96.9514 122.857 122.855 96.9533 122.855 64.9997C122.855 33.0461 96.9514 7.14258 64.9978 7.14258ZM2.14062 64.9997C2.14062 30.2847 30.2827 2.14258 64.9978 2.14258C99.7128 2.14258 127.855 30.2847 127.855 64.9997C127.855 99.7148 99.7128 127.857 64.9978 127.857C30.2827 127.857 2.14062 99.7148 2.14062 64.9997Z" fill="#0C2143"/>
</g>
</g>
<path id="Caminho 63513 (Stroke)" fill-rule="evenodd" clip-rule="evenodd" d="M65.2773 36.6738C66.6581 36.6738 67.7773 37.7931 67.7773 39.1738V75.0834C67.7773 76.4641 66.6581 77.5834 65.2773 77.5834C63.8966 77.5834 62.7773 76.4641 62.7773 75.0834V39.1738C62.7773 37.7931 63.8966 36.6738 65.2773 36.6738Z" fill="#0C2143"/>
<path id="Caminho 63514 (Stroke)" fill-rule="evenodd" clip-rule="evenodd" d="M65.2773 88.9062C66.6581 88.9062 67.7773 90.0255 67.7773 91.4062V92.4944C67.7773 93.8751 66.6581 94.9944 65.2773 94.9944C63.8966 94.9944 62.7773 93.8751 62.7773 92.4944V91.4062C62.7773 90.0255 63.8966 88.9062 65.2773 88.9062Z" fill="#0C2143"/>
</g>
</g>
</svg>
