<svg width="24" height="24" viewBox="0 0 24 24" fill="none" xmlns="http://www.w3.org/2000/svg">
<g id="ic-bag">
<path id="Caminho 62999 (Stroke)" fill-rule="evenodd" clip-rule="evenodd" d="M5.04001 2.19967C5.2775 1.91474 5.62927 1.75 6.0002 1.75H17.9998C18.3707 1.75 18.7225 1.91474 18.96 2.19967L21.9599 5.79877C22.1472 6.02342 22.2497 6.30663 22.2497 6.5991V19.187C22.2558 19.6051 22.168 20.0156 21.9969 20.3938C21.8241 20.7756 21.5721 21.1119 21.2651 21.3887C20.9583 21.6652 20.601 21.8784 20.2175 22.0234C19.834 22.1683 19.4265 22.2442 19.0172 22.2499L18.9998 22.25H5.00023L4.98284 22.2499C4.57352 22.2442 4.16604 22.1683 3.78253 22.0234C3.399 21.8784 3.04169 21.6652 2.73494 21.3887C2.42785 21.1119 2.17591 20.7756 2.00313 20.3938C1.83195 20.0156 1.74421 19.605 1.7503 19.187V6.5991C1.7503 6.30663 1.85285 6.02342 2.04011 5.79877L5.04001 2.19967ZM6.58558 4.25L4.2503 7.05174V19.1974L4.25006 19.2219C4.24922 19.2649 4.25769 19.3121 4.28072 19.363C4.30408 19.4146 4.34429 19.4736 4.40869 19.5317C4.47341 19.59 4.55962 19.6445 4.66629 19.6848C4.77098 19.7243 4.88828 19.7475 5.01062 19.75H18.9894C19.1117 19.7475 19.229 19.7243 19.3337 19.6848C19.4404 19.6445 19.5266 19.59 19.5913 19.5317C19.6557 19.4736 19.6959 19.4146 19.7193 19.363C19.7423 19.3121 19.7508 19.2649 19.7499 19.2219L19.7497 19.1974V7.05174L17.4144 4.25H6.58558Z" fill="#0C244E"/>
<path id="Caminho 63000 (Stroke)" fill-rule="evenodd" clip-rule="evenodd" d="M1.75 7C1.75 6.30964 2.30964 5.75 3 5.75H21C21.6904 5.75 22.25 6.30964 22.25 7C22.25 7.69036 21.6904 8.25 21 8.25H3C2.30964 8.25 1.75 7.69036 1.75 7Z" fill="#0C244E"/>
<path id="Caminho 63001 (Stroke)" fill-rule="evenodd" clip-rule="evenodd" d="M8 10.75C8.69036 10.75 9.25 11.3096 9.25 12C9.25 12.7293 9.53973 13.4288 10.0555 13.9445C10.5712 14.4603 11.2707 14.75 12 14.75C12.7293 14.75 13.4288 14.4603 13.9445 13.9445C14.4603 13.4288 14.75 12.7293 14.75 12C14.75 11.3096 15.3096 10.75 16 10.75C16.6904 10.75 17.25 11.3096 17.25 12C17.25 13.3924 16.6969 14.7277 15.7123 15.7123C14.7277 16.6969 13.3924 17.25 12 17.25C10.6076 17.25 9.27226 16.6969 8.28769 15.7123C7.30312 14.7277 6.75 13.3924 6.75 12C6.75 11.3096 7.30964 10.75 8 10.75Z" fill="#0C244E"/>
</g>
</svg>
