<svg width="31" height="31" viewBox="0 0 31 31" fill="none" xmlns="http://www.w3.org/2000/svg">
<g id="Group 5">
<path id="Caminho 63403" d="M14.8058 4.49407C14.8058 5.20162 14.6021 5.89329 14.2206 6.48159C13.8391 7.0699 13.2968 7.52843 12.6623 7.7992C12.0278 8.06997 11.3297 8.14081 10.6562 8.00278C9.98261 7.86474 9.36392 7.52402 8.87832 7.02371C8.39272 6.52339 8.06202 5.88595 7.92805 5.192C7.79407 4.49804 7.86283 3.77874 8.12564 3.12504C8.38844 2.47135 8.83348 1.91263 9.40449 1.51953C9.97549 1.12644 10.6468 0.916626 11.3336 0.916626C12.2544 0.916626 13.1376 1.29353 13.7888 1.96444C14.44 2.63534 14.8058 3.54527 14.8058 4.49407Z" fill="#E7EEF7"/>
<path id="Caminho 63408" d="M7.86144 11.7857C7.86144 12.4933 7.65779 13.1849 7.27626 13.7732C6.89473 14.3615 6.35244 14.8201 5.71798 15.0908C5.08351 15.3616 4.38536 15.4324 3.71182 15.2944C3.03827 15.1564 2.41958 14.8156 1.93398 14.3153C1.44838 13.815 1.11769 13.1776 0.983712 12.4836C0.849735 11.7897 0.918496 11.0704 1.1813 10.4167C1.4441 9.76298 1.88915 9.20425 2.46015 8.81116C3.03116 8.41807 3.70247 8.20825 4.38921 8.20825C5.3101 8.20825 6.19328 8.58516 6.84445 9.25606C7.49561 9.92696 7.86144 10.8369 7.86144 11.7857Z" fill="#E7EEF7"/>
<path id="Caminho 63409" d="M30.0841 11.7857C30.0841 12.4933 29.8804 13.1849 29.4989 13.7732C29.1174 14.3615 28.5751 14.8201 27.9406 15.0908C27.3062 15.3616 26.608 15.4324 25.9345 15.2944C25.2609 15.1564 24.6422 14.8156 24.1566 14.3153C23.671 13.815 23.3403 13.1776 23.2064 12.4836C23.0724 11.7897 23.1412 11.0704 23.404 10.4167C23.6668 9.76298 24.1118 9.20425 24.6828 8.81116C25.2538 8.41807 25.9251 8.20825 26.6119 8.20825C27.5328 8.20825 28.4159 8.58516 29.0671 9.25606C29.7183 9.92696 30.0841 10.8369 30.0841 11.7857Z" fill="#E7EEF7"/>
<path id="Caminho 63407" d="M23.1398 4.49407C23.1398 5.20162 22.9361 5.89329 22.5546 6.48159C22.173 7.0699 21.6308 7.52843 20.9963 7.7992C20.3618 8.06997 19.6637 8.14081 18.9901 8.00278C18.3166 7.86474 17.6979 7.52402 17.2123 7.02371C16.7267 6.52339 16.396 5.88595 16.262 5.192C16.1281 4.49804 16.1968 3.77874 16.4596 3.12504C16.7224 2.47135 17.1675 1.91263 17.7385 1.51953C18.3095 1.12644 18.9808 0.916626 19.6675 0.916626C20.5884 0.916626 21.4716 1.29353 22.1228 1.96444C22.7739 2.63534 23.1398 3.54527 23.1398 4.49407Z" fill="#E7EEF7"/>
<path id="Caminho 63406" d="M23.6208 19.7878C22.4153 18.3197 21.3975 17.0658 20.1765 15.6027C19.5543 14.7703 18.7149 14.1144 17.7448 13.7027C17.5964 13.6465 17.4431 13.6034 17.2867 13.5738C16.9279 13.5258 16.5656 13.5067 16.2035 13.5169C15.8363 13.505 15.4687 13.5291 15.1065 13.5888C14.9501 13.6185 14.7968 13.6616 14.6484 13.7177C13.6806 14.1331 12.8421 14.7883 12.2167 15.6178C11.0112 17.0859 9.99339 18.3398 8.77238 19.8029C6.95206 21.6895 4.71498 23.7771 5.13174 26.6999C5.30101 27.4941 5.69307 28.2272 6.2645 28.8181C6.83593 29.409 7.56445 29.8347 8.3694 30.048C9.38375 30.264 12.6197 29.4136 16.0657 29.4136H16.3154C19.7597 29.4136 22.9974 30.2506 24.0118 30.048C24.8156 29.8327 25.543 29.4063 26.1141 28.8157C26.6852 28.2252 27.078 27.4931 27.2494 26.6999C27.68 23.762 25.4429 21.6778 23.6243 19.7878H23.6208Z" fill="#E7EEF7"/>
</g>
</svg>
