<svg width="26" height="26" viewBox="0 0 26 26" fill="none" xmlns="http://www.w3.org/2000/svg">
<g id="ic-sucess">
<g id="Elipse 258">
<path id="Vector (Stroke)" fill-rule="evenodd" clip-rule="evenodd" d="M12.9983 2.85693C7.39658 2.85693 2.85547 7.39805 2.85547 12.9998C2.85547 18.6015 7.39658 23.1426 12.9983 23.1426C18.6001 23.1426 23.1412 18.6015 23.1412 12.9998C23.1412 7.39805 18.6001 2.85693 12.9983 2.85693ZM0.855469 12.9998C0.855469 6.29348 6.29201 0.856934 12.9983 0.856934C19.7046 0.856934 25.1412 6.29348 25.1412 12.9998C25.1412 19.7061 19.7046 25.1426 12.9983 25.1426C6.29201 25.1426 0.855469 19.7061 0.855469 12.9998Z" fill="#0C244E"/>
</g>
<g id="Grupo 22686">
<path id="Linha 106 (Stroke)" fill-rule="evenodd" clip-rule="evenodd" d="M17.6964 8.99866C18.1399 9.32782 18.2325 9.95417 17.9034 10.3976L13.5101 16.3167C13.1809 16.7602 12.5546 16.8529 12.1111 16.5237C11.6676 16.1946 11.5749 15.5682 11.9041 15.1248L16.2974 9.20565C16.6266 8.76217 17.2529 8.6695 17.6964 8.99866Z" fill="#0C244E"/>
<path id="Linha 107 (Stroke)" fill-rule="evenodd" clip-rule="evenodd" d="M8.52401 12.6141C8.85317 12.1706 9.47952 12.0779 9.923 12.4071L13.3055 14.9176C13.7489 15.2468 13.8416 15.8731 13.5124 16.3166C13.1833 16.7601 12.5569 16.8527 12.1135 16.5236L8.731 14.013C8.28753 13.6839 8.19485 13.0575 8.52401 12.6141Z" fill="#0C244E"/>
</g>
</g>
</svg>
