<svg width="20" height="24" viewBox="0 0 20 24" fill="none" xmlns="http://www.w3.org/2000/svg">
<g id="Group 32">
<g id="Group 30">
<g id="g1329">
<path id="path1331 (Stroke)" fill-rule="evenodd" clip-rule="evenodd" d="M11.3545 21.0806C11.3545 22.1402 12.1749 23 13.1864 23C14.1977 23 15.0182 22.1402 15.0182 21.0806C15.0182 20.0211 14.1977 19.1612 13.1864 19.1612C12.1749 19.1612 11.3545 20.0211 11.3545 21.0806ZM13.1864 21.7783C12.819 21.7783 12.5205 21.4655 12.5205 21.0806C12.5205 20.6957 12.819 20.3829 13.1864 20.3829C13.5537 20.3829 13.8522 20.6957 13.8522 21.0806C13.8522 21.4655 13.5537 21.7783 13.1864 21.7783Z" fill="#0C244E" stroke="#0C244E" stroke-width="0.4" stroke-miterlimit="10" stroke-linecap="round" stroke-linejoin="round"/>
</g>
<g id="g1333">
<path id="path1335 (Stroke)" fill-rule="evenodd" clip-rule="evenodd" d="M4.82422 21.0806C4.82422 22.1402 5.68038 23 6.73572 23C7.79112 23 8.64723 22.1402 8.64723 21.0806C8.64723 20.0211 7.79111 19.1612 6.73572 19.1612C5.68039 19.1612 4.82422 20.0211 4.82422 21.0806ZM6.73572 21.7783C6.3524 21.7783 6.04089 21.4655 6.04089 21.0806C6.04089 20.6957 6.35239 20.3829 6.73572 20.3829C7.11909 20.3829 7.43056 20.6957 7.43056 21.0806C7.43056 21.4655 7.11907 21.7783 6.73572 21.7783Z" fill="#0C244E" stroke="#0C244E" stroke-width="0.4" stroke-miterlimit="10" stroke-linecap="round" stroke-linejoin="round"/>
</g>
<g id="g1337">
<path id="path1339 (Stroke)" fill-rule="evenodd" clip-rule="evenodd" d="M3.62 19.4546C3.70666 19.6931 3.93315 19.8518 4.18673 19.8518H15.8133C16.0669 19.8518 16.2933 19.6931 16.38 19.4546L18.9637 12.3442C19.0309 12.1592 19.0037 11.953 18.8909 11.7918C18.778 11.6305 18.5937 11.5345 18.397 11.5345H1.60304C1.40632 11.5345 1.22197 11.6305 1.10911 11.7918C0.996256 11.953 0.969083 12.1592 1.03631 12.3442L3.62 19.4546ZM4.60911 18.6448L2.464 12.7415H17.536L15.3909 18.6448H4.60911Z" fill="#0C244E" stroke="#0C244E" stroke-width="0.4" stroke-miterlimit="10" stroke-linecap="round" stroke-linejoin="round"/>
</g>
<g id="g1341">
<path id="path1343 (Stroke)" fill-rule="evenodd" clip-rule="evenodd" d="M1.68757 12.2788C1.78101 12.5054 2.00113 12.6531 2.24529 12.6531H17.7636C18.0077 12.6531 18.2279 12.5054 18.3213 12.2788C18.4147 12.0523 18.3631 11.7915 18.1904 11.6181L14.9575 8.37128C14.8443 8.25759 14.6907 8.19372 14.5306 8.19372H13.2374C13.0773 8.19372 12.9238 8.25758 12.8106 8.37127L12.5908 8.59195L11.0779 7.07252C10.9647 6.95882 10.8111 6.89495 10.651 6.89495H9.35783C9.19772 6.89495 9.04418 6.95882 8.93097 7.07252L7.41803 8.59195L7.19827 8.37127C7.08507 8.25758 6.93153 8.19372 6.77143 8.19372H5.47825C5.31815 8.19372 5.1646 8.25759 5.05139 8.37128L1.81843 11.6181C1.64578 11.7915 1.59413 12.0523 1.68757 12.2788ZM3.70267 11.4406L5.7283 9.40623H6.52139L6.99119 9.87802C7.22694 10.1148 7.60915 10.1148 7.8449 9.87801L9.60787 8.10746H10.401L12.1639 9.878C12.3997 10.1148 12.7819 10.1148 13.0176 9.87802L13.4874 9.40623H14.2806L16.3062 11.4406H3.70267Z" fill="#0C244E" stroke="#0C244E" stroke-width="0.4" stroke-miterlimit="10" stroke-linecap="round" stroke-linejoin="round"/>
</g>
</g>
<g id="Group 31">
<path id="path1291 (Stroke)" fill-rule="evenodd" clip-rule="evenodd" d="M3.17428 6.43848C3.52618 6.43848 3.81145 6.16375 3.81145 5.82487V3.85313C3.81145 3.51424 3.52618 3.23952 3.17428 3.23952C2.82238 3.23952 2.53711 3.51424 2.53711 3.85313V5.82487C2.53711 6.16375 2.82238 6.43848 3.17428 6.43848Z" fill="#0C244E" stroke="#0C244E" stroke-width="0.4" stroke-miterlimit="10" stroke-linecap="round" stroke-linejoin="round"/>
<path id="path1295 (Stroke)" fill-rule="evenodd" clip-rule="evenodd" d="M16.6366 6.43848C16.9445 6.43848 17.1941 6.16375 17.1941 5.82487V3.85313C17.1941 3.51424 16.9445 3.23952 16.6366 3.23952C16.3287 3.23952 16.0791 3.51424 16.0791 3.85313V5.82487C16.0791 6.16375 16.3287 6.43848 16.6366 6.43848Z" fill="#0C244E" stroke="#0C244E" stroke-width="0.4" stroke-miterlimit="10" stroke-linecap="round" stroke-linejoin="round"/>
<path id="path1307 (Stroke)" fill-rule="evenodd" clip-rule="evenodd" d="M9.94424 4.83838C10.2522 4.83838 10.5018 4.5649 10.5018 4.22755V1.61046C10.5018 1.2731 10.2522 0.999625 9.94424 0.999625C9.63633 0.999625 9.38672 1.2731 9.38672 1.61046V4.22755C9.38672 4.5649 9.63633 4.83838 9.94424 4.83838Z" fill="#0C244E" stroke="#0C244E" stroke-width="0.4" stroke-miterlimit="10" stroke-linecap="round" stroke-linejoin="round"/>
<path id="path1311 (Stroke)" fill-rule="evenodd" clip-rule="evenodd" d="M1.58398 4.83921C1.58398 5.19256 1.85758 5.479 2.19508 5.479H4.15873C4.49623 5.479 4.76983 5.19256 4.76983 4.83921C4.76983 4.48586 4.49623 4.19942 4.15873 4.19942H2.19508C1.85758 4.19942 1.58398 4.48586 1.58398 4.83921Z" fill="#0C244E" stroke="#0C244E" stroke-width="0.4" stroke-miterlimit="10" stroke-linecap="round" stroke-linejoin="round"/>
<path id="path1315 (Stroke)" fill-rule="evenodd" clip-rule="evenodd" d="M15.1221 4.83921C15.1221 5.19256 15.3957 5.479 15.7332 5.479H17.6968C18.0343 5.479 18.3079 5.19256 18.3079 4.83921C18.3079 4.48586 18.0343 4.19942 17.6968 4.19942H15.7332C15.3957 4.19942 15.1221 4.48586 15.1221 4.83921Z" fill="#0C244E" stroke="#0C244E" stroke-width="0.4" stroke-miterlimit="10" stroke-linecap="round" stroke-linejoin="round"/>
<path id="path1327 (Stroke)" fill-rule="evenodd" clip-rule="evenodd" d="M7.9541 2.91905C7.9541 3.27239 8.22646 3.55884 8.56243 3.55884H11.1688C11.5048 3.55884 11.7771 3.27239 11.7771 2.91905C11.7771 2.5657 11.5048 2.27925 11.1688 2.27925H8.56243C8.22646 2.27925 7.9541 2.5657 7.9541 2.91905Z" fill="#0C244E" stroke="#0C244E" stroke-width="0.4" stroke-miterlimit="10" stroke-linecap="round" stroke-linejoin="round"/>
</g>
</g>
</svg>
