<svg width="24" height="24" viewBox="0 0 24 24" fill="none" xmlns="http://www.w3.org/2000/svg">
<g id="ic-up">
<path id="ic-down" d="M11.9943 6C11.7064 6 11.4186 6.12271 11.2228 6.35588L2.31087 16.0859C2.11515 16.2945 2 16.5644 2 16.8712C2 17.5092 2.44911 18 3.04777 18C3.33566 18 3.60045 17.8773 3.79627 17.681L12.616 8.07365L11.384 8.07365L20.2038 17.681C20.388 17.8773 20.6529 18 20.9522 18C21.551 18 22 17.5092 22 16.8712C22 16.5644 21.8849 16.2945 21.6891 16.0736L12.7772 6.35588C12.5584 6.12271 12.2936 6 11.9943 6Z" fill="#0C244E"/>
</g>
</svg>
