<svg width="24" height="24" viewBox="0 0 24 24" fill="none" xmlns="http://www.w3.org/2000/svg">
<g id="ic-shopping">
<path id="ic-market" d="M7.99862 17.9951C7.61955 18.0087 7.25273 18.1377 6.94389 18.3659C6.63504 18.5942 6.39781 18.9115 6.26178 19.2785C6.12574 19.6455 6.09691 20.0459 6.17888 20.4298C6.26085 20.8137 6.44999 21.164 6.72273 21.4373C6.99547 21.7105 7.33976 21.8945 7.71267 21.9663C8.08559 22.0381 8.47066 21.9946 8.81988 21.8412C9.1691 21.6877 9.46704 21.4311 9.67657 21.1034C9.88609 20.7757 9.99794 20.3913 9.99817 19.9981C9.99432 19.7304 9.93949 19.466 9.83681 19.2202C9.73414 18.9745 9.58564 18.7522 9.39986 18.566C9.21407 18.3799 8.99464 18.2337 8.75418 18.1357C8.51372 18.0377 8.25695 17.9899 7.99862 17.9951ZM2 2V4.00307H3.99954L7.59849 11.59L6.24917 14.0361C6.08457 14.3268 5.99821 14.6581 5.99908 14.9952C6.00925 15.5352 6.2253 16.0491 6.60001 16.4245C6.97472 16.7998 7.47758 17.0061 7.99862 16.9983H19.997V14.9952H8.41922C8.3869 14.9961 8.35472 14.9904 8.32456 14.9783C8.2944 14.9662 8.26688 14.948 8.24359 14.9247C8.22031 14.9014 8.20173 14.8736 8.18894 14.8428C8.17616 14.812 8.16943 14.7789 8.16914 14.7454L8.19869 14.6276L9.099 12.998H16.5504C16.9037 13.0016 17.2517 12.9082 17.5589 12.7273C17.8662 12.5464 18.1218 12.2845 18.2998 11.9682L21.8795 5.48062C21.9599 5.33464 22.0014 5.16915 22 5.00106C21.9943 4.73136 21.8859 4.47492 21.6985 4.28773C21.5111 4.10053 21.2599 3.99778 20.9996 4.00189H6.20597L5.26929 2H2ZM17.9975 17.9951C17.6184 18.0087 17.2516 18.1377 16.9427 18.3659C16.6339 18.5942 16.3967 18.9115 16.2606 19.2785C16.1246 19.6455 16.0958 20.0459 16.1777 20.4298C16.2597 20.8137 16.4488 21.164 16.7216 21.4373C16.9943 21.7105 17.3386 21.8945 17.7115 21.9663C18.0844 22.0381 18.4695 21.9946 18.8187 21.8412C19.1679 21.6877 19.4659 21.4311 19.6754 21.1034C19.8849 20.7757 19.9968 20.3913 19.997 19.9981C19.9932 19.7304 19.9383 19.466 19.8357 19.2202C19.733 18.9745 19.5845 18.7522 19.3987 18.566C19.2129 18.3799 18.9935 18.2337 18.753 18.1357C18.5126 18.0377 18.2558 17.9899 17.9975 17.9951Z" fill="#0C244E"/>
</g>
</svg>
