<svg width="24" height="24" viewBox="0 0 24 24" fill="none" xmlns="http://www.w3.org/2000/svg">
<g id="ic-load">
<path id="Caminho 63504 (Stroke)" opacity="0.6" fill-rule="evenodd" clip-rule="evenodd" d="M12 0.5C12.8284 0.5 13.5 1.17157 13.5 2V6C13.5 6.82843 12.8284 7.5 12 7.5C11.1716 7.5 10.5 6.82843 10.5 6V2C10.5 1.17157 11.1716 0.5 12 0.5Z" fill="#0C244E"/>
<path id="Caminho 63505 (Stroke)" fill-rule="evenodd" clip-rule="evenodd" d="M12 16.5C12.8284 16.5 13.5 17.1716 13.5 18V22C13.5 22.8284 12.8284 23.5 12 23.5C11.1716 23.5 10.5 22.8284 10.5 22V18C10.5 17.1716 11.1716 16.5 12 16.5Z" fill="#0C244E"/>
<path id="Caminho 63506 (Stroke)" opacity="0.5" fill-rule="evenodd" clip-rule="evenodd" d="M3.93934 3.93934C4.52513 3.35355 5.47487 3.35355 6.06066 3.93934L9.06066 6.93934C9.64645 7.52513 9.64645 8.47487 9.06066 9.06066C8.47487 9.64645 7.52513 9.64645 6.93934 9.06066L3.93934 6.06066C3.35355 5.47487 3.35355 4.52513 3.93934 3.93934Z" fill="#0C244E"/>
<path id="Caminho 63507 (Stroke)" opacity="0.9" fill-rule="evenodd" clip-rule="evenodd" d="M14.9393 14.9393C15.5251 14.3536 16.4749 14.3536 17.0607 14.9393L20.0607 17.9393C20.6464 18.5251 20.6464 19.4749 20.0607 20.0607C19.4749 20.6464 18.5251 20.6464 17.9393 20.0607L14.9393 17.0607C14.3536 16.4749 14.3536 15.5251 14.9393 14.9393Z" fill="#0C244E"/>
<path id="Caminho 63508 (Stroke)" opacity="0.4" fill-rule="evenodd" clip-rule="evenodd" d="M0.5 12C0.5 11.1716 1.17157 10.5 2 10.5H6C6.82843 10.5 7.5 11.1716 7.5 12C7.5 12.8284 6.82843 13.5 6 13.5H2C1.17157 13.5 0.5 12.8284 0.5 12Z" fill="#0C244E"/>
<path id="Caminho 63509 (Stroke)" opacity="0.8" fill-rule="evenodd" clip-rule="evenodd" d="M16.5 12C16.5 11.1716 17.1716 10.5 18 10.5H22C22.8284 10.5 23.5 11.1716 23.5 12C23.5 12.8284 22.8284 13.5 22 13.5H18C17.1716 13.5 16.5 12.8284 16.5 12Z" fill="#0C244E"/>
<path id="Caminho 63510 (Stroke)" opacity="0.2" fill-rule="evenodd" clip-rule="evenodd" d="M9.06066 14.9393C9.64645 15.5251 9.64645 16.4749 9.06066 17.0607L6.06066 20.0607C5.47487 20.6464 4.52513 20.6464 3.93934 20.0607C3.35355 19.4749 3.35355 18.5251 3.93934 17.9393L6.93934 14.9393C7.52513 14.3536 8.47487 14.3536 9.06066 14.9393Z" fill="#0C244E"/>
<path id="Caminho 63511 (Stroke)" opacity="0.7" fill-rule="evenodd" clip-rule="evenodd" d="M20.0607 3.93934C20.6464 4.52513 20.6464 5.47487 20.0607 6.06066L17.0607 9.06066C16.4749 9.64645 15.5251 9.64645 14.9393 9.06066C14.3536 8.47487 14.3536 7.52513 14.9393 6.93934L17.9393 3.93934C18.5251 3.35355 19.4749 3.35355 20.0607 3.93934Z" fill="#0C244E"/>
</g>
</svg>
